<svg width="166" height="166" viewBox="0 0 166 166" fill="none" xmlns="http://www.w3.org/2000/svg">
<g clip-path="url(#clip0_35_1042)">
<path d="M134.317 35.1172H6V104.34H134.317V35.1172ZM129.964 85.345C122.628 86.2787 116.9 92.428 116.581 99.9645H23.7358C23.4234 92.428 17.6887 86.2787 10.3525 85.345V52.8046C17.2568 51.9243 22.7456 46.4153 23.6228 39.4857H116.687C117.564 46.4153 123.053 51.9243 129.958 52.8046V85.345H129.964Z" fill="#016B86"/>
<path d="M30.3608 62.1885C26.2209 62.1885 22.8452 65.5699 22.8452 69.7317C22.8452 73.8934 26.2143 77.2748 30.3608 77.2748C34.5073 77.2748 37.8764 73.8934 37.8764 69.7317C37.8764 65.5699 34.5073 62.1885 30.3608 62.1885ZM30.3608 74.9338C27.5034 74.9338 25.171 72.5995 25.171 69.725C25.171 66.8504 27.4968 64.5161 30.3608 64.5161C33.2248 64.5161 35.5506 66.8504 35.5506 69.725C35.5506 72.5995 33.2248 74.9338 30.3608 74.9338Z" fill="#016B86"/>
<path d="M109.956 62.1885C105.816 62.1885 102.44 65.5699 102.44 69.7317C102.44 73.8934 105.809 77.2748 109.956 77.2748C114.102 77.2748 117.471 73.8934 117.471 69.7317C117.471 65.5699 114.102 62.1885 109.956 62.1885ZM109.956 74.9338C107.098 74.9338 104.766 72.5995 104.766 69.725C104.766 66.8504 107.092 64.5161 109.956 64.5161C112.82 64.5161 115.146 66.8504 115.146 69.725C115.146 72.5995 112.82 74.9338 109.956 74.9338Z" fill="#016B86"/>
<path d="M142.949 42.6201H140.623V110.669H13.4758V113.003H142.949V42.6201Z" fill="#016B86"/>
<path d="M151.474 51.1772H149.149V119.226H22.0015V121.56H151.474V51.1772Z" fill="#016B86"/>
<path d="M157.674 59.7275V127.783H30.5205V130.117H160V59.7275H157.674Z" fill="#016B86"/>
<path d="M80.9434 48.3159L70.1585 63.4823L59.3668 48.3159H54.177L66.5369 65.6566H56.1107V69.098H67.9257V73.0663H56.1107V76.5078H67.9257V91.1406H72.3912V76.5078H84.1995V73.0663H72.3912V69.098H84.1995V65.6566H73.78L86.1399 48.3159H80.9434Z" fill="#016B86"/>
</g>
<defs>
<clipPath id="clip0_35_1042">
<rect width="154" height="95" fill="white" transform="translate(6 35.1172)"/>
</clipPath>
</defs>
</svg>
