<svg width="50" height="51" viewBox="0 0 50 51" fill="none" xmlns="http://www.w3.org/2000/svg">
<rect y="0.857422" width="50" height="50" rx="10" fill="#016B86"/>
<path d="M24.74 35.1934C20.012 35.1934 16.796 31.6894 16.796 25.9054C16.796 20.1214 20.012 16.7854 24.74 16.7854C29.444 16.7854 32.66 20.1454 32.66 25.9054C32.66 31.6894 29.444 35.1934 24.74 35.1934ZM24.74 32.2894C27.38 32.2894 29.06 29.9134 29.06 25.9054C29.06 22.1134 27.38 19.8334 24.74 19.8334C22.076 19.8334 20.42 22.1134 20.42 25.9054C20.42 29.9134 22.076 32.2894 24.74 32.2894ZM30.476 39.6814C26.708 39.6814 24.116 37.5934 22.988 34.7614L26.588 34.4014C27.26 36.1294 29.084 36.8494 30.86 36.8494C31.652 36.8494 32.3 36.7294 32.828 36.5374L33.476 39.1534C32.828 39.4654 31.772 39.6814 30.476 39.6814Z" fill="white"/>
</svg>
