<svg width="26" height="45" viewBox="0 0 26 45" fill="none" xmlns="http://www.w3.org/2000/svg">
<g clip-path="url(#clip0_220_3481)">
<path d="M16.3985 30.7732V34.3055C16.3985 35.0533 16.1809 35.4272 15.7456 35.4272C15.4889 35.4272 15.2378 35.3044 14.9923 35.0589V30.0198C15.2378 29.7743 15.4889 29.6515 15.7456 29.6515C16.1809 29.6515 16.3985 30.0254 16.3985 30.7732ZM22.057 30.7899V31.56H20.5503V30.7899C20.5503 30.031 20.8014 29.6515 21.3037 29.6515C21.8059 29.6515 22.057 30.031 22.057 30.7899ZM5.88515 27.1403H7.67644V25.5667H2.45323V27.1403H4.21104V36.666H5.88515V27.1403ZM10.7066 36.666H12.1965V28.3959H10.7066V34.7241C10.3718 35.1928 10.0537 35.4272 9.75234 35.4272C9.55144 35.4272 9.43426 35.31 9.40077 35.0756C9.38961 35.0421 9.38403 34.8468 9.38403 34.4897V28.3959H7.89408V34.9417C7.89408 35.4886 7.93872 35.8959 8.02801 36.1638C8.16193 36.5767 8.4856 36.7832 8.99899 36.7832C9.5347 36.7832 10.1039 36.4428 10.7066 35.762V36.666ZM17.8885 34.1883V30.8903C17.8885 30.0756 17.8383 29.5232 17.7378 29.233C17.5481 28.608 17.1519 28.2955 16.5492 28.2955C15.9912 28.2955 15.4722 28.5968 14.9923 29.1995V25.5667H13.5023V36.666H14.9923V35.8624C15.4945 36.4763 16.0135 36.7832 16.5492 36.7832C17.1519 36.7832 17.5481 36.4763 17.7378 35.8624C17.8383 35.5611 17.8885 35.0031 17.8885 34.1883ZM23.547 34.0209V33.8033H22.0235C22.0235 34.3725 22.0124 34.7129 21.9901 34.8245C21.9119 35.2263 21.6887 35.4272 21.3204 35.4272C20.807 35.4272 20.5503 35.0421 20.5503 34.272V32.8156H23.547V31.0912C23.547 30.2095 23.3963 29.5622 23.095 29.1493C22.6597 28.5801 22.0682 28.2955 21.3204 28.2955C20.5615 28.2955 19.9644 28.5801 19.5291 29.1493C19.2166 29.5622 19.0604 30.2095 19.0604 31.0912V33.9874C19.0604 34.8691 19.2222 35.5165 19.5459 35.9294C19.9811 36.4986 20.5838 36.7832 21.3539 36.7832C22.1575 36.7832 22.7601 36.4874 23.1619 35.8959C23.3628 35.5946 23.48 35.2932 23.5135 34.9919C23.5358 34.8915 23.547 34.5678 23.547 34.0209ZM13.3684 18.7363V15.2207C13.3684 14.4506 13.1285 14.0656 12.6485 14.0656C12.1686 14.0656 11.9287 14.4506 11.9287 15.2207V18.7363C11.9287 19.5176 12.1686 19.9082 12.6485 19.9082C13.1285 19.9082 13.3684 19.5176 13.3684 18.7363ZM25.4052 31.3089C25.4052 33.9205 25.2601 35.8736 24.97 37.1682C24.8137 37.8267 24.4901 38.3792 23.999 38.8256C23.5079 39.272 22.9387 39.5287 22.2914 39.5957C20.2378 39.8301 17.1407 39.9473 13.0001 39.9473C8.85948 39.9473 5.76238 39.8301 3.70881 39.5957C3.06149 39.5287 2.4895 39.272 1.99285 38.8256C1.4962 38.3792 1.17533 37.8267 1.03024 37.1682C0.74006 35.9182 0.594971 33.9651 0.594971 31.3089C0.594971 28.6973 0.74006 26.7441 1.03024 25.4495C1.18649 24.791 1.51015 24.2386 2.00122 23.7921C2.49229 23.3457 3.06707 23.0834 3.72555 23.0053C5.76796 22.7821 8.85948 22.6705 13.0001 22.6705C17.1407 22.6705 20.2378 22.7821 22.2914 23.0053C22.9387 23.0834 23.5107 23.3457 24.0074 23.7921C24.504 24.2386 24.8249 24.791 24.97 25.4495C25.2601 26.6995 25.4052 28.6526 25.4052 31.3089ZM8.69765 9.94727H10.4052L8.37957 16.627V21.1638H6.70546V16.627C6.54921 15.8011 6.20881 14.618 5.68426 13.0778C5.27131 11.9283 4.90859 10.8848 4.59609 9.94727H6.37064L7.55926 14.3502L8.69765 9.94727ZM14.8918 15.522V18.4517C14.8918 19.3557 14.7356 20.0142 14.4231 20.4272C13.999 20.9964 13.4075 21.281 12.6485 21.281C11.9008 21.281 11.3148 20.9964 10.8907 20.4272C10.5782 20.0031 10.422 19.3446 10.422 18.4517V15.522C10.422 14.6292 10.5782 13.9763 10.8907 13.5633C11.3148 12.9941 11.9008 12.7095 12.6485 12.7095C13.4075 12.7095 13.999 12.9941 14.4231 13.5633C14.7356 13.9763 14.8918 14.6292 14.8918 15.522ZM20.5001 12.81V21.1638H18.9767V20.243C18.3851 20.935 17.8104 21.281 17.2523 21.281C16.7389 21.281 16.4097 21.0745 16.2646 20.6616C16.1753 20.3937 16.1307 19.9752 16.1307 19.406V12.81H17.6541V18.954C17.6541 19.3223 17.6597 19.5176 17.6709 19.5399C17.7043 19.7854 17.8215 19.9082 18.0224 19.9082C18.3238 19.9082 18.6418 19.6682 18.9767 19.1883V12.81H20.5001Z" fill="#AAACB2"/>
</g>
<defs>
<clipPath id="clip0_220_3481">
<rect width="25.72" height="30" fill="white" transform="matrix(1 0 0 -1 0.140137 39.9473)"/>
</clipPath>
</defs>
</svg>
