<svg width="166" height="166" viewBox="0 0 166 166" fill="none" xmlns="http://www.w3.org/2000/svg">
<g clip-path="url(#clip0_35_1501)">
<path d="M83.3302 123.981C80.0084 123.981 77.3013 126.682 77.3013 129.997C77.3013 133.311 80.0084 136.012 83.3302 136.012C86.6521 136.012 89.3592 133.311 89.3592 129.997C89.3592 126.682 86.6521 123.981 83.3302 123.981ZM83.3302 132.769C81.7993 132.769 80.5522 131.524 80.5522 129.997C80.5522 128.469 81.7993 127.225 83.3302 127.225C84.8611 127.225 86.1083 128.469 86.1083 129.997C86.1083 131.524 84.8611 132.769 83.3302 132.769Z" fill="#016B86"/>
<path d="M136.208 145.874H125.935L125.35 109.095C125.35 109.019 125.344 108.948 125.332 108.871C124.635 104.377 121.75 100.667 117.051 98.0488C116.773 96.7748 115.881 92.6228 115.219 89.0134C112.961 76.64 114.846 69.1085 117.033 60.3858C117.453 58.7049 117.89 56.9651 118.298 55.1663C119.321 50.6663 121.053 39.2365 114.965 30.4075C110.963 24.5983 104.402 21.0065 95.4591 19.7208C95.3823 19.709 95.3055 19.7031 95.2286 19.7031H95.1518C88.8509 14.6488 76.5329 14.9437 66.1064 20.4934C59.8233 23.8375 45.537 33.9934 48.6342 55.9389C49.2785 60.486 50.0646 64.9919 50.8271 69.3503C52.2339 77.389 53.5638 84.9794 53.1737 89.0193C52.689 94.0442 50.8862 96.9223 50.4075 97.6123C45.2297 100.243 42.0615 104.118 41.3286 108.865C41.3167 108.936 41.3108 109.013 41.3108 109.089L40.7257 145.868H30.4587C29.5603 145.868 28.8333 146.593 28.8333 147.49C28.8333 148.386 29.5603 149.111 30.4587 149.111H136.208C137.106 149.111 137.833 148.386 137.833 147.49C137.833 146.593 137.106 145.868 136.208 145.868V145.874ZM122.099 109.26L122.684 145.874H111.655L113.8 112.61C113.83 112.162 113.67 111.726 113.363 111.395C113.055 111.071 112.624 110.882 112.175 110.882H106.506L110.502 107.692C110.863 107.403 111.087 106.972 111.111 106.506C111.134 106.046 110.957 105.592 110.626 105.268L103.9 98.6621C103.261 98.0311 102.233 98.0429 101.6 98.6798C100.968 99.3168 100.98 100.343 101.618 100.974L107.038 106.3L101.299 110.882H94.3065L100.554 96.0199L109.834 98.6208C113.96 99.7768 121.011 102.696 122.099 109.26ZM75.8828 110.882L73.6426 105.551C76.7575 106.819 80.0439 107.467 83.3362 107.467C86.6285 107.467 89.9149 106.819 93.0298 105.551L90.7897 110.882H75.8887H75.8828ZM58.848 53.7921L62.093 59.3006C62.3885 59.8078 62.9264 60.1027 63.4938 60.1027C63.6357 60.1027 63.7776 60.085 63.9194 60.0437C64.6287 59.8491 65.1193 59.2121 65.1193 58.4808V53.6388C78.4776 50.5896 87.2668 42.4095 91.0911 38.1336C93.1126 44.2613 98.2904 50.0647 101.931 51.8105L102.221 58.0385C102.256 58.7875 102.8 59.4126 103.539 59.5542C103.64 59.5719 103.746 59.5837 103.846 59.5837C104.473 59.5837 105.058 59.218 105.324 58.6282L107.57 53.6623C109.131 54.4467 110.224 56.2338 110.224 58.3157C110.224 61.1171 108.244 63.3936 105.815 63.3936C105.661 63.3936 105.496 63.3818 105.295 63.3523C104.443 63.2344 103.651 63.8006 103.48 64.638C101.524 74.3693 93.4495 84.4427 83.3244 84.4427C73.1993 84.4427 65.1193 74.3752 63.1688 64.638C63.0151 63.8713 62.3413 63.3346 61.5788 63.3346C61.5078 63.3346 61.431 63.3346 61.3601 63.3523C61.1532 63.3818 60.9877 63.3936 60.8399 63.3936C58.4106 63.3936 56.4305 61.1171 56.4305 58.3157C56.4305 56.3399 57.4176 54.6237 58.8539 53.7862L58.848 53.7921ZM75.5045 87.3915L75.599 86.0645C77.9811 87.0966 80.57 87.6864 83.3244 87.6864C86.0788 87.6864 88.6736 87.0908 91.0556 86.0586L91.1443 87.3385C91.298 90.9951 93.7746 94.115 97.3033 95.0999L97.3979 95.1235L94.9449 100.962C87.7634 105.291 78.8972 105.285 71.7157 100.962L69.2627 95.1235L69.3573 95.0999C72.886 94.1091 75.3626 90.9892 75.5104 87.3856L75.5045 87.3915ZM54.0307 68.8019C53.2742 64.467 52.488 59.9906 51.8497 55.4965C49.0362 35.5799 61.9511 26.3912 67.6314 23.3656C77.0354 18.3585 88.3781 17.9987 93.4613 22.5459C93.7568 22.8113 94.1469 22.9587 94.543 22.9587H95.0986C103.043 24.1206 108.823 27.2464 112.275 32.2535C117.63 40.0268 116.046 50.3714 115.112 54.4585C114.71 56.222 114.279 57.9441 113.859 59.6073C111.678 68.3123 109.615 76.5397 111.997 89.6032C112.423 91.9387 112.943 94.4865 113.339 96.3738C112.494 96.0612 111.619 95.7663 110.691 95.5068L98.1663 91.9918C95.997 91.3843 94.472 89.4616 94.3775 87.1674L94.1824 84.3837C100.288 80.4322 104.633 73.4906 106.353 66.6197C110.319 66.313 113.463 62.7095 113.463 58.3216C113.463 54.2462 110.863 50.8727 107.298 50.1591L107.068 50.1178C106.223 49.9527 105.531 50.2535 105.182 51.0202L105.135 51.1263L105.111 50.5896C105.076 49.8642 104.562 49.2449 103.852 49.0857C101.346 48.5077 94.3243 41.4127 93.5322 34.3531C93.4554 33.6808 92.9766 33.1323 92.3205 32.9613C91.6704 32.7961 90.9788 33.0497 90.5887 33.5982C90.4941 33.7339 80.7709 47.2397 63.1569 50.7312C62.4122 50.8786 61.8507 51.5333 61.8507 52.3236V52.5123L60.9345 50.9494C60.5089 50.224 59.6932 50.047 58.9012 50.2593L58.8421 50.277C55.5735 51.2266 53.1619 54.4703 53.1619 58.3157C53.1619 62.7036 56.3005 66.3071 60.2725 66.6138C61.9925 73.4847 66.3369 80.4322 72.4486 84.3778L72.2477 87.2028C72.1531 89.4499 70.634 91.3725 68.4589 91.98L55.934 95.495C55.5912 95.5894 55.2661 95.6956 54.9351 95.8017C55.5616 94.1504 56.1468 91.9977 56.401 89.3378C56.8324 84.8614 55.5262 77.4185 54.0189 68.8019H54.0307ZM44.5558 109.26C45.6434 102.69 52.6949 99.7768 56.8206 98.6208L66.1005 96.0199L72.3481 110.882H65.3557L59.6164 106.3L65.0425 100.974C65.6808 100.343 65.6926 99.3168 65.0602 98.6798C64.4277 98.0429 63.3993 98.0311 62.7609 98.6621L56.0345 105.268C55.7035 105.592 55.5262 106.046 55.5498 106.506C55.5735 106.972 55.7981 107.403 56.1586 107.692L60.1543 110.882H54.4859C54.0367 110.882 53.6052 111.065 53.2978 111.395C52.9905 111.72 52.8309 112.162 52.8604 112.61L55.006 145.874H43.9825L44.5676 109.26H44.5558ZM58.2628 145.874L56.2177 114.126H110.431L108.386 145.874H58.2747H58.2628Z" fill="#016B86"/>
</g>
<defs>
<clipPath id="clip0_35_1501">
<rect width="109" height="133" fill="white" transform="translate(28.8333 16.1172)"/>
</clipPath>
</defs>
</svg>
