<svg width="80" height="73" viewBox="0 0 80 73" fill="none" xmlns="http://www.w3.org/2000/svg">
<g clip-path="url(#clip0_528_359)">
<path d="M49.3771 1.02954H39.6824V7.9064H49.3771V1.02954Z" fill="white"/>
<path d="M40.3745 13.7788C46.1115 13.7788 50.7615 18.7052 50.7615 24.781H29.9875C29.9875 18.7052 34.6375 13.7788 40.3745 13.7788Z" fill="white"/>
<path d="M1.90527 71.1688V51.8525L10.3302 46.0416V30.5794H17.8076V24.2021H63.5632V30.5794H70.1363V46.0416L79.0958 51.8525V71.1688H1.90527Z" fill="white"/>
<path d="M63.226 37.8296H59.0708V41.9559H63.226V37.8296Z" fill="#016B86"/>
<path d="M56.3019 37.8296H52.1467V41.9559H56.3019V37.8296Z" fill="#016B86"/>
<path d="M49.3771 37.8296H45.2219V41.9559H49.3771V37.8296Z" fill="#016B86"/>
<path d="M42.4521 37.8296H38.2969V41.9559H42.4521V37.8296Z" fill="#016B86"/>
<path d="M35.527 37.8296H31.3718V41.9559H35.527V37.8296Z" fill="#016B86"/>
<path d="M28.6032 37.8296H24.448V41.9559H28.6032V37.8296Z" fill="#016B86"/>
<path d="M21.6782 37.8296H17.5229V41.9559H21.6782V37.8296Z" fill="#016B86"/>
<path d="M24.448 47.7898H18.9084V71.1699H24.448V47.7898Z" fill="white"/>
<path d="M36.9126 47.7898H31.373V71.1699H36.9126V47.7898Z" fill="white"/>
<path d="M49.3772 47.7898H43.8376V71.1699H49.3772V47.7898Z" fill="white"/>
<path d="M61.8416 47.7898H56.302V71.1699H61.8416V47.7898Z" fill="white"/>
<path d="M1.84331 72.7418C1.71987 72.7419 1.59761 72.7178 1.48355 72.671C1.36949 72.6241 1.26589 72.5553 1.17865 72.4686C1.09141 72.3819 1.02227 72.2789 0.975187 72.1656C0.928108 72.0523 0.904023 71.9308 0.904299 71.8082V52.5535C0.905526 52.4008 0.944468 52.2507 1.01772 52.1165C1.09098 51.9823 1.1963 51.868 1.32443 51.7837L9.21575 46.5611V31.9343C9.2174 31.6877 9.31672 31.4516 9.49223 31.2771C9.66775 31.1026 9.90537 31.0037 10.1537 31.0018H16.1407V25.0564C16.1427 24.8102 16.2419 24.5745 16.4172 24.4003C16.5925 24.226 16.8297 24.1272 17.0777 24.125H28.6484L28.6841 23.7203C28.8949 21.2268 29.9106 18.8674 31.5802 16.9932C33.2497 15.119 35.4838 13.83 37.9503 13.3179L38.3032 13.2428V0.740723H48.937C49.0603 0.740586 49.1824 0.764577 49.2963 0.811326C49.4102 0.858074 49.5137 0.926663 49.6009 1.01317C49.6881 1.09968 49.7573 1.2024 49.8045 1.31547C49.8517 1.42855 49.876 1.54977 49.876 1.67218V8.54903C49.8741 8.79547 49.7747 9.03128 49.5992 9.20555C49.4237 9.37982 49.1862 9.47857 48.9381 9.48048H40.1802V13.1155L40.5877 13.151C43.326 13.3837 45.8926 14.5725 47.8319 16.5063C49.7712 18.4401 50.9576 20.9938 51.1806 23.714L51.2142 24.1208H62.7828C63.0311 24.1224 63.2689 24.2211 63.4446 24.3954C63.6203 24.5697 63.7199 24.8056 63.7218 25.0522V30.9977H69.7088C69.9574 30.9993 70.1952 31.0981 70.371 31.2726C70.5467 31.4471 70.6462 31.6833 70.6478 31.9301V46.5611L78.5392 51.7857C78.6676 51.8703 78.7731 51.9849 78.8463 52.1196C78.9196 52.2542 78.9584 52.4046 78.9593 52.5576V71.8103C78.9579 72.0569 78.8589 72.2931 78.6836 72.4678C78.5082 72.6425 78.2707 72.7417 78.0224 72.7439L1.84331 72.7418ZM70.6415 70.881H77.075V53.0572L70.6436 48.7974L70.6415 70.881ZM56.7926 70.881H60.4573V49.3648H56.7926V70.881ZM44.3281 70.881H47.9896V49.3648H44.3281V70.881ZM31.8635 70.881H35.5303V49.3648H31.8677L31.8635 70.881ZM19.3979 70.881H23.0647V49.3648H19.3979V70.881ZM2.77917 53.0572V70.881H9.21155V48.7974L2.77917 53.0572ZM61.389 47.4967C61.5127 47.4957 61.6353 47.5191 61.7499 47.5654C61.8645 47.6117 61.9687 47.6801 62.0566 47.7666C62.1445 47.853 62.2142 47.9559 62.2619 48.0693C62.3095 48.1826 62.3342 48.3043 62.3343 48.4271V70.8799H68.7667V32.8606H11.0896V70.8799H17.523V48.4282C17.5233 48.1814 17.622 47.9448 17.7977 47.7702C17.9733 47.5956 18.2114 47.4972 18.4599 47.4967H24.0016C24.1249 47.4961 24.2471 47.5199 24.3612 47.5665C24.4752 47.6131 24.5789 47.6817 24.6661 47.7683C24.7533 47.8549 24.8224 47.9578 24.8693 48.0711C24.9162 48.1843 24.9401 48.3057 24.9396 48.4282V70.8799H29.9876V48.4282C29.9878 48.1814 30.0866 47.9448 30.2622 47.7702C30.4378 47.5956 30.676 47.4972 30.9245 47.4967H36.4651C36.5884 47.4966 36.7105 47.5206 36.8244 47.5673C36.9383 47.614 37.0418 47.6826 37.129 47.7691C37.2162 47.8556 37.2854 47.9584 37.3326 48.0715C37.3798 48.1846 37.4041 48.3057 37.4041 48.4282V70.8799H42.4458V48.4282C42.4477 48.1817 42.5472 47.9459 42.7227 47.7716C42.8982 47.5974 43.1356 47.4986 43.3838 47.4967H48.9244C49.0476 47.4966 49.1696 47.5205 49.2834 47.5672C49.3973 47.6139 49.5008 47.6824 49.588 47.7688C49.6752 47.8552 49.7444 47.9578 49.7916 48.0707C49.8389 48.1837 49.8633 48.3048 49.8634 48.4271V70.8799H54.9104V48.4282C54.9123 48.1817 55.0117 47.9459 55.1872 47.7716C55.3627 47.5974 55.6002 47.4986 55.8483 47.4967H61.389ZM18.0093 30.9977H61.8343V25.9889H18.0156L18.0093 30.9977ZM39.9071 14.9784C37.564 15.063 35.3304 15.9844 33.6165 17.5733C31.9026 19.1622 30.8237 21.3119 30.5779 23.6274L30.5274 24.1166H49.3214L49.271 23.6274C49.0252 21.3121 47.9464 19.1625 46.2328 17.5737C44.5191 15.9848 42.2857 15.0633 39.9428 14.9784H39.9134H39.9071ZM40.1676 7.61759H47.9854V2.60361H40.1676V7.61759Z" fill="#016B86"/>
</g>
<defs>
<clipPath id="clip0_528_359">
<rect width="78.1916" height="72" fill="white" transform="translate(0.904297 0.740723)"/>
</clipPath>
</defs>
</svg>
