<svg width="166" height="166" viewBox="0 0 166 166" fill="none" xmlns="http://www.w3.org/2000/svg">
<g clip-path="url(#clip0_35_1014)">
<path d="M95.5287 131.747C94.8628 137.253 91.5213 141.592 85.7695 141.592H37.3331C31.3162 141.592 27.9334 136.841 27.4973 130.97V29.807C27.4973 24.3664 31.9232 19.9444 37.3685 19.9444H50.6459C51.5594 20.3272 53.3214 21.2928 55.1837 23.5597C55.3841 23.8011 55.5668 24.0013 55.7436 24.1662C57.2169 25.65 59.2559 26.5744 61.513 26.5744C63.7701 26.5744 65.8151 25.6559 67.2825 24.1662C67.4534 24.0013 67.642 23.8011 67.8424 23.5597C69.7046 21.2928 71.4667 20.3272 72.3801 19.9444H85.6576C91.1029 19.9444 95.5287 24.3664 95.5287 29.807V51.5222H99.3593V29.807C99.3593 22.2585 93.2127 16.1172 85.6576 16.1172H37.3685C29.8134 16.1172 23.6667 22.2585 23.6667 29.807V135.427C23.6667 142.976 29.8134 149.117 37.3685 149.117H85.6576C93.2127 149.117 99.3593 142.976 99.3593 135.427V113.347H95.5287V131.747Z" fill="#016B86"/>
<path d="M68.9915 91.7085H64.2593V96.4366H68.9915V91.7085Z" fill="#016B86"/>
<path d="M76.4701 91.7085H71.7378V96.4366H76.4701V91.7085Z" fill="#016B86"/>
<path d="M83.9486 91.7085H79.2163V96.4366H83.9486V91.7085Z" fill="#016B86"/>
<path d="M93.7608 91.7085H89.0286V96.4366H93.7608V91.7085Z" fill="#016B86"/>
<path d="M101.239 91.7085H96.5071V96.4366H101.239V91.7085Z" fill="#016B86"/>
<path d="M108.718 91.7085H103.986V96.4366H108.718V91.7085Z" fill="#016B86"/>
<path d="M118.53 91.7085H113.798V96.4366H118.53V91.7085Z" fill="#016B86"/>
<path d="M126.008 91.7085H121.276V96.4366H126.008V91.7085Z" fill="#016B86"/>
<path d="M133.487 91.7085H128.755V96.4366H133.487V91.7085Z" fill="#016B86"/>
<path d="M81.3319 64.3994H72.5392C69.6633 64.3994 67.3237 66.737 67.3237 69.6104V78.3954C67.3237 81.2688 69.6633 83.6063 72.5392 83.6063H81.3319C84.2078 83.6063 86.5474 81.2688 86.5474 78.3954V69.6104C86.5474 66.737 84.2078 64.3994 81.3319 64.3994ZM77.5485 76.7762H76.3227C75.7923 76.7762 75.3621 76.3463 75.3621 75.8164V66.7546H78.5091V69.1452C78.5091 69.7929 79.0395 70.3228 79.6877 70.3228C79.7231 70.3228 79.7525 70.3169 79.782 70.311C79.8115 70.311 79.8468 70.3228 79.8763 70.3228H84.1901V71.789H79.6877C79.0395 71.789 78.5091 72.3189 78.5091 72.9666V75.8164C78.5091 76.3463 78.0789 76.7762 77.5485 76.7762ZM69.681 75.6044V74.1383H73.0048V75.6044H69.681ZM73.0048 70.3169V71.7831H69.681V70.3169H73.0048ZM80.8664 74.1383H84.1901V75.6044H80.8664V74.1383ZM83.6597 67.9617H80.8664V66.7488H81.3319C82.2925 66.7488 83.1411 67.2316 83.6597 67.9617ZM72.5333 66.7488H72.9989V67.9617H70.2055C70.7241 67.2316 71.5727 66.7488 72.5333 66.7488ZM69.6751 78.3895V77.9538H73.7945C74.3249 78.5779 75.0792 79.0019 75.9278 79.102V81.2511H72.5333C70.9598 81.2511 69.6751 79.9675 69.6751 78.3954V78.3895ZM81.326 81.2452H78.2851V79.0372C78.9923 78.8723 79.6111 78.4896 80.0708 77.9538H84.1901V78.3895C84.1901 79.9616 82.9054 81.2452 81.3319 81.2452H81.326Z" fill="#016B86"/>
<path d="M132.285 54.2188H65.4557C60.2815 54.2188 56.0796 58.4228 56.0796 63.5867V101.27C56.0796 106.44 60.2874 110.638 65.4557 110.638H132.285C137.459 110.638 141.667 106.434 141.667 101.27V63.5926C141.667 58.4228 137.459 54.2246 132.285 54.2246V54.2188ZM138.225 101.276C138.225 104.55 135.561 107.211 132.285 107.211H65.4557C62.1791 107.211 59.5153 104.55 59.5153 101.276V63.5926C59.5153 60.3188 62.1791 57.6515 65.4557 57.6515H132.285C135.561 57.6515 138.225 60.3129 138.225 63.5926V101.276Z" fill="#016B86"/>
<path d="M126.268 66.2188C124.671 66.2188 123.18 66.7016 121.942 67.5318C120.711 66.7075 119.237 66.2188 117.646 66.2188C113.35 66.2188 109.855 69.7104 109.855 74.0028C109.855 78.2952 113.35 81.7868 117.646 81.7868C119.237 81.7868 120.711 81.2981 121.942 80.4738C123.18 81.304 124.665 81.7868 126.268 81.7868C130.564 81.7868 134.059 78.2952 134.059 74.0028C134.059 69.7104 130.564 66.2188 126.268 66.2188ZM113.385 74.0028C113.385 71.6593 115.295 69.7516 117.64 69.7516C118.3 69.7516 118.925 69.9047 119.485 70.1755C118.842 71.3061 118.471 72.6132 118.471 74.0028C118.471 75.3924 118.842 76.6995 119.485 77.83C118.925 78.1009 118.3 78.254 117.64 78.254C115.295 78.254 113.385 76.3463 113.385 74.0028ZM126.268 78.254C123.922 78.254 122.013 76.3463 122.013 74.0028C122.013 71.6593 123.922 69.7516 126.268 69.7516C128.613 69.7516 130.523 71.6593 130.523 74.0028C130.523 76.3463 128.613 78.254 126.268 78.254Z" fill="#016B86"/>
</g>
<defs>
<clipPath id="clip0_35_1014">
<rect width="118" height="133" fill="white" transform="translate(23.6667 16.1172)"/>
</clipPath>
</defs>
</svg>
