<svg width="166" height="166" viewBox="0 0 166 166" fill="none" xmlns="http://www.w3.org/2000/svg">
<g clip-path="url(#clip0_35_1070)">
<path d="M144.834 39.7015C136.95 28.4777 121.376 25.7442 110.119 33.6008L92.8794 45.6332C84.1476 51.7218 80.5447 62.4206 83.0334 72.1478L87.3509 69.1367C86.1883 61.8111 89.1675 54.1174 95.6588 49.5856L112.898 37.5533C116.398 35.1094 120.413 33.9387 124.391 33.9387C130.725 33.9387 136.968 36.9136 140.874 42.4652C147.226 51.5045 145.016 64.0076 135.939 70.3376L118.699 82.3699C114.303 85.4353 108.974 86.612 103.694 85.6827C101.46 85.2905 99.3465 84.5362 97.4148 83.4682L93.0974 86.4793C95.9918 88.4525 99.292 89.8102 102.853 90.4378C104.318 90.6972 105.777 90.824 107.237 90.824C112.305 90.824 117.246 89.2792 121.485 86.3224L138.724 74.29C149.981 66.4334 152.73 50.9132 144.846 39.6894L144.834 39.7015Z" fill="#016B86"/>
<path d="M79.3458 96.0798C79.6909 98.2521 79.6788 100.485 79.2852 102.717C78.3527 107.979 75.4219 112.571 71.0258 115.637L53.7862 127.669C49.3901 130.735 44.0614 131.911 38.7812 130.982C33.5009 130.053 28.8928 127.132 25.8167 122.751C22.7406 118.37 21.5598 113.06 22.4923 107.798C23.4249 102.53 26.3556 97.9444 30.7518 94.8789L47.9913 82.8466C51.4065 80.463 55.3849 79.22 59.4661 79.22C60.6348 79.22 61.8156 79.3225 62.9964 79.5277C65.2308 79.9199 67.3441 80.6742 69.2758 81.7423L73.5811 78.7372C65.2611 73.0771 53.9376 72.7995 45.2119 78.8881L27.9724 90.9204C22.5166 94.7281 18.8773 100.418 17.7207 106.954C16.5642 113.489 18.0296 120.078 21.8505 125.515C25.6714 130.952 31.3876 134.579 37.9395 135.731C39.4049 135.991 40.8642 136.117 42.3235 136.117C47.3918 136.117 52.333 134.579 56.5656 131.616L73.8051 119.583C79.261 115.776 82.9002 110.079 84.0568 103.55C84.6866 100.008 84.5352 96.4479 83.6632 93.0626L79.3458 96.0737V96.0798Z" fill="#016B86"/>
<path d="M65.3642 97.5702C64.6012 97.5702 63.8503 97.2141 63.378 96.5383C62.609 95.4461 62.8754 93.9435 63.9714 93.1772L99.934 68.0806C101.03 67.3142 102.538 67.5797 103.307 68.6719C104.076 69.7642 103.809 71.2667 102.713 72.033L66.7508 97.1296C66.327 97.4253 65.8425 97.5641 65.3642 97.5641V97.5702Z" fill="#016B86"/>
</g>
<defs>
<clipPath id="clip0_35_1070">
<rect width="132" height="107" fill="white" transform="translate(17.3333 29.1172)"/>
</clipPath>
</defs>
</svg>
