<svg width="80" height="73" viewBox="0 0 80 73" fill="none" xmlns="http://www.w3.org/2000/svg">
<g clip-path="url(#clip0_285_1578)">
<path d="M54.8158 17.8285V0.740723H25.1828V17.8285H0.904297V72.7407H79.0959V17.8285H54.8158ZM49.848 70.4969H41.1257V59.9963H49.8525L49.848 70.4969ZM38.8774 70.4969H30.1507V59.9963H38.8774V70.4969ZM76.8506 70.4969H52.0918V57.7525H27.9069V70.4969H3.14807V20.0723H27.4281V2.98449H52.575V20.0723H76.8506V70.4969Z" fill="#016B86"/>
<path d="M16.288 47.1226H8.91431V52.1171H16.288V47.1226Z" fill="#016B86"/>
<path d="M29.9662 47.1226H22.5925V52.1171H29.9662V47.1226Z" fill="#016B86"/>
<path d="M43.643 47.1226H36.2693V52.1171H43.643V47.1226Z" fill="#016B86"/>
<path d="M57.3197 47.1226H49.946V52.1171H57.3197V47.1226Z" fill="#016B86"/>
<path d="M70.9965 47.1226H63.6228V52.1171H70.9965V47.1226Z" fill="#016B86"/>
<path d="M16.288 36.7661H8.91431V41.7607H16.288V36.7661Z" fill="#016B86"/>
<path d="M29.9662 36.7661H22.5925V41.7607H29.9662V36.7661Z" fill="#016B86"/>
<path d="M43.643 36.7661H36.2693V41.7607H43.643V36.7661Z" fill="#016B86"/>
<path d="M57.3197 36.7661H49.946V41.7607H57.3197V36.7661Z" fill="#016B86"/>
<path d="M70.9965 36.7661H63.6228V41.7607H70.9965V36.7661Z" fill="#016B86"/>
<path d="M16.288 26.4097H8.91431V31.4043H16.288V26.4097Z" fill="#016B86"/>
<path d="M29.9662 26.4097H22.5925V31.4043H29.9662V26.4097Z" fill="#016B86"/>
<path d="M43.643 26.4097H36.2693V31.4043H43.643V26.4097Z" fill="#016B86"/>
<path d="M57.3197 26.4097H49.946V31.4043H57.3197V26.4097Z" fill="#016B86"/>
<path d="M70.9965 26.4097H63.6228V31.4043H70.9965V26.4097Z" fill="#016B86"/>
<path d="M41.9984 6.66772H38.0001V9.9568H34.7065V13.9552H38.0001V17.2487H41.9984V13.9596H45.2905V9.9568H41.9984V6.66772Z" fill="#016B86"/>
</g>
<defs>
<clipPath id="clip0_285_1578">
<rect width="78.1916" height="72" fill="white" transform="translate(0.904297 0.740723)"/>
</clipPath>
</defs>
</svg>
