<svg width="166" height="166" viewBox="0 0 166 166" fill="none" xmlns="http://www.w3.org/2000/svg">
<g clip-path="url(#clip0_31_413)">
<path d="M120.91 85.7187C119.231 85.7187 117.67 86.2483 116.392 87.1428C115.732 83.0999 112.21 79.9985 107.962 79.9985C105.983 79.9985 104.169 80.6753 102.714 81.8052C101.824 77.8799 98.3135 74.9374 94.1193 74.9374C92.14 74.9374 90.3197 75.5965 88.8471 76.7029V58.2712C88.8471 53.2867 84.7883 49.2319 79.7989 49.2319C74.8094 49.2319 70.7507 53.2867 70.7507 58.2712V102.273L63.1517 91.9508C60.0473 87.7313 54.2272 86.7544 49.9093 89.7204C47.7651 91.1917 46.3337 93.4103 45.8742 95.9703C45.4147 98.5302 45.992 101.108 47.4941 103.226L72.5238 138.607C72.5238 138.607 72.5651 138.66 72.5886 138.689C76.612 143.727 83.404 149.106 90.3786 149.106H105.624C114.059 149.106 122.189 143.432 124.963 135.623C127.596 128.208 128.515 117.674 128.822 110.141C128.822 110.118 128.822 110.094 128.822 110.071V93.6222C128.822 89.2614 125.269 85.7069 120.899 85.7069L120.91 85.7187ZM125.299 110.041C124.998 117.327 124.121 127.467 121.641 134.452C119.391 140.796 112.504 145.586 105.63 145.586H90.3845C84.6705 145.586 78.7445 140.719 75.3867 136.535L50.3865 101.196C49.4322 99.8484 49.0728 98.2183 49.3615 96.5941C49.6501 94.9698 50.5573 93.5633 51.9181 92.6335C54.6573 90.7562 58.339 91.3741 60.3124 94.0459L71.1042 108.705C71.5578 109.317 72.353 109.57 73.0776 109.335C73.8021 109.1 74.2911 108.423 74.2911 107.658V58.2771C74.2911 55.2405 76.7652 52.7688 79.8048 52.7688C82.8444 52.7688 85.3185 55.2405 85.3185 58.2771L85.3067 96.5646H88.8412L88.853 83.5295C88.9649 80.7223 91.2858 78.4684 94.1252 78.4684C96.9645 78.4684 99.4032 80.8342 99.4032 83.7413L99.415 99.5718H102.949V88.5022C102.949 85.7599 105.2 83.5236 107.962 83.5236C110.725 83.5236 112.975 85.754 112.975 88.5022L112.987 103.132H116.522V93.6222C116.522 91.2034 118.489 89.2379 120.91 89.2379C123.331 89.2379 125.299 91.2034 125.299 93.6222V110.035V110.041Z" fill="#016B86"/>
<path d="M79.6339 38.4447C80.6118 38.4447 81.4011 37.6561 81.4011 36.6792V17.8827C81.4011 16.9058 80.6118 16.1172 79.6339 16.1172C78.6561 16.1172 77.8667 16.9058 77.8667 17.8827V36.6792C77.8667 37.6561 78.6561 38.4447 79.6339 38.4447Z" fill="#016B86"/>
<path d="M63.3814 44.1353C63.729 44.4825 64.1767 44.6532 64.6303 44.6532C65.0839 44.6532 65.5375 44.4825 65.8791 44.1353C66.5683 43.4468 66.5683 42.3286 65.8791 41.6401L52.572 28.346C51.8827 27.6575 50.7635 27.6575 50.0743 28.346C49.3851 29.0345 49.3851 30.1527 50.0743 30.8412L63.3814 44.1353Z" fill="#016B86"/>
<path d="M60.1827 57.8768C60.1827 56.8999 59.3933 56.1113 58.4155 56.1113H39.6005C38.6226 56.1113 37.8333 56.8999 37.8333 57.8768C37.8333 58.8537 38.6226 59.6423 39.6005 59.6423H58.4155C59.3933 59.6423 60.1827 58.8537 60.1827 57.8768Z" fill="#016B86"/>
<path d="M99.0791 57.8768C99.0791 58.8537 99.8685 59.6423 100.846 59.6423H119.661C120.639 59.6423 121.429 58.8537 121.429 57.8768C121.429 56.8999 120.639 56.1113 119.661 56.1113H100.846C99.8685 56.1113 99.0791 56.8999 99.0791 57.8768Z" fill="#016B86"/>
<path d="M94.6317 44.6532C95.0853 44.6532 95.5389 44.4825 95.8805 44.1353L109.188 30.8412C109.877 30.1527 109.877 29.0345 109.188 28.346C108.498 27.6575 107.379 27.6575 106.69 28.346L93.3829 41.6401C92.6937 42.3286 92.6937 43.4468 93.3829 44.1353C93.7304 44.4825 94.1781 44.6532 94.6317 44.6532Z" fill="#016B86"/>
</g>
<defs>
<clipPath id="clip0_31_413">
<rect width="91" height="133" fill="white" transform="translate(37.8333 16.1172)"/>
</clipPath>
</defs>
</svg>
