<svg width="89" height="99" viewBox="0 0 89 99" fill="none" xmlns="http://www.w3.org/2000/svg">
<path d="M18.3872 41.5762C18.3872 41.5762 19.6286 38.719 20.4828 39.1603C21.337 39.6015 20.4733 41.4941 20.6673 42.6869C20.8612 43.8797 22.4736 44.5313 23.9846 43.7402C25.4956 42.9492 27.7136 39.0944 27.7136 39.0944" stroke="#016B86" stroke-width="2.00007" stroke-linecap="round" stroke-linejoin="round"/>
<path d="M18.7258 41.0272L17.9997 41.078L16.4509 43.2486C16.9509 43.1599 17.4631 43.1648 17.9613 43.2631L19.021 41.6526L18.7258 41.0272Z" fill="#016B86"/>
<path d="M8.05716 56.308C8.10368 56.7049 8.15975 57.1044 8.2084 57.4351C8.24046 57.6523 8.34874 57.8509 8.51384 57.9956C8.67895 58.1402 8.8901 58.2214 9.10958 58.2246L15.9754 58.3245C16.2139 58.3291 16.445 58.2413 16.6203 58.0795L17.1698 57.5678C17.2878 57.4583 17.3582 57.3071 17.3662 57.1463C17.3878 56.703 17.4305 55.7383 17.4472 54.8042L16.055 55.9904C15.8911 56.1299 15.6836 56.2079 15.4683 56.2109L8.05716 56.308Z" fill="#016B86"/>
<path d="M18.8857 43.4816L18.8711 43.4583L18.8639 43.4581C18.7074 43.3293 18.5157 43.2508 18.3139 43.2329C17.4592 43.143 16.5973 43.145 15.7431 43.2388L15.7082 43.2361C15.4666 43.2773 15.2324 43.3534 15.0127 43.4622C14.5878 43.6588 14.2269 43.9712 13.9713 44.3636C13.3427 45.3427 10.8384 49.0998 10.4508 49.9829C10.1688 50.6278 9.0013 50.6676 8.20182 51.8626C7.72438 52.5767 7.86303 54.7088 8.05111 56.3107L15.4609 56.2088C15.6762 56.2059 15.8837 56.1279 16.0477 55.9883L17.4398 54.8021C17.4725 54.094 17.4491 53.3844 17.3698 52.68C17.1815 51.8637 16.8253 51.0955 16.3242 50.4241C16.2926 50.3822 16.2725 50.3328 16.2655 50.2808C16.2586 50.2288 16.2653 50.1759 16.2848 50.1272C16.691 49.1171 18.8308 46.9326 19.2139 46.0461C19.287 45.8631 19.3495 45.676 19.4011 45.4858C19.5041 45.1259 19.4727 44.7408 19.3126 44.4024L18.9092 43.5483C18.9045 43.5251 18.8965 43.5027 18.8857 43.4816Z" fill="white" stroke="#016B86" stroke-width="2.00007" stroke-linecap="round" stroke-linejoin="round"/>
<path d="M8.64722 51.9922L13.3373 51.9916" stroke="#016B86" stroke-width="2.00007" stroke-linecap="round"/>
<path d="M62.0516 89.9746H2.30998C2.13226 89.9746 1.96182 89.904 1.83616 89.7783C1.71049 89.6526 1.63989 89.4822 1.63989 89.3045V76.7605L2.80919 73.2298V59.3215C2.80919 59.1437 2.87979 58.9733 3.00545 58.8476C3.13112 58.722 3.30156 58.6514 3.47928 58.6514H62.0516C62.2293 58.6514 62.3997 58.722 62.5254 58.8476C62.6511 58.9733 62.7217 59.1437 62.7217 59.3215V89.3065C62.7211 89.4839 62.6503 89.6538 62.5247 89.779C62.3991 89.9043 62.229 89.9746 62.0516 89.9746Z" fill="white"/>
<path d="M1.53662 83.2422H38.2333V89.7796H2.87679C2.52136 89.7796 2.18048 89.6384 1.92915 89.387C1.67782 89.1357 1.53662 88.7948 1.53662 88.4394V83.2422Z" fill="white"/>
<path d="M31.137 73.9795H38.3389V81.4319H31.137C30.7816 81.4319 30.4407 81.2908 30.1894 81.0394C29.9381 80.7881 29.7969 80.4472 29.7969 80.0918V75.3196C29.7969 74.9642 29.9381 74.6233 30.1894 74.372C30.4407 74.1207 30.7816 73.9795 31.137 73.9795Z" fill="white"/>
<path d="M46.9658 61.7285H58.7382V70.6404C58.7382 70.9958 58.597 71.3367 58.3457 71.588C58.0943 71.8393 57.7535 71.9805 57.398 71.9805H48.3059C47.9505 71.9805 47.6097 71.8393 47.3583 71.588C47.107 71.3367 46.9658 70.9958 46.9658 70.6404V61.7285Z" fill="#016B86"/>
<path d="M57.7331 73.1855H47.9709C47.4158 73.1855 46.9658 73.6355 46.9658 74.1906V74.7843C46.9658 75.3394 47.4158 75.7894 47.9709 75.7894H57.7331C58.2882 75.7894 58.7382 75.3394 58.7382 74.7843V74.1906C58.7382 73.6355 58.2882 73.1855 57.7331 73.1855Z" fill="#016B86"/>
<path d="M19.8233 61.66V58.6533H3.28216C3.15775 58.6533 3.03845 58.7027 2.95049 58.7907C2.86252 58.8787 2.8131 58.998 2.8131 59.1224V73.2297L1.6438 76.7604V77.9069H19.3535C19.4779 77.9069 19.5972 77.8575 19.6852 77.7696C19.7732 77.6816 19.8226 77.5623 19.8226 77.4379V64.8034H40.9652V80.7937C40.9652 80.9181 41.0146 81.0374 41.1025 81.1253C41.1905 81.2133 41.3098 81.2627 41.4342 81.2627H59.8536C59.978 81.2627 60.0973 81.2133 60.1852 81.1253C60.2732 81.0374 60.3226 80.9181 60.3226 80.7937V64.8034H62.7142V61.66H19.8233Z" fill="white"/>
<path d="M19.8232 58.6533H61.38C61.7355 58.6533 62.0763 58.7945 62.3277 59.0458C62.579 59.2972 62.7202 59.6381 62.7202 59.9935V61.66H19.8232V58.6533Z" fill="white"/>
<path d="M62.0516 89.9746H2.30998C2.13226 89.9746 1.96182 89.904 1.83616 89.7783C1.71049 89.6526 1.63989 89.4822 1.63989 89.3045V76.7605L2.80919 73.2298V59.3215C2.80919 59.1437 2.87979 58.9733 3.00545 58.8476C3.13112 58.722 3.30156 58.6514 3.47928 58.6514H62.0516C62.2293 58.6514 62.3997 58.722 62.5254 58.8476C62.6511 58.9733 62.7217 59.1437 62.7217 59.3215V89.3065C62.7211 89.4839 62.6503 89.6538 62.5247 89.779C62.3991 89.9043 62.229 89.9746 62.0516 89.9746Z" stroke="#016B86" stroke-width="2.00007" stroke-miterlimit="10"/>
<path d="M38.0049 58.6533L38.3399 61.7283V89.9745" stroke="#016B86" stroke-width="2.00007" stroke-miterlimit="10"/>
<path d="M1.64185 83.4375H38.3385" stroke="#016B86" stroke-width="2.00007" stroke-miterlimit="10"/>
<path d="M31.137 73.9805H38.3388V81.4329H31.137C30.7816 81.4329 30.4407 81.2917 30.1894 81.0404C29.9381 80.7891 29.7969 80.4482 29.7969 80.0928V75.3206C29.7969 74.9652 29.9381 74.6243 30.1894 74.373C30.4407 74.1217 30.7816 73.9805 31.137 73.9805Z" stroke="#016B86" stroke-width="2.00007" stroke-miterlimit="10"/>
<path d="M1.64209 77.9096H19.3518C19.4762 77.9096 19.5955 77.8602 19.6835 77.7722C19.7715 77.6843 19.8209 77.5649 19.8209 77.4405V64.8034H40.9635V80.7937C40.9635 80.9181 41.0129 81.0374 41.1008 81.1253C41.1888 81.2133 41.3081 81.2627 41.4325 81.2627H59.8519C59.9763 81.2627 60.0956 81.2133 60.1836 81.1253C60.2715 81.0374 60.3209 80.9181 60.3209 80.7937V64.8034H62.7125V61.66H19.8236V58.6533" stroke="#016B86" stroke-width="2.00007" stroke-miterlimit="10"/>
<path d="M31.5129 59.6787H26.8433V61.1596H31.5129V59.6787Z" fill="#016B86"/>
<path d="M46.9658 61.7285H58.7382V70.6404C58.7382 70.9958 58.597 71.3367 58.3457 71.588C58.0943 71.8393 57.7535 71.9805 57.398 71.9805H48.3059C47.9505 71.9805 47.6097 71.8393 47.3583 71.588C47.107 71.3367 46.9658 70.9958 46.9658 70.6404V61.7285Z" stroke="#016B86" stroke-width="2.00007" stroke-miterlimit="10"/>
<path d="M57.7331 73.1855H47.9709C47.4158 73.1855 46.9658 73.6355 46.9658 74.1906V74.7843C46.9658 75.3394 47.4158 75.7894 47.9709 75.7894H57.7331C58.2882 75.7894 58.7382 75.3394 58.7382 74.7843V74.1906C58.7382 73.6355 58.2882 73.1855 57.7331 73.1855Z" stroke="#016B86" stroke-width="2.00007" stroke-miterlimit="10"/>
<path d="M55.2963 48.3076H32.2681V56.7916H55.2963V48.3076Z" fill="white" stroke="#016B86" stroke-width="2.00007" stroke-miterlimit="10"/>
<path d="M28.7601 56.5342H58.8041C59.1595 56.5342 59.5004 56.6754 59.7518 56.9267C60.0031 57.178 60.1443 57.5189 60.1443 57.8744V58.584H27.4199V57.8744C27.4199 57.5189 27.5611 57.178 27.8124 56.9267C28.0638 56.6754 28.4047 56.5342 28.7601 56.5342Z" fill="white" stroke="#016B86" stroke-width="2.00007" stroke-miterlimit="10"/>
<path d="M58.8041 1.03906H28.7601C28.0199 1.03906 27.4199 1.63908 27.4199 2.37924V46.7658C27.4199 47.506 28.0199 48.106 28.7601 48.106H58.8041C59.5443 48.106 60.1443 47.506 60.1443 46.7658V2.37924C60.1443 1.63908 59.5443 1.03906 58.8041 1.03906Z" fill="white" stroke="#016B86" stroke-width="2.00007" stroke-miterlimit="10"/>
<path d="M57.6563 3.52734H29.908V45.8232H57.6563V3.52734Z" fill="white" stroke="#016B86" stroke-width="2.00007" stroke-miterlimit="10" stroke-linecap="round" stroke-linejoin="round"/>
<path d="M42.2032 31.126H34.4533C34.0832 31.126 33.7832 31.426 33.7832 31.796V34.0917C33.7832 34.4617 34.0832 34.7617 34.4533 34.7617H42.2032C42.5733 34.7617 42.8733 34.4617 42.8733 34.0917V31.796C42.8733 31.426 42.5733 31.126 42.2032 31.126Z" fill="white" stroke="#016B86" stroke-width="1.80006" stroke-miterlimit="10"/>
<path d="M42.2032 25.6724H34.4533C34.0832 25.6724 33.7832 25.9724 33.7832 26.3424V28.6381C33.7832 29.0081 34.0832 29.3081 34.4533 29.3081H42.2032C42.5733 29.3081 42.8733 29.0081 42.8733 28.6381V26.3424C42.8733 25.9724 42.5733 25.6724 42.2032 25.6724Z" fill="white" stroke="#016B86" stroke-width="1.80006" stroke-miterlimit="10"/>
<path d="M42.2032 20.2178H34.4533C34.0832 20.2178 33.7832 20.5178 33.7832 20.8878V23.1835C33.7832 23.5535 34.0832 23.8535 34.4533 23.8535H42.2032C42.5733 23.8535 42.8733 23.5535 42.8733 23.1835V20.8878C42.8733 20.5178 42.5733 20.2178 42.2032 20.2178Z" fill="white" stroke="#016B86" stroke-width="1.80006" stroke-miterlimit="10"/>
<path d="M42.2032 14.7642H34.4533C34.0832 14.7642 33.7832 15.0642 33.7832 15.4342V17.7299C33.7832 18.0999 34.0832 18.3999 34.4533 18.3999H42.2032C42.5733 18.3999 42.8733 18.0999 42.8733 17.7299V15.4342C42.8733 15.0642 42.5733 14.7642 42.2032 14.7642Z" fill="white" stroke="#016B86" stroke-width="1.80006" stroke-miterlimit="10"/>
<path d="M53.1114 31.126H45.3615C44.9914 31.126 44.6914 31.426 44.6914 31.796V34.0917C44.6914 34.4617 44.9914 34.7617 45.3615 34.7617H53.1114C53.4815 34.7617 53.7815 34.4617 53.7815 34.0917V31.796C53.7815 31.426 53.4815 31.126 53.1114 31.126Z" fill="white" stroke="#016B86" stroke-width="1.80006" stroke-miterlimit="10"/>
<path d="M53.1114 25.6724H45.3615C44.9914 25.6724 44.6914 25.9724 44.6914 26.3424V28.6381C44.6914 29.0081 44.9914 29.3081 45.3615 29.3081H53.1114C53.4815 29.3081 53.7815 29.0081 53.7815 28.6381V26.3424C53.7815 25.9724 53.4815 25.6724 53.1114 25.6724Z" fill="white" stroke="#016B86" stroke-width="1.80006" stroke-miterlimit="10"/>
<path d="M53.1114 20.2178H45.3615C44.9914 20.2178 44.6914 20.5178 44.6914 20.8878V23.1835C44.6914 23.5535 44.9914 23.8535 45.3615 23.8535H53.1114C53.4815 23.8535 53.7815 23.5535 53.7815 23.1835V20.8878C53.7815 20.5178 53.4815 20.2178 53.1114 20.2178Z" fill="white" stroke="#016B86" stroke-width="1.80006" stroke-miterlimit="10"/>
<path d="M53.1114 14.7642H45.3615C44.9914 14.7642 44.6914 15.0642 44.6914 15.4342V17.7299C44.6914 18.0999 44.9914 18.3999 45.3615 18.3999H53.1114C53.4815 18.3999 53.7815 18.0999 53.7815 17.7299V15.4342C53.7815 15.0642 53.4815 14.7642 53.1114 14.7642Z" fill="white" stroke="#016B86" stroke-width="1.80006" stroke-miterlimit="10"/>
<path d="M42.2032 38.0059H34.4533C34.0832 38.0059 33.7832 38.3059 33.7832 38.6759V40.9716C33.7832 41.3416 34.0832 41.6416 34.4533 41.6416H42.2032C42.5733 41.6416 42.8733 41.3416 42.8733 40.9716V38.6759C42.8733 38.3059 42.5733 38.0059 42.2032 38.0059Z" fill="white" stroke="#016B86" stroke-width="1.80006" stroke-miterlimit="10"/>
<path d="M53.1114 38.0059H45.3615C44.9914 38.0059 44.6914 38.3059 44.6914 38.6759V40.9716C44.6914 41.3416 44.9914 41.6416 45.3615 41.6416H53.1114C53.4815 41.6416 53.7815 41.3416 53.7815 40.9716V38.6759C53.7815 38.3059 53.4815 38.0059 53.1114 38.0059Z" fill="white" stroke="#016B86" stroke-width="1.80006" stroke-miterlimit="10"/>
<path d="M51.3864 7.4917H53.1728C53.3328 7.4917 53.4862 7.55524 53.5993 7.66834C53.7124 7.78144 53.7759 7.93483 53.7759 8.09477V12.3371C53.7759 12.497 53.7124 12.6504 53.5993 12.7635C53.4862 12.8766 53.3328 12.9402 53.1728 12.9402H34.389C34.229 12.9402 34.0756 12.8766 33.9625 12.7635C33.8494 12.6504 33.7859 12.497 33.7859 12.3371V8.09477C33.7859 7.93483 33.8494 7.78144 33.9625 7.66834C34.0756 7.55524 34.229 7.4917 34.389 7.4917H49.0981" fill="white"/>
<path d="M51.3864 7.4917H53.1728C53.3328 7.4917 53.4862 7.55524 53.5993 7.66834C53.7124 7.78144 53.7759 7.93483 53.7759 8.09477V12.3371C53.7759 12.497 53.7124 12.6504 53.5993 12.7635C53.4862 12.8766 53.3328 12.9402 53.1728 12.9402H34.389C34.229 12.9402 34.0756 12.8766 33.9625 12.7635C33.8494 12.6504 33.7859 12.497 33.7859 12.3371V8.09477C33.7859 7.93483 33.8494 7.78144 33.9625 7.66834C34.0756 7.55524 34.229 7.4917 34.389 7.4917H49.0981" stroke="#016B86" stroke-width="1.80006" stroke-miterlimit="10" stroke-linecap="round"/>
<path d="M6.38523 60.8203H3.96094V63.2446H6.38523V60.8203Z" fill="#016B86"/>
<path d="M5.399 67.9092H17.3362V75.3469H4.6311L5.399 73.3273V67.9092Z" fill="#016B86" stroke="#016B86" stroke-width="2.00007" stroke-linecap="round" stroke-linejoin="round"/>
<path d="M19.7166 88.6973C20.7206 88.6973 21.5344 87.8834 21.5344 86.8794C21.5344 85.8754 20.7206 85.0615 19.7166 85.0615C18.7126 85.0615 17.8987 85.8754 17.8987 86.8794C17.8987 87.8834 18.7126 88.6973 19.7166 88.6973Z" fill="#016B86"/>
<path d="M69.6534 85.5592C72.984 85.5592 75.684 82.8592 75.684 79.5286C75.684 76.198 72.984 73.498 69.6534 73.498C66.3228 73.498 63.6228 76.198 63.6228 79.5286C63.6228 82.8592 66.3228 85.5592 69.6534 85.5592Z" fill="white"/>
<path d="M86.361 82.0212C86.6609 81.9978 86.941 81.8621 87.1453 81.6412C87.3496 81.4204 87.4632 81.1307 87.4633 80.8298V77.9799C87.4632 77.6789 87.3497 77.389 87.1454 77.1679C86.9411 76.9469 86.661 76.8109 86.361 76.7872L82.5844 76.4923C82.4675 76.4829 82.3556 76.4412 82.261 76.372C82.1663 76.3028 82.0927 76.2088 82.0483 76.1003L80.806 73.103C80.7603 72.9947 80.7458 72.8758 80.764 72.7597C80.7822 72.6435 80.8325 72.5348 80.9091 72.4457L83.3717 69.5643C83.5674 69.3356 83.6696 69.0414 83.6578 68.7407C83.646 68.4399 83.5211 68.1547 83.3081 67.942L81.2904 65.925C81.0773 65.7125 80.7919 65.5882 80.4911 65.577C80.1903 65.5659 79.8964 65.6686 79.6681 65.8647L76.7868 68.3273C76.6975 68.4037 76.5889 68.4539 76.4728 68.4723C76.3568 68.4908 76.238 68.4768 76.1294 68.4318L73.1321 67.1888C73.0239 67.1439 72.9301 67.0702 72.8608 66.9757C72.7916 66.8812 72.7496 66.7695 72.7394 66.6528L72.4453 62.8768C72.423 62.5761 72.2877 62.2949 72.0668 62.0898C71.8458 61.8846 71.5554 61.7705 71.2539 61.7705H68.404C68.103 61.7705 67.813 61.884 67.5921 62.0885C67.3713 62.293 67.2357 62.5733 67.2126 62.8735L66.9177 66.6494C66.9081 66.7662 66.8663 66.878 66.7972 66.9726C66.728 67.0672 66.6341 67.1409 66.5257 67.1855L63.5271 68.4318C63.4183 68.4768 63.2993 68.4908 63.183 68.4724C63.0668 68.454 62.9579 68.4037 62.8684 68.3273L59.987 65.8647C59.7588 65.6695 59.4655 65.5674 59.1654 65.5785C58.8654 65.5897 58.5805 65.7134 58.3674 65.925L56.3491 67.9433C56.1364 68.1562 56.0117 68.4414 55.9999 68.742C55.9881 69.0427 56.0901 69.3368 56.2855 69.5656L58.748 72.447C58.8243 72.5364 58.8743 72.6451 58.8925 72.7611C58.9107 72.8771 58.8964 72.9959 58.8512 73.1044L57.6129 76.1003C57.5686 76.2089 57.495 76.303 57.4004 76.3722C57.3057 76.4414 57.1937 76.483 57.0768 76.4923L53.2989 76.7872C52.9985 76.8104 52.7179 76.9462 52.5132 77.1673C52.3085 77.3884 52.1947 77.6786 52.1946 77.9799V80.8291C52.1945 81.1302 52.3079 81.4202 52.5123 81.6413C52.7166 81.8624 52.9968 81.9983 53.2969 82.0219L57.0748 82.316C57.1916 82.3259 57.3035 82.3678 57.398 82.4371C57.4926 82.5063 57.5662 82.6003 57.6109 82.7087L58.8532 85.706C58.8985 85.8146 58.9128 85.9337 58.8945 86.0499C58.8763 86.1662 58.8263 86.2751 58.75 86.3647L56.2888 89.2441C56.093 89.4725 55.9904 89.7663 56.0016 90.067C56.0128 90.3677 56.1369 90.6531 56.3491 90.8664L58.3641 92.8813C58.5769 93.0941 58.8622 93.2188 59.163 93.2303C59.4638 93.2419 59.7578 93.1395 59.9864 92.9436L62.8677 90.4811C62.9574 90.4048 63.0663 90.3549 63.1825 90.3367C63.2988 90.3185 63.4178 90.3327 63.5264 90.3779L66.5251 91.6202C66.6339 91.6653 66.7281 91.7396 66.7973 91.8349C66.8665 91.9302 66.908 92.0429 66.9171 92.1603L67.2119 95.9362C67.2352 96.2363 67.3708 96.5165 67.5916 96.721C67.8125 96.9255 68.1023 97.0391 68.4033 97.0392H71.2532C71.5542 97.0391 71.844 96.9255 72.0649 96.721C72.2857 96.5165 72.4213 96.2363 72.4446 95.9362L72.7388 92.1603C72.7483 92.0429 72.79 91.9304 72.8593 91.8351C72.9285 91.7398 73.0227 91.6655 73.1314 91.6202L76.1301 90.3779C76.2385 90.3327 76.3573 90.3184 76.4733 90.3366C76.5894 90.3548 76.6981 90.4048 76.7874 90.4811L79.6681 92.9436C79.8967 93.1395 80.1907 93.2419 80.4915 93.2303C80.7923 93.2188 81.0776 93.0941 81.2904 92.8813L83.3054 90.8664C83.5182 90.6536 83.643 90.3684 83.6548 90.0677C83.6666 89.767 83.5646 89.4728 83.369 89.2441L80.9065 86.3627C80.8302 86.2731 80.7802 86.1642 80.762 86.0479C80.7438 85.9317 80.7581 85.8126 80.8033 85.704L82.0456 82.7067C82.0904 82.5984 82.1641 82.5045 82.2586 82.4352C82.3532 82.366 82.4649 82.3241 82.5817 82.314L86.361 82.0212ZM69.8286 85.3643C68.4501 85.3632 67.1146 84.8842 66.0497 84.0089C64.9848 83.1336 64.2563 81.9161 63.9884 80.5639C63.7204 79.2117 63.9297 77.8084 64.5804 76.5932C65.2311 75.3779 66.2831 74.4259 67.557 73.8993C68.831 73.3727 70.2481 73.3042 71.5669 73.7053C72.8858 74.1064 74.0247 74.9524 74.7898 76.0991C75.5548 77.2458 75.8986 78.6223 75.7625 79.9941C75.6264 81.3658 75.0189 82.648 74.0434 83.622C73.4908 84.1765 72.8338 84.6159 72.1103 84.9149C71.3869 85.2139 70.6114 85.3667 69.8286 85.3643Z" fill="white" stroke="#016B86" stroke-width="2.50009"/>
</svg>
