<svg width="144" height="97" viewBox="0 0 144 97" fill="none" xmlns="http://www.w3.org/2000/svg">
<path d="M30.6739 21.844H115.109L118.273 25.6172V73.4116L91.5603 87.7239H30.6739L28.0065 86.1421L25.4175 83.2208V26.3246L26.8043 23.4139L29.0897 21.8418L30.6739 21.844Z" fill="white"/>
<path d="M34.6995 87.7229V17.9613L36.7333 16.1406H43.0428L44.7852 17.9613V87.7229H34.6995Z" fill="white"/>
<path d="M99.1572 52.5206V17.6835L101.214 16.4971H107.338L108.897 18.6816V53.7093L102.749 50.1063L99.1572 52.5206Z" fill="white"/>
<path d="M86.5767 55.552L93.073 53.3125L102.587 48.7725L110.148 53.3125L115.43 55.552H118.468V72.0941L116.475 81.2947L111.461 88.3838L106.228 92.7273L102.587 93.9906L95.2989 90.4057L91.1981 85.5944L88.0041 79.4469L86.5767 74.5566V55.552Z" fill="white"/>
<path d="M94.4109 75.5151C94.1548 75.5147 93.9093 75.4127 93.7282 75.2315C93.5472 75.0504 93.4454 74.8048 93.4452 74.5487V63.3051C93.4423 63.1229 93.4945 62.944 93.595 62.7919C93.6956 62.6399 93.8398 62.5218 94.0087 62.4532L100.479 59.2201C100.69 59.107 100.938 59.0826 101.168 59.1522C101.397 59.2219 101.59 59.3799 101.703 59.5914C101.816 59.803 101.84 60.0508 101.771 60.2804C101.701 60.51 101.543 60.7025 101.331 60.8155L95.3766 63.8776V74.5487C95.3764 74.8048 95.2746 75.0504 95.0936 75.2315C94.9125 75.4127 94.667 75.5147 94.4109 75.5151Z" fill="#016B86"/>
<path d="M102.44 94.7883C102.321 94.7882 102.205 94.7592 102.1 94.7039L102.03 94.6663L101.31 94.487C99.1496 93.762 97.1117 92.7133 95.2658 91.3767C94.2036 90.5233 93.2111 89.5865 92.2979 88.5752L92.1073 88.3643H31.6036C29.6877 88.3578 27.8521 87.5938 26.4974 86.239C25.1426 84.8843 24.3786 83.0487 24.3721 81.1328V27.8003C24.3782 25.8843 25.1421 24.0485 26.4969 22.6937C27.8518 21.3389 29.6876 20.575 31.6036 20.5688H34.0141V18.7037C34.0553 17.9038 34.3933 17.1479 34.9621 16.5839C35.5309 16.0199 36.2895 15.6882 37.0897 15.6536H42.3627C43.191 15.6586 43.986 15.9808 44.5841 16.5538C45.1822 17.1268 45.5381 17.9073 45.5785 18.7346V20.5673H50.0718V14.1426H53.2853V11.7321C53.2967 8.96536 54.401 6.31527 56.3578 4.35933C58.3146 2.40339 60.9652 1.30015 63.7319 1.29004H80.112C82.8782 1.30154 85.5278 2.40556 87.4837 4.36163C89.4397 6.31771 90.5435 8.96739 90.5548 11.7336V14.1441H93.7668V20.5696H98.2639V18.7045C98.3051 17.9045 98.6432 17.1487 99.2119 16.5847C99.7807 16.0206 100.539 15.689 101.34 15.6544H106.613C107.441 15.6596 108.235 15.9818 108.833 16.5548C109.431 17.1278 109.787 17.9081 109.828 18.7353V20.5681H112.396C114.312 20.5744 116.148 21.3384 117.503 22.6932C118.857 24.048 119.621 25.8836 119.628 27.7996V69.7228C119.628 78.6417 116.065 86.335 109.595 91.385C107.87 92.6887 105.938 93.6931 103.88 94.356L103.532 94.49L102.854 94.6595L102.784 94.6972C102.678 94.7552 102.56 94.7865 102.44 94.7883ZM97.3381 52.9811C94.3468 54.4614 91.1597 55.5077 87.8731 56.0884L87.3458 56.1825V69.7296C87.3458 69.9609 87.3458 70.1906 87.3541 70.4219L87.3782 71.0998L87.4136 71.7205C87.7043 77.2443 89.8262 82.5141 93.4444 86.6981L94.5502 88.0419C95.1915 88.6803 95.8707 89.2795 96.5841 89.8363C98.1968 91.0142 99.988 91.9259 101.889 92.5367L102.449 92.7522L102.686 92.6535C103.016 92.5157 103.346 92.3831 103.674 92.2505C105.327 91.6766 106.886 90.8615 108.301 89.8317C114.167 85.2676 117.537 77.9404 117.537 69.7349V56.1758L116.993 56.0929C114.842 55.7633 112.733 55.2061 110.7 54.4304L109.83 54.0982V54.1509L108.474 53.5709C106.507 52.6513 104.607 51.5941 102.788 50.4071L102.451 50.1879L99.6974 51.8391L98.2579 52.6067V52.5269L97.3381 52.9811ZM87.3511 54.1713L88.0878 54.044C91.5394 53.4487 94.8669 52.279 97.9317 50.5834L98.2624 50.4011V22.507H45.5808V86.4329H90.5171L89.8821 85.4453C87.2817 81.3958 85.7694 76.7443 85.4912 71.9398L85.486 71.8456C85.4654 71.5503 85.45 71.2537 85.44 70.9559L85.4325 70.7586C85.4212 70.4038 85.4144 70.0693 85.4144 69.7319V54.4703L87.3511 54.1713ZM31.6028 22.507C30.1982 22.5096 28.8519 23.0688 27.8588 24.0621C26.8656 25.0554 26.3066 26.4018 26.3042 27.8064V81.2947C26.3331 82.6711 26.9015 83.981 27.8869 84.9423C28.8724 85.9035 30.1961 86.4391 31.5727 86.4337H34.0111V22.5063L31.6028 22.507ZM109.83 51.8602L110.214 52.0282C111.225 52.4696 112.268 52.8636 113.314 53.201C114.508 53.5531 115.722 53.8348 116.949 54.0447L117.698 54.1728V27.8079C117.695 26.4032 117.136 25.0568 116.143 24.0635C115.15 23.0703 113.803 22.5111 112.398 22.5085H109.83V51.8602ZM107.9 18.6148L107.872 18.5229C107.806 18.3092 107.689 18.1149 107.53 17.9573C107.371 17.7996 107.176 17.6834 106.962 17.619L106.872 17.5911H101.448C101.177 17.6033 100.916 17.6968 100.699 17.8595C100.482 18.0222 100.318 18.2466 100.231 18.5033L100.196 18.6058V49.4346L101.291 48.3409C101.361 48.2804 101.437 48.2262 101.517 48.1789C101.631 48.1052 101.742 48.0249 101.847 47.9386L102.399 47.6622L102.527 47.7473L102.607 47.6938L103.214 48.0991C104.57 49.003 105.757 49.7382 106.948 50.4034L107.901 50.936L107.9 18.6148ZM80.918 20.5733H91.8369V16.0792H80.9188L80.918 20.5733ZM52.0047 20.5733H62.9236V16.0792H52.0055L52.0047 20.5733ZM43.6486 18.6148L43.6207 18.5229C43.5548 18.3092 43.4373 18.1149 43.2787 17.9573C43.12 17.7996 42.9249 17.6834 42.7108 17.619L42.6204 17.5911H36.9707L36.8803 17.619C36.6662 17.6835 36.4713 17.7997 36.3128 17.9573C36.1542 18.115 36.0369 18.3092 35.9711 18.5229L35.9432 18.6148V86.4329H43.6493L43.6486 18.6148ZM64.8543 20.5733H78.9859V14.1486H82.1994V10.8936L82.1933 10.85C82.1395 10.4674 81.962 10.1129 81.6879 9.84057L81.5011 9.6545H81.3354L81.315 9.64471C81.1041 9.52496 80.8674 9.45778 80.625 9.44885C80.4592 9.44866 80.2956 9.48737 80.1474 9.56186C77.586 10.6334 74.8367 11.1837 72.0602 11.1806C69.2837 11.1775 66.5357 10.6211 63.9767 9.54377C63.7758 9.46986 63.5639 9.43039 63.35 9.42701C63.1542 9.41319 62.9586 9.45475 62.7854 9.54694C62.6122 9.63912 62.4685 9.77822 62.3707 9.94829L62.3556 9.95733C62.1602 10.042 61.9911 10.1775 61.8658 10.3498C61.7404 10.522 61.6635 10.7246 61.643 10.9366V14.1471H64.855L64.8543 20.5733ZM80.567 7.60407C81.2536 7.6044 81.9284 7.78269 82.5255 8.12157C83.0109 8.41626 83.413 8.83011 83.6935 9.32384C83.9741 9.81756 84.1238 10.3748 84.1285 10.9426V14.1486H88.6271V11.7381C88.6198 9.48279 87.7206 7.32197 86.1259 5.72723C84.5311 4.1325 82.3703 3.23333 80.115 3.22598H63.7319C61.4766 3.23333 59.3158 4.1325 57.721 5.72723C56.1263 7.32197 55.2271 9.48279 55.2198 11.7381V14.1486H59.7131V10.9381C59.6851 10.3784 59.8063 9.82126 60.0642 9.32374C60.3222 8.82622 60.7077 8.40617 61.1813 8.10651C61.6385 7.76194 62.183 7.55205 62.7532 7.50053C63.3234 7.44902 63.8967 7.55794 64.4083 7.81499C66.7533 8.81109 69.2744 9.32597 71.8222 9.32908C74.3699 9.33218 76.8923 8.82344 79.2397 7.83306C79.6661 7.68171 80.1153 7.60476 80.5677 7.60557L80.567 7.60407Z" fill="#016B86"/>
</svg>
