<svg width="166" height="166" viewBox="0 0 166 166" fill="none" xmlns="http://www.w3.org/2000/svg">
<g clip-path="url(#clip0_35_1445)">
<path d="M148.787 113.898C148.254 111.791 146.882 110.014 144.918 108.895C142.362 107.439 139.055 107.168 135.857 108.156L100.791 118.769C99.8421 115.778 97.1334 113.137 92.9792 111.374L58.249 97.696H42.7638C42.6178 94.719 40.1574 92.3345 37.1495 92.3345H21.7957C18.6929 92.3345 16.1667 94.8653 16.1667 97.974V135.446C16.1667 138.555 18.6929 141.086 21.7957 141.086H37.1495C40.2523 141.086 42.7784 138.555 42.7784 135.446V134.393H45.5163L86.2259 148.517L86.4377 148.576C87.927 148.927 89.4456 149.102 90.9715 149.102C93.7458 149.102 96.5202 148.517 99.0974 147.369L142.465 126.435C147.509 124.182 150.218 118.791 148.794 113.883L148.787 113.898ZM38.3979 135.446C38.3979 136.127 37.8284 136.697 37.1495 136.697H21.7957C21.1167 136.697 20.5473 136.127 20.5473 135.446V97.974C20.5473 97.2937 21.1167 96.7232 21.7957 96.7232H37.1495C37.8284 96.7232 38.3979 97.2937 38.3979 97.974V135.446ZM140.617 122.463L97.2502 143.397C94.2204 144.75 90.7817 145.087 87.5474 144.341L46.2463 130.012H42.7711V102.085H57.4094L91.3146 115.434C93.2567 116.26 97.6518 118.572 96.6443 122.17C95.4907 125.857 91.0226 126.523 88.825 126.062L64.2868 118.93L63.0676 123.143L87.6788 130.297L87.8175 130.333C91.9133 131.248 98.8783 129.697 100.842 123.421C100.85 123.392 100.857 123.355 100.871 123.326L137.128 112.354C139.157 111.733 141.26 111.864 142.749 112.713C143.698 113.254 144.304 114.022 144.545 114.995L144.575 115.097C145.297 117.526 144.034 120.942 140.617 122.47V122.463Z" fill="#016B86"/>
<path d="M54.9927 87.1803C51.1962 87.1803 49.2104 84.4374 49.2104 81.7237V75.3381H40.515C37.6239 75.3381 35.5212 73.3778 35.5212 70.6788C35.5212 67.5043 38.1204 65.7927 40.5735 65.7927H49.2104V65.4269H40.515C37.6239 65.4269 35.5212 63.4447 35.5212 60.7091C35.5212 57.5346 38.062 55.8742 40.5735 55.8742H44.8883L36.6894 45.963C36.2659 45.4656 35.2949 44.3245 35.2949 42.4593C35.2949 39.4604 37.9743 36.8345 41.0261 36.8345C43.4354 36.8345 44.6984 38.2754 45.173 38.8167L54.9416 50.4907L64.7393 38.7875C65.2577 38.2023 66.4769 36.8345 68.857 36.8345C71.9599 36.8345 74.5882 39.4384 74.5882 42.5179C74.5882 43.7101 74.1356 44.8366 73.2011 45.9557L65.0387 55.8742H69.3097C72.1862 55.8742 74.3619 57.9296 74.3619 60.6506C74.3619 63.3716 72.3103 65.4269 69.3681 65.4269H60.6728V65.7927H69.3097C72.1862 65.7927 74.3619 67.87 74.3619 70.6276C74.3619 73.3851 72.3103 75.3454 69.3681 75.3454H60.6728V81.731C60.6728 84.8397 58.2343 87.1877 55 87.1877L54.9927 87.1803ZM40.5735 69.4426C40.2449 69.4426 39.1717 69.5304 39.1717 70.6715C39.1717 71.5053 39.9018 71.6735 40.515 71.6735H52.8608V81.7164C52.8608 82.0163 52.963 83.5158 54.9927 83.5158C55.3285 83.5158 57.015 83.428 57.015 81.7164V71.6735H69.3608C70.7042 71.6735 70.7042 70.8763 70.7042 70.6129C70.7042 69.684 69.828 69.4353 69.3024 69.4353H57.015V61.7551H69.3608C70.7042 61.7551 70.7042 60.9431 70.7042 60.6359C70.7042 59.5753 69.536 59.5168 69.3024 59.5168H57.2852L70.3829 43.6077C70.8721 43.0226 70.9305 42.6934 70.9305 42.5032C70.9305 41.311 69.8354 40.4771 68.8497 40.4771C68.105 40.4771 67.8349 40.7843 67.4553 41.2086L54.9343 56.1741L42.3914 41.1866C42.0993 40.8575 41.7708 40.4771 41.0188 40.4771C40.077 40.4771 38.9381 41.3548 38.9381 42.4447C38.9381 42.9275 39.1644 43.2347 39.4637 43.5785L39.4856 43.6004L52.6564 59.5168H40.5735C40.15 59.5168 39.1717 59.6338 39.1717 60.6944C39.1717 61.3966 39.6243 61.7551 40.515 61.7551H52.8608V69.4353H40.5735V69.4426Z" fill="#016B86"/>
<path d="M107.252 87.5312C96.8267 87.5312 84.3933 81.7747 84.3933 54.3598C84.3933 26.945 96.8267 21.1885 107.252 21.1885C117.678 21.1885 130.038 26.945 130.038 54.3598C130.038 81.7747 117.649 87.5312 107.252 87.5312ZM107.252 24.8457C94.505 24.8457 88.0437 34.7789 88.0437 54.3598C88.0437 73.9408 94.505 83.874 107.252 83.874C120 83.874 126.388 74.2188 126.388 54.3598C126.388 34.5009 119.949 24.8457 107.252 24.8457ZM107.252 77.2616C95.1037 77.2616 95.1037 60.0213 95.1037 54.3598C95.1037 48.6984 95.1037 31.4581 107.252 31.4581C119.401 31.4581 119.401 48.6984 119.401 54.3598C119.401 60.0213 119.401 77.2616 107.252 77.2616ZM107.252 35.1153C103.602 35.1153 98.7541 37.1122 98.7541 54.3598C98.7541 71.6075 103.609 73.6044 107.252 73.6044C110.895 73.6044 115.751 71.6075 115.751 54.3598C115.751 37.1122 110.895 35.1153 107.252 35.1153Z" fill="#016B86"/>
</g>
<defs>
<clipPath id="clip0_35_1445">
<rect width="133" height="133" fill="white" transform="translate(16.1667 16.1172)"/>
</clipPath>
</defs>
</svg>
