<svg width="80" height="73" viewBox="0 0 80 73" fill="none" xmlns="http://www.w3.org/2000/svg">
<g clip-path="url(#clip0_528_521)">
<path d="M75.4977 50.0231H52.6435L51.6354 48.6177H75.4977C76.0107 48.617 76.5026 48.4071 76.8655 48.0339C77.2284 47.6607 77.4327 47.1547 77.4337 46.6267V23.1766L61.5031 39.5753C61.4408 39.6454 61.3653 39.7019 61.2812 39.7412C61.1972 39.7805 61.1062 39.8019 61.0139 39.804C60.9216 39.8061 60.8298 39.789 60.7441 39.7536C60.6583 39.7183 60.5805 39.6654 60.5152 39.5982C60.4499 39.531 60.3985 39.4509 60.3641 39.3627C60.3297 39.2745 60.3131 39.18 60.3152 39.085C60.3172 38.99 60.338 38.8964 60.3762 38.8099C60.4144 38.7234 60.4693 38.6458 60.5374 38.5817L77.4337 21.1893V4.44564C77.433 3.91749 77.2289 3.41116 76.8659 3.0377C76.503 2.66424 76.0109 2.45415 75.4977 2.45351H51.8609L41.4927 13.1187C41.4304 13.1889 41.355 13.2453 41.2709 13.2846C41.1868 13.3239 41.0959 13.3453 41.0035 13.3474C40.9112 13.3496 40.8194 13.3324 40.7337 13.2971C40.648 13.2617 40.5701 13.2088 40.5048 13.1416C40.4395 13.0744 40.3882 12.9943 40.3538 12.9061C40.3194 12.8179 40.3027 12.7235 40.3048 12.6285C40.3069 12.5335 40.3277 12.4399 40.3659 12.3534C40.4041 12.2668 40.4589 12.1892 40.5271 12.1251L49.9284 2.44986H39.977C39.7222 2.4497 39.47 2.50122 39.2346 2.60146C38.9992 2.7017 38.7853 2.8487 38.6052 3.03406C38.425 3.21941 38.2822 3.43949 38.1848 3.6817C38.0874 3.92391 38.0373 4.18351 38.0374 4.44564V29.6681L36.6716 27.7682V4.44564C36.6716 3.54359 37.0199 2.67848 37.6397 2.04063C38.2596 1.40277 39.1003 1.04443 39.977 1.04443H75.4977C76.3743 1.04443 77.215 1.40277 77.8349 2.04063C78.4548 2.67848 78.803 3.54359 78.803 4.44564V46.6255C78.8021 47.5269 78.4534 48.3911 77.8337 49.0282C77.2139 49.6653 76.3737 50.0231 75.4977 50.0231ZM62.3082 48.2071C62.173 48.2075 62.0408 48.1665 61.9283 48.0895C61.8158 48.0125 61.728 47.9028 61.6762 47.7743C61.6243 47.6459 61.6107 47.5045 61.6371 47.3681C61.6634 47.2317 61.7285 47.1064 61.8242 47.0082L75.7302 32.7C75.8581 32.5682 76.0316 32.4941 76.2126 32.494C76.3936 32.4939 76.5672 32.5678 76.6953 32.6994C76.8233 32.831 76.8953 33.0095 76.8954 33.1958C76.8955 33.382 76.8238 33.5607 76.6959 33.6924L62.7898 48.0018C62.7267 48.0671 62.6516 48.1189 62.569 48.1541C62.4863 48.1893 62.3976 48.2074 62.3082 48.2071ZM74.283 44.6844H67.7266L69.0924 43.279H73.6006V38.6363L74.9665 37.2309V43.9787C74.9665 44.165 74.8946 44.3437 74.7667 44.4755C74.6388 44.6074 74.4652 44.6817 74.2841 44.682L74.283 44.6844ZM62.3766 44.6844H48.8105L47.8024 43.279H55.335V19.7134L53.3282 21.5683C53.2031 21.684 53.0408 21.748 52.8726 21.7481C52.8189 21.7478 52.7654 21.7413 52.7132 21.7287C52.6067 21.7014 52.5081 21.648 52.4259 21.5731C52.3437 21.4983 52.2803 21.4041 52.241 21.2986L50.4006 16.4033L51.4572 15.3174L53.1571 19.8422L57.6535 15.6915L54.7082 11.9599L55.6797 10.9602L58.5849 14.6493L61.9599 10.3638C60.8964 10.0032 59.7837 9.81988 58.664 9.82077C57.9644 9.82087 57.2665 9.89207 56.5805 10.0333L57.0739 9.52438C57.3539 9.23703 57.5382 8.86578 57.6004 8.46393C57.9545 8.43114 58.3087 8.41534 58.6628 8.41534C60.1001 8.41332 61.5257 8.68046 62.8701 9.2037L64.6738 6.91395C62.7945 5.9044 60.7056 5.37798 58.5855 5.37967C56.4655 5.38136 54.3774 5.91112 52.4995 6.92367L53.2822 7.91852L52.3107 8.91824L51.4926 7.87965L49.6463 10.5277L49.9532 11.344L48.8967 12.4312L48.5296 11.4594L43.594 14.2751V17.8926L42.2282 19.298V14.1087C42.2589 14.082 42.3037 14.0419 42.3462 13.9982L43.6967 12.6086L48.3832 9.93617L50.9094 6.3151C50.974 6.2236 51.059 6.14943 51.1573 6.09888L51.1715 6.08673C51.1827 6.07741 51.1946 6.06889 51.2069 6.06122C53.4421 4.70117 55.9911 3.98367 58.5879 3.98367C61.1846 3.98367 63.7337 4.70117 65.9688 6.06122C66.0178 6.09284 66.063 6.13036 66.1034 6.17297C66.1593 6.21519 66.209 6.26552 66.251 6.32238L68.7713 9.91188L74.6147 13.2487C74.7218 13.3091 74.8113 13.398 74.8736 13.5061C74.9359 13.6142 74.9688 13.7376 74.9688 13.8634V21.9716L73.6042 23.377V14.2751L68.6462 11.4436L64.943 21.2962C64.9037 21.4017 64.8403 21.4959 64.7581 21.5707C64.6759 21.6456 64.5773 21.6989 64.4708 21.7262C64.4186 21.7389 64.3651 21.7454 64.3114 21.7457C64.1432 21.7455 63.981 21.6815 63.8558 21.5659L58.5955 16.707L56.7068 18.4453V43.2753H63.7495L62.3837 44.6808L62.3766 44.6844ZM65.6725 7.87844L63.7342 10.3455C63.6856 10.4579 63.609 10.5552 63.5122 10.6273L59.5258 15.6915L64.0222 19.8422L67.5223 10.5302L65.6749 7.88208L65.6725 7.87844ZM58.5849 41.3804C58.4448 41.3804 58.3079 41.3376 58.1914 41.2575C58.0749 41.1775 57.9841 41.0636 57.9305 40.9305C57.8769 40.7973 57.8629 40.6507 57.8902 40.5094C57.9176 40.368 57.985 40.2381 58.0841 40.1362C58.1831 40.0342 58.3093 39.9648 58.4467 39.9367C58.5841 39.9086 58.7265 39.923 58.856 39.9782C58.9854 40.0334 59.096 40.1268 59.1738 40.2466C59.2517 40.3665 59.2932 40.5074 59.2932 40.6515C59.2932 40.8448 59.2186 41.0302 59.0857 41.1669C58.9529 41.3036 58.7728 41.3804 58.5849 41.3804ZM46.7978 40.6357H45.9077L44.8996 39.2303H46.7978C46.8961 39.2302 46.9935 39.21 47.0842 39.1711C47.175 39.1322 47.2574 39.0752 47.3267 39.0034C47.396 38.9316 47.4508 38.8465 47.4881 38.7528C47.5254 38.6592 47.5443 38.5589 47.5439 38.4578V30.1977C47.5436 29.9938 47.4647 29.7985 47.3247 29.6543C47.1846 29.5102 46.9947 29.4291 46.7966 29.4288H40.5861V33.2138L39.2203 31.3152V28.7303C39.2203 28.5438 39.2923 28.3649 39.4205 28.233C39.5487 28.1011 39.7225 28.027 39.9038 28.027H42.2282V24.8019L43.594 23.3953V28.0258H46.7978C47.3574 28.0267 47.8939 28.2558 48.2897 28.6629C48.6855 29.07 48.9084 29.6218 48.9097 30.1977V38.4578C48.91 39.0347 48.6877 39.5881 48.2918 39.9965C47.8958 40.4049 47.3584 40.6348 46.7978 40.6357ZM68.063 38.8319H67.9851C67.4632 38.8321 66.9497 38.6967 66.4922 38.4383C66.0347 38.1799 65.648 37.8068 65.368 37.3536L66.3737 36.3186C66.5056 36.6467 66.7291 36.9271 67.0159 37.1243C67.3028 37.3216 67.6401 37.4267 67.9851 37.4265H69.4288L68.063 38.8319ZM58.5849 34.6423C58.4448 34.6423 58.3079 34.5996 58.1914 34.5195C58.0749 34.4394 57.9841 34.3256 57.9305 34.1924C57.8769 34.0592 57.8629 33.9127 57.8902 33.7713C57.9176 33.6299 57.985 33.5001 58.0841 33.3981C58.1831 33.2962 58.3093 33.2268 58.4467 33.1987C58.5841 33.1705 58.7265 33.185 58.856 33.2401C58.9854 33.2953 59.096 33.3887 59.1738 33.5086C59.2517 33.6284 59.2932 33.7693 59.2932 33.9135C59.2932 34.1068 59.2186 34.2922 59.0857 34.4289C58.9529 34.5655 58.7728 34.6423 58.5849 34.6423ZM73.6018 33.1312V30.1831H72.3363L74.9676 27.4755V31.7355L74.9476 31.7537C74.9251 31.7732 74.9003 31.7962 74.8767 31.8193L73.6042 33.13L73.6018 33.1312ZM45.6374 32.7668C45.4652 32.7664 45.2991 32.7008 45.1709 32.5825C45.0427 32.4642 44.9612 32.3015 44.9421 32.1254V32.1109C44.938 32.0872 44.9356 32.0632 44.935 32.0392C44.9227 31.9367 44.9318 31.8328 44.9615 31.7342C44.9912 31.6356 45.041 31.5446 45.1074 31.4673C45.1739 31.3899 45.2555 31.328 45.347 31.2856C45.4385 31.2432 45.5377 31.2213 45.638 31.2213C45.7383 31.2213 45.8375 31.2432 45.9289 31.2856C46.0204 31.328 46.1021 31.3899 46.1685 31.4673C46.235 31.5446 46.2847 31.6356 46.3145 31.7342C46.3442 31.8328 46.3532 31.9367 46.341 32.0392C46.3414 32.0461 46.3414 32.053 46.341 32.0598C46.341 32.0683 46.341 32.0732 46.341 32.0793C46.3316 32.2645 46.2532 32.4388 46.1222 32.5661C45.9912 32.6935 45.8176 32.764 45.6374 32.7632V32.7668ZM64.8792 32.3599V29.4798C64.8792 29.3874 64.8969 29.296 64.9313 29.2106C64.9656 29.1253 65.016 29.0478 65.0794 28.9825C65.1429 28.9171 65.2182 28.8653 65.3012 28.83C65.3841 28.7946 65.473 28.7765 65.5627 28.7765H68.3581L66.9864 30.1831H66.2392V30.9508L64.8745 32.355L64.8792 32.3599ZM58.5908 27.9091C58.4507 27.9091 58.3138 27.8664 58.1973 27.7863C58.0808 27.7062 57.99 27.5924 57.9364 27.4592C57.8828 27.326 57.8688 27.1795 57.8961 27.0381C57.9235 26.8967 57.9909 26.7669 58.09 26.665C58.189 26.563 58.3152 26.4936 58.4526 26.4655C58.59 26.4374 58.7324 26.4518 58.8619 26.507C58.9913 26.5621 59.1019 26.6555 59.1797 26.7754C59.2576 26.8953 59.2991 27.0362 59.2991 27.1803C59.2986 27.2762 59.2798 27.3711 59.2436 27.4595C59.2074 27.5479 59.1547 27.6281 59.0883 27.6955C59.022 27.7628 58.9433 27.8161 58.857 27.8521C58.7706 27.8882 58.6781 27.9063 58.5849 27.9055L58.5908 27.9091ZM40.6676 24.3585C40.5325 24.3583 40.4006 24.317 40.2883 24.2397C40.1761 24.1624 40.0887 24.0526 40.037 23.9242C39.9854 23.7958 39.9718 23.6546 39.9981 23.5183C40.0244 23.382 40.0894 23.2567 40.1847 23.1584L55.2536 7.65372C55.317 7.58841 55.3922 7.53661 55.4751 7.50126C55.5579 7.46591 55.6467 7.44772 55.7364 7.44772C55.8261 7.44772 55.9149 7.46591 55.9977 7.50126C56.0806 7.53661 56.1559 7.58841 56.2192 7.65372C56.3471 7.78557 56.4189 7.96425 56.4189 8.15054C56.4189 8.33682 56.3471 8.5155 56.2192 8.64736L41.1504 24.152C41.0872 24.2176 41.0119 24.2696 40.9291 24.305C40.8462 24.3405 40.7573 24.3587 40.6676 24.3585ZM58.5849 21.1687C58.4448 21.1687 58.3079 21.1259 58.1914 21.0458C58.0749 20.9658 57.9841 20.8519 57.9305 20.7188C57.8769 20.5856 57.8629 20.439 57.8902 20.2977C57.9176 20.1563 57.985 20.0264 58.0841 19.9245C58.1831 19.8226 58.3093 19.7531 58.4467 19.725C58.5841 19.6969 58.7265 19.7113 58.856 19.7665C58.9854 19.8217 59.096 19.9151 59.1738 20.0349C59.2517 20.1548 59.2932 20.2957 59.2932 20.4398C59.2932 20.5356 59.2749 20.6303 59.2393 20.7188C59.2037 20.8072 59.1515 20.8875 59.0857 20.9552C59.02 21.0229 58.9419 21.0766 58.856 21.1132C58.77 21.1498 58.6779 21.1687 58.5849 21.1687Z" fill="#016B86"/>
<path d="M75.4976 50.3267H52.49L51.0463 48.314H61.7214C61.683 48.2847 61.6467 48.2526 61.6128 48.218C61.4294 48.0292 61.3264 47.7731 61.3264 47.5062C61.3264 47.2392 61.4294 46.9832 61.6128 46.7943L75.5189 32.4862C75.6362 32.3657 75.7813 32.2778 75.9406 32.2308C76.0999 32.1837 76.2683 32.1791 76.4298 32.2174C76.5913 32.2556 76.7408 32.3355 76.8641 32.4494C76.9874 32.5634 77.0806 32.7077 77.135 32.8688V23.9103L61.712 39.7854C61.6225 39.8849 61.5144 39.9647 61.3942 40.0201C61.274 40.0756 61.1442 40.1055 61.0125 40.108C60.8808 40.1106 60.75 40.0858 60.6278 40.0351C60.5057 39.9844 60.3947 39.9088 60.3016 39.813C60.2085 39.7171 60.1352 39.6029 60.0861 39.4771C60.0369 39.3514 60.0129 39.2167 60.0155 39.0812C60.0181 38.9457 60.0473 38.8122 60.1013 38.6885C60.1552 38.5649 60.2329 38.4538 60.3296 38.3618L77.1397 21.0642V4.44561C77.139 3.998 76.966 3.56891 76.6584 3.2524C76.3508 2.93589 75.9338 2.7578 75.4988 2.75716H51.9824L41.7004 13.3374C41.5165 13.526 41.2673 13.6317 41.0076 13.6312C40.7479 13.6308 40.499 13.5242 40.3157 13.3349C40.1324 13.1457 40.0297 12.8892 40.0301 12.622C40.0306 12.3548 40.1342 12.0987 40.3181 11.9101L49.2166 2.75351H39.9769C39.7609 2.75335 39.547 2.79701 39.3475 2.88199C39.1479 2.96697 38.9665 3.0916 38.8138 3.24876C38.6611 3.40592 38.54 3.59252 38.4574 3.79789C38.3748 4.00325 38.3324 4.22336 38.3325 4.44561V30.59L36.3765 27.8642V4.44561C36.3768 3.46311 36.7562 2.52095 37.4314 1.82622C38.1065 1.13148 39.0221 0.741045 39.9769 0.740723H75.4976C76.452 0.741688 77.367 1.13241 78.0417 1.82707C78.7163 2.52174 79.0954 3.46353 79.0957 4.44561V46.6255C79.0948 47.607 78.7154 48.5481 78.0408 49.242C77.3662 49.936 76.4515 50.3261 75.4976 50.3267ZM52.7922 49.7194H75.4976C76.2946 49.7184 77.0586 49.3923 77.6222 48.8126C78.1858 48.2328 78.5031 47.4468 78.5043 46.6267V4.44561C78.5043 3.62473 78.1877 2.83741 77.6239 2.25662C77.0601 1.67582 76.2954 1.34905 75.4976 1.34808H39.9769C39.1786 1.34808 38.4129 1.67443 37.8484 2.25533C37.2839 2.83623 36.9667 3.6241 36.9667 4.44561V27.6637L37.7423 28.7448V4.44561C37.7421 4.1436 37.7998 3.84451 37.9121 3.56546C38.0243 3.2864 38.1889 3.03285 38.3965 2.81929C38.604 2.60574 38.8504 2.43636 39.1216 2.32086C39.3928 2.20536 39.6834 2.14599 39.9769 2.14615H50.6438L40.7348 12.3413C40.6967 12.3779 40.6661 12.422 40.6449 12.471C40.6238 12.52 40.6124 12.5729 40.6115 12.6266C40.6106 12.6802 40.6202 12.7335 40.6397 12.7832C40.6593 12.8329 40.6883 12.8781 40.7252 12.916C40.762 12.954 40.8059 12.9839 40.8543 13.004C40.9026 13.0241 40.9544 13.0339 41.0065 13.033C41.0586 13.0321 41.11 13.0204 41.1577 12.9986C41.2053 12.9768 41.2482 12.9453 41.2837 12.9061L51.7381 2.14615H75.4976C76.0898 2.1468 76.6574 2.38938 77.0758 2.82058C77.4942 3.25178 77.729 3.83629 77.7287 4.44561V21.3156L60.7463 38.7906C60.6917 38.8462 60.6545 38.9173 60.6393 38.9948C60.6241 39.0724 60.6317 39.1528 60.661 39.2259C60.6904 39.2989 60.7402 39.3614 60.8042 39.4052C60.8682 39.449 60.9433 39.4723 61.0202 39.472C61.0716 39.4715 61.1223 39.4605 61.1696 39.4396C61.2168 39.4188 61.2595 39.3885 61.2952 39.3505L77.7287 22.4441V46.6255C77.7278 47.234 77.4924 47.8172 77.0741 48.2474C76.6559 48.6775 76.089 48.9195 75.4976 48.9201H52.2197L52.7922 49.7194ZM62.8901 48.314H75.4976C75.9325 48.3136 76.3495 48.1358 76.6571 47.8195C76.9648 47.5032 77.1379 47.0742 77.1385 46.6267V33.5235C77.0894 33.6684 77.0086 33.7998 76.9024 33.9074L62.9963 48.2168C62.9636 48.2517 62.9285 48.2842 62.8913 48.314H62.8901ZM76.2177 32.7971C76.1665 32.7976 76.1159 32.8086 76.0689 32.8295C76.0219 32.8503 75.9793 32.8806 75.9438 32.9186L62.0378 47.228C61.9691 47.3037 61.9316 47.404 61.9334 47.5076C61.9351 47.6112 61.9759 47.71 62.0471 47.7833C62.1183 47.8565 62.2143 47.8985 62.315 47.9003C62.4157 47.902 62.5131 47.8635 62.5867 47.7928L76.488 33.4774C76.5422 33.4217 76.5791 33.3507 76.5941 33.2733C76.609 33.196 76.6014 33.1159 76.5721 33.0431C76.5427 32.9702 76.4931 32.908 76.4294 32.8642C76.3657 32.8205 76.2908 32.7971 76.2142 32.7971H76.2177ZM74.2841 44.9856H67.01L68.966 42.9728H73.3007V38.51L75.2568 36.4972V43.9786C75.2565 44.2446 75.1541 44.4996 74.9719 44.6882C74.7897 44.8768 74.5425 44.9837 74.2841 44.9856ZM68.4395 44.3783H74.2841C74.3871 44.3783 74.4859 44.3362 74.5587 44.2612C74.6315 44.1863 74.6725 44.0846 74.6725 43.9786V37.9633L73.8969 38.7614V43.579H69.2151L68.4395 44.3783ZM62.3778 44.9856H48.6617L47.218 42.9716H55.0399V20.39L53.5218 21.7906C53.404 21.8995 53.2622 21.9773 53.1087 22.0174C52.9552 22.0575 52.7945 22.0585 52.6405 22.0205C52.4865 21.9825 52.3438 21.9066 52.2246 21.7992C52.1055 21.6919 52.0134 21.5564 51.9565 21.4043L50.0464 16.3256L51.5598 14.7707L53.2692 19.3211L57.2391 15.6575L54.3115 11.938L55.7021 10.5071L56.8637 9.31056C57.0997 9.06827 57.2551 8.7553 57.3076 8.41653L57.3442 8.1833L57.5732 8.16265C57.9356 8.12985 58.3015 8.11285 58.664 8.11285C60.0651 8.10989 61.4562 8.35647 62.7756 8.84168L64.2158 7.0196C62.4624 6.14131 60.5376 5.68561 58.5875 5.68709C56.6373 5.68856 54.7132 6.14717 52.961 7.0281L53.6811 7.94279L52.2905 9.37251L51.5102 8.3813L49.9827 10.5678L50.3014 11.4181L48.788 12.9766L48.3796 11.8906L43.8938 14.4549V18.0189L41.933 20.0305V13.969L42.0369 13.8779C42.0593 13.8585 42.1018 13.8208 42.1384 13.7832L43.5184 12.3631L48.1813 9.7017L50.6686 6.13529C50.7548 6.01229 50.867 5.91096 50.9967 5.8389C51.0173 5.82204 51.039 5.80661 51.0617 5.79274C53.3424 4.40489 55.9434 3.67273 58.5931 3.67273C61.2428 3.67273 63.8439 4.40489 66.1246 5.79274C66.189 5.83352 66.2488 5.88159 66.3029 5.93607C66.3752 5.99312 66.4395 6.06015 66.4941 6.13529L68.9731 9.67984L74.7575 12.9839C74.9101 13.0708 75.0372 13.1982 75.1257 13.3529C75.2141 13.5076 75.2606 13.6839 75.2603 13.8633V22.0955L73.3055 24.1083V14.4537L68.7937 11.8785L65.2133 21.4055C65.1563 21.5574 65.0643 21.6928 64.9453 21.8001C64.8262 21.9074 64.6836 21.9833 64.5298 22.0214C64.4547 22.0396 64.3779 22.049 64.3008 22.0493C64.0597 22.0492 63.8273 21.9575 63.6479 21.7918L58.5837 17.12L56.9959 18.5849V42.9716H64.4554L62.5005 44.9844L62.3778 44.9856ZM48.9604 44.3783H62.255L63.0306 43.5802H56.4057V18.3141L58.5849 16.3037L64.0422 21.3387C64.0896 21.3824 64.1466 21.4135 64.2083 21.4294C64.27 21.4453 64.3346 21.4454 64.3964 21.4298C64.4568 21.4145 64.5126 21.3844 64.5593 21.3421C64.606 21.2998 64.642 21.2466 64.6643 21.1869L68.4879 11.0051L73.8957 14.0917V22.6421L74.6701 21.844V13.8621C74.6704 13.7911 74.6521 13.7212 74.6172 13.6599C74.5823 13.5986 74.5321 13.548 74.4718 13.5135L68.5694 10.1426L66.0219 6.48998C65.9971 6.45767 65.9681 6.42906 65.9357 6.40495L65.905 6.37823C65.8809 6.3528 65.854 6.33037 65.8248 6.31142C63.6354 4.97963 61.1388 4.27706 58.5955 4.27706C56.0522 4.27706 53.5556 4.97963 51.3662 6.31142L51.3568 6.31992L51.1714 6.08305L51.3521 6.326L51.3155 6.35515L51.2907 6.36851C51.2347 6.39675 51.1861 6.43841 51.149 6.48998L48.5838 10.1669L43.8725 12.8527L42.5516 14.2132L42.5197 14.246V18.5655L43.2953 17.7674V14.0966L48.6818 11.0209L49.0076 11.8882L49.6073 11.2711L49.3122 10.4852L51.4772 7.38037L52.3319 8.46633L52.8831 7.89906L52.0403 6.82889L52.359 6.6564C54.2791 5.62107 56.4142 5.07942 58.5819 5.07773C60.7497 5.07604 62.8856 5.61435 64.8072 6.64668L65.1271 6.81917L62.968 9.56687L62.7685 9.48912C61.4573 8.97915 60.0669 8.71901 58.6651 8.72142C58.3924 8.72142 58.1162 8.73114 57.8388 8.75058C57.7571 9.05962 57.6113 9.34679 57.4115 9.59238C57.8261 9.54314 58.2431 9.5184 58.6604 9.51828C59.8119 9.51746 60.956 9.7061 62.0496 10.077L62.4557 10.2143L58.5849 15.1351L55.6561 11.4132L55.1048 11.9769L58.056 15.7194L53.0272 20.3584L51.3355 15.864L50.7358 16.481L52.5066 21.1917C52.5293 21.2518 52.5659 21.3053 52.6132 21.3476C52.6605 21.3899 52.7171 21.4198 52.7781 21.4347C52.8079 21.4418 52.8384 21.4454 52.869 21.4456C52.9644 21.4455 53.0565 21.4092 53.1275 21.3436L55.6301 19.0356V43.5851H48.3867L48.9604 44.3783ZM55.7139 10.5192L58.5849 14.1634L61.4546 10.5192C60.5463 10.2544 59.6068 10.1203 58.6628 10.1208C57.9826 10.1208 57.3041 10.19 56.6371 10.3273L55.7139 10.5192ZM58.5849 41.6804C58.3873 41.6804 58.1943 41.6201 58.03 41.5072C57.8658 41.3943 57.7378 41.2338 57.6622 41.046C57.5866 40.8582 57.5668 40.6516 57.6054 40.4522C57.6439 40.2529 57.739 40.0698 57.8787 39.9261C58.0184 39.7823 58.1963 39.6845 58.39 39.6448C58.5838 39.6052 58.7846 39.6255 58.967 39.7033C59.1495 39.7811 59.3055 39.9128 59.4152 40.0818C59.525 40.2508 59.5836 40.4495 59.5836 40.6527C59.5839 40.7879 59.5583 40.9219 59.5082 41.0469C59.4582 41.1719 59.3847 41.2856 59.292 41.3814C59.1992 41.4772 59.089 41.5532 58.9677 41.6051C58.8464 41.657 58.7163 41.6839 58.5849 41.684V41.6804ZM58.5849 40.2324C58.5041 40.2324 58.4251 40.2571 58.3579 40.3033C58.2908 40.3494 58.2384 40.4151 58.2075 40.4919C58.1766 40.5687 58.1685 40.6532 58.1843 40.7347C58.2 40.8162 58.2389 40.8911 58.296 40.9499C58.3532 41.0087 58.4259 41.0487 58.5052 41.0649C58.5844 41.0812 58.6665 41.0728 58.7412 41.041C58.8158 41.0092 58.8796 40.9553 58.9245 40.8862C58.9694 40.8171 58.9933 40.7358 58.9933 40.6527C58.9924 40.5419 58.9489 40.4359 58.8724 40.3579C58.7959 40.2798 58.6926 40.2361 58.5849 40.2361V40.2324ZM46.7978 40.9358H45.7613L44.314 38.9266H46.793C46.853 38.9271 46.9125 38.9153 46.968 38.8919C47.0235 38.8685 47.0739 38.834 47.1163 38.7904C47.1587 38.7467 47.1922 38.6948 47.215 38.6377C47.2377 38.5806 47.2492 38.5194 47.2487 38.4577V30.1976C47.2487 30.0743 47.2011 29.9559 47.1163 29.8687C47.0315 29.7814 46.9165 29.7324 46.7966 29.7324H40.8812V34.137L38.9251 31.4124V28.7278C38.9254 28.4609 39.0286 28.2049 39.2121 28.0161C39.3956 27.8274 39.6443 27.7212 39.9037 27.7208H41.933V24.6767L43.889 22.6664V27.7269H46.7978C47.4347 27.7282 48.0453 27.9887 48.4963 28.4516C48.9473 28.9145 49.202 29.5422 49.2048 30.1976V38.4577C49.2051 39.1152 48.9517 39.7458 48.5004 40.2112C48.0491 40.6765 47.4367 40.9384 46.7978 40.9394V40.9358ZM46.0576 40.3284H46.7978C47.2797 40.3278 47.7417 40.1305 48.0825 39.7798C48.4233 39.4291 48.6151 38.9537 48.6157 38.4577V30.1976C48.6154 29.7015 48.4238 29.2257 48.083 28.8748C47.7421 28.5239 47.2799 28.3264 46.7978 28.3258H43.2988V24.1241L42.5232 24.9221V28.3233H39.9026C39.8516 28.3233 39.8011 28.3337 39.7539 28.3538C39.7068 28.3738 39.664 28.4033 39.6279 28.4404C39.5919 28.4775 39.5633 28.5216 39.5437 28.57C39.5242 28.6185 39.5142 28.6705 39.5142 28.723V31.2071L40.2898 32.2882V29.1299H46.7978C47.0731 29.1305 47.337 29.2431 47.5321 29.4431C47.7271 29.6431 47.8374 29.9143 47.8389 30.1976V38.4577C47.8386 38.7421 47.7287 39.0147 47.5333 39.2158C47.3379 39.4169 47.0729 39.53 46.7966 39.5303H45.4839L46.0576 40.3284ZM68.0629 39.1319H67.985C67.4143 39.1323 66.8526 38.9846 66.352 38.7024C65.8515 38.4202 65.4281 38.0127 65.1212 37.5175L64.9925 37.3122L66.4752 35.7853L66.6452 36.2032C66.7548 36.4758 66.9404 36.7087 67.1787 36.8726C67.417 37.0365 67.6972 37.124 67.9839 37.124H70.1406L68.1904 39.1355L68.0629 39.1319ZM65.7504 37.3839C66.0074 37.7324 66.3382 38.0161 66.7176 38.2135C67.097 38.4109 67.5151 38.5168 67.9402 38.5233L68.7158 37.7253H67.9839C67.6528 37.7255 67.3266 37.6427 67.0337 37.484C66.7408 37.3252 66.4899 37.0953 66.3029 36.8142L65.7504 37.3839ZM58.5849 34.9423C58.3876 34.9421 58.1949 34.8817 58.031 34.7688C57.8671 34.6558 57.7394 34.4954 57.6641 34.3079C57.5888 34.1203 57.5692 33.9139 57.6078 33.7149C57.6465 33.5159 57.7416 33.3331 57.8811 33.1897C58.0207 33.0462 58.1984 32.9486 58.3919 32.9091C58.5853 32.8696 58.7858 32.89 58.968 32.9677C59.1502 33.0454 59.306 33.177 59.4155 33.3458C59.5251 33.5145 59.5836 33.7129 59.5836 33.9159C59.5839 34.0511 59.5583 34.1849 59.5082 34.3099C59.4582 34.4349 59.3846 34.5484 59.2919 34.6441C59.1991 34.7398 59.0889 34.8157 58.9676 34.8675C58.8463 34.9193 58.7162 34.946 58.5849 34.946V34.9423ZM58.5849 33.4956C58.5044 33.4958 58.4258 33.5206 58.359 33.5667C58.2923 33.6129 58.2402 33.6783 58.2096 33.7549C58.1789 33.8314 58.1709 33.9156 58.1867 33.9967C58.2024 34.0779 58.2412 34.1525 58.2981 34.211C58.355 34.2695 58.4274 34.3094 58.5063 34.3256C58.5852 34.3419 58.667 34.3337 58.7414 34.3021C58.8157 34.2705 58.8793 34.217 58.9242 34.1483C58.969 34.0795 58.9931 33.9987 58.9933 33.9159C58.9924 33.8051 58.9489 33.6991 58.8724 33.6211C58.7959 33.543 58.6926 33.4992 58.5849 33.4992V33.4956ZM73.3078 33.8418V30.4867H71.6233L75.2615 26.7418V31.874L75.1435 31.9821C75.1246 31.9991 75.1045 32.0161 75.0856 32.0355L73.806 33.3559L73.3078 33.8418ZM73.0481 29.883H73.8969V32.4024L74.6677 31.6091V28.2079L73.0481 29.883ZM64.5805 33.113V29.4797C64.5808 29.2128 64.684 28.9568 64.8675 28.768C65.051 28.5793 65.2997 28.4731 65.5592 28.4727H69.0675L67.1115 30.4855H66.5378V31.0747L65.087 32.5663L64.5805 33.113ZM65.5568 29.0765C65.4538 29.0765 65.355 29.1186 65.2822 29.1935C65.2093 29.2685 65.1684 29.3701 65.1684 29.4761V31.6189L65.944 30.8208V29.8757H66.8636L67.6392 29.0777L65.5568 29.0765ZM45.6373 33.0668C45.3932 33.0664 45.1577 32.9738 44.9756 32.8065C44.7935 32.6392 44.6773 32.409 44.6493 32.1594V32.1485C44.6436 32.1119 44.6404 32.075 44.6398 32.0379C44.6398 31.9031 44.6657 31.7695 44.7158 31.6449C44.766 31.5203 44.8395 31.4071 44.9322 31.3117C45.0249 31.2163 45.1349 31.1407 45.256 31.0891C45.3771 31.0375 45.5069 31.0109 45.6379 31.0109C45.769 31.0109 45.8988 31.0375 46.0199 31.0891C46.141 31.1407 46.251 31.2163 46.3437 31.3117C46.4364 31.4071 46.5099 31.5203 46.5601 31.6449C46.6102 31.7695 46.636 31.9031 46.636 32.0379C46.6372 32.0574 46.6372 32.0768 46.636 32.0962C46.6224 32.359 46.5111 32.6063 46.3252 32.7869C46.1393 32.9676 45.893 33.0678 45.6373 33.0668ZM45.6373 31.6189C45.5291 31.6198 45.4256 31.6646 45.3491 31.7434C45.2727 31.8223 45.2295 31.929 45.2289 32.0404C45.2289 32.0404 45.2289 32.0549 45.2289 32.0647V32.0865C45.2408 32.1899 45.2899 32.2849 45.3665 32.3529C45.4431 32.4209 45.5417 32.4569 45.6428 32.4539C45.744 32.4508 45.8403 32.409 45.9129 32.3365C45.9855 32.264 46.0291 32.1662 46.0352 32.0622C46.0352 32.0501 46.0352 32.0404 46.0352 32.0282C46.0325 31.9205 45.9897 31.818 45.9157 31.7418C45.8416 31.6656 45.742 31.6216 45.6373 31.6189ZM58.5849 28.2091C58.3873 28.2091 58.1943 28.1489 58.03 28.036C57.8658 27.923 57.7378 27.7625 57.6622 27.5748C57.5866 27.387 57.5668 27.1804 57.6054 26.981C57.6439 26.7817 57.739 26.5986 57.8787 26.4548C58.0184 26.3111 58.1963 26.2132 58.39 26.1736C58.5838 26.1339 58.7846 26.1543 58.967 26.2321C59.1495 26.3099 59.3055 26.4416 59.4152 26.6106C59.525 26.7796 59.5836 26.9782 59.5836 27.1815C59.5836 27.454 59.4783 27.7154 59.291 27.9082C59.1038 28.1009 58.8497 28.2091 58.5849 28.2091ZM58.5849 26.7612C58.5041 26.7612 58.4251 26.7859 58.3579 26.832C58.2908 26.8782 58.2384 26.9439 58.2075 27.0207C58.1766 27.0975 58.1685 27.182 58.1843 27.2635C58.2 27.345 58.2389 27.4199 58.296 27.4787C58.3532 27.5375 58.4259 27.5775 58.5052 27.5937C58.5844 27.6099 58.6665 27.6016 58.7412 27.5698C58.8158 27.538 58.8796 27.4841 58.9245 27.415C58.9694 27.3459 58.9933 27.2646 58.9933 27.1815C58.9933 27.07 58.9503 26.9631 58.8737 26.8843C58.7971 26.8055 58.6932 26.7612 58.5849 26.7612ZM40.6675 24.6622C40.4741 24.6618 40.2852 24.6026 40.1245 24.4918C39.9638 24.3811 39.8387 24.2238 39.7648 24.0399C39.6909 23.856 39.6716 23.6537 39.7094 23.4585C39.7471 23.2634 39.8402 23.0841 39.9769 22.9433L55.0446 7.43868C55.1354 7.3451 55.2432 7.27085 55.3619 7.2202C55.4806 7.16954 55.6079 7.14346 55.7364 7.14346C55.8649 7.14346 55.9921 7.16954 56.1108 7.2202C56.2295 7.27085 56.3373 7.3451 56.4281 7.43868C56.6112 7.62746 56.7139 7.88324 56.7139 8.1499C56.7139 8.41656 56.6112 8.67233 56.4281 8.86111L41.3593 24.367C41.2686 24.4608 41.1608 24.5352 41.0421 24.5858C40.9234 24.6365 40.7961 24.6624 40.6675 24.6622ZM55.7364 7.75086C55.6851 7.75127 55.6345 7.76223 55.5875 7.78309C55.5405 7.80396 55.4979 7.8343 55.4625 7.87233L40.3936 23.3734C40.3577 23.4104 40.3291 23.4543 40.3097 23.5027C40.2902 23.551 40.2802 23.6028 40.2802 23.6552C40.2802 23.7075 40.2902 23.7593 40.3097 23.8077C40.3291 23.856 40.3577 23.9 40.3936 23.937C40.4296 23.974 40.4723 24.0033 40.5193 24.0234C40.5663 24.0434 40.6167 24.0537 40.6675 24.0537C40.7184 24.0537 40.7687 24.0434 40.8157 24.0234C40.8627 24.0033 40.9054 23.974 40.9414 23.937L56.0102 8.43232C56.0643 8.37636 56.1011 8.30518 56.1159 8.22775C56.1307 8.15032 56.1229 8.0701 56.0935 7.99722C56.0641 7.92433 56.0144 7.86204 55.9506 7.8182C55.8868 7.77436 55.8131 7.75093 55.7364 7.75086ZM58.5849 21.4772C58.3873 21.4772 58.1943 21.4169 58.03 21.304C57.8658 21.1911 57.7378 21.0306 57.6622 20.8428C57.5866 20.655 57.5668 20.4484 57.6054 20.249C57.6439 20.0497 57.739 19.8666 57.8787 19.7229C58.0184 19.5791 58.1963 19.4813 58.39 19.4416C58.5838 19.402 58.7846 19.4223 58.967 19.5001C59.1495 19.5779 59.3055 19.7096 59.4152 19.8786C59.525 20.0476 59.5836 20.2463 59.5836 20.4495C59.5823 20.7212 59.4765 20.9814 59.2894 21.173C59.1022 21.3647 58.8489 21.4723 58.5849 21.4723V21.4772ZM58.5849 20.0292C58.5041 20.0292 58.4251 20.0539 58.3579 20.1001C58.2908 20.1462 58.2384 20.2119 58.2075 20.2887C58.1766 20.3655 58.1685 20.45 58.1843 20.5315C58.2 20.6131 58.2389 20.6879 58.296 20.7467C58.3532 20.8055 58.4259 20.8455 58.5052 20.8617C58.5844 20.878 58.6665 20.8696 58.7412 20.8378C58.8158 20.806 58.8796 20.7521 58.9245 20.683C58.9694 20.6139 58.9933 20.5327 58.9933 20.4495C58.9938 20.394 58.9836 20.339 58.9632 20.2876C58.9429 20.2362 58.9129 20.1894 58.8749 20.15C58.837 20.1106 58.7918 20.0793 58.742 20.0579C58.6922 20.0366 58.6388 20.0256 58.5849 20.0256V20.0292ZM64.1426 20.3633L59.1196 15.7267L63.3068 10.4087L63.3375 10.3856C63.3927 10.3447 63.4364 10.2893 63.4638 10.2252L63.4791 10.1888L65.4446 7.68891L65.7055 7.85654L65.9133 7.70227L67.854 10.484L64.1426 20.3633ZM59.9271 15.6562L63.8959 19.3198L67.1847 10.5739L65.65 8.38737L63.9856 10.5083C63.9223 10.6396 63.8316 10.7549 63.72 10.846L59.9271 15.6562Z" fill="#016B86"/>
<path d="M35.817 26.783C36.0481 25.2134 35.9525 23.6112 35.5365 22.0825C35.1206 20.5537 34.3937 19.1334 33.4041 17.9155C32.2329 16.4926 30.7343 15.3939 29.0448 14.7194C27.3553 14.045 25.5286 13.8163 23.7313 14.0542C21.9339 14.2921 20.223 14.989 18.7543 16.0814C17.2857 17.1738 16.1061 18.627 15.3229 20.3086C14.5398 21.9902 14.178 23.8468 14.2705 25.7091C14.3631 27.5714 14.907 29.3802 15.8528 30.9708C16.7986 32.5614 18.1161 33.8832 19.6854 34.8158C21.2547 35.7484 23.0258 36.262 24.8374 36.31L48.6205 61.9624C48.745 62.1 48.9163 62.1827 49.0987 62.1933C49.281 62.2039 49.4603 62.1417 49.5991 62.0195L56.8473 55.7321C56.9874 55.6112 57.0775 55.44 57.0995 55.2533C57.1214 55.0665 57.0734 54.8781 56.9653 54.7264L35.817 26.783ZM17.8997 31.3588C16.296 29.3814 15.5178 26.8313 15.735 24.2655C15.9522 21.6997 17.1471 19.3265 19.0589 17.6641C20.0036 16.8437 21.0967 16.2237 22.2752 15.8396C23.4538 15.4556 24.6944 15.3153 25.9259 15.4266C27.1574 15.5379 28.3553 15.8987 29.4507 16.4883C30.5461 17.0778 31.5174 17.8845 32.3086 18.8618C33.1697 19.9224 33.8012 21.1598 34.1611 22.4913C34.521 23.8228 34.601 25.2179 34.3957 26.5838L24.894 34.8244C23.5552 34.7949 22.238 34.4703 21.0314 33.8725C19.8248 33.2747 18.7569 32.4175 17.8997 31.3588ZM49.1954 60.4404L26.189 35.631L34.9387 28.0426L55.413 55.0458L49.1954 60.4404Z" fill="#016B86"/>
<path d="M25.0841 13.6057C25.4123 13.6057 25.7452 13.6203 26.0734 13.6507C27.5317 13.7793 28.9506 14.205 30.2476 14.903C31.5446 15.601 32.6938 16.5573 33.6285 17.7163C34.6301 18.9516 35.3696 20.3888 35.7996 21.9355C36.2295 23.4823 36.3404 25.1045 36.1252 26.6979L57.2003 54.5466C57.3528 54.7603 57.4208 55.0257 57.3905 55.289C57.3603 55.5523 57.2341 55.7941 57.0374 55.9654L49.7893 62.2527C49.5922 62.4237 49.3391 62.5106 49.0818 62.4954C48.8244 62.4803 48.5825 62.3643 48.4057 62.1714L24.7064 36.6052C21.7894 36.4834 19.0343 35.1924 17.0301 33.008C15.0259 30.8237 13.9315 27.9193 13.9808 24.9156C14.0302 21.912 15.2193 19.0473 17.2941 16.9339C19.3689 14.8205 22.1648 13.626 25.0841 13.6057ZM56.7281 54.9061L35.5066 26.8644L35.5255 26.7356C35.7491 25.2078 35.6555 23.6486 35.2507 22.1607C34.846 20.6729 34.1394 19.2902 33.1775 18.1038C32.2925 17.006 31.2042 16.1003 29.9758 15.4392C28.7475 14.7781 27.4037 14.375 26.0226 14.2532C25.711 14.2252 25.3958 14.2106 25.0853 14.2106C22.6095 14.203 20.2129 15.108 18.3294 16.7616C16.6851 18.183 15.4995 20.0853 14.93 22.2161C14.3605 24.3469 14.434 26.6055 15.1407 28.6923C15.8474 30.7792 17.1539 32.5956 18.887 33.9008C20.62 35.206 22.6977 35.9381 24.8445 36.0003H24.9626L48.8307 61.7523C48.9039 61.8329 49.0043 61.8815 49.1113 61.8881C49.2183 61.8946 49.3237 61.8586 49.4056 61.7875L56.6538 55.5001C56.7361 55.4294 56.7894 55.3293 56.8032 55.2199C56.817 55.1105 56.7902 54.9998 56.7281 54.9098V54.9061ZM25.0853 15.0816C25.3722 15.0816 25.6626 15.095 25.9494 15.1205C27.2205 15.2325 28.4571 15.6035 29.5876 16.2118C30.718 16.8201 31.7196 17.6536 32.5342 18.6638C33.4205 19.7584 34.0707 21.0344 34.4417 22.4071C34.8127 23.7798 34.896 25.2179 34.6862 26.6263L34.6696 26.7392L24.998 35.1244H24.8858C22.323 35.0665 19.8856 33.9713 18.1024 32.0762C16.3192 30.1812 15.3339 27.6392 15.3601 25.0016C15.3864 22.3639 16.4221 19.8432 18.2427 17.9862C20.0632 16.1291 22.5219 15.0855 25.0853 15.0816ZM34.1195 26.4222C34.2987 25.1157 34.21 23.785 33.859 22.516C33.5081 21.2469 32.9028 20.0675 32.082 19.0537C31.3169 18.105 30.3762 17.3223 29.3144 16.7511C28.2527 16.18 27.0912 15.8317 25.8975 15.7266C25.6272 15.7023 25.3545 15.6902 25.0853 15.6902C22.9465 15.6836 20.8762 16.4653 19.249 17.8937C17.8327 19.1165 16.8096 20.7521 16.3144 22.585C15.8192 24.4179 15.8752 26.3622 16.4749 28.1617C17.0747 29.9613 18.19 31.5317 19.6741 32.6662C21.1583 33.8007 22.9415 34.446 24.789 34.5171L34.1195 26.4222ZM34.9825 27.6041L55.8203 55.0883L49.173 60.8534L25.7547 35.6103L34.9825 27.6041ZM55.0058 55.0009L34.8939 28.4775L26.6188 35.6541L49.2179 60.0262L55.0058 55.0009Z" fill="#016B86"/>
<path d="M31.787 34.4586L32.8847 33.5105L35.4913 36.721L34.3952 37.6709L31.787 34.4586Z" fill="#016B86"/>
<path d="M32.9202 33.0817L35.9064 36.7573L34.3567 38.0959L31.3736 34.424L32.9202 33.0817ZM35.0765 36.6828L32.8483 33.94L32.2027 34.4976L34.4355 37.246L35.0765 36.6828Z" fill="#016B86"/>
<path d="M25.5187 19.1618C25.637 19.074 25.7365 18.9621 25.8109 18.833C25.8853 18.7039 25.9331 18.5604 25.9513 18.4115C25.9695 18.2625 25.9577 18.1113 25.9166 17.9673C25.8755 17.8233 25.8061 17.6895 25.7126 17.5743C25.6191 17.4591 25.5035 17.3649 25.3731 17.2977C25.2427 17.2305 25.1002 17.1916 24.9545 17.1835C24.8089 17.1754 24.6631 17.1982 24.5264 17.2506C24.3897 17.303 24.265 17.3838 24.1599 17.4879C23.9441 17.6739 23.8088 17.9405 23.7837 18.229C23.7587 18.5176 23.8461 18.8046 24.0265 19.027C24.1154 19.1368 24.2245 19.2275 24.3476 19.2938C24.4706 19.3601 24.6052 19.4007 24.7436 19.4132C24.8819 19.4257 25.0213 19.41 25.1538 19.3668C25.2862 19.3237 25.409 19.254 25.5151 19.1618H25.5187Z" fill="#016B86"/>
<path d="M24.8398 19.7218C24.6421 19.722 24.4467 19.6773 24.2676 19.591C24.0884 19.5047 23.93 19.3789 23.8034 19.2226C23.6374 19.0193 23.5313 18.7716 23.4974 18.5085C23.4635 18.2453 23.5032 17.9777 23.6118 17.7369C23.7205 17.4962 23.8936 17.2923 24.1109 17.1492C24.3282 17.0062 24.5807 16.9298 24.8386 16.9292C25.1987 16.9292 25.544 17.0764 25.7986 17.3384C26.0532 17.6003 26.1962 17.9556 26.1962 18.3261C26.1962 18.6966 26.0532 19.0519 25.7986 19.3139C25.544 19.5759 25.1987 19.7231 24.8386 19.7231L24.8398 19.7218ZM24.8398 17.5353C24.661 17.5354 24.488 17.6004 24.3511 17.7188C24.196 17.8539 24.099 18.0467 24.0813 18.2551C24.0636 18.4635 24.1266 18.6706 24.2567 18.8315C24.3398 18.9317 24.4461 19.0088 24.5658 19.0557C24.6854 19.1026 24.8146 19.1178 24.9415 19.0999C25.0684 19.082 25.1888 19.0315 25.2918 18.9531C25.3948 18.8748 25.4769 18.771 25.5307 18.6515C25.5845 18.5319 25.6083 18.4003 25.5997 18.2688C25.5912 18.1373 25.5506 18.0102 25.4818 17.899C25.413 17.7879 25.3182 17.6963 25.206 17.6328C25.0938 17.5692 24.9679 17.5357 24.8398 17.5353Z" fill="#016B86"/>
<path d="M22.4411 21.8307C22.63 21.6662 22.7566 21.4386 22.7987 21.1877C22.8407 20.9368 22.7956 20.6786 22.6712 20.4586C22.5467 20.2385 22.351 20.0705 22.1182 19.9842C21.8854 19.8978 21.6305 19.8985 21.3982 19.9862C21.166 20.074 20.9711 20.243 20.8479 20.4638C20.7247 20.6846 20.6809 20.943 20.7244 21.1937C20.7678 21.4443 20.8956 21.6712 21.0854 21.8346C21.2752 21.9979 21.5149 22.0873 21.7623 22.087C22.0108 22.0865 22.2512 21.9957 22.4411 21.8307Z" fill="#016B86"/>
<path d="M21.7622 22.3906C21.4438 22.3911 21.1354 22.2763 20.8912 22.0661C20.6469 21.8559 20.4825 21.5639 20.4267 21.2414C20.3709 20.9188 20.4274 20.5864 20.5862 20.3024C20.745 20.0184 20.9959 19.8011 21.295 19.6887C21.594 19.5762 21.922 19.5758 22.2213 19.6874C22.5206 19.7991 22.7721 20.0158 22.9316 20.2993C23.0911 20.5828 23.1484 20.9152 23.0935 21.2379C23.0385 21.5606 22.8748 21.853 22.631 22.0638C22.388 22.2749 22.0802 22.3906 21.7622 22.3906ZM21.7622 20.2041C21.588 20.2033 21.4187 20.2637 21.2824 20.3754C21.1461 20.487 21.0509 20.6432 21.0126 20.8181C20.9743 20.993 20.9952 21.1761 21.0717 21.3371C21.1483 21.4982 21.276 21.6275 21.4337 21.7037C21.5914 21.7799 21.7696 21.7984 21.9389 21.7562C22.1083 21.714 22.2585 21.6136 22.3648 21.4716C22.4712 21.3295 22.5272 21.1544 22.5236 20.9752C22.5201 20.796 22.4572 20.6233 22.3454 20.4859C22.2739 20.398 22.1845 20.3273 22.0835 20.2788C21.9825 20.2303 21.8724 20.2052 21.761 20.2053L21.7622 20.2041Z" fill="#016B86"/>
<path d="M19.3647 24.4994C19.5536 24.3349 19.6802 24.1073 19.7222 23.8564C19.7643 23.6055 19.7192 23.3473 19.5947 23.1273C19.4703 22.9072 19.2745 22.7392 19.0418 22.6529C18.809 22.5665 18.5541 22.5672 18.3218 22.655C18.0895 22.7427 17.8947 22.9117 17.7715 23.1325C17.6482 23.3533 17.6045 23.6117 17.6479 23.8624C17.6914 24.113 17.8192 24.3399 18.009 24.5033C18.1988 24.6666 18.4385 24.756 18.6859 24.7557C18.9343 24.7545 19.1745 24.6638 19.3647 24.4994Z" fill="#016B86"/>
<path d="M18.6858 25.0581C18.3675 25.0584 18.0592 24.9432 17.8152 24.7329C17.5711 24.5226 17.4069 24.2305 17.3514 23.908C17.2958 23.5854 17.3524 23.253 17.5114 22.9692C17.6703 22.6854 17.9213 22.4682 18.2203 22.3559C18.5194 22.2436 18.8473 22.2433 19.1465 22.3551C19.4458 22.4668 19.6972 22.6835 19.8566 22.967C20.016 23.2506 20.0732 23.5828 20.0182 23.9055C19.9632 24.2281 19.7995 24.5205 19.5558 24.7313C19.3125 24.9426 19.0043 25.0584 18.6858 25.0581ZM18.6858 22.8716C18.5116 22.8708 18.3423 22.9312 18.206 23.0429C18.0697 23.1545 17.9746 23.3107 17.9362 23.4856C17.8979 23.6605 17.9188 23.8436 17.9953 24.0046C18.0719 24.1656 18.1996 24.295 18.3573 24.3712C18.515 24.4474 18.6932 24.4659 18.8626 24.4237C19.0319 24.3815 19.1821 24.2811 19.2885 24.1391C19.3948 23.997 19.4508 23.8219 19.4473 23.6427C19.4437 23.4634 19.3808 23.2908 19.269 23.1534C19.1975 23.0654 19.1081 22.9947 19.0072 22.9462C18.9062 22.8977 18.7961 22.8726 18.6846 22.8728L18.6858 22.8716Z" fill="#016B86"/>
<path d="M28.6056 20.8283C28.7766 20.8289 28.9452 20.787 29.0971 20.7062C29.249 20.6255 29.3797 20.5081 29.4781 20.3642C29.5765 20.2204 29.6397 20.0542 29.6623 19.8798C29.6849 19.7054 29.6663 19.5279 29.608 19.3625C29.5498 19.1971 29.4536 19.0486 29.3276 18.9296C29.2016 18.8107 29.0496 18.7248 28.8845 18.6792C28.7193 18.6336 28.5459 18.6297 28.379 18.6678C28.2121 18.7059 28.0566 18.785 27.9257 18.8981C27.7103 19.0847 27.5757 19.3515 27.5513 19.64C27.527 19.9286 27.6149 20.2153 27.7958 20.4372C27.8947 20.5595 28.0185 20.6579 28.1584 20.7255C28.2984 20.7931 28.451 20.8282 28.6056 20.8283Z" fill="#016B86"/>
<path d="M28.6055 21.132C28.4077 21.1321 28.2123 21.0874 28.0332 21.0011C27.8541 20.9149 27.6956 20.7891 27.569 20.6327C27.4031 20.4295 27.2969 20.1817 27.263 19.9186C27.2291 19.6555 27.2688 19.3878 27.3775 19.1471C27.4861 18.9063 27.6593 18.7025 27.8766 18.5594C28.0939 18.4163 28.3463 18.34 28.6043 18.3394C28.9643 18.3394 29.3096 18.4865 29.5642 18.7485C29.8188 19.0105 29.9618 19.3658 29.9618 19.7363C29.9618 20.1068 29.8188 20.4621 29.5642 20.7241C29.3096 20.986 28.9643 21.1332 28.6043 21.1332L28.6055 21.132ZM28.6055 18.9455C28.4265 18.9459 28.2534 19.0113 28.1167 19.1301C27.9618 19.2655 27.865 19.4583 27.8476 19.6667C27.8301 19.8751 27.8933 20.0822 28.0235 20.2428C28.1066 20.3431 28.2129 20.4202 28.3326 20.4671C28.4522 20.514 28.5815 20.5292 28.7083 20.5112C28.8352 20.4933 28.9556 20.4429 29.0586 20.3645C29.1616 20.2861 29.2437 20.1824 29.2975 20.0628C29.3513 19.9432 29.3751 19.8117 29.3665 19.6802C29.358 19.5487 29.3174 19.4215 29.2486 19.3104C29.1798 19.1993 29.085 19.1077 28.9728 19.0441C28.8606 18.9806 28.7347 18.9471 28.6066 18.9467L28.6055 18.9455Z" fill="#016B86"/>
<path d="M25.5292 23.4973C25.7002 23.4979 25.8688 23.456 26.0207 23.3752C26.1726 23.2944 26.3033 23.1771 26.4017 23.0332C26.5001 22.8893 26.5633 22.7231 26.5859 22.5487C26.6085 22.3743 26.5899 22.1969 26.5316 22.0315C26.4734 21.8661 26.3772 21.7176 26.2512 21.5986C26.1252 21.4796 25.9732 21.3937 25.8081 21.3481C25.6429 21.3025 25.4695 21.2986 25.3026 21.3368C25.1357 21.3749 24.9802 21.4539 24.8493 21.5671C24.6339 21.7536 24.4993 22.0204 24.4749 22.309C24.4506 22.5975 24.5385 22.8842 24.7194 23.1061C24.8183 23.2284 24.9421 23.3269 25.082 23.3945C25.222 23.4621 25.3746 23.4972 25.5292 23.4973Z" fill="#016B86"/>
<path d="M25.5293 23.8009C25.3315 23.8011 25.1361 23.7564 24.957 23.6701C24.7779 23.5838 24.6194 23.458 24.4928 23.3017C24.3269 23.0984 24.2208 22.8507 24.1868 22.5875C24.1529 22.3244 24.1926 22.0568 24.3013 21.816C24.41 21.5753 24.5831 21.3714 24.8004 21.2283C25.0177 21.0853 25.2701 21.009 25.5281 21.0083C25.8881 21.0083 26.2334 21.1555 26.488 21.4175C26.7426 21.6794 26.8857 22.0347 26.8857 22.4052C26.8857 22.7757 26.7426 23.131 26.488 23.393C26.2334 23.655 25.8881 23.8022 25.5281 23.8022L25.5293 23.8009ZM25.5293 21.6144C25.3503 21.6149 25.1773 21.6803 25.0406 21.7991C24.8854 21.9343 24.7885 22.127 24.7708 22.3354C24.7531 22.5438 24.8161 22.751 24.9461 22.9118C25.0293 23.012 25.1355 23.0891 25.2552 23.136C25.3749 23.1829 25.5041 23.1981 25.631 23.1802C25.7579 23.1623 25.8783 23.1118 25.9813 23.0335C26.0842 22.9551 26.1664 22.8514 26.2202 22.7318C26.274 22.6122 26.2977 22.4806 26.2892 22.3491C26.2806 22.2177 26.2401 22.0905 26.1713 21.9793C26.1025 21.8682 26.0076 21.7767 25.8954 21.7131C25.7833 21.6495 25.6573 21.6148 25.5293 21.6144Z" fill="#016B86"/>
<path d="M22.4518 23.9819C22.2098 23.9811 21.9747 24.0653 21.7855 24.2206C21.5964 24.3759 21.4644 24.5931 21.4115 24.836C21.3585 25.079 21.3878 25.3333 21.4944 25.5569C21.6011 25.7804 21.7787 25.9598 21.9979 26.0654C22.2171 26.1709 22.4647 26.1963 22.6999 26.1373C22.935 26.0783 23.1435 25.9385 23.2909 25.741C23.4382 25.5435 23.5157 25.3001 23.5104 25.0511C23.505 24.8021 23.4173 24.5625 23.2616 24.3719C23.1625 24.2499 23.0386 24.1518 22.8987 24.0844C22.7588 24.017 22.6062 23.9821 22.4518 23.9819Z" fill="#016B86"/>
<path d="M22.4517 23.677C22.7701 23.6764 23.0785 23.7913 23.3227 24.0015C23.5669 24.2116 23.7314 24.5036 23.7872 24.8262C23.843 25.1487 23.7865 25.4812 23.6277 25.7652C23.4689 26.0491 23.218 26.2664 22.9189 26.3789C22.6199 26.4914 22.2919 26.4918 21.9926 26.3801C21.6933 26.2684 21.4418 26.0518 21.2823 25.7683C21.1228 25.4847 21.0655 25.1524 21.1204 24.8297C21.1754 24.507 21.3391 24.2146 21.5829 24.0038C21.8259 23.7927 22.1337 23.677 22.4517 23.677ZM22.4517 25.8635C22.6259 25.8643 22.7952 25.8038 22.9315 25.6922C23.0678 25.5805 23.163 25.4244 23.2013 25.2495C23.2396 25.0746 23.2187 24.8915 23.1422 24.7304C23.0656 24.5694 22.9379 24.4401 22.7802 24.3639C22.6225 24.2877 22.4443 24.2691 22.2749 24.3114C22.1056 24.3536 21.9554 24.454 21.8491 24.596C21.7427 24.738 21.6867 24.9131 21.6902 25.0924C21.6938 25.2716 21.7567 25.4442 21.8685 25.5817C21.9399 25.6697 22.0293 25.7405 22.1303 25.789C22.2313 25.8375 22.3414 25.8625 22.4529 25.8623L22.4517 25.8635Z" fill="#016B86"/>
<path d="M19.3741 26.6482C19.1321 26.6474 18.8971 26.7316 18.7079 26.8869C18.5187 27.0422 18.3868 27.2593 18.3338 27.5023C18.2809 27.7453 18.3102 27.9996 18.4168 28.2232C18.5234 28.4467 18.7011 28.6261 18.9203 28.7316C19.1395 28.8372 19.3871 28.8626 19.6222 28.8036C19.8573 28.7446 20.0658 28.6048 20.2132 28.4072C20.3606 28.2097 20.438 27.9663 20.4327 27.7174C20.4274 27.4684 20.3396 27.2288 20.1839 27.0381C20.0849 26.9161 19.9611 26.8179 19.8211 26.7506C19.6812 26.6832 19.5286 26.6482 19.3741 26.6482Z" fill="#016B86"/>
<path d="M19.374 26.3445C19.6924 26.3439 20.0008 26.4588 20.2451 26.6689C20.4893 26.8791 20.6538 27.1711 20.7096 27.4937C20.7653 27.8162 20.7089 28.1487 20.5501 28.4327C20.3913 28.7166 20.1403 28.9339 19.8413 29.0464C19.5423 29.1589 19.2143 29.1593 18.9149 29.0476C18.6156 28.9359 18.3641 28.7193 18.2046 28.4357C18.0451 28.1522 17.9878 27.8199 18.0428 27.4972C18.0978 27.1745 18.2615 26.8821 18.5052 26.6712C18.7483 26.4602 19.056 26.3444 19.374 26.3445ZM19.374 28.531C19.5483 28.5318 19.7175 28.4713 19.8538 28.3597C19.9901 28.248 20.0853 28.0918 20.1236 27.9169C20.162 27.7421 20.1411 27.559 20.0645 27.3979C19.988 27.2369 19.8603 27.1076 19.7026 27.0314C19.5449 26.9552 19.3666 26.9366 19.1973 26.9788C19.028 27.021 18.8777 27.1215 18.7714 27.2635C18.6651 27.4055 18.6091 27.5806 18.6126 27.7598C18.6162 27.9391 18.6791 28.1117 18.7909 28.2492C18.8624 28.3371 18.9517 28.4079 19.0527 28.4564C19.1537 28.5049 19.2638 28.5299 19.3752 28.5298L19.374 28.531Z" fill="#016B86"/>
<path d="M46.5987 61.2795L13.5299 34.8815C13.1914 34.6112 12.8037 34.4121 12.3889 34.2957C11.9742 34.1792 11.5406 34.1477 11.1129 34.203C10.6851 34.2582 10.2716 34.3991 9.89604 34.6175C9.52042 34.836 9.19005 35.1278 8.92378 35.4762L2.67387 43.6527C2.58923 43.7634 2.5508 43.9037 2.56704 44.0427C2.58327 44.1817 2.65283 44.308 2.76043 44.3939C2.86802 44.4798 3.00483 44.5182 3.14076 44.5007C3.27669 44.4831 3.4006 44.4111 3.48523 44.3004L9.73632 36.1237C10.1049 35.6416 10.6445 35.3278 11.2365 35.2514C11.8285 35.175 12.4242 35.3422 12.8928 35.7162L45.9604 62.1143C46.0783 62.2084 46.1768 62.3254 46.2502 62.4587C46.3236 62.5921 46.3706 62.7391 46.3884 62.8914C46.4061 63.0437 46.3944 63.1982 46.3538 63.3463C46.3133 63.4944 46.2447 63.633 46.1519 63.7542L44.713 65.6363C44.5254 65.8808 44.2514 66.0398 43.9508 66.0786C43.6503 66.1174 43.3478 66.0328 43.1095 65.8434L26.6139 52.6754C26.5607 52.6328 26.4997 52.6015 26.4344 52.5831C26.3691 52.5648 26.3009 52.5598 26.2336 52.5685C26.1663 52.5772 26.1012 52.5994 26.0421 52.6338C25.983 52.6682 25.931 52.7141 25.8891 52.7689L21.4193 58.6156C21.3347 58.7263 21.2963 58.8666 21.3125 59.0056C21.3287 59.1446 21.3983 59.271 21.5059 59.3568C21.6135 59.4427 21.7503 59.4811 21.8862 59.4636C22.0221 59.446 22.146 59.374 22.2307 59.2633L26.3819 53.8334L42.4713 66.6782C42.9248 67.0397 43.5012 67.2012 44.0739 67.1272C44.6465 67.0533 45.1686 66.75 45.5256 66.2839L46.9644 64.4018C47.1411 64.1708 47.2718 63.9068 47.3491 63.6248C47.4264 63.3428 47.4487 63.0483 47.4149 62.7582C47.381 62.4682 47.2916 62.1881 47.1517 61.9342C47.0118 61.6802 46.8242 61.4573 46.5997 61.2781L46.5987 61.2795Z" fill="#016B86"/>
<path d="M44.1431 67.7285C43.7825 67.7762 43.4168 67.7503 43.067 67.6523C42.7172 67.5542 42.3903 67.386 42.1053 67.1574L26.4799 54.683L22.6951 59.6351C22.6051 59.7528 22.4936 59.8513 22.3667 59.925C22.2399 59.9988 22.1003 60.0463 21.9558 60.065C21.8114 60.0836 21.665 60.073 21.525 60.0337C21.3849 59.9944 21.254 59.9272 21.1397 59.8359C21.0254 59.7447 20.9299 59.6311 20.8587 59.5018C20.7875 59.3725 20.7419 59.2299 20.7247 59.0822C20.7075 58.9345 20.7188 58.7845 20.7582 58.6409C20.7975 58.4973 20.864 58.3629 20.954 58.2452L25.4238 52.3985C25.5137 52.2809 25.6253 52.1823 25.7521 52.1086C25.8789 52.0348 26.0185 51.9872 26.163 51.9686C26.3074 51.9499 26.4538 51.9606 26.5939 51.9999C26.7339 52.0392 26.8648 52.1064 26.9791 52.1977L43.4761 65.3658C43.591 65.4568 43.7368 65.4974 43.8816 65.4787C44.0264 65.46 44.1585 65.3836 44.2491 65.266L45.688 63.3838C45.7328 63.3254 45.7659 63.2586 45.7854 63.1872C45.8049 63.1158 45.8104 63.0413 45.8016 62.9679C45.7937 62.8944 45.7714 62.8233 45.736 62.7589C45.7006 62.6946 45.6529 62.6382 45.5957 62.5933L12.5265 36.195C12.3556 36.0585 12.1598 35.958 11.9504 35.8992C11.741 35.8404 11.522 35.8245 11.306 35.8524C11.09 35.8803 10.8812 35.9514 10.6915 36.0617C10.5019 36.172 10.335 36.3194 10.2006 36.4953L3.95161 44.6705C3.86181 44.7889 3.75001 44.888 3.62271 44.962C3.49542 45.036 3.35518 45.0835 3.21016 45.1016C2.99229 45.13 2.77151 45.0916 2.57584 44.9913C2.38018 44.8909 2.21846 44.7331 2.1112 44.5378C2.00395 44.3426 1.956 44.1188 1.97345 43.8947C1.99089 43.6707 2.07294 43.4566 2.20919 43.2796L8.45945 35.1054C8.77375 34.6942 9.16371 34.3498 9.60705 34.0919C10.0504 33.8341 10.5384 33.6678 11.0433 33.6026C11.5482 33.5375 12.06 33.5746 12.5495 33.712C13.039 33.8495 13.4966 34.0844 13.8961 34.4035L46.9651 60.8006C47.5416 61.2609 47.9143 61.9379 48.0012 62.6827C48.0882 63.4276 47.8824 64.1793 47.429 64.7725L45.9886 66.6524C45.765 66.9473 45.4868 67.1943 45.17 67.3791C44.8532 67.5638 44.5042 67.6825 44.1431 67.7285Z" fill="#016B86"/>
<path d="M10.0425 39.6282C9.98918 39.5856 9.92815 39.5543 9.86287 39.5359C9.79758 39.5176 9.72931 39.5126 9.66196 39.5213C9.59462 39.53 9.52952 39.5522 9.47039 39.5866C9.41126 39.621 9.35926 39.667 9.31737 39.7218L4.9772 45.3993C4.89253 45.51 4.85409 45.6504 4.87033 45.7895C4.88657 45.9285 4.95616 46.055 5.0638 46.1409C5.17144 46.2268 5.3083 46.2652 5.44428 46.2477C5.58026 46.2301 5.70423 46.158 5.7889 46.0473L10.1291 40.3698C10.171 40.315 10.2021 40.2523 10.2204 40.1854C10.2388 40.1184 10.2441 40.0485 10.2361 39.9796C10.228 39.9108 10.2068 39.8443 10.1736 39.784C10.1403 39.7237 10.0958 39.6707 10.0425 39.6282Z" fill="#016B86"/>
<path d="M9.59163 38.9203C9.88336 38.8826 10.177 38.965 10.4079 39.1494C10.6388 39.3337 10.7881 39.6049 10.823 39.9033C10.8407 40.0511 10.8295 40.2012 10.7902 40.3449C10.7509 40.4886 10.6842 40.6231 10.5939 40.7406L6.25608 46.4177C6.16637 46.5356 6.05481 46.6344 5.92787 46.7081C5.80093 46.7819 5.66113 46.8293 5.51655 46.8475C5.29852 46.8762 5.07751 46.838 4.8816 46.7377C4.68569 46.6374 4.52373 46.4795 4.41628 46.2842C4.30883 46.0888 4.26075 45.8648 4.27816 45.6405C4.29556 45.4163 4.37765 45.202 4.51401 45.0248L8.8521 39.3501C8.94181 39.2321 9.05337 39.1334 9.18031 39.0597C9.30725 38.9859 9.44705 38.9385 9.59163 38.9203Z" fill="#016B86"/>
<path d="M12.3894 41.5149C12.3361 41.4724 12.2751 41.441 12.2098 41.4226C12.1445 41.4043 12.0762 41.3993 12.0089 41.408C11.9415 41.4167 11.8764 41.4389 11.8173 41.4733C11.7582 41.5077 11.7062 41.5537 11.6643 41.6086L7.32413 47.286C7.23946 47.3967 7.20101 47.5371 7.21725 47.6762C7.23349 47.8153 7.30309 47.9417 7.41072 48.0276C7.51836 48.1135 7.65522 48.1519 7.79121 48.1344C7.92719 48.1168 8.05115 48.0447 8.13582 47.934L12.476 42.2566C12.5179 42.2017 12.549 42.1391 12.5674 42.0721C12.5857 42.0051 12.591 41.9352 12.583 41.8663C12.575 41.7975 12.5537 41.731 12.5205 41.6707C12.4873 41.6104 12.4427 41.5575 12.3894 41.5149Z" fill="#016B86"/>
<path d="M11.9386 40.807C12.2302 40.7697 12.5237 40.8522 12.7545 41.0365C12.9854 41.2208 13.1348 41.4918 13.1699 41.79C13.1876 41.9378 13.1765 42.0879 13.1371 42.2316C13.0978 42.3753 13.0311 42.5098 12.9408 42.6273L8.603 48.3044C8.51329 48.4224 8.40174 48.5211 8.2748 48.5949C8.14786 48.6686 8.00805 48.716 7.86347 48.7342C7.64545 48.7629 7.42444 48.7247 7.22853 48.6244C7.03262 48.5241 6.87065 48.3662 6.7632 48.1709C6.65575 47.9755 6.60768 47.7515 6.62508 47.5273C6.64248 47.303 6.72458 47.0887 6.86094 46.9115L11.199 41.2368C11.2887 41.1189 11.4003 41.0201 11.5272 40.9464C11.6542 40.8726 11.794 40.8252 11.9386 40.807Z" fill="#016B86"/>
<path d="M14.7363 43.4019C14.683 43.3593 14.622 43.328 14.5567 43.3096C14.4914 43.2913 14.4232 43.2863 14.3558 43.295C14.2885 43.3037 14.2234 43.3259 14.1642 43.3603C14.1051 43.3947 14.0531 43.4407 14.0112 43.4955L9.67105 49.173C9.58638 49.2837 9.54794 49.4241 9.56418 49.5631C9.58042 49.7022 9.65001 49.8286 9.75765 49.9146C9.86528 50.0005 10.0021 50.0389 10.1381 50.0213C10.2741 50.0038 10.3981 49.9317 10.4827 49.8209L14.8229 44.1435C14.8649 44.0887 14.8959 44.026 14.9143 43.9591C14.9327 43.8921 14.938 43.8222 14.9299 43.7533C14.9219 43.6844 14.9006 43.6179 14.8674 43.5576C14.8342 43.4974 14.7896 43.4444 14.7363 43.4019Z" fill="#016B86"/>
<path d="M14.2854 42.694C14.4299 42.6749 14.5764 42.6853 14.7166 42.7245C14.8567 42.7638 14.9877 42.8312 15.1019 42.9228C15.3326 43.1074 15.4818 43.3786 15.5166 43.677C15.5515 43.9754 15.4691 44.2765 15.2877 44.5143L10.9499 50.1914C10.8602 50.3094 10.7487 50.4082 10.6218 50.482C10.4948 50.5558 10.3549 50.6031 10.2103 50.6212C10.0656 50.6404 9.91873 50.6299 9.77833 50.5905C9.63794 50.551 9.50681 50.4833 9.39258 50.3912C9.16191 50.2069 9.01279 49.9358 8.97798 49.6377C8.94316 49.3395 9.0255 49.0386 9.2069 48.801L13.5459 43.1237C13.6356 43.0058 13.7472 42.9071 13.8741 42.8333C14.001 42.7595 14.1408 42.7122 14.2854 42.694Z" fill="#016B86"/>
<path d="M17.0832 45.2886C17.03 45.246 16.9689 45.2147 16.9036 45.1963C16.8383 45.178 16.7701 45.173 16.7027 45.1817C16.6354 45.1904 16.5703 45.2126 16.5112 45.247C16.452 45.2814 16.4 45.3274 16.3581 45.3822L12.018 51.0597C11.9333 51.1704 11.8949 51.3108 11.9111 51.4499C11.9273 51.5889 11.9969 51.7154 12.1046 51.8013C12.2122 51.8872 12.3491 51.9256 12.4851 51.9081C12.621 51.8905 12.745 51.8184 12.8297 51.7077L17.1698 46.0302C17.2118 45.9754 17.2428 45.9127 17.2612 45.8458C17.2796 45.7788 17.2849 45.7089 17.2768 45.64C17.2688 45.5712 17.2476 45.5047 17.2143 45.4444C17.1811 45.3841 17.1366 45.3311 17.0832 45.2886Z" fill="#016B86"/>
<path d="M16.6324 44.5807C16.9241 44.5434 17.2175 44.6259 17.4484 44.8102C17.6792 44.9945 17.8286 45.2655 17.8638 45.5637C17.8813 45.7116 17.87 45.8617 17.8305 46.0055C17.7909 46.1492 17.724 46.2837 17.6335 46.4011L13.2968 52.0781C13.2071 52.196 13.0956 52.2948 12.9686 52.3685C12.8417 52.4423 12.7019 52.4897 12.5573 52.5079C12.3393 52.5366 12.1183 52.4984 11.9224 52.3981C11.7265 52.2978 11.5645 52.1399 11.457 51.9446C11.3496 51.7492 11.3015 51.5252 11.3189 51.301C11.3363 51.0767 11.4184 50.8624 11.5548 50.6852L15.8929 45.0105C15.9826 44.8925 16.0941 44.7938 16.2211 44.7201C16.348 44.6463 16.4878 44.5989 16.6324 44.5807Z" fill="#016B86"/>
<path d="M19.4302 47.1753C19.3769 47.1328 19.3158 47.1014 19.2506 47.083C19.1853 47.0647 19.117 47.0597 19.0497 47.0684C18.9823 47.0771 18.9172 47.0993 18.8581 47.1337C18.799 47.1681 18.747 47.2141 18.7051 47.269L14.3649 52.9464C14.2802 53.0571 14.2418 53.1975 14.258 53.3366C14.2743 53.4757 14.3439 53.6021 14.4515 53.688C14.5591 53.7739 14.696 53.8123 14.832 53.7948C14.968 53.7772 15.0919 53.7051 15.1766 53.5944L19.5168 47.917C19.5587 47.8621 19.5898 47.7995 19.6081 47.7325C19.6265 47.6655 19.6318 47.5956 19.6238 47.5267C19.6157 47.4579 19.5945 47.3914 19.5613 47.3311C19.528 47.2708 19.4835 47.2179 19.4302 47.1753Z" fill="#016B86"/>
<path d="M18.9793 46.4677C19.271 46.4303 19.5645 46.5129 19.7953 46.6971C20.0262 46.8814 20.1755 47.1524 20.2107 47.4507C20.2284 47.5984 20.2172 47.7485 20.1779 47.8922C20.1386 48.036 20.0719 48.1705 19.9816 48.288L15.6438 53.9651C15.5541 54.083 15.4425 54.1817 15.3156 54.2555C15.1886 54.3293 15.0488 54.3766 14.9042 54.3949C14.6862 54.4236 14.4652 54.3853 14.2693 54.285C14.0734 54.1847 13.9114 54.0269 13.804 53.8315C13.6965 53.6362 13.6484 53.4122 13.6659 53.1879C13.6833 52.9637 13.7653 52.7493 13.9017 52.5722L18.2398 46.8974C18.3295 46.7795 18.4411 46.6808 18.568 46.607C18.6949 46.5332 18.8347 46.4859 18.9793 46.4677Z" fill="#016B86"/>
<path d="M21.7773 49.0623C21.724 49.0197 21.663 48.9884 21.5977 48.97C21.5324 48.9517 21.4642 48.9467 21.3968 48.9554C21.3295 48.9641 21.2644 48.9863 21.2053 49.0207C21.1461 49.0551 21.0941 49.1011 21.0522 49.1559L16.7121 54.8334C16.6274 54.9441 16.589 55.0845 16.6052 55.2235C16.6214 55.3626 16.691 55.489 16.7987 55.575C16.9063 55.6609 17.0432 55.6993 17.1791 55.6818C17.3151 55.6642 17.4391 55.5921 17.5238 55.4813L21.8639 49.8039C21.9059 49.7491 21.9369 49.6864 21.9553 49.6195C21.9737 49.5525 21.979 49.4826 21.9709 49.4137C21.9629 49.3448 21.9417 49.2783 21.9084 49.218C21.8752 49.1578 21.8307 49.1048 21.7773 49.0623Z" fill="#016B86"/>
<path d="M21.3262 48.3544C21.618 48.3167 21.9116 48.3991 22.1425 48.5835C22.3735 48.7678 22.5228 49.039 22.5576 49.3374C22.5753 49.4852 22.5642 49.6352 22.5248 49.779C22.4855 49.9227 22.4188 50.0572 22.3285 50.1747L17.9907 55.8518C17.901 55.9698 17.7895 56.0685 17.6625 56.1423C17.5356 56.2161 17.3958 56.2634 17.2512 56.2816C17.0331 56.3103 16.8121 56.2721 16.6162 56.1717C16.4203 56.0714 16.2583 55.9136 16.1509 55.7182C16.0434 55.5229 15.9954 55.2989 16.0128 55.0746C16.0302 54.8504 16.1123 54.6361 16.2486 54.4589L20.5867 48.7842C20.6764 48.6662 20.788 48.5675 20.9149 48.4937C21.0419 48.42 21.1817 48.3726 21.3262 48.3544Z" fill="#016B86"/>
<path d="M24.1243 50.949C24.071 50.9064 24.0099 50.8751 23.9447 50.8567C23.8794 50.8384 23.8111 50.8334 23.7438 50.8421C23.6764 50.8508 23.6113 50.873 23.5522 50.9074C23.4931 50.9418 23.4411 50.9878 23.3992 51.0427L19.059 56.7201C18.9743 56.8308 18.9359 56.9712 18.9521 57.1103C18.9684 57.2493 19.0379 57.3758 19.1456 57.4617C19.2532 57.5476 19.3901 57.586 19.5261 57.5685C19.6621 57.5509 19.786 57.4788 19.8707 57.3681L24.2108 51.6906C24.2528 51.6358 24.2839 51.5731 24.3022 51.5062C24.3206 51.4392 24.3259 51.3693 24.3179 51.3004C24.3098 51.2316 24.2886 51.1651 24.2554 51.1048C24.2221 51.0445 24.1776 50.9916 24.1243 50.949Z" fill="#016B86"/>
<path d="M23.6732 50.2411C23.8177 50.2217 23.9643 50.2319 24.1045 50.2712C24.2447 50.3105 24.3756 50.3781 24.4896 50.47C24.6042 50.561 24.6999 50.6746 24.7711 50.804C24.8424 50.9335 24.8877 51.0762 24.9045 51.2241C24.9222 51.3719 24.9111 51.522 24.8718 51.6657C24.8324 51.8094 24.7657 51.9439 24.6754 52.0614L20.3376 57.7385C20.2479 57.8565 20.1364 57.9552 20.0094 58.0289C19.8825 58.1027 19.7427 58.1501 19.5981 58.1683C19.3801 58.197 19.1591 58.1588 18.9631 58.0585C18.7672 57.9582 18.6053 57.8003 18.4978 57.605C18.3904 57.4096 18.3423 57.1856 18.3597 56.9614C18.3771 56.7371 18.4592 56.5228 18.5956 56.3456L22.9336 50.6709C23.0234 50.5529 23.1349 50.4542 23.2619 50.3805C23.3888 50.3067 23.5286 50.2593 23.6732 50.2411Z" fill="#016B86"/>
</g>
<defs>
<clipPath id="clip0_528_521">
<rect width="78.1916" height="72" fill="white" transform="translate(0.904297 0.740723)"/>
</clipPath>
</defs>
</svg>
