<svg width="80" height="73" viewBox="0 0 80 73" fill="none" xmlns="http://www.w3.org/2000/svg">
<g clip-path="url(#clip0_528_469)">
<path d="M73.354 31.9296C74.2481 31.9233 75.1292 31.6783 75.9298 31.2133C76.7304 30.7483 77.4294 30.0756 77.9734 29.2466C78.5471 28.2797 78.9174 27.1684 79.0542 26.0028C79.191 24.8373 79.0905 23.6505 78.7608 22.5389L73.324 1.69579C73.2521 1.41881 73.106 1.17614 72.9071 1.0036C72.7082 0.831066 72.4671 0.73779 72.2194 0.737549H7.77927C7.53149 0.737535 7.29028 0.830712 7.09134 1.00329C6.89241 1.17586 6.74631 1.41867 6.67467 1.69579L1.23916 22.5453C0.909287 23.6568 0.808554 24.8435 0.945141 26.009C1.08173 27.1745 1.45178 28.286 2.02523 29.253C2.56926 30.0819 3.26829 30.7545 4.06889 31.2195C4.8695 31.6846 5.75051 31.9296 6.64459 31.936V70.0513H0.941136V72.7471H79.0575V70.0513H73.354V31.9296ZM76.1183 27.6415C75.7519 28.1757 75.282 28.6002 74.7474 28.8802C74.2128 29.1601 73.6288 29.2873 73.0437 29.2514C71.5196 29.1605 70.0568 28.5218 68.8552 27.4226C67.6537 26.3235 66.7722 24.8175 66.3313 23.1107H76.4942L76.5516 23.3311C76.7728 24.0391 76.849 24.7977 76.7739 25.5462C76.6989 26.2948 76.4735 27.0124 76.1183 27.6415ZM63.1679 27.5249C62.7579 28.0881 62.2444 28.5358 61.6657 28.8347C61.0869 29.1336 60.4579 29.2761 59.8254 29.2514C58.3618 29.1992 56.9581 28.5604 55.8499 27.4423C54.7417 26.3241 53.9964 24.7947 53.7392 23.1107H63.9554L63.9718 23.2065C64.1246 23.9505 64.1319 24.7252 63.9929 25.4728C63.854 26.2205 63.5711 26.922 63.1679 27.5249ZM16.0255 23.2129L16.0419 23.1171H26.2581C26.0009 24.8011 25.2556 26.3305 24.1474 27.4487C23.0392 28.5668 21.6355 29.2055 20.1719 29.2577C19.5394 29.2824 18.9104 29.14 18.3316 28.8411C17.7529 28.5421 17.2393 28.0944 16.8293 27.5313C16.4252 26.9277 16.1431 26.2252 16.0041 25.4763C15.8652 24.7274 15.8729 23.9514 16.0269 23.2065L16.0255 23.2129ZM26.5055 20.4213H16.5122L19.4623 3.43657H27.9806L26.5055 20.4213ZM28.5931 23.1171H38.8366C38.7737 24.7606 38.1737 26.3134 37.1603 27.4558C36.1468 28.5981 34.797 29.243 33.3888 29.2577C32.7151 29.2738 32.0463 29.1215 31.4271 28.8111C30.808 28.5008 30.2527 28.0394 29.7985 27.458C29.3443 26.8766 29.0016 26.1885 28.7935 25.4399C28.5854 24.6913 28.518 23.8993 28.5931 23.1171ZM60.5363 3.43657L63.4878 20.4133H53.4917L52.0166 3.43657H60.5363ZM51.1718 20.4133H41.1538V3.43657H49.6967L51.1718 20.4133ZM51.4042 23.1091C51.4795 23.8914 51.4109 24.6834 51.2029 25.4322C50.9948 26.1809 50.6522 26.8691 50.198 27.4506C49.7437 28.0321 49.1883 28.4934 48.569 28.8037C47.9497 29.114 47.2808 29.2661 46.6071 29.2498C45.199 29.2347 43.8494 28.5896 42.836 27.4474C41.8226 26.3051 41.2225 24.7525 41.1593 23.1091H51.4042ZM71.3649 3.43657L75.7915 20.4133H65.8488L62.8918 3.43657H71.3649ZM38.8462 20.4149H28.8269L30.3047 3.43657H38.8476L38.8462 20.4149ZM8.6337 3.43657H17.1096L14.1581 20.4133H4.20709L8.6337 3.43657ZM3.88036 27.6415C3.52483 27.0123 3.30044 26.2945 3.22519 25.5456C3.14993 24.7968 3.2259 24.0378 3.447 23.3295L3.50441 23.1091H13.6687C13.2275 24.816 12.3458 26.322 11.144 27.4212C9.94228 28.5204 8.47921 29.159 6.95492 29.2498C6.36997 29.2859 5.78605 29.1589 5.25143 28.8793C4.71681 28.5996 4.24684 28.1754 3.88036 27.6415ZM8.9536 31.6421C11.0271 31.0033 12.8684 29.5989 14.2032 27.6383C14.4226 28.2112 14.7053 28.7481 15.0439 29.2354C15.6685 30.1103 16.4542 30.809 17.3424 31.2791C18.2307 31.7493 19.1984 31.9787 20.1732 31.9504C21.5404 31.9232 22.8824 31.5166 24.0885 30.764C25.2946 30.0115 26.3302 28.9346 27.1098 27.6224C27.373 28.2068 27.6967 28.7512 28.0736 29.2434C28.7449 30.11 29.5661 30.8002 30.4829 31.2682C31.3997 31.7363 32.3911 31.9715 33.3915 31.9584C34.7145 31.9591 36.0157 31.5655 37.1721 30.8149C38.3285 30.0643 39.3018 28.9814 40 27.6687C40.6982 28.9814 41.6716 30.0643 42.8279 30.8149C43.9843 31.5655 45.2855 31.9591 46.6085 31.9584C47.6089 31.9716 48.6004 31.7364 49.5171 31.2684C50.4339 30.8003 51.2552 30.1101 51.9264 29.2434C52.3031 28.751 52.6267 28.2066 52.8902 27.6224C53.6698 28.9346 54.7054 30.0115 55.9115 30.764C57.1176 31.5166 58.4596 31.9232 59.8268 31.9504C60.8016 31.9787 61.7693 31.7493 62.6576 31.2791C63.5458 30.809 64.3315 30.1103 64.9561 29.2354C65.2947 28.7481 65.5773 28.2112 65.7968 27.6383C67.1316 29.599 68.9729 31.0034 71.0464 31.6421V70.0449H64.7059V43.7909C64.7059 43.4335 64.5843 43.0906 64.3679 42.8378C64.1516 42.585 63.8581 42.443 63.5521 42.443H47.0965C46.7905 42.443 46.497 42.585 46.2807 42.8378C46.0643 43.0906 45.9427 43.4335 45.9427 43.7909V70.0449H8.9536V31.6421ZM62.3983 70.0449H48.2503V45.1389H62.3969L62.3983 70.0449Z" fill="#016B86"/>
<path d="M35.8346 39.2122C33.8127 39.6163 30.7176 49.6394 30.4196 50.8037C30.2836 51.2284 30.2442 51.6872 30.3053 52.135C30.3664 52.5829 30.5259 53.0046 30.7682 53.359C30.9735 53.6417 31.229 53.8689 31.517 54.0247C31.8051 54.1805 32.1186 54.2613 32.436 54.2613H34.6917V63.4651C34.6917 63.8194 34.8122 64.1592 35.0267 64.4098C35.2411 64.6603 35.532 64.801 35.8353 64.801C36.1386 64.801 36.4294 64.6603 36.6439 64.4098C36.8584 64.1592 36.9788 63.8194 36.9788 63.4651V40.5474C36.9788 39.3176 36.3609 39.1068 35.8346 39.2122Z" fill="#016B86"/>
<path d="M25.818 39.201C25.5121 39.2246 25.2251 39.3818 25.0138 39.6413C24.8026 39.9008 24.6827 40.2436 24.6778 40.6016V47.2533C24.678 47.3914 24.6549 47.5281 24.6097 47.6557C24.5646 47.7833 24.4983 47.8993 24.4148 47.9969C24.3312 48.0945 24.232 48.1719 24.1227 48.2246C24.0135 48.2774 23.8965 48.3044 23.7783 48.3042H23.1686V40.6383C23.1794 40.4544 23.1578 40.2698 23.105 40.096C23.0522 39.9222 22.9694 39.763 22.8617 39.6282C22.754 39.4934 22.6238 39.3859 22.479 39.3124C22.3342 39.2389 22.1781 39.201 22.0202 39.201C21.8624 39.201 21.7062 39.2389 21.5615 39.3124C21.4167 39.3859 21.2864 39.4934 21.1787 39.6282C21.071 39.763 20.9882 39.9222 20.9354 40.096C20.8826 40.2698 20.861 40.4544 20.8719 40.6383V48.3042H20.2622C20.144 48.3044 20.0269 48.2774 19.9177 48.2246C19.8085 48.1719 19.7092 48.0945 19.6257 47.9969C19.5421 47.8993 19.4759 47.7833 19.4307 47.6557C19.3856 47.5281 19.3624 47.3914 19.3626 47.2533V40.6447C19.3638 40.2844 19.2491 39.9367 19.0412 39.6705C18.8334 39.4043 18.5475 39.239 18.2402 39.2074C17.9226 39.2178 17.6215 39.375 17.4029 39.6445C17.1843 39.9139 17.066 40.2736 17.0741 40.6447V47.2581C17.0741 50.81 20.8719 50.8723 20.8719 54.9448V63.4427C20.868 63.7876 20.9759 64.1215 21.1739 64.3774C21.3719 64.6333 21.6454 64.7923 21.9396 64.8225H22.0995C22.3939 64.7927 22.6678 64.6339 22.8661 64.3779C23.0644 64.122 23.1724 63.7879 23.1686 63.4427V54.9448C23.1686 50.8723 26.9663 50.81 26.9663 47.2581V40.6447C26.9794 40.4599 26.9594 40.2739 26.9075 40.0986C26.8556 39.9233 26.773 39.7626 26.6649 39.6267C26.5569 39.4909 26.4257 39.3828 26.2799 39.3095C26.1341 39.2362 25.9767 39.1992 25.818 39.201Z" fill="#016B86"/>
</g>
<defs>
<clipPath id="clip0_528_469">
<rect width="78.1916" height="72" fill="white" transform="translate(0.904297 0.740723)"/>
</clipPath>
</defs>
</svg>
