<svg width="166" height="166" viewBox="0 0 166 166" fill="none" xmlns="http://www.w3.org/2000/svg">
<g clip-path="url(#clip0_31_395)">
<path d="M142.608 120.597L131.018 75.9525V49.9045C131.018 48.8534 130.157 47.9961 129.102 47.9961H110.68V39.5522H128.919C129.975 39.5522 130.835 38.6949 130.835 37.6438V18.0256C130.835 16.9745 129.975 16.1172 128.919 16.1172H79.6721C78.6168 16.1172 77.7562 16.9745 77.7562 18.0256V37.6438C77.7562 38.6949 78.6168 39.5522 79.6721 39.5522H97.9114V47.9961H73.3231V40.1746L59.5522 45.0718L46.9603 40.0631V47.9961H36.2372C35.182 47.9961 34.3213 48.8534 34.3213 49.9045V75.9525L22.7257 120.597C22.6844 120.714 22.6667 120.979 22.6667 121.084V147.203C22.6667 148.254 23.5274 149.111 24.5826 149.111H140.751C141.806 149.111 142.667 148.254 142.667 147.203V121.084C142.667 120.99 142.661 120.767 142.608 120.597ZM81.588 19.934H126.998V35.7354H81.588V19.934ZM101.743 39.5522H106.842V47.9961H101.743V39.5522ZM50.7921 45.7001L59.4756 49.1529L69.4913 45.5886V69.282H50.7921V45.7001ZM38.0882 76.6748C38.1295 76.5162 38.1472 76.3577 38.1472 76.1991V51.8129H46.9603V69.282H44.2368V73.0987H76.0407V69.282H73.3172V51.8129H127.175V76.1933C127.175 76.3518 127.198 76.5162 127.233 76.6689L138.269 119.164H27.0586L38.0941 76.6748H38.0882ZM26.4985 145.3V122.987H138.835V145.3H26.4985Z" fill="#016B86"/>
<path d="M82.6668 127.109C78.7702 127.109 75.5986 130.268 75.5986 134.149C75.5986 138.031 78.7702 141.19 82.6668 141.19C86.5635 141.19 89.735 138.031 89.735 134.149C89.735 130.268 86.5635 127.109 82.6668 127.109ZM82.6668 137.373C80.8806 137.373 79.4304 135.929 79.4304 134.149C79.4304 132.37 80.8806 130.926 82.6668 130.926C84.453 130.926 85.9032 132.37 85.9032 134.149C85.9032 135.929 84.453 137.373 82.6668 137.373Z" fill="#016B86"/>
<path d="M115.815 56.8979H87.601C86.5457 56.8979 85.6851 57.7553 85.6851 58.8063V71.5837C85.6851 72.6348 86.5457 73.4921 87.601 73.4921H115.815C116.87 73.4921 117.731 72.6348 117.731 71.5837V58.8063C117.731 57.7553 116.87 56.8979 115.815 56.8979ZM113.899 69.6753H89.5169V60.7147H113.899V69.6753Z" fill="#016B86"/>
<path d="M56.1035 82.4468H47.6853V86.2636H56.1035V82.4468Z" fill="#016B86"/>
<path d="M56.1035 91.1729H47.6853V94.9896H56.1035V91.1729Z" fill="#016B86"/>
<path d="M56.1035 99.8984H47.6853V103.715H56.1035V99.8984Z" fill="#016B86"/>
<path d="M56.1035 108.624H47.6853V112.441H56.1035V108.624Z" fill="#016B86"/>
<path d="M71.4897 82.4468H63.0715V86.2636H71.4897V82.4468Z" fill="#016B86"/>
<path d="M71.4897 91.1729H63.0715V94.9896H71.4897V91.1729Z" fill="#016B86"/>
<path d="M71.4897 99.8984H63.0715V103.715H71.4897V99.8984Z" fill="#016B86"/>
<path d="M71.4897 108.624H63.0715V112.441H71.4897V108.624Z" fill="#016B86"/>
<path d="M86.8759 82.4468H78.4578V86.2636H86.8759V82.4468Z" fill="#016B86"/>
<path d="M86.8759 91.1729H78.4578V94.9896H86.8759V91.1729Z" fill="#016B86"/>
<path d="M86.8759 99.8984H78.4578V103.715H86.8759V99.8984Z" fill="#016B86"/>
<path d="M86.8759 108.624H78.4578V112.441H86.8759V108.624Z" fill="#016B86"/>
<path d="M102.262 82.4468H93.8438V86.2636H102.262V82.4468Z" fill="#016B86"/>
<path d="M102.262 91.1729H93.8438V94.9896H102.262V91.1729Z" fill="#016B86"/>
<path d="M102.262 99.8984H93.8438V103.715H102.262V99.8984Z" fill="#016B86"/>
<path d="M102.262 108.624H93.8438V112.441H102.262V108.624Z" fill="#016B86"/>
<path d="M117.648 82.4468H109.23V86.2636H117.648V82.4468Z" fill="#016B86"/>
<path d="M117.648 91.1729H109.23V94.9896H117.648V91.1729Z" fill="#016B86"/>
<path d="M117.648 99.8984H109.23V103.715H117.648V99.8984Z" fill="#016B86"/>
<path d="M117.648 108.624H109.23V112.441H117.648V108.624Z" fill="#016B86"/>
</g>
<defs>
<clipPath id="clip0_31_395">
<rect width="120" height="133" fill="white" transform="translate(22.6667 16.1172)"/>
</clipPath>
</defs>
</svg>
