<svg width="96" height="166" viewBox="0 0 96 166" fill="none" xmlns="http://www.w3.org/2000/svg">
<g clip-path="url(#clip0_220_373)">
<path d="M74.4884 54.7373C74.4884 54.7373 74.518 54.7019 74.5299 54.6842C79.0672 48.8216 79.8501 41.0598 76.5643 34.4186C73.2784 27.7834 66.6178 23.6548 59.1801 23.6548H36.8257C29.3881 23.6548 22.7274 27.7775 19.4416 34.4186C16.1557 41.0539 16.9386 48.8216 21.4759 54.6842C21.4878 54.7019 21.5056 54.7196 21.5175 54.7373L37.2349 73.375C41.4342 78.8188 41.4342 86.4155 37.2349 91.8593L21.5175 110.497C21.5175 110.497 21.4878 110.532 21.4759 110.55C16.9386 116.413 16.1557 124.174 19.4416 130.816C22.7274 137.451 29.3881 141.579 36.8257 141.579H59.1801C66.6178 141.579 73.2784 137.457 76.5643 130.816C79.8501 124.18 79.0672 116.413 74.5299 110.55C74.518 110.532 74.5002 110.515 74.4884 110.497L58.7709 91.8593C54.5716 86.4155 54.5716 78.8188 58.7709 73.375L74.4884 54.7373ZM56.2086 71.3696C51.0782 77.9931 51.0782 87.2412 56.2086 93.8646C56.2205 93.8823 56.2383 93.9 56.2501 93.9177L71.9676 112.555C75.7814 117.498 76.4101 123.785 73.6402 129.382C70.8704 134.986 65.4612 138.33 59.1801 138.33H36.8257C30.5446 138.33 25.1414 134.986 22.3656 129.382C19.5958 123.785 20.2245 117.498 24.0382 112.555L39.7557 93.9177C39.7557 93.9177 39.7853 93.8823 39.7972 93.8646C44.9276 87.2412 44.9276 77.9931 39.7972 71.3696C39.7853 71.352 39.7675 71.3343 39.7557 71.3166L24.0382 52.6789C20.2245 47.7363 19.5958 41.4491 22.3656 35.8519C25.1354 30.2488 30.5446 26.9046 36.8257 26.9046H59.1801C65.4612 26.9046 70.8644 30.2488 73.6402 35.8519C76.4101 41.4432 75.7814 47.7363 71.9676 52.6789L56.2501 71.3166C56.2501 71.3166 56.2205 71.352 56.2086 71.3696Z" fill="#016B86"/>
<path d="M2.342 19.3611H93.6577C94.5592 19.3611 95.2887 18.6356 95.2887 17.7391C95.2887 16.8426 94.5592 16.1172 93.6577 16.1172H2.342C1.44047 16.1172 0.710938 16.8426 0.710938 17.7391C0.710938 18.6356 1.44047 19.3611 2.342 19.3611Z" fill="#016B86"/>
<path d="M93.6577 145.873H2.342C1.44047 145.873 0.710938 146.599 0.710938 147.495C0.710938 148.391 1.44047 149.117 2.342 149.117H93.6577C94.5592 149.117 95.2887 148.391 95.2887 147.495C95.2887 146.599 94.5592 145.873 93.6577 145.873Z" fill="#016B86"/>
<path d="M8.39776 137.84C9.29929 137.84 10.0288 137.115 10.0288 136.218V88.8807C13.0418 88.1494 15.2838 85.4481 15.2838 82.2337C15.2838 79.0193 13.0418 76.318 10.0288 75.5866V29.016C10.0288 28.1195 9.29929 27.394 8.39776 27.394C7.49623 27.394 6.7667 28.1195 6.7667 29.016V75.5925C3.75368 76.3239 1.51172 79.0252 1.51172 82.2396C1.51172 85.454 3.75368 88.1553 6.7667 88.8866V136.224C6.7667 137.121 7.49623 137.846 8.39776 137.846V137.84ZM4.77384 82.2337C4.77384 80.2461 6.39897 78.63 8.39776 78.63C10.3965 78.63 12.0217 80.2461 12.0217 82.2337C12.0217 84.2213 10.3965 85.8374 8.39776 85.8374C6.39897 85.8374 4.77384 84.2213 4.77384 82.2337Z" fill="#016B86"/>
<path d="M87.1275 137.84C88.029 137.84 88.7586 137.115 88.7586 136.218V88.8807C91.7716 88.1494 94.0135 85.4481 94.0135 82.2337C94.0135 79.0193 91.7716 76.318 88.7586 75.5866V29.016C88.7586 28.1195 88.029 27.394 87.1275 27.394C86.226 27.394 85.4964 28.1195 85.4964 29.016V75.5925C82.4834 76.3239 80.2415 79.0252 80.2415 82.2396C80.2415 85.454 82.4834 88.1553 85.4964 88.8866V136.224C85.4964 137.121 86.226 137.846 87.1275 137.846V137.84ZM83.5036 82.2337C83.5036 80.2461 85.1287 78.63 87.1275 78.63C89.1263 78.63 90.7514 80.2461 90.7514 82.2337C90.7514 84.2213 89.1263 85.8374 87.1275 85.8374C85.1287 85.8374 83.5036 84.2213 83.5036 82.2337Z" fill="#016B86"/>
<path d="M25.6216 122.47C24.8149 122.865 24.4769 123.838 24.8742 124.641C25.1589 125.213 25.7402 125.549 26.3392 125.549C26.5824 125.549 26.8256 125.496 27.0569 125.384C40.3664 118.896 55.639 118.896 68.9485 125.384C69.7551 125.779 70.7337 125.443 71.1311 124.641C71.5285 123.838 71.1904 122.865 70.3838 122.47C56.1609 115.54 39.8444 115.54 25.6216 122.47Z" fill="#016B86"/>
<path d="M46.3687 101.774C46.3687 102.67 47.0982 103.396 47.9997 103.396C48.9012 103.396 49.6308 102.67 49.6308 101.774V100.653C49.6308 99.7567 48.9012 99.0312 47.9997 99.0312C47.0982 99.0312 46.3687 99.7567 46.3687 100.653V101.774Z" fill="#016B86"/>
<path d="M46.3687 113.375C46.3687 114.272 47.0982 114.997 47.9997 114.997C48.9012 114.997 49.6308 114.272 49.6308 113.375V112.255C49.6308 111.358 48.9012 110.633 47.9997 110.633C47.0982 110.633 46.3687 111.358 46.3687 112.255V113.375Z" fill="#016B86"/>
<path d="M47.9997 91.8006C48.9012 91.8006 49.6308 91.0751 49.6308 90.1786V89.058C49.6308 88.1615 48.9012 87.436 47.9997 87.436C47.0982 87.436 46.3687 88.1615 46.3687 89.058V90.1786C46.3687 91.0751 47.0982 91.8006 47.9997 91.8006Z" fill="#016B86"/>
<path d="M65.218 51.2754H30.7878C29.8863 51.2754 29.1567 52.0008 29.1567 52.8973C29.1567 53.7938 29.8863 54.5193 30.7878 54.5193H65.218C66.1195 54.5193 66.8491 53.7938 66.8491 52.8973C66.8491 52.0008 66.1195 51.2754 65.218 51.2754Z" fill="#016B86"/>
</g>
<defs>
<clipPath id="clip0_220_373">
<rect width="94.5778" height="133" fill="white" transform="translate(0.710938 16.1172)"/>
</clipPath>
</defs>
</svg>
