<svg width="27" height="28" viewBox="0 0 27 28" fill="none" xmlns="http://www.w3.org/2000/svg">
<path d="M16.8274 23.6853C16.6763 23.6853 16.5328 23.6249 16.4271 23.5192L0.164289 7.25641C-0.0547631 7.03735 -0.0547631 6.67478 0.164289 6.45573C0.383342 6.23668 0.745912 6.23668 0.964964 6.45573L17.2277 22.7185C17.4468 22.9375 17.4468 23.3001 17.2277 23.5192C17.122 23.6249 16.9785 23.6853 16.8274 23.6853Z" fill="white"/>
<path d="M22.7944 17.7181C22.6433 17.7181 22.4998 17.6577 22.394 17.5519L6.13128 1.28918C5.91223 1.07013 5.91223 0.707561 6.13128 0.488508C6.35033 0.269456 6.7129 0.269456 6.93195 0.488508L23.1947 16.7513C23.4138 16.9703 23.4138 17.3329 23.1947 17.5519C23.089 17.6577 22.9454 17.7181 22.7944 17.7181Z" fill="white"/>
<path d="M17.4846 20.7925C17.3335 20.7925 17.19 20.732 17.0842 20.6263L1.93183 5.48145C1.71278 5.2624 1.71278 4.89983 1.93183 4.68077C2.15089 4.46172 2.51345 4.46172 2.73251 4.68077L17.8773 19.8256C18.0964 20.0447 18.0964 20.4072 17.8773 20.6263C17.7716 20.732 17.6281 20.7925 17.477 20.7925H17.4846Z" fill="white"/>
<path d="M19.9014 18.3677C19.7503 18.3677 19.6068 18.3073 19.501 18.2016L4.3562 3.05673C4.13715 2.83767 4.13715 2.4751 4.3562 2.25605C4.57525 2.037 4.93782 2.037 5.15688 2.25605L20.3017 17.4009C20.5208 17.6199 20.5208 17.9825 20.3017 18.2016C20.196 18.3073 20.0524 18.3677 19.9014 18.3677Z" fill="white"/>
<path d="M22.795 16.5851C23.0291 16.5851 23.2406 16.7362 23.3237 16.9552L25.8088 23.7308C25.8844 23.9347 25.8315 24.1689 25.6804 24.3275L24.0035 26.0044C23.8449 26.163 23.6183 26.2083 23.4068 26.1328L16.6313 23.6477C16.3669 23.5495 16.2083 23.27 16.2763 22.9905L16.9259 20.0975C16.9788 19.8483 17.1978 19.667 17.4546 19.6594L19.2599 19.5914L19.3279 17.7861C19.3355 17.5293 19.5167 17.3103 19.766 17.2574L22.659 16.6078C22.7043 16.6002 22.7421 16.5927 22.7874 16.5927L22.795 16.5851ZM24.6229 23.7836L22.4324 17.8163L20.4534 18.262L20.3778 20.1579C20.3627 20.4525 20.1286 20.6867 19.834 20.7018L17.9381 20.7773L17.4924 22.7564L23.4597 24.9469L24.6229 23.7836Z" fill="white"/>
<path d="M25.2798 23.9272L26.4354 26.7598L23.6029 25.6041L25.2798 23.9272Z" fill="white"/>
<path d="M25.2799 23.3607C25.5065 23.3607 25.718 23.4966 25.8011 23.7157L26.9568 26.5483C27.0776 26.8353 26.9341 27.1676 26.6471 27.2885C26.5111 27.3414 26.3525 27.3414 26.2165 27.2885L23.384 26.1328C23.0969 26.012 22.9534 25.6872 23.0743 25.3926C23.1045 25.3246 23.1423 25.2566 23.1951 25.2037L24.872 23.5268C24.9778 23.4211 25.1213 23.3607 25.2724 23.3607H25.2799ZM25.4008 25.7249L25.076 24.9318L24.6076 25.4001L25.4008 25.7249Z" fill="white"/>
</svg>
