<svg width="166" height="166" viewBox="0 0 166 166" fill="none" xmlns="http://www.w3.org/2000/svg">
<path d="M77.3186 133.666C108.681 133.666 134.105 108.242 134.105 76.8797C134.105 45.5174 108.681 20.0933 77.3186 20.0933C45.9564 20.0933 20.5322 45.5174 20.5322 76.8797C20.5322 108.242 45.9564 133.666 77.3186 133.666Z" fill="white"/>
<path d="M94.6971 21.1656C94.3749 21.0648 94.0259 21.0961 93.7269 21.2527C93.4278 21.4092 93.2032 21.6781 93.1025 22.0003C93.0017 22.3224 93.033 22.6714 93.1895 22.9705C93.3461 23.2695 93.615 23.4941 93.9372 23.5949C105.212 27.1217 115.072 34.1458 122.088 43.65C129.105 53.1542 132.914 64.6451 132.964 76.4586C133.014 88.2721 129.303 99.7949 122.367 109.358C115.432 118.922 105.632 126.029 94.3872 129.652C83.1427 133.274 71.0369 133.223 59.8233 129.506C48.6096 125.789 38.87 118.6 32.0152 108.978C25.1603 99.3567 21.5459 87.803 21.6954 75.9904C21.845 64.1777 25.7507 52.7192 32.847 43.2744C39.4021 34.6009 48.3341 28.0169 58.5588 24.3216L55.0334 31.6327C54.8871 31.9369 54.8675 32.2867 54.979 32.6053C55.0905 32.9239 55.324 33.1852 55.628 33.3317C55.8006 33.4156 55.9902 33.4588 56.1821 33.4582C56.4218 33.4583 56.6566 33.3907 56.8596 33.2633C57.0626 33.1359 57.2256 32.9538 57.3298 32.738L62.1423 22.7556C62.2149 22.6051 62.2572 22.4417 62.2666 22.2748C62.2761 22.108 62.2525 21.9409 62.1974 21.7831C62.1423 21.6253 62.0566 21.48 61.9453 21.3553C61.8339 21.2307 61.6991 21.1292 61.5486 21.0566L51.5662 16.2441C51.4157 16.1713 51.2524 16.1289 51.0855 16.1193C50.9187 16.1097 50.7515 16.133 50.5937 16.1879C50.4358 16.2429 50.2903 16.3284 50.1655 16.4396C50.0407 16.5508 49.939 16.6855 49.8663 16.8359C49.7935 16.9864 49.7511 17.1498 49.7415 17.3166C49.7319 17.4835 49.7552 17.6506 49.8102 17.8085C49.8651 17.9663 49.9507 18.1118 50.0618 18.2366C50.173 18.3614 50.3077 18.4631 50.4582 18.5358L57.5819 21.9717C46.9392 25.8439 37.6431 32.7109 30.8138 41.7453C23.3969 51.6202 19.3155 63.5994 19.1606 75.9484C19.0057 88.2975 22.7854 100.375 29.9523 110.433C37.1192 120.491 47.3013 128.006 59.0243 131.892C70.7472 135.777 83.4025 135.83 95.1577 132.043C106.913 128.256 117.158 120.826 124.409 110.829C131.66 100.832 135.541 88.7862 135.489 76.4363C135.438 64.0864 131.457 52.0733 124.123 42.1366C116.79 32.1999 106.483 24.8545 94.6971 21.1656Z" fill="#016B86"/>
<path d="M77.3178 21.0718C80.5142 21.0717 83.7048 21.3441 86.8549 21.8863C86.9268 21.8988 86.9997 21.905 87.0727 21.9047C87.3914 21.9045 87.6984 21.7848 87.933 21.5691C88.1676 21.3535 88.3128 21.0577 88.3398 20.7402C88.3668 20.4227 88.2738 20.1067 88.079 19.8545C87.8842 19.6023 87.6019 19.4323 87.2879 19.3782C83.9939 18.8112 80.6574 18.5263 77.3149 18.5269C77.1478 18.5269 76.9824 18.5598 76.828 18.6237C76.6737 18.6877 76.5334 18.7814 76.4152 18.8995C76.297 19.0177 76.2033 19.158 76.1394 19.3124C76.0754 19.4667 76.0425 19.6322 76.0425 19.7993C76.0425 19.9664 76.0754 20.1319 76.1394 20.2863C76.2033 20.4407 76.297 20.5809 76.4152 20.6991C76.5334 20.8173 76.6737 20.911 76.828 20.9749C76.9824 21.0389 77.1478 21.0718 77.3149 21.0718H77.3178Z" fill="#016B86"/>
<path d="M110.816 96.5107C110.277 96.5432 109.739 96.4402 109.25 96.211C108.761 95.9818 108.337 95.6337 108.018 95.1986C107.283 93.9255 106.952 92.4598 107.066 90.9946V86.255C107.054 85.279 107.176 84.306 107.428 83.363C107.622 82.5857 108.025 81.8762 108.594 81.3113C109.188 80.7807 109.967 80.5062 110.763 80.5477C111.294 80.5429 111.82 80.6571 112.302 80.882C112.776 81.1058 113.214 81.3993 113.601 81.7527V74.5801H117.243V96.2697H113.601V95.1719C113.217 95.5633 112.774 95.8931 112.289 96.1497C111.835 96.3881 111.329 96.512 110.816 96.5107ZM112.155 93.9936C112.384 93.9873 112.611 93.9421 112.825 93.8598C113.095 93.7606 113.355 93.635 113.601 93.4849V83.5505C113.383 83.4053 113.149 83.284 112.905 83.1885C112.658 83.091 112.394 83.0412 112.128 83.0417C111.896 83.0291 111.665 83.0911 111.47 83.2186C111.275 83.3462 111.126 83.5326 111.044 83.7509C110.825 84.2994 110.72 84.887 110.736 85.4775V91.2614C110.732 91.7278 110.768 92.1936 110.843 92.6539C110.891 93.0112 111.035 93.349 111.259 93.6317C111.371 93.7556 111.51 93.8525 111.665 93.9152C111.821 93.9778 111.988 94.0047 112.155 93.9936Z" fill="#016B86"/>
<path d="M48.002 95.889C46.0715 95.9758 44.1545 95.5285 42.4618 94.5963C41.0666 93.7471 39.9918 92.4597 39.4055 90.9352C38.7394 89.1657 38.4169 87.2854 38.4554 85.3951V84.1282H44.6539V85.2141C44.6664 86.2022 44.7725 87.1869 44.9706 88.155C45.0946 88.8687 45.4518 89.5211 45.9863 90.01C46.5758 90.4602 47.3078 90.6828 48.0481 90.637C48.8114 90.6957 49.5673 90.4519 50.1525 89.9583C50.6679 89.4093 50.9999 88.7136 51.1026 87.9676C51.2813 86.9368 51.3645 85.8917 51.351 84.8457C51.4257 83.3249 51.1228 81.8092 50.4692 80.4339C49.8807 79.3634 48.7419 78.7829 47.0527 78.6924H46.0112V73.6703H46.9613C48.6203 73.6402 49.7665 73.1954 50.3999 72.3361C51.1326 71.087 51.4643 69.6431 51.35 68.1994C51.4105 66.954 51.1697 65.7124 50.6483 64.5799C50.3725 64.1261 49.972 63.7612 49.4947 63.5285C49.0173 63.2959 48.4831 63.2054 47.9558 63.2678C47.4254 63.2091 46.89 63.317 46.4237 63.5764C45.9574 63.8358 45.5835 64.234 45.3538 64.7156C44.8715 65.908 44.6328 67.1848 44.652 68.4709V69.8282H38.4554V68.0637C38.402 66.229 38.7816 64.4076 39.5634 62.747C40.2657 61.3217 41.3955 60.1512 42.7952 59.3989C44.3915 58.5881 46.1661 58.1915 47.9558 58.2456C49.7715 58.1864 51.574 58.5748 53.2041 59.3768C54.5967 60.1071 55.7265 61.2541 56.4359 62.6574C57.2209 64.3006 57.6008 66.1078 57.5439 67.928C57.6226 69.8019 57.1507 71.6579 56.1866 73.2668C55.3953 74.5664 54.1563 75.5319 52.7028 75.9815C53.6649 76.2813 54.5361 76.8182 55.2365 77.5429C56.0118 78.3687 56.5915 79.3583 56.9327 80.4385C57.3705 81.836 57.577 83.2957 57.5439 84.7598C57.5824 86.7382 57.2698 88.7078 56.6206 90.577C56.0599 92.1741 54.9957 93.5461 53.5883 94.4865C51.9058 95.4959 49.9618 95.984 48.002 95.889ZM70.7627 95.8438C68.7992 95.9324 66.8607 95.3763 65.2429 94.2602C63.7974 93.166 62.7171 91.6598 62.1441 89.9399C61.4713 87.9669 61.1421 85.8931 61.1709 83.8088V70.9593C61.1442 68.7828 61.4182 66.6131 61.9853 64.5115C62.4442 62.7274 63.4582 61.1353 64.8809 59.9649C66.5769 58.7541 68.6375 58.1631 70.7174 58.2909C72.5198 58.2184 74.313 58.5833 75.9436 59.3546C77.2505 60.0266 78.2939 61.1178 78.9067 62.4534C79.5852 64.0383 79.9095 65.7523 79.8568 67.4755C79.8576 67.5741 79.8653 67.6726 79.8799 67.7701C79.8942 67.8676 79.9016 67.966 79.9021 68.0646H73.8818C73.9486 66.8151 73.7481 65.5657 73.2936 64.3998C72.899 63.5848 72.0554 63.1773 70.7627 63.1773C70.4134 63.1623 70.0646 63.2188 69.7379 63.3433C69.4112 63.4678 69.1132 63.6576 68.8624 63.9012C68.2893 64.5759 67.9206 65.4001 67.7996 66.277C67.5426 67.7342 67.4279 69.213 67.4571 70.6925V75.0812C67.9186 74.3509 68.5873 73.7745 69.3777 73.4256C70.3224 73.0005 71.3502 72.7916 72.3859 72.8144C74.0605 72.6905 75.7258 73.1545 77.0951 74.1265C78.2835 75.0949 79.1444 76.4062 79.5604 77.8817C80.0833 79.6587 80.3352 81.5043 80.3074 83.3563C80.3385 85.5241 80.0332 87.6837 79.4025 89.7579C78.8864 91.5138 77.8441 93.0691 76.4164 94.2141C74.7696 95.3794 72.7771 95.9538 70.7627 95.8438ZM70.8052 91.0063C71.1771 91.0307 71.5497 90.9697 71.8945 90.8279C72.2392 90.6861 72.5469 90.4673 72.7941 90.1882C73.2977 89.5271 73.6247 88.7485 73.7442 87.926C73.9381 86.8056 74.029 85.6697 74.0157 84.5327C74.0224 83.3467 73.9697 82.1612 73.8578 80.9805C73.8055 80.0898 73.5164 79.2291 73.0203 78.4875C72.7468 78.1611 72.3979 77.9063 72.0036 77.7454C71.6094 77.5845 71.1818 77.5223 70.7581 77.5641C70.2676 77.5597 69.7819 77.6601 69.3333 77.8587C68.9165 78.041 68.5339 78.2933 68.2022 78.6047C67.9142 78.8716 67.6632 79.176 67.4562 79.5096V85.2557C67.4492 86.2137 67.548 87.1697 67.7507 88.1061C67.9006 88.8885 68.2603 89.6156 68.7913 90.2095C69.0514 90.4774 69.3654 90.687 69.7126 90.8243C70.0598 90.9617 70.4322 91.0238 70.8052 91.0063ZM94.1965 95.3461V86.3425H83.2474V81.0036L92.794 58.6981H100.078V81.3656H103.834V86.3425H100.078V95.3461H94.1965ZM88.4911 81.3656H94.1919V65.4395L88.4911 81.3656Z" fill="#016B86"/>
<path d="M105.906 146.5V110.474V110.466L105.906 110.458C105.889 109.301 106.097 108.169 106.525 107.093C106.952 106.017 107.578 105.051 108.385 104.221C109.192 103.391 110.14 102.739 111.204 102.281C112.265 101.825 113.388 101.585 114.543 101.569H137.144C138.299 101.585 139.423 101.825 140.484 102.281C141.547 102.739 142.496 103.391 143.303 104.221C144.11 105.051 144.736 106.017 145.163 107.093C145.591 108.169 145.799 109.301 145.781 110.458L145.781 110.466V110.474V130.621V130.629L145.781 130.637C145.799 131.795 145.591 132.927 145.163 134.003C144.736 135.078 144.11 136.044 143.303 136.874C142.496 137.704 141.547 138.357 140.484 138.814C139.423 139.271 138.299 139.51 137.144 139.526H113.131H112.682L112.37 139.848L105.906 146.5Z" fill="white"/>
<path d="M114.551 102.632C112.497 102.662 110.578 103.489 109.146 104.962C107.711 106.438 106.937 108.384 106.968 110.443L106.968 110.474L106.968 143.884L112.233 138.465H137.137C139.19 138.434 141.109 137.607 142.541 136.134C143.977 134.658 144.75 132.712 144.719 130.653L144.719 130.622L144.719 110.443C144.75 108.384 143.977 106.438 142.541 104.962C141.109 103.489 139.19 102.662 137.137 102.632H114.551ZM114.536 100.508H137.151C139.759 100.542 142.246 101.612 144.064 103.481C145.882 105.351 146.882 107.867 146.843 110.474V130.622C146.882 133.229 145.882 135.745 144.064 137.615C142.246 139.484 139.759 140.554 137.151 140.588H113.131L104.844 149.117L104.844 110.474C104.806 107.867 105.805 105.351 107.624 103.481C109.442 101.612 111.929 100.542 114.536 100.508Z" fill="#016B86"/>
<path d="M115.153 124.153V122.809C115.153 121.74 115.578 120.714 116.334 119.958C117.09 119.202 118.116 118.777 119.185 118.777H120.529C120.885 118.777 121.227 118.919 121.479 119.171C121.731 119.423 121.873 119.765 121.873 120.121V126.84C121.873 127.196 121.731 127.538 121.479 127.79C121.227 128.042 120.885 128.184 120.529 128.184H119.185C118.116 128.184 117.09 127.759 116.334 127.003C115.578 126.247 115.154 125.222 115.153 124.153ZM136.656 124.153V122.809C136.656 121.74 136.231 120.714 135.475 119.958C134.719 119.202 133.693 118.777 132.624 118.777H131.28C130.923 118.777 130.582 118.919 130.33 119.171C130.078 119.423 129.936 119.765 129.936 120.121V126.84C129.936 127.196 130.078 127.538 130.33 127.79C130.582 128.042 130.923 128.184 131.28 128.184H132.623C133.153 128.184 133.677 128.08 134.166 127.877C134.655 127.675 135.1 127.378 135.474 127.003C135.849 126.629 136.146 126.185 136.348 125.696C136.551 125.207 136.655 124.683 136.656 124.153Z" fill="white"/>
<path d="M115.151 124.153L114.898 121.466C114.753 119.933 114.931 118.388 115.418 116.927C115.906 115.467 116.693 114.125 117.729 112.986C118.765 111.848 120.027 110.938 121.435 110.315C122.843 109.693 124.365 109.371 125.905 109.37C127.444 109.371 128.966 109.693 130.374 110.316C131.782 110.938 133.044 111.848 134.08 112.987C135.116 114.125 135.903 115.467 136.391 116.928C136.878 118.388 137.055 119.934 136.911 121.466L136.655 124.153" stroke="#016B86" stroke-width="2.49983" stroke-linecap="round" stroke-linejoin="round"/>
<path d="M132.625 128.184V129.527C132.665 130.195 132.441 130.851 132.001 131.354C131.56 131.858 130.939 132.167 130.273 132.215H125.905" stroke="#016B86" stroke-width="2.49983" stroke-linecap="round" stroke-linejoin="round"/>
<path d="M115.153 124.153V122.809C115.153 121.74 115.578 120.714 116.334 119.958C117.09 119.202 118.116 118.777 119.185 118.777H120.529C120.885 118.777 121.227 118.919 121.479 119.171C121.731 119.423 121.873 119.765 121.873 120.121V126.84C121.873 127.196 121.731 127.538 121.479 127.79C121.227 128.042 120.885 128.184 120.529 128.184H119.185C118.116 128.184 117.09 127.759 116.334 127.003C115.578 126.247 115.154 125.222 115.153 124.153ZM136.656 124.153V122.809C136.656 121.74 136.231 120.714 135.475 119.958C134.719 119.202 133.693 118.777 132.624 118.777H131.28C130.923 118.777 130.582 118.919 130.33 119.171C130.078 119.423 129.936 119.765 129.936 120.121V126.84C129.936 127.196 130.078 127.538 130.33 127.79C130.582 128.042 130.923 128.184 131.28 128.184H132.623C133.153 128.184 133.677 128.08 134.166 127.877C134.655 127.675 135.1 127.378 135.474 127.003C135.849 126.629 136.146 126.185 136.348 125.696C136.551 125.207 136.655 124.683 136.656 124.153Z" stroke="#016B86" stroke-width="2.49983" stroke-linecap="round" stroke-linejoin="round"/>
</svg>
