<svg width="80" height="73" viewBox="0 0 80 73" fill="none" xmlns="http://www.w3.org/2000/svg">
<g clip-path="url(#clip0_528_19)">
<path d="M34.14 16.2668H3.94385V65.9807H34.14V16.2668Z" fill="white"/>
<path d="M13.6846 61.7026H3.94385V65.9817H13.6846V61.7026Z" fill="white"/>
<path d="M33.1661 61.7026H23.4253V65.9817H33.1661V61.7026Z" fill="white"/>
<path d="M28.7831 1.79321H7.35303V10.3524H28.7831V1.79321Z" fill="white"/>
<path d="M56.5447 9.84766H33.167V65.9807H56.5447V9.84766Z" fill="white"/>
<path d="M53.1353 12.5085H36.5752V14.6124H53.1353V12.5085Z" fill="#016B86"/>
<path d="M30.7317 18.9268H7.354V21.0306H30.7317V18.9268Z" fill="#016B86"/>
<mask id="mask0_528_19" style="mask-type:luminance" maskUnits="userSpaceOnUse" x="8" y="23" width="23" height="31">
<path d="M30.1915 23.8894H8.22607V53.04H30.1915V23.8894Z" fill="white"/>
</mask>
<g mask="url(#mask0_528_19)">
<path d="M10.9718 23.8894H8.22607V28.9154H10.9718V23.8894Z" fill="#016B86"/>
<path d="M17.3783 23.8894H14.6326V28.9154H17.3783V23.8894Z" fill="#016B86"/>
<path d="M23.785 23.8894H21.0393V28.9154H23.785V23.8894Z" fill="#016B86"/>
<path d="M30.1915 23.8894H27.4458V28.9154H30.1915V23.8894Z" fill="#016B86"/>
<path d="M10.9718 31.9309H8.22607V36.9569H10.9718V31.9309Z" fill="#016B86"/>
<path d="M17.3783 31.9309H14.6326V36.9569H17.3783V31.9309Z" fill="#016B86"/>
<path d="M23.785 31.9309H21.0393V36.9569H23.785V31.9309Z" fill="#016B86"/>
<path d="M30.1915 31.9309H27.4458V36.9569H30.1915V31.9309Z" fill="#016B86"/>
<path d="M10.9718 39.9724H8.22607V44.9984H10.9718V39.9724Z" fill="#016B86"/>
<path d="M17.3783 39.9724H14.6326V44.9984H17.3783V39.9724Z" fill="#016B86"/>
<path d="M23.785 39.9724H21.0393V44.9984H23.785V39.9724Z" fill="#016B86"/>
<path d="M30.1915 39.9724H27.4458V44.9984H30.1915V39.9724Z" fill="#016B86"/>
<path d="M10.9718 48.0142H8.22607V53.0401H10.9718V48.0142Z" fill="#016B86"/>
<path d="M17.3783 48.0142H14.6326V53.0401H17.3783V48.0142Z" fill="#016B86"/>
<path d="M23.785 48.0142H21.0393V53.0401H23.785V48.0142Z" fill="#016B86"/>
<path d="M30.1915 48.0142H27.4458V53.0401H30.1915V48.0142Z" fill="#016B86"/>
</g>
<mask id="mask1_528_19" style="mask-type:luminance" maskUnits="userSpaceOnUse" x="37" y="19" width="17" height="42">
<path d="M53.0723 19.8687H37.5134V60.0764H53.0723V19.8687Z" fill="white"/>
</mask>
<g mask="url(#mask1_528_19)">
<path d="M40.2591 19.8687H37.5134V24.8946H40.2591V19.8687Z" fill="#016B86"/>
<path d="M46.6656 19.8687H43.9199V24.8946H46.6656V19.8687Z" fill="#016B86"/>
<path d="M53.0723 19.8687H50.3267V24.8946H53.0723V19.8687Z" fill="#016B86"/>
<path d="M40.2591 26.905H37.5134V31.931H40.2591V26.905Z" fill="#016B86"/>
<path d="M46.6656 26.905H43.9199V31.931H46.6656V26.905Z" fill="#016B86"/>
<path d="M53.0723 26.905H50.3267V31.931H53.0723V26.905Z" fill="#016B86"/>
<path d="M40.2591 33.9414H37.5134V38.9674H40.2591V33.9414Z" fill="#016B86"/>
<path d="M46.6656 33.9414H43.9199V38.9674H46.6656V33.9414Z" fill="#016B86"/>
<path d="M53.0723 33.9414H50.3267V38.9674H53.0723V33.9414Z" fill="#016B86"/>
<path d="M40.2591 40.9778H37.5134V46.0038H40.2591V40.9778Z" fill="#016B86"/>
<path d="M46.6656 40.9778H43.9199V46.0038H46.6656V40.9778Z" fill="#016B86"/>
<path d="M53.0723 40.9778H50.3267V46.0038H53.0723V40.9778Z" fill="#016B86"/>
<path d="M40.2591 48.0142H37.5134V53.0401H40.2591V48.0142Z" fill="#016B86"/>
<path d="M46.6656 48.0142H43.9199V53.0401H46.6656V48.0142Z" fill="#016B86"/>
<path d="M53.0723 48.0142H50.3267V53.0401H53.0723V48.0142Z" fill="#016B86"/>
<path d="M40.2591 55.0505H37.5134V60.0765H40.2591V55.0505Z" fill="#016B86"/>
<path d="M46.6656 55.0505H43.9199V60.0765H46.6656V55.0505Z" fill="#016B86"/>
<path d="M53.0723 55.0505H50.3267V60.0765H53.0723V55.0505Z" fill="#016B86"/>
</g>
<path d="M3.47334 64.8831V14.6486H8.34327V11.4038H6.39566V0.740723H29.7413V11.4038H27.7928V14.6486H32.6956V8.22942H57.0151V64.8831H59.5841V66.987H0.904297V64.8831H3.47334ZM27.8248 2.84359H8.31124V9.29794H27.8248V2.84359ZM25.8772 11.4018H10.2598V14.6466H25.8772V11.4018ZM34.6112 64.8781H55.0995V10.3333H34.6112V64.8781ZM15.1297 64.8781H22.9549V58.476H15.1297V64.8781ZM5.38891 64.8781H13.2141V56.3712H24.8705V64.8831H32.6956V16.7525H5.38891V64.8831V64.8781Z" fill="#016B86"/>
<path d="M31.7055 60.6514H25.8608V62.7552H31.7055V60.6514Z" fill="#016B86"/>
<path d="M12.2248 60.6514H6.38013V62.7552H12.2248V60.6514Z" fill="#016B86"/>
<path d="M25.8608 5.01978H10.2754V7.12365H25.8608V5.01978Z" fill="#016B86"/>
<path d="M65.0654 69.1892L64.4953 65.4378C64.7154 65.3948 64.9112 65.2582 65.0401 65.0575C65.1689 64.8569 65.2205 64.6084 65.1835 64.3663L64.4953 59.8359C64.7154 59.7929 64.9112 59.6562 65.0401 59.4556C65.1689 59.2549 65.2205 59.0065 65.1835 58.7643L64.4953 54.2319C64.6898 54.1955 64.8663 54.0844 64.9931 53.9183C65.0731 53.8148 65.1316 53.6933 65.1645 53.5624C65.1974 53.4315 65.2039 53.2943 65.1835 53.1604L64.4953 48.63C64.6895 48.5927 64.8657 48.4817 64.9931 48.3163C65.0731 48.2128 65.1316 48.0914 65.1645 47.9605C65.1974 47.8296 65.2039 47.6924 65.1835 47.5584L64.5996 43.7045L78.0983 46.2969C78.2486 46.326 78.4032 46.3099 78.546 46.2506C78.6887 46.1913 78.8142 46.0908 78.9094 45.9598C79.0045 45.8288 79.0658 45.672 79.0867 45.5059C79.1076 45.3399 79.0874 45.1708 79.0282 45.0163C78.3161 43.1438 77.1859 41.4985 75.7419 40.2325C74.2979 38.9665 72.5867 38.1206 70.7664 37.7729L77.0732 34.0929C77.2083 34.014 77.3215 33.8966 77.4009 33.7531C77.4804 33.6096 77.5231 33.4452 77.5247 33.2772C77.5263 33.1092 77.4867 32.9439 77.41 32.7986C77.3333 32.6532 77.2223 32.5333 77.0888 32.4514C75.472 31.4557 73.6514 30.9276 71.7979 30.9164L75.0844 27.9793C75.2023 27.8732 75.292 27.7343 75.3442 27.5771C75.3963 27.42 75.4091 27.2502 75.381 27.0858C75.3529 26.9213 75.2851 26.7682 75.1846 26.6424C75.0841 26.5167 74.9547 26.4229 74.8099 26.371C73.0549 25.738 71.1832 25.5995 69.3668 25.9684C67.5504 26.3372 65.8476 27.2015 64.4147 28.4819C63.11 29.6457 62.0679 31.125 61.3698 32.8042C60.6724 31.1255 59.6317 29.6463 58.3285 28.4819C56.8951 27.2018 55.1919 26.3376 53.3753 25.9688C51.5587 25.6 49.6868 25.7382 47.9315 26.371C47.7867 26.4229 47.6572 26.5167 47.5568 26.6424C47.4563 26.7682 47.3884 26.9213 47.3604 27.0858C47.3323 27.2502 47.345 27.42 47.3972 27.5771C47.4493 27.7343 47.5391 27.8732 47.6569 27.9793L50.97 30.9396C49.0833 30.933 47.2265 31.4573 45.5766 32.4625C45.443 32.5441 45.332 32.6638 45.2552 32.809C45.1784 32.9541 45.1387 33.1194 45.1403 33.2873C45.1419 33.4551 45.1847 33.6194 45.2643 33.7628C45.3438 33.9062 45.4571 34.0233 45.5921 34.1019L52.0207 37.8553C50.2765 38.2583 48.6476 39.1207 47.2741 40.3683C45.9006 41.6159 44.8237 43.2113 44.136 45.0173C44.0755 45.1718 44.0543 45.3414 44.0747 45.508C44.095 45.6747 44.1562 45.8321 44.2516 45.9636C44.3471 46.095 44.4733 46.1956 44.6167 46.2544C44.7601 46.3133 44.9153 46.3284 45.0659 46.2979L58.1299 43.791L57.5551 47.5594C57.5181 47.8016 57.5697 48.05 57.6986 48.2507C57.8274 48.4513 58.0232 48.588 58.2433 48.631L57.5551 53.1614C57.5184 53.4035 57.57 53.6518 57.6988 53.8524C57.8277 54.053 58.0233 54.1897 58.2433 54.2329L57.5551 58.7653C57.5191 59.0074 57.571 59.2553 57.6998 59.4556C57.8285 59.656 58.0237 59.7929 58.2433 59.8369L57.5551 64.3673C57.5184 64.6094 57.57 64.8577 57.6988 65.0583C57.8277 65.2589 58.0233 65.3956 58.2433 65.4388L57.6731 69.1902V71.0558H65.0654V69.1882V69.1892ZM60.3813 37.0391V37.0451ZM61.583 43.1235L62.8231 43.3638L63.3421 46.7814H59.3993L59.9072 43.4502L61.583 43.1235ZM59.9649 54.25H62.7755L63.3421 57.9843H59.3974L59.9649 54.25ZM59.3965 52.3824L59.9649 48.6471H62.7755L63.3421 52.3824H59.3965ZM59.9649 59.852H62.7755L63.3421 63.5862H59.3974L59.9649 59.852ZM76.6861 44.1317L64.2783 41.7484C64.258 41.698 64.2345 41.6494 64.2079 41.6027L67.7013 39.5601C69.4399 39.3027 71.2093 39.5961 72.8012 40.4058C74.3931 41.2156 75.7413 42.5079 76.687 44.1307L76.6861 44.1317ZM67.0405 37.8322L62.6868 40.3743C62.8513 39.7041 63.0776 39.0541 63.3622 38.4343L69.3057 33.1389C71.095 32.6068 72.9886 32.6769 74.7412 33.34L67.0405 37.8332M65.4846 29.9334C66.4785 29.0437 67.6291 28.3893 68.8642 28.0112C70.0993 27.6331 71.3922 27.5394 72.6618 27.736L68.3731 31.5668L62.35 36.9345C62.3234 36.5898 62.2832 36.245 62.2319 35.8982C62.649 33.5521 63.8008 31.4403 65.4874 29.9293L65.4846 29.9334ZM57.2549 29.9334C58.9378 31.4436 60.0868 33.5525 60.503 35.8952C60.4518 36.2403 60.413 36.5844 60.3868 36.9275L54.4232 31.6181L50.074 27.733C51.3447 27.536 52.6387 27.6296 53.8749 28.0079C55.1111 28.3863 56.2628 29.0411 57.2576 29.9314L57.2549 29.9334ZM55.4409 37.7407L47.9251 33.352C49.7224 32.6848 51.6613 32.6294 53.4878 33.1932L59.2217 38.2966C59.5319 38.9599 59.7774 39.6573 59.9539 40.3773L55.4391 37.7407M52.6815 39.6144C53.3824 39.4851 54.0943 39.4416 54.8039 39.4847L58.5014 41.6449C58.4696 41.7063 58.4442 41.7713 58.4255 41.8389L46.4708 44.1327C47.1669 42.9488 48.0787 41.936 49.1487 41.158C50.2187 40.3801 51.4237 39.8538 52.6879 39.6124L52.6815 39.6144ZM59.9594 65.4549H62.7701L63.3366 69.1912H59.392L59.9594 65.4549Z" fill="#016B86"/>
<path d="M63.2597 69.52L62.6895 65.7686C62.6095 65.2472 62.7198 64.7122 62.9965 64.2795C63.2731 63.8467 63.6939 63.5511 64.1676 63.4567L64.4952 65.4349L65.0654 69.1863C65.1053 69.4493 65.0485 69.7189 64.9074 69.9359C64.7663 70.1529 64.5525 70.2994 64.3131 70.3433C64.0736 70.3871 63.8281 70.3247 63.6306 70.1697C63.433 70.0148 63.2996 69.78 63.2597 69.517V69.52ZM63.5901 63.8326L63.5992 63.8205L64.9931 65.1273L63.5901 63.8326ZM63.3786 64.6971L62.6904 60.1667C62.6104 59.6451 62.7209 59.11 62.9977 58.6772C63.2746 58.2444 63.6955 57.9489 64.1694 57.8547L64.4961 59.8329L65.1844 64.3634L63.3786 64.6971ZM63.3786 59.0951L62.6904 54.5627C62.6108 54.0387 62.7233 53.5013 63.0034 53.0681C63.2834 52.6349 63.7082 52.341 64.185 52.2508L64.4961 54.232L65.1844 58.7644L63.3786 59.0951ZM63.5901 52.6277L63.601 52.6137L64.994 53.9204L63.5901 52.6277ZM63.3786 53.4912L62.6904 48.9608C62.6104 48.4394 62.7207 47.9043 62.9974 47.4716C63.274 47.0389 63.6948 46.7433 64.1685 46.6488L64.4952 48.6271L65.1835 53.1574L63.3786 53.4912ZM63.5901 47.0258L63.5992 47.0137L64.9931 48.3205L63.5901 47.0258ZM63.3777 47.8842L62.7947 44.0343C62.7465 43.7173 62.7681 43.3922 62.8579 43.0862C62.9476 42.7803 63.1028 42.5024 63.3106 42.2759C63.5183 42.0495 63.7724 41.881 64.0516 41.7847C64.3308 41.6884 64.627 41.667 64.9153 41.7224L78.414 44.3148H78.4195L78.0982 46.294L64.5996 43.7016L65.1835 47.5555L63.3777 47.8842ZM77.3441 45.8045V45.7964C76.7503 44.2342 75.8075 42.8616 74.603 41.8054C73.3985 40.7491 71.971 40.0433 70.4524 39.7532C70.0763 39.6815 69.7299 39.4824 69.4619 39.1838C69.1939 38.8852 69.0176 38.502 68.9577 38.0879C68.8978 37.6738 68.9572 37.2495 69.1278 36.8743C69.2983 36.4992 69.5714 36.192 69.9088 35.9958L76.2156 32.3158L77.0741 34.091C77.0741 34.091 70.7673 37.771 70.7691 37.773C72.5894 38.1206 74.3006 38.9666 75.7446 40.2326C77.1886 41.4986 78.3188 43.1438 79.0309 45.0164L77.3441 45.8045ZM76.1955 34.2065C74.8478 33.379 73.3317 32.9389 71.7877 32.9269C71.4105 32.9249 71.0431 32.795 70.7357 32.5549C70.4283 32.3148 70.196 31.9762 70.0705 31.5855C69.9449 31.1948 69.9324 30.7711 70.0345 30.3723C70.1366 29.9735 70.3484 29.619 70.641 29.3575L73.9276 26.4203L75.0826 27.9794L71.796 30.9165C73.6495 30.9277 75.4701 31.4558 77.0869 32.4515L76.1955 34.2065ZM74.2497 28.2759C72.7848 27.7466 71.2221 27.6303 69.7055 27.9376C68.1889 28.245 66.7671 28.9662 65.5706 30.035H65.5651C64.4798 31.0082 63.6132 32.2431 63.0327 33.6436C62.8865 33.9932 62.6521 34.2894 62.3572 34.497C62.0624 34.7046 61.7195 34.815 61.3693 34.815C61.019 34.815 60.6761 34.7046 60.3813 34.497C60.0864 34.2894 59.852 33.9932 59.7058 33.6436C58.7646 31.3923 57.1007 29.6012 55.0324 28.6127C52.9641 27.6243 50.6367 27.5079 48.4952 28.286L47.9314 26.3761C49.6867 25.7434 51.5586 25.6051 53.3753 25.9739C55.1919 26.3427 56.8951 27.2069 58.3284 28.487C59.6316 29.6514 60.6724 31.1306 61.3697 32.8093C62.0679 31.1301 63.11 29.6508 64.4147 28.487C65.8475 27.2066 67.5504 26.3423 69.3668 25.9735C71.1832 25.6046 73.0549 25.7431 74.8098 26.3761L74.2497 28.2759ZM48.8064 26.4123L52.1223 29.3756C52.4156 29.6378 52.6277 29.9935 52.7295 30.3935C52.8313 30.7936 52.8178 31.2185 52.6908 31.6097C52.5638 32.001 52.3295 32.3395 52.0202 32.5786C51.7109 32.8177 51.3418 32.9457 50.9636 32.945C49.3901 32.9392 47.8415 33.3759 46.4652 34.2136L45.5738 32.4575C47.2237 31.4523 49.0805 30.928 50.9672 30.9346L47.6541 27.9743L48.8064 26.4123ZM46.4497 32.3228L52.8773 36.0752C53.2093 36.2689 53.4789 36.5701 53.6495 36.938C53.8201 37.3059 53.8835 37.7225 53.831 38.1313C53.7785 38.5401 53.6127 38.9212 53.3561 39.2229C53.0995 39.5246 52.7646 39.7322 52.3968 39.8175C50.9416 40.1533 49.5825 40.8728 48.4368 41.9138C47.291 42.9549 46.393 44.2863 45.82 45.7934V45.7994L44.136 45.0114C44.8237 43.2054 45.9006 41.6099 47.2741 40.3623C48.6475 39.1147 50.2765 38.2523 52.0207 37.8494L45.5921 34.096L46.4497 32.3228ZM44.7428 44.3138H44.7483L57.8122 41.8068C58.1005 41.7515 58.3967 41.7728 58.6759 41.8691C58.9551 41.9655 59.2093 42.1339 59.417 42.3604C59.6247 42.5868 59.7799 42.8647 59.8697 43.1706C59.9594 43.4766 59.9811 43.8017 59.9328 44.1187L59.358 47.8872L57.5532 47.5545L58.128 43.786L45.064 46.293L44.7428 44.3138ZM58.5709 46.6488C59.0441 46.744 59.4642 47.0398 59.7403 47.4725C60.0164 47.9052 60.1263 48.4398 60.0463 48.9608L59.358 53.4912L57.5523 53.1605L58.2405 48.6301L58.5709 46.6488ZM58.5545 52.2477C59.0307 52.3387 59.4548 52.6328 59.7343 53.066C60.0138 53.4991 60.1259 54.0361 60.0463 54.5597L59.358 59.0921L57.5523 58.7614L58.2405 54.229L58.5545 52.2477ZM58.57 57.8547C59.0434 57.9496 59.4637 58.2454 59.74 58.6781C60.0163 59.1108 60.1263 59.6455 60.0463 60.1667L59.358 64.6971L57.5523 64.3664L58.2405 59.836L58.57 57.8547ZM58.57 63.4567C59.0432 63.5518 59.4633 63.8477 59.7394 64.2803C60.0155 64.713 60.1254 65.2477 60.0454 65.7686L59.4752 69.52L57.6694 69.1893L58.2396 65.4379L58.57 63.4567ZM59.4999 69.1863V71.0519H57.6694V69.1863H59.4999ZM57.6694 69.0415H65.0617V71.0519H57.6694V69.0415ZM63.2304 71.0519V69.1843H65.0608L65.0617 71.0519H63.2304ZM62.2071 37.0341V37.0402C62.2071 37.3068 62.1107 37.5625 61.9391 37.751C61.7674 37.9395 61.5346 38.0454 61.2919 38.0454C61.0492 38.0454 60.8164 37.9395 60.6448 37.751C60.4731 37.5625 60.3767 37.3068 60.3767 37.0402V37.0341C60.3767 36.7675 60.4731 36.5119 60.6448 36.3234C60.8164 36.1349 61.0492 36.0289 61.2919 36.0289C61.5346 36.0289 61.7674 36.1349 61.9391 36.3234C62.1107 36.5119 62.2071 36.7675 62.2071 37.0341ZM61.896 41.1383L63.1361 41.3786C63.5088 41.4508 63.8518 41.6481 64.1182 41.9434C64.3845 42.2386 64.561 42.6172 64.6234 43.0271L65.1423 46.4448C65.186 46.7328 65.1721 47.0278 65.1015 47.3094C65.0309 47.5909 64.9053 47.8521 64.7334 48.0749C64.5616 48.2978 64.3476 48.4768 64.1063 48.5996C63.8651 48.7223 63.6024 48.7859 63.3365 48.7859H59.3992C59.1333 48.7859 58.8705 48.7223 58.6292 48.5995C58.3879 48.4767 58.1738 48.2976 58.0019 48.0746C57.8301 47.8517 57.7045 47.5903 57.634 47.3087C57.5634 47.027 57.5496 46.7319 57.5935 46.4438L58.1014 43.1126C58.164 42.7027 58.3407 42.3242 58.6072 42.0292C58.8737 41.7341 59.2169 41.537 59.5896 41.465L61.2654 41.1414C61.4755 41.1007 61.6904 41.1007 61.9005 41.1414C62.1396 41.1876 62.3522 41.3363 62.4915 41.5547C62.6308 41.7731 62.6854 42.0433 62.6432 42.3059C62.6011 42.5685 62.4658 42.8019 62.2669 42.9549C62.0681 43.1079 61.8221 43.1678 61.583 43.1216L59.9072 43.4453L59.3992 46.7765H63.342L62.8231 43.3588L61.583 43.1186C61.3439 43.0723 61.1313 42.9237 60.992 42.7053C60.8527 42.4869 60.7981 42.2167 60.8403 41.9541C60.8824 41.6915 61.0177 41.458 61.2166 41.305C61.4154 41.1521 61.6615 41.0921 61.9005 41.1383H61.896ZM59.9648 52.2397H62.7755C63.2088 52.2397 63.6281 52.4084 63.9587 52.716C64.2894 53.0236 64.51 53.45 64.5813 53.9194L65.1478 57.6537C65.1915 57.9417 65.1776 58.2367 65.107 58.5183C65.0364 58.7998 64.9108 59.061 64.7389 59.2839C64.5671 59.5067 64.3531 59.6857 64.1118 59.8085C63.8706 59.9313 63.6079 59.9948 63.342 59.9948H59.3974C59.1314 59.9948 58.8687 59.9312 58.6273 59.8084C58.386 59.6856 58.172 59.5065 58.0001 59.2836C57.8282 59.0606 57.7027 58.7993 57.6321 58.5176C57.5616 58.2359 57.5478 57.9408 57.5916 57.6527L58.16 53.9184C58.2315 53.4492 58.4522 53.023 58.7828 52.7156C59.1134 52.4082 59.5326 52.2396 59.9658 52.2397C60.2085 52.2397 60.4413 52.3456 60.6129 52.5341C60.7846 52.7227 60.881 52.9783 60.881 53.2449C60.881 53.5115 60.7846 53.7672 60.6129 53.9557C60.4413 54.1442 60.2085 54.2501 59.9658 54.2501L59.3974 57.9844H63.342L62.7755 54.2501H59.9648C59.7221 54.2501 59.4893 54.1442 59.3177 53.9557C59.146 53.7672 59.0496 53.5115 59.0496 53.2449C59.0496 52.9783 59.146 52.7227 59.3177 52.5341C59.4893 52.3456 59.7221 52.2397 59.9648 52.2397ZM57.5916 52.0507L58.16 48.3154C58.2313 47.846 58.4519 47.4196 58.7825 47.112C59.1132 46.8045 59.5325 46.6357 59.9658 46.6357H62.7764C63.2098 46.6366 63.6288 46.8062 63.959 47.1145C64.2891 47.4228 64.509 47.8498 64.5794 48.3195L65.146 52.0548C65.1895 52.3427 65.1755 52.6376 65.1048 52.919C65.0341 53.2004 64.9085 53.4616 64.7367 53.6843C64.5648 53.907 64.3509 54.0859 64.1097 54.2086C63.8686 54.3313 63.606 54.3949 63.3402 54.3949H59.3956C59.1297 54.3949 58.867 54.3313 58.6258 54.2085C58.3845 54.0858 58.1705 53.9067 57.9987 53.6839C57.8268 53.4611 57.7012 53.1999 57.6306 52.9184C57.56 52.6368 57.5461 52.3418 57.5898 52.0538C57.6297 51.7908 57.7632 51.556 57.9607 51.401C58.1583 51.246 58.4038 51.1836 58.6432 51.2275C58.8827 51.2713 59.0965 51.4179 59.2376 51.6348C59.3787 51.8518 59.4355 52.1215 59.3956 52.3845H63.3402L62.7737 48.6492H59.963L59.3946 52.3845C59.3749 52.5147 59.3319 52.6394 59.2683 52.7514C59.2047 52.8634 59.1216 52.9605 59.0237 53.0372C58.9259 53.1139 58.8153 53.1688 58.6982 53.1985C58.5811 53.2283 58.4598 53.2324 58.3412 53.2107C58.2227 53.189 58.1091 53.1418 58.0072 53.072C57.9052 53.0021 57.8168 52.9108 57.7469 52.8034C57.677 52.6959 57.6271 52.5744 57.6 52.4458C57.5729 52.3172 57.57 52.184 57.5898 52.0538L57.5916 52.0507ZM59.9648 57.8417H62.7755C63.2088 57.8416 63.6281 58.0104 63.9587 58.3179C64.2894 58.6255 64.51 59.0519 64.5813 59.5213L65.1478 63.2556C65.1915 63.5437 65.1776 63.8387 65.107 64.1202C65.0364 64.4017 64.9108 64.663 64.7389 64.8858C64.5671 65.1086 64.3531 65.2877 64.1118 65.4104C63.8706 65.5332 63.6079 65.5968 63.342 65.5967H59.3974C59.1314 65.5968 58.8687 65.5332 58.6273 65.4104C58.386 65.2875 58.172 65.1084 58.0001 64.8855C57.8282 64.6626 57.7027 64.4012 57.6321 64.1195C57.5616 63.8379 57.5478 63.5427 57.5916 63.2546L58.16 59.5203C58.2315 59.0511 58.4522 58.6249 58.7828 58.3176C59.1134 58.0102 59.5326 57.8416 59.9658 57.8417C60.2085 57.8417 60.4413 57.9476 60.6129 58.1361C60.7846 58.3246 60.881 58.5803 60.881 58.8468C60.881 59.1134 60.7846 59.3691 60.6129 59.5576C60.4413 59.7462 60.2085 59.852 59.9658 59.852L59.3974 63.5863H63.342L62.7755 59.852H59.9648C59.7221 59.852 59.4893 59.7462 59.3177 59.5576C59.146 59.3691 59.0496 59.1134 59.0496 58.8468C59.0496 58.5803 59.146 58.3246 59.3177 58.1361C59.4893 57.9476 59.7221 57.8417 59.9648 57.8417ZM76.3712 46.108L63.9635 43.7247C63.6722 43.6689 63.3976 43.5364 63.1632 43.3386C62.9287 43.1407 62.7414 42.8835 62.6172 42.5888L64.2783 41.7445L76.6861 44.1278C76.8049 44.1501 76.9185 44.1979 77.0204 44.2685C77.1224 44.3392 77.2106 44.4312 77.28 44.5394C77.3495 44.6476 77.3988 44.7697 77.4252 44.8989C77.4515 45.0281 77.4544 45.1617 77.4336 45.2921C77.4128 45.4225 77.3688 45.547 77.304 45.6587C77.2393 45.7703 77.1551 45.8668 77.0563 45.9427C76.9575 46.0185 76.846 46.0721 76.7283 46.1005C76.6106 46.1289 76.4889 46.1314 76.3703 46.108H76.3712ZM62.6739 42.6964C62.5353 42.4627 62.4425 42.1999 62.4014 41.9246C62.3603 41.6494 62.3718 41.3677 62.4351 41.0976C62.4985 40.8275 62.6123 40.5748 62.7694 40.3557C62.9265 40.1365 63.1233 39.9556 63.3475 39.8246L66.8409 37.782C67.0375 37.6671 67.2515 37.5925 67.4725 37.5619C70.1242 37.1719 72.8145 37.8577 75.0386 39.4908C76.3116 40.4187 77.396 41.6257 78.2236 43.0362C78.4169 43.3645 78.5189 43.7477 78.5169 44.1388C78.5149 44.5298 78.4092 44.9117 78.2126 45.2378C78.016 45.5638 77.7371 45.8198 77.41 45.9744C77.0829 46.1289 76.7219 46.1754 76.3712 46.108C76.2524 46.0858 76.1388 46.0379 76.0368 45.9673C75.9349 45.8967 75.8467 45.8046 75.7772 45.6964C75.7078 45.5883 75.6585 45.4661 75.6321 45.3369C75.6058 45.2078 75.6029 45.0742 75.6237 44.9438C75.6445 44.8134 75.6885 44.6888 75.7533 44.5771C75.818 44.4655 75.9022 44.369 76.001 44.2932C76.0998 44.2174 76.2112 44.1637 76.329 44.1353C76.4467 44.107 76.5683 44.1044 76.687 44.1278C75.7412 42.505 74.3931 41.2126 72.8012 40.4029C71.2093 39.5932 69.4399 39.2998 67.7013 39.5572L64.2078 41.5997L62.6739 42.6964ZM67.8999 39.6034L63.5461 42.1456C63.231 42.3294 62.8738 42.4081 62.5184 42.3719C62.1631 42.3357 61.8251 42.1863 61.5461 41.9419C61.2671 41.6975 61.0592 41.3689 60.9481 40.9965C60.8369 40.624 60.8272 40.2241 60.9203 39.8457C61.1175 39.044 61.3883 38.2663 61.7285 37.5247C61.845 37.2713 62.0091 37.048 62.2099 36.8693L68.1534 31.5739C68.353 31.3964 68.5844 31.2669 68.8325 31.194C70.9741 30.5563 73.2406 30.6393 75.3388 31.4322C75.676 31.5598 75.9718 31.7927 76.1901 32.1025C76.4083 32.4122 76.5395 32.7852 76.5674 33.1756C76.5953 33.5661 76.5187 33.957 76.3471 34.3003C76.1755 34.6436 75.9164 34.9244 75.6015 35.1082L67.9008 39.6014C67.7944 39.6663 67.6774 39.7072 67.5565 39.7218C67.4356 39.7364 67.3133 39.7244 67.1966 39.6865C67.08 39.6486 66.9714 39.5855 66.8773 39.501C66.7831 39.4164 66.7052 39.3121 66.6481 39.1942C66.5911 39.0762 66.556 38.9469 66.545 38.8139C66.5339 38.6808 66.5471 38.5467 66.5838 38.4193C66.6205 38.292 66.68 38.174 66.7587 38.0721C66.8374 37.9703 66.9338 37.8867 67.0423 37.8263L74.743 33.333C72.9903 32.6699 71.0968 32.5999 69.3075 33.132L63.364 38.4274C63.0794 39.0471 62.8531 39.6972 62.6886 40.3674L67.0423 37.8252C67.2566 37.7001 67.5075 37.6735 67.7396 37.7515C67.9717 37.8294 68.1662 38.0055 68.2801 38.2409C68.3941 38.4763 68.4183 38.7518 68.3473 39.0067C68.2763 39.2617 68.116 39.4752 67.9017 39.6004L67.8999 39.6034ZM64.3305 28.3674C65.5193 27.3032 66.8955 26.5202 68.3728 26.0675C69.8501 25.6149 71.3966 25.5023 72.9153 25.7368C73.2685 25.7905 73.5998 25.9564 73.8683 26.2141C74.1369 26.4718 74.331 26.81 74.427 27.1872C74.5229 27.5644 74.5165 27.9642 74.4084 28.3374C74.3003 28.7107 74.0954 29.0411 73.8186 29.2881L69.5299 33.1189L63.5049 38.4877C63.2465 38.7179 62.9358 38.8665 62.6063 38.9173C62.2767 38.9681 61.9408 38.9193 61.6346 38.7762C61.3285 38.633 61.0636 38.4009 60.8686 38.1047C60.6735 37.8086 60.5557 37.4597 60.5277 37.0955C60.5067 36.817 60.4737 36.5285 60.427 36.2119C60.3921 35.9748 60.3961 35.7327 60.4389 35.4972C60.9408 32.6921 62.3193 30.1677 64.336 28.3603L65.4873 29.9234C63.8024 31.4334 62.6513 33.5432 62.2337 35.8872C62.2849 36.234 62.3252 36.5788 62.3518 36.9236L68.3749 31.5559L72.6636 27.7251C71.394 27.5284 70.1011 27.6221 68.866 28.0002C67.6309 28.3783 66.4803 29.0328 65.4864 29.9224C65.3937 30.0096 65.286 30.0755 65.1698 30.1163C65.0535 30.157 64.931 30.1719 64.8094 30.1599C64.6879 30.1479 64.5697 30.1093 64.4619 30.0464C64.3541 29.9835 64.2589 29.8976 64.1818 29.7937C64.1047 29.6897 64.0473 29.57 64.013 29.4413C63.9787 29.3127 63.9681 29.1778 63.982 29.0446C63.9959 28.9114 64.0338 28.7827 64.0937 28.6658C64.1535 28.549 64.234 28.4465 64.3305 28.3644V28.3674ZM58.409 28.3674C60.4224 30.1746 61.7984 32.6969 62.2996 35.4992C62.3425 35.7351 62.3465 35.9775 62.3115 36.2149C62.2685 36.5074 62.2346 36.803 62.2126 37.0945C62.1846 37.4585 62.0667 37.8072 61.8717 38.1032C61.6767 38.3992 61.412 38.6312 61.106 38.7743C60.7999 38.9175 60.4642 38.9663 60.1348 38.9157C59.8054 38.865 59.4948 38.7166 59.2363 38.4866L53.2727 33.1772L48.9217 29.2901C48.645 29.0431 48.44 28.7127 48.3319 28.3394C48.2239 27.9662 48.2174 27.5664 48.3134 27.1892C48.4093 26.812 48.6035 26.4738 48.872 26.2161C49.1406 25.9585 49.4718 25.7926 49.825 25.7388C51.3443 25.5045 52.8912 25.6173 54.3689 26.0702C55.8466 26.523 57.2233 27.3061 58.4126 28.3704L57.2567 29.9294C56.2622 29.0394 55.1111 28.3846 53.8754 28.0061C52.6397 27.6277 51.3461 27.5337 50.0758 27.7301L54.425 31.6151L60.3886 36.9246C60.4148 36.5815 60.4536 36.2374 60.5048 35.8923C60.0886 33.5496 58.9395 31.4406 57.2567 29.9304C57.1632 29.8474 57.0855 29.7449 57.0281 29.6289C56.9706 29.5128 56.9346 29.3855 56.922 29.2541C56.9094 29.1228 56.9205 28.99 56.9547 28.8634C56.9888 28.7367 57.0454 28.6187 57.1211 28.5161C57.1968 28.4135 57.2901 28.3282 57.3959 28.2653C57.5016 28.2023 57.6175 28.1628 57.7371 28.1491C57.8567 28.1354 57.9776 28.1477 58.0929 28.1853C58.2082 28.2229 58.3156 28.2841 58.409 28.3674ZM54.5842 39.512L47.0684 35.1233C46.7529 34.9387 46.4936 34.6569 46.3223 34.3124C46.151 33.9679 46.0753 33.5759 46.1045 33.1847C46.1337 32.7935 46.2665 32.4202 46.4866 32.1109C46.7067 31.8017 47.0044 31.5699 47.3429 31.4443C49.4898 30.6413 51.8084 30.5754 53.9902 31.2553C54.2291 31.3296 54.4518 31.4564 54.6446 31.6282L60.3785 36.7316C60.5752 36.9067 60.7366 37.1248 60.8526 37.3719C61.223 38.161 61.5166 38.9909 61.7285 39.8477C61.8221 40.2262 61.8128 40.6265 61.7018 40.9993C61.5908 41.372 61.383 41.701 61.1039 41.9457C60.8248 42.1904 60.4866 42.3401 60.131 42.3763C59.7755 42.4125 59.418 42.3337 59.1027 42.1496L54.5879 39.5129C54.3735 39.3878 54.2133 39.1742 54.1423 38.9193C54.0713 38.6643 54.0955 38.3888 54.2094 38.1534C54.3234 37.918 54.5178 37.742 54.75 37.664C54.9821 37.5861 55.2329 37.6126 55.4473 37.7378L59.9621 40.3744C59.7856 39.6544 59.5401 38.9569 59.2299 38.2937L53.496 33.1903C51.6695 32.6265 49.7306 32.6819 47.9333 33.3491L55.4491 37.7378C55.5552 37.7998 55.6492 37.8841 55.7257 37.986C55.8021 38.0878 55.8596 38.2052 55.8947 38.3315C55.9298 38.4577 55.942 38.5903 55.9305 38.7217C55.919 38.8531 55.884 38.9808 55.8276 39.0973C55.7711 39.2139 55.6943 39.3171 55.6016 39.401C55.5089 39.485 55.402 39.5481 55.287 39.5867C55.1721 39.6253 55.0513 39.6386 54.9317 39.626C54.812 39.6133 54.6958 39.5749 54.5897 39.5129L54.5842 39.512ZM52.3877 37.6282C53.2222 37.4742 54.0697 37.4223 54.9146 37.4734C55.1802 37.4893 55.4394 37.5685 55.6743 37.7056L59.3718 39.8658C59.5892 39.9928 59.7811 40.1668 59.9358 40.3772C60.0906 40.5876 60.2051 40.8301 60.2726 41.0902C60.34 41.3504 60.3589 41.6228 60.3282 41.8912C60.2975 42.1596 60.2178 42.4184 60.0939 42.6522L58.5115 41.6409L54.8139 39.4808C54.1043 39.4376 53.3925 39.4811 52.6915 39.6105C52.4532 39.6522 52.2096 39.5889 52.0136 39.4344C51.8175 39.2798 51.685 39.0465 51.6448 38.7852C51.6047 38.5239 51.6601 38.2557 51.799 38.039C51.938 37.8223 52.1492 37.6747 52.3868 37.6282H52.3877ZM60.1836 42.4371C60.083 42.7888 59.8963 43.1035 59.6438 43.3466C59.3913 43.5896 59.0829 43.7517 58.7522 43.8152L46.7929 46.108C46.4421 46.1753 46.081 46.1288 45.754 45.9741C45.4269 45.8194 45.148 45.5632 44.9515 45.2371C44.755 44.9109 44.6494 44.5289 44.6476 44.1378C44.6458 43.7467 44.7479 43.3635 44.9414 43.0351C45.7737 41.6203 46.8634 40.4098 48.142 39.4795C49.4206 38.5493 50.8604 37.9193 52.3712 37.6292H52.3831C52.5021 37.6059 52.6241 37.6088 52.7421 37.6376C52.8601 37.6664 52.9718 37.7205 53.0706 37.797C53.1695 37.8734 53.2535 37.9707 53.318 38.083C53.3824 38.1953 53.426 38.3205 53.4461 38.4515C53.4662 38.5824 53.4625 38.7164 53.4353 38.8457C53.408 38.9751 53.3576 39.0972 53.2871 39.2051C53.2166 39.3129 53.1274 39.4044 53.0245 39.4741C52.9217 39.5439 52.8072 39.5906 52.6879 39.6115C51.4247 39.8543 50.221 40.3815 49.1523 41.16C48.0836 41.9384 47.1731 42.9513 46.478 44.1348L58.4327 41.841L60.1836 42.4371ZM59.9703 63.4456H62.781C63.2144 63.4456 63.6338 63.6145 63.9645 63.9223C64.2952 64.23 64.5157 64.6567 64.5867 65.1263L65.1533 68.8626C65.1969 69.1505 65.1828 69.4455 65.1122 69.7269C65.0415 70.0083 64.9158 70.2694 64.744 70.4921C64.5722 70.7148 64.3582 70.8937 64.1171 71.0164C63.8759 71.1392 63.6133 71.2027 63.3475 71.2027H59.4029C59.137 71.2027 58.8743 71.1392 58.6331 71.0164C58.3918 70.8936 58.1779 70.7146 58.006 70.4918C57.8341 70.269 57.7086 70.0077 57.6379 69.7262C57.5673 69.4446 57.5534 69.1496 57.5972 68.8616L58.1655 65.1253C58.2368 64.6559 58.4574 64.2295 58.788 63.9219C59.1187 63.6143 59.537 63.4456 59.9703 63.4456C60.2131 63.4456 60.4468 63.5515 60.6184 63.74C60.7901 63.9285 60.8865 64.1842 60.8865 64.4508C60.8865 64.7174 60.7901 64.9731 60.6184 65.1616C60.4468 65.3501 60.214 65.456 59.9712 65.456L59.4029 69.1923H63.3475L62.781 65.456H59.9712C59.7285 65.456 59.4948 65.3501 59.3232 65.1616C59.1515 64.9731 59.0551 64.7174 59.0551 64.4508C59.0551 64.1842 59.1515 63.9285 59.3232 63.74C59.4948 63.5515 59.7276 63.4456 59.9703 63.4456ZM64.5007 65.4409L64.3497 64.5302L64.9977 65.1263L64.3515 64.5232L65.188 64.3704C65.2084 64.5043 65.2019 64.6415 65.169 64.7724C65.1361 64.9033 65.0777 65.0248 64.9977 65.1283C64.8688 65.293 64.6912 65.4026 64.4961 65.4379L64.5007 65.4409ZM63.3832 64.7001L64.3433 64.5242L63.385 64.6971C63.3625 64.5456 63.3698 64.3906 63.4065 64.2426C63.4431 64.0945 63.5082 63.9567 63.5974 63.8386L63.6029 63.8316V63.8266C63.7494 63.6387 63.9499 63.5114 64.1712 63.4657L64.3479 64.5232V64.5302L64.3415 64.5242L63.3832 64.7001ZM64.5007 59.839L64.3497 58.9212L65.189 58.7674C65.2259 59.0096 65.1744 59.258 65.0455 59.4587C64.9166 59.6593 64.7208 59.796 64.5007 59.839ZM63.3832 59.0931C63.3424 58.8148 63.4024 58.53 63.5503 58.2997C63.6983 58.0694 63.9225 57.9118 64.1749 57.8608L64.3497 58.9192L63.3832 59.0931ZM64.5007 54.235L64.3598 53.3303L65.0004 53.9174L64.3598 53.3143V53.3273L64.3433 53.3122L63.385 53.4852C63.3626 53.3337 63.3699 53.1787 63.4065 53.0307C63.4432 52.8826 63.5082 52.7449 63.5974 52.6267L63.602 52.6197L63.6075 52.6126C63.7583 52.4208 63.9649 52.2922 64.1923 52.2488L64.3589 53.3082L65.1917 53.1585C65.2121 53.2924 65.2056 53.4296 65.1727 53.5605C65.1398 53.6914 65.0813 53.8128 65.0013 53.9164C64.873 54.0849 64.6936 54.1969 64.4961 54.232L64.5007 54.235ZM64.5007 48.6331L64.3506 47.7234L64.9986 48.3195L64.3497 47.7163L65.189 47.5656C65.2093 47.6995 65.2028 47.8367 65.1699 47.9676C65.1371 48.0985 65.0786 48.2199 64.9986 48.3235C64.869 48.4872 64.6912 48.5958 64.4961 48.6301L64.5007 48.6331ZM63.3823 47.8872C63.3598 47.7358 63.3671 47.5808 63.4037 47.4327C63.4403 47.2846 63.5054 47.1469 63.5946 47.0288L63.6001 47.0217V47.0157C63.7468 46.8276 63.9477 46.7003 64.1694 46.6549L64.3451 47.7123V47.7224L64.336 47.7133L63.3823 47.8872ZM78.2493 46.3161C78.2001 46.3158 78.1511 46.3108 78.1028 46.301L78.2511 45.3863L79.0327 45.0204C79.0872 45.1624 79.1089 45.317 79.0958 45.4704C79.0827 45.6238 79.0353 45.7712 78.9577 45.8996C78.8802 46.028 78.7749 46.1333 78.6513 46.2062C78.5277 46.279 78.3895 46.3171 78.2493 46.3171V46.3161ZM77.3487 45.8075C77.2846 45.6437 77.2585 45.465 77.2728 45.2874C77.2871 45.1099 77.3413 44.939 77.4306 44.7901C77.5199 44.6412 77.6414 44.5191 77.7843 44.4345C77.9272 44.35 78.0869 44.3057 78.2493 44.3057C78.3078 44.3055 78.3663 44.3109 78.4241 44.3218L78.2511 45.3863L77.3487 45.8075ZM76.1918 34.2095C76.0394 34.1142 75.9132 33.9758 75.8262 33.8085C75.7392 33.6413 75.6946 33.4514 75.6973 33.2589C75.6999 33.0663 75.7495 32.878 75.841 32.7137C75.9325 32.5494 76.0625 32.4151 76.2175 32.3248L76.6751 33.2707L76.1918 34.2095ZM77.0759 34.1L76.6769 33.2757L77.0915 32.4595C77.225 32.5414 77.336 32.6614 77.4127 32.8067C77.4894 32.952 77.529 33.1174 77.5274 33.2853C77.5259 33.4533 77.4831 33.6177 77.4036 33.7612C77.3242 33.9047 77.211 34.0211 77.0759 34.1ZM74.2543 28.289C74.0859 28.23 73.9351 28.1222 73.8179 27.9769C73.7007 27.8316 73.6215 27.6542 73.5885 27.4635C73.5555 27.2728 73.57 27.0759 73.6305 26.8935C73.691 26.7111 73.7952 26.5501 73.9321 26.4273L74.5536 27.2657L74.2543 28.289ZM75.0881 27.9874L74.5536 27.2667L74.8144 26.3751C74.9592 26.427 75.0886 26.5208 75.1891 26.6466C75.2896 26.7723 75.3574 26.9254 75.3855 27.0899C75.4136 27.2543 75.4009 27.4241 75.3487 27.5813C75.2965 27.7385 75.2068 27.8774 75.089 27.9834L75.0881 27.9874ZM48.4998 28.289L48.1987 27.2677L49.1597 27.4687C49.125 27.6567 49.045 27.831 48.9282 27.9735C48.8113 28.116 48.6618 28.2214 48.4952 28.2789L48.4998 28.289ZM47.6605 27.9874C47.5418 27.8815 47.4513 27.7424 47.3985 27.5848C47.3457 27.4272 47.3325 27.2569 47.3603 27.0918C47.3886 26.9266 47.4569 26.7729 47.5581 26.6467C47.6592 26.5206 47.7895 26.4268 47.9351 26.3751L48.1959 27.2606H48.1904L47.6605 27.9874ZM49.1606 27.4577L48.1968 27.2566L48.8128 26.4213C48.9485 26.5433 49.052 26.7031 49.1124 26.884C49.1727 27.0648 49.1878 27.2602 49.156 27.4496L49.1606 27.4577ZM46.4716 34.2266L45.9948 33.2878L46.4524 32.3359C46.6077 32.4271 46.7377 32.5626 46.8288 32.728C46.92 32.8935 46.969 33.0828 46.9705 33.2762C46.9721 33.4696 46.9263 33.6598 46.8379 33.8271C46.7495 33.9943 46.6217 34.1323 46.468 34.2266H46.4716ZM45.5958 34.11C45.4607 34.0315 45.3474 33.9143 45.2679 33.7709C45.1884 33.6276 45.1455 33.4633 45.1439 33.2954C45.1424 33.1275 45.182 32.9623 45.2588 32.8171C45.3356 32.6719 45.4466 32.5522 45.5802 32.4706L45.9948 33.2868L45.5958 34.11ZM44.924 46.3211C44.7837 46.3211 44.6456 46.283 44.522 46.2102C44.3984 46.1373 44.2931 46.032 44.2155 45.9036C44.138 45.7752 44.0905 45.6278 44.0774 45.4744C44.0644 45.321 44.086 45.1664 44.1406 45.0244L44.9222 45.3903L45.0704 46.306C45.0203 46.312 44.9697 46.313 44.9194 46.3091L44.924 46.3211ZM45.8246 45.8125L44.9222 45.3903L44.7501 44.3268C44.8078 44.3159 44.8663 44.3105 44.9249 44.3107C45.0872 44.3107 45.247 44.355 45.3899 44.4395C45.5328 44.5241 45.6543 44.6463 45.7436 44.7952C45.8329 44.944 45.8871 45.1149 45.9014 45.2925C45.9157 45.47 45.8896 45.6487 45.8255 45.8125H45.8246ZM58.247 48.6381C58.0268 48.5951 57.8311 48.4585 57.7022 48.2578C57.5733 48.0572 57.5217 47.8088 57.5587 47.5666L58.3961 47.7204L58.247 48.6381ZM59.3645 47.8993L58.3961 47.7163L59.1448 47.0228C59.2362 47.1415 59.303 47.2807 59.3407 47.4307C59.3783 47.5806 59.3858 47.7378 59.3626 47.8913L59.3645 47.8993ZM58.4007 47.7174L58.5774 46.6609C58.7992 46.7064 58.9999 46.8346 59.1457 47.0238L58.4007 47.7174ZM58.247 54.24C58.0269 54.1968 57.8313 54.0601 57.7025 53.8595C57.5736 53.6589 57.522 53.4107 57.5587 53.1685L58.3925 53.3213L58.247 54.24ZM59.3645 53.4942L58.3925 53.3193L58.56 52.2598C58.8152 52.3074 59.043 52.4638 59.1937 52.695C59.3444 52.9262 59.4058 53.2135 59.3645 53.4942ZM58.3925 53.3213L57.5587 53.1685L58.3925 53.3193V53.3213ZM58.246 59.844C58.0264 59.8001 57.8312 59.6632 57.7025 59.4628C57.5738 59.2624 57.5218 59.0145 57.5578 58.7725L58.3989 58.9263L58.246 59.844ZM59.3635 59.1032L58.3989 58.9263L58.5755 57.8658C58.8285 57.9168 59.0529 58.0751 59.2004 58.3065C59.3479 58.5378 59.4065 58.8237 59.3635 59.1022V59.1032ZM58.246 65.4459C58.026 65.4027 57.8304 65.266 57.7016 65.0654C57.5727 64.8648 57.5211 64.6165 57.5578 64.3744L58.3989 64.5282L58.246 65.4459ZM59.3635 64.7001L58.3989 64.5262L58.5755 63.4687C58.8271 63.5207 59.0502 63.6785 59.1974 63.9085C59.3446 64.1385 59.4042 64.4225 59.3635 64.7001ZM58.3989 64.5282L57.5578 64.3744L58.3998 64.5262L58.3989 64.5282ZM62.6703 42.7145C62.6494 42.6795 62.6305 42.6433 62.6135 42.6059L63.3933 42.1968L62.6703 42.7145ZM63.3933 42.1968L64.2042 41.6168C64.2271 41.6562 64.2475 41.6971 64.2655 41.7394L63.3933 42.1968ZM60.0664 42.7728L59.2308 42.239L60.1543 42.5577C60.1346 42.5911 60.1132 42.6233 60.0902 42.6542L60.0664 42.7728ZM59.2308 42.239L58.4071 41.9556C58.4258 41.888 58.4513 41.8229 58.4831 41.7616L59.2308 42.239Z" fill="#016B86"/>
<path d="M78.2437 45.3794L63.5616 42.5649L63.4948 42.1155H61.7778C61.745 42.0872 61.7143 42.056 61.6863 42.0221L67.4412 38.6607C69.667 38.2969 71.9396 38.7611 73.8974 39.9795C75.8552 41.1979 77.3857 43.1005 78.2455 45.3844L78.2437 45.3794Z" fill="white"/>
<path d="M62.6866 37.8344L61.5041 38.8889C61.579 37.8815 61.5335 36.8677 61.3687 35.8733C61.6264 34.3015 62.1884 32.8089 63.0167 31.4962C63.8449 30.1835 64.92 29.0814 66.1695 28.2643C67.4189 27.4473 68.8134 26.9343 70.2589 26.7602C71.7043 26.586 73.1669 26.7546 74.5479 27.2547L68.9129 32.2887L62.6866 37.8344Z" fill="white"/>
<path d="M61.1106 42.1084L55.0399 38.5611L45.9856 33.2747C47.1785 32.5472 48.4922 32.0899 49.8488 31.9298C51.2055 31.7698 52.5776 31.9102 53.884 32.3429L59.8952 37.6926C60.4461 38.8228 60.8222 40.0456 61.0081 41.3113C61.0484 41.5776 61.0978 41.839 61.1106 42.1084Z" fill="white"/>
<path d="M59.9 37.6947L53.8888 32.345L48.1924 27.2547C49.5734 26.7546 51.036 26.586 52.4815 26.7602C53.9269 26.9343 55.3215 27.4473 56.5709 28.2643C57.8203 29.0814 58.8954 30.1835 59.7237 31.4962C60.5519 32.8089 61.1139 34.3015 61.3717 35.8733C61.2086 36.8679 61.163 37.8815 61.2362 38.8889L59.9 37.6947Z" fill="white"/>
<path d="M61.5739 41.8954C61.7031 40.4756 62.081 39.0966 62.6868 37.8344L68.9104 32.2887C70.1989 31.882 71.5479 31.759 72.8798 31.9268C74.2118 32.0947 75.5004 32.5501 76.6715 33.2668L67.4396 38.6557L61.6847 42.017L61.5821 41.9044H61.573V41.8944L61.5739 41.8954Z" fill="white"/>
<path d="M55.0446 38.5632L61.1153 42.1115H59.2437L59.1677 42.6443L44.9194 45.3804C45.5789 43.6534 46.6229 42.136 47.9555 40.9677C49.2881 39.7994 50.8666 39.0175 52.546 38.6938C53.371 38.5392 54.21 38.4953 55.0446 38.5632Z" fill="white"/>
<path d="M63.495 64.519L64.3452 70.121H58.3962L59.2465 64.519H63.495Z" fill="white"/>
<path d="M63.4948 64.5192H58.3943L59.2445 58.9172H63.4958L64.346 64.5192H63.4948Z" fill="white"/>
<path d="M63.495 53.3152L64.3452 58.9171H58.3962L59.2465 53.3152H63.495Z" fill="white"/>
<path d="M63.495 47.7124L64.3452 53.3143H58.3962L59.2465 47.7124H63.495Z" fill="white"/>
<path d="M63.5627 42.5588L64.3452 47.7124H58.3962L59.1696 42.6422L61.584 42.1758L63.5627 42.5588Z" fill="white"/>
<path d="M65.0654 69.1892L64.4953 65.4378C64.7154 65.3948 64.9112 65.2582 65.0401 65.0575C65.1689 64.8569 65.2205 64.6084 65.1835 64.3663L64.4953 59.8359C64.7154 59.7929 64.9112 59.6562 65.0401 59.4556C65.1689 59.2549 65.2205 59.0065 65.1835 58.7643L64.4953 54.2319C64.6898 54.1955 64.8663 54.0844 64.9931 53.9183C65.0731 53.8148 65.1316 53.6933 65.1645 53.5624C65.1974 53.4315 65.2039 53.2943 65.1835 53.1604L64.4953 48.63C64.6895 48.5927 64.8657 48.4817 64.9931 48.3163C65.0731 48.2128 65.1316 48.0914 65.1645 47.9605C65.1974 47.8296 65.2039 47.6924 65.1835 47.5584L64.5996 43.7045L78.0983 46.2969C78.2486 46.326 78.4032 46.3099 78.546 46.2506C78.6887 46.1913 78.8142 46.0908 78.9094 45.9598C79.0045 45.8288 79.0658 45.672 79.0867 45.5059C79.1076 45.3399 79.0874 45.1708 79.0282 45.0163C78.3161 43.1438 77.1859 41.4985 75.7419 40.2325C74.2979 38.9665 72.5867 38.1206 70.7664 37.7729L77.0732 34.0929C77.2083 34.014 77.3215 33.8966 77.4009 33.7531C77.4804 33.6096 77.5231 33.4452 77.5247 33.2772C77.5263 33.1092 77.4867 32.9439 77.41 32.7986C77.3333 32.6532 77.2223 32.5333 77.0888 32.4514C75.472 31.4557 73.6514 30.9276 71.7979 30.9164L75.0844 27.9793C75.2023 27.8732 75.292 27.7343 75.3442 27.5771C75.3963 27.42 75.4091 27.2502 75.381 27.0858C75.3529 26.9213 75.2851 26.7682 75.1846 26.6424C75.0841 26.5167 74.9547 26.4229 74.8099 26.371C73.0549 25.738 71.1832 25.5995 69.3668 25.9684C67.5504 26.3372 65.8476 27.2015 64.4147 28.4819C63.11 29.6457 62.0679 31.125 61.3698 32.8042C60.6724 31.1255 59.6317 29.6463 58.3285 28.4819C56.8951 27.2018 55.1919 26.3376 53.3753 25.9688C51.5587 25.6 49.6868 25.7382 47.9315 26.371C47.7867 26.4229 47.6572 26.5167 47.5568 26.6424C47.4563 26.7682 47.3884 26.9213 47.3604 27.0858C47.3323 27.2502 47.345 27.42 47.3972 27.5771C47.4493 27.7343 47.5391 27.8732 47.6569 27.9793L50.97 30.9396C49.0833 30.933 47.2265 31.4573 45.5766 32.4625C45.443 32.5441 45.332 32.6638 45.2552 32.809C45.1784 32.9541 45.1387 33.1194 45.1403 33.2873C45.1419 33.4551 45.1847 33.6194 45.2643 33.7628C45.3438 33.9062 45.4571 34.0233 45.5921 34.1019L52.0207 37.8553C50.2765 38.2583 48.6476 39.1207 47.2741 40.3683C45.9006 41.6159 44.8237 43.2113 44.136 45.0173C44.0755 45.1718 44.0543 45.3414 44.0747 45.508C44.095 45.6747 44.1562 45.8321 44.2516 45.9636C44.3471 46.095 44.4733 46.1956 44.6167 46.2544C44.7601 46.3133 44.9153 46.3284 45.0659 46.2979L58.1299 43.791L57.5551 47.5594C57.5181 47.8016 57.5697 48.05 57.6986 48.2507C57.8274 48.4513 58.0232 48.588 58.2433 48.631L57.5551 53.1614C57.5184 53.4035 57.57 53.6518 57.6988 53.8524C57.8277 54.053 58.0233 54.1897 58.2433 54.2329L57.5551 58.7653C57.5191 59.0074 57.571 59.2553 57.6998 59.4556C57.8285 59.656 58.0237 59.7929 58.2433 59.8369L57.5551 64.3673C57.5184 64.6094 57.57 64.8577 57.6988 65.0583C57.8277 65.2589 58.0233 65.3956 58.2433 65.4388L57.6731 69.1902V71.0558H65.0654V69.1882V69.1892ZM60.3813 37.0391V37.0451ZM61.583 43.1235L62.8231 43.3638L63.3421 46.7814H59.3993L59.9072 43.4502L61.583 43.1235ZM59.9649 54.25H62.7755L63.3421 57.9843H59.3974L59.9649 54.25ZM59.3965 52.3824L59.9649 48.6471H62.7755L63.3421 52.3824H59.3965ZM59.9649 59.852H62.7755L63.3421 63.5862H59.3974L59.9649 59.852ZM76.6861 44.1317L64.2783 41.7484C64.258 41.698 64.2345 41.6494 64.2079 41.6027L67.7013 39.5601C69.4399 39.3027 71.2093 39.5961 72.8012 40.4058C74.3931 41.2156 75.7413 42.5079 76.687 44.1307L76.6861 44.1317ZM67.0405 37.8322L62.6868 40.3743C62.8513 39.7041 63.0776 39.0541 63.3622 38.4343L69.3057 33.1389C71.095 32.6068 72.9886 32.6769 74.7412 33.34L67.0405 37.8332M65.4846 29.9334C66.4785 29.0437 67.6291 28.3893 68.8642 28.0112C70.0993 27.6331 71.3922 27.5394 72.6618 27.736L68.3731 31.5668L62.35 36.9345C62.3234 36.5898 62.2832 36.245 62.2319 35.8982C62.649 33.5521 63.8008 31.4403 65.4874 29.9293L65.4846 29.9334ZM57.2549 29.9334C58.9378 31.4436 60.0868 33.5525 60.503 35.8952C60.4518 36.2403 60.413 36.5844 60.3868 36.9275L54.4232 31.6181L50.074 27.733C51.3447 27.536 52.6387 27.6296 53.8749 28.0079C55.1111 28.3863 56.2628 29.0411 57.2576 29.9314L57.2549 29.9334ZM55.4409 37.7407L47.9251 33.352C49.7224 32.6848 51.6613 32.6294 53.4878 33.1932L59.2217 38.2966C59.5319 38.9599 59.7774 39.6573 59.9539 40.3773L55.4391 37.7407M52.6815 39.6144C53.3824 39.4851 54.0943 39.4416 54.8039 39.4847L58.5014 41.6449C58.4696 41.7063 58.4442 41.7713 58.4255 41.8389L46.4708 44.1327C47.1669 42.9488 48.0787 41.936 49.1487 41.158C50.2187 40.3801 51.4237 39.8538 52.6879 39.6124L52.6815 39.6144ZM59.9594 65.4549H62.7701L63.3366 69.1912H59.392L59.9594 65.4549Z" fill="#016B86"/>
<path d="M56.6701 70.7302L56.1338 67.199C56.3403 67.1584 56.5241 67.0303 56.6453 66.8422C56.7666 66.6541 56.8156 66.4212 56.7818 66.1938L56.1338 61.9287C56.3403 61.8882 56.5241 61.76 56.6453 61.572C56.7666 61.3839 56.8156 61.151 56.7818 60.9235L56.1338 56.6575C56.317 56.6232 56.4831 56.5184 56.6024 56.362C56.6783 56.265 56.734 56.1509 56.7656 56.0279C56.7972 55.9048 56.804 55.7756 56.7854 55.6493L56.1375 51.3853C56.344 51.3447 56.5277 51.2166 56.649 51.0285C56.7702 50.8404 56.8192 50.6075 56.7854 50.3801L56.2363 46.7523L68.9424 49.1929C69.084 49.2205 69.2297 49.2055 69.3642 49.1496C69.4987 49.0938 69.6169 48.9991 69.7065 48.8756C69.7961 48.7521 69.8537 48.6043 69.8732 48.4479C69.8927 48.2914 69.8734 48.1321 69.8174 47.9867C69.1469 46.2237 68.0826 44.6748 66.7229 43.4831C65.3632 42.2914 63.7519 41.4953 62.0379 41.1685L67.975 37.7046C68.1022 37.6304 68.2088 37.52 68.2837 37.3849C68.3585 37.2498 68.3988 37.095 68.4003 36.9369C68.4018 36.7787 68.3645 36.6231 68.2922 36.4863C68.2199 36.3495 68.1154 36.2366 67.9897 36.1596C66.4677 35.2225 64.7538 34.7255 63.009 34.7151L66.1034 31.9499C66.2151 31.8502 66.3003 31.7194 66.35 31.571C66.3997 31.4227 66.4121 31.2623 66.3858 31.1069C66.3594 30.9515 66.2954 30.8068 66.2004 30.688C66.1055 30.5692 65.9831 30.4808 65.8462 30.432C64.1939 29.8366 62.4319 29.7068 60.722 30.0545C59.0121 30.4023 57.4092 31.2165 56.0606 32.4223C54.8327 33.5171 53.8517 34.9086 53.1941 36.4883C52.5374 34.9091 51.5577 33.5177 50.3313 32.4223C48.9823 31.2168 47.3793 30.4028 45.6693 30.0551C43.9593 29.7073 42.1972 29.8369 40.5447 30.432C40.4075 30.4803 40.2847 30.5684 40.1893 30.6871C40.094 30.8057 40.0296 30.9505 40.0031 31.1061C39.9765 31.2617 39.9888 31.4222 40.0385 31.5707C40.0883 31.7193 40.1737 31.8503 40.2857 31.9499L43.4048 34.7372C41.6289 34.7311 39.8811 35.2246 38.328 36.1706C38.2025 36.2476 38.0982 36.3603 38.026 36.4969C37.9539 36.6336 37.9166 36.789 37.9181 36.9469C37.9196 37.1048 37.9598 37.2594 38.0345 37.3943C38.1092 37.5292 38.2157 37.6395 38.3427 37.7136L44.3942 41.2469C42.7524 41.6263 41.2192 42.4381 39.9263 43.6125C38.6335 44.7869 37.6199 46.2888 36.9726 47.9887C36.9152 48.1341 36.8949 48.2939 36.9139 48.451C36.9328 48.608 36.9904 48.7565 37.0803 48.8804C37.1701 49.0043 37.289 49.0991 37.4242 49.1545C37.5594 49.2099 37.7057 49.2239 37.8475 49.1949L50.1455 46.8348L49.6036 50.3821C49.5699 50.6095 49.6189 50.8424 49.7401 51.0305C49.8613 51.2186 50.0451 51.3467 50.2516 51.3873L49.6036 55.6513C49.5699 55.8787 49.6189 56.1117 49.7401 56.2997C49.8613 56.4878 50.0451 56.6159 50.2516 56.6565L49.6036 60.9226C49.5706 61.1499 49.6199 61.3824 49.741 61.5702C49.8621 61.7581 50.0454 61.8865 50.2516 61.9277L49.6036 66.1928C49.5699 66.4202 49.6189 66.6531 49.7401 66.8412C49.8613 67.0293 50.0451 67.1574 50.2516 67.198L49.7153 70.7292V72.4853H56.671V70.7272L56.6701 70.7302ZM52.2606 40.4658V40.4709ZM53.3918 46.1924L54.5596 46.4186L55.0474 49.6352H51.3353L51.8139 46.5L53.3918 46.1924ZM51.8688 56.6655H54.5148L55.0474 60.1837H51.3343L51.8688 56.6655ZM51.3343 54.9075L51.8688 51.3893H54.5148L55.0474 54.9075H51.3343ZM51.8688 61.9438H54.5148L55.0474 65.462H51.3343L51.8688 61.9438ZM67.6108 47.1453L55.9306 44.9018C55.9113 44.8545 55.889 44.8088 55.8638 44.7651L59.1522 42.8421C60.7888 42.5998 62.4544 42.876 63.9529 43.6382C65.4514 44.4004 66.7204 45.6178 67.6108 47.1453ZM58.5317 41.2147L54.4333 43.6081C54.5897 42.9773 54.8044 42.3656 55.074 41.7827L60.6687 36.7979C62.3529 36.2959 64.1355 36.3607 65.7858 36.9839L58.5363 41.2137M57.0719 33.7753C58.0063 32.9376 59.0881 32.321 60.2496 31.9639C61.4111 31.6069 62.6272 31.5173 63.8217 31.7006L59.7846 35.3062L54.1102 40.3583C54.0855 40.0336 54.0471 39.7089 53.9986 39.3822C54.3943 37.1771 55.4795 35.1933 57.0664 33.7743L57.0719 33.7753ZM49.3245 33.7753C50.9087 35.1968 51.9904 37.1821 52.3823 39.3873C52.3341 39.7123 52.2975 40.0363 52.2725 40.3593L46.6594 35.3615L42.5601 31.7006C43.756 31.5164 44.9737 31.6056 46.1368 31.9626C47.2999 32.3196 48.3833 32.9368 49.319 33.7753H49.3245ZM47.6176 41.1243L40.5429 36.9929C42.2346 36.3648 44.0597 36.3126 45.7789 36.8431L51.1787 41.648C51.472 42.2723 51.7042 42.929 51.8716 43.6071L47.6213 41.1243M45.0257 42.8884C45.6855 42.7664 46.3556 42.7253 47.0236 42.7657L50.5015 44.7992C50.4717 44.8568 50.4478 44.9178 50.4301 44.9812L39.1728 47.1403C39.8275 46.0274 40.6847 45.0752 41.6905 44.3435C42.6963 43.6118 43.829 43.1164 45.0174 42.8884H45.0257ZM51.8762 67.214H54.5221L55.0547 70.7322H51.3417L51.8762 67.214Z" fill="#016B86"/>
<path d="M54.8644 71.0609L54.328 67.5297C54.2481 67.0083 54.3584 66.4733 54.635 66.0405C54.9117 65.6078 55.3324 65.3122 55.8061 65.2177L56.1338 67.196L56.6701 70.7272C56.6899 70.8574 56.6861 70.9906 56.659 71.1193C56.6319 71.2479 56.582 71.3694 56.5121 71.4768C56.4423 71.5843 56.3538 71.6755 56.2518 71.7454C56.1499 71.8153 56.0364 71.8625 55.9178 71.8842C55.7992 71.9059 55.6779 71.9018 55.5608 71.872C55.4437 71.8422 55.3331 71.7874 55.2353 71.7107C55.1374 71.6339 55.0543 71.5368 54.9907 71.4248C54.9271 71.3128 54.8841 71.1881 54.8644 71.0579V71.0609ZM55.1984 65.6128L55.2085 65.5997L56.6024 66.9065L55.1984 65.6128ZM54.9751 66.5175L54.328 62.2574C54.2481 61.7359 54.3585 61.2007 54.6354 60.768C54.9122 60.3352 55.3332 60.0397 55.807 59.9455L56.1338 61.9237L56.7818 66.1888L54.9751 66.5175ZM54.9751 61.2442L54.328 56.9822C54.2484 56.4581 54.361 55.9208 54.641 55.4876C54.9211 55.0543 55.3459 54.7605 55.8226 54.6703L56.1338 56.6515L56.7818 60.9175L54.9751 61.2442ZM55.1975 55.0663L55.2085 55.0522L56.6015 56.359L55.1975 55.0663ZM54.9751 55.971L54.328 51.711C54.2481 51.1896 54.3584 50.6545 54.635 50.2218C54.9117 49.7891 55.3324 49.4935 55.8061 49.399L56.1338 51.3772L56.7818 55.6413L54.9751 55.971ZM55.1984 49.7941L55.2085 49.781L56.6024 51.0877L55.1984 49.7941ZM54.9751 50.6987L54.426 47.075C54.3777 46.758 54.3994 46.4328 54.4891 46.1269C54.5789 45.8209 54.7341 45.5431 54.9418 45.3166C55.1495 45.0902 55.4036 44.9217 55.6829 44.8254C55.9621 44.7291 56.2583 44.7077 56.5466 44.7631L69.2527 47.2037H69.2591L68.9378 49.1829L56.2317 46.7423L56.7808 50.37L54.9751 50.6987ZM68.1297 48.7678V48.7597C67.5776 47.3075 66.7013 46.0314 65.5815 45.0495C64.4618 44.0676 63.1348 43.4114 61.7231 43.1417C61.3469 43.07 61.0006 42.8709 60.7326 42.5723C60.4645 42.2737 60.2882 41.8905 60.2283 41.4764C60.1684 41.0623 60.2279 40.638 60.3984 40.2628C60.569 39.8877 60.842 39.5805 61.1794 39.3843L67.1165 35.9204L67.975 37.6955C67.975 37.6955 62.0379 41.1594 62.0397 41.1614C63.7537 41.4883 65.365 42.2843 66.7247 43.476C68.0844 44.6678 69.1487 46.2167 69.8192 47.9797L68.1297 48.7678ZM67.0946 37.9116C65.8418 37.1422 64.4324 36.7328 62.9971 36.7215C62.6199 36.7195 62.2524 36.5896 61.945 36.3495C61.6376 36.1094 61.4053 35.7708 61.2798 35.3801C61.1543 34.9894 61.1417 34.5657 61.2438 34.1669C61.3459 33.768 61.5578 33.4136 61.8503 33.1521L64.9447 30.3868L66.0997 31.9458L63.0053 34.7111C64.7501 34.7215 66.464 35.2185 67.986 36.1556L67.0946 37.9116ZM65.2824 32.3429C63.9204 31.8506 62.4676 31.7422 61.0575 32.0278C59.6474 32.3134 58.3253 32.9838 57.2128 33.9773H57.2073C56.2001 34.877 55.3944 36.0188 54.8525 37.3146C54.7063 37.6641 54.4719 37.9603 54.177 38.1679C53.8822 38.3756 53.5393 38.4859 53.189 38.4859C52.8388 38.4859 52.4959 38.3756 52.201 38.1679C51.9062 37.9603 51.6718 37.6641 51.5256 37.3146C50.6506 35.2215 49.1036 33.5561 47.1807 32.6372C45.2578 31.7183 43.0939 31.6103 41.103 32.3338L40.5392 30.424C42.1917 29.8289 43.9538 29.6993 45.6638 30.0471C47.3738 30.3948 48.9768 31.2088 50.3258 32.4143C51.5522 33.5096 52.5319 34.9011 53.1886 36.4803C53.8462 34.9005 54.8272 33.509 56.0551 32.4143C57.4037 31.2085 59.0065 30.3943 60.7164 30.0465C62.4263 29.6987 64.1884 29.8285 65.8407 30.424L65.2824 32.3429ZM41.4343 30.3848L44.5562 33.1742C44.8495 33.4364 45.0616 33.7921 45.1634 34.1921C45.2652 34.5922 45.2517 35.0171 45.1247 35.4084C44.9977 35.7996 44.7634 36.1381 44.4541 36.3772C44.1448 36.6163 43.7757 36.7443 43.3975 36.7436C41.9348 36.7382 40.4952 37.1441 39.2158 37.9227L38.3244 36.1666C39.8774 35.2205 41.6252 34.7271 43.4011 34.7332L40.282 31.9458L41.4343 30.3848ZM39.2021 35.9224L45.2526 39.4546C45.5846 39.6483 45.8542 39.9496 46.0248 40.3174C46.1954 40.6853 46.2588 41.1019 46.2063 41.5107C46.1538 41.9195 45.988 42.3006 45.7314 42.6023C45.4749 42.904 45.1399 43.1116 44.7721 43.197C43.4193 43.5093 42.1559 44.1781 41.0909 45.146C40.0258 46.1138 39.191 47.3516 38.6584 48.7527V48.7597L36.9744 47.9716C37.6217 46.2717 38.6354 44.7699 39.9282 43.5955C41.221 42.4211 42.7542 41.6092 44.396 41.2298L38.3445 37.6965L39.2021 35.9224ZM37.5254 47.1986H37.5318L49.8297 44.8385C50.118 44.7831 50.4142 44.8045 50.6934 44.9008C50.9726 44.9971 51.2267 45.1656 51.4345 45.392C51.6422 45.6185 51.7974 45.8963 51.8872 46.2023C51.9769 46.5082 51.9985 46.8334 51.9503 47.1504L51.4085 50.6977L49.6036 50.365L50.1454 46.8177L37.8475 49.1779L37.5254 47.1986ZM50.582 49.397C51.0552 49.4921 51.4753 49.788 51.7514 50.2207C52.0275 50.6534 52.1374 51.188 52.0574 51.7089L51.4094 55.973L49.6036 55.6423L50.2516 51.3782L50.582 49.397ZM50.5655 54.6672C51.0417 54.7582 51.4659 55.0523 51.7454 55.4854C52.0249 55.9186 52.137 56.4556 52.0574 56.9792L51.4094 61.2452L49.6036 60.9145L50.2516 56.6485L50.5655 54.6672ZM50.5811 59.9455C51.0544 60.0404 51.4747 60.3362 51.751 60.7689C52.0273 61.2016 52.1374 61.7363 52.0574 62.2574L51.4094 66.5225L49.6036 66.1918L50.2516 61.9267L50.5811 59.9455ZM50.5811 65.2188C51.0543 65.3139 51.4744 65.6098 51.7504 66.0424C52.0265 66.4751 52.1365 67.0097 52.0565 67.5307L51.5201 71.0619L49.7144 70.7312L50.2507 67.2L50.5811 65.2188ZM51.5448 70.7272V72.4833H49.7144V70.7272H51.5448ZM49.7144 70.4729H56.6701V72.4833H49.7144V70.4729ZM54.8396 72.4833V70.7252H56.6701V72.4833H54.8396ZM54.091 40.4608V40.4659C54.091 40.7325 53.9946 40.9881 53.8229 41.1766C53.6513 41.3651 53.4185 41.4711 53.1758 41.4711C52.933 41.4711 52.7002 41.3651 52.5286 41.1766C52.357 40.9881 52.2605 40.7325 52.2605 40.4659V40.4608C52.2605 40.1942 52.357 39.9386 52.5286 39.7501C52.7002 39.5616 52.933 39.4556 53.1758 39.4556C53.4185 39.4556 53.6513 39.5616 53.8229 39.7501C53.9946 39.9386 54.091 40.1942 54.091 40.4608ZM53.7094 44.2082L54.8772 44.4344C55.2498 44.5066 55.5929 44.7039 55.8592 44.9991C56.1256 45.2944 56.3021 45.673 56.3644 46.0829L56.8522 49.2995C56.896 49.5875 56.8821 49.8826 56.8114 50.1641C56.7408 50.4456 56.6152 50.7069 56.4434 50.9297C56.2715 51.1525 56.0575 51.3315 55.8163 51.4543C55.5751 51.577 55.3124 51.6406 55.0465 51.6406H51.3343C51.0683 51.6407 50.8054 51.5771 50.564 51.4542C50.3226 51.3313 50.1085 51.1521 49.9366 50.929C49.7647 50.706 49.6392 50.4445 49.5687 50.1627C49.4982 49.8809 49.4846 49.5857 49.5286 49.2975L50.0072 46.1623C50.0698 45.7524 50.2465 45.3739 50.513 45.0789C50.7795 44.7839 51.1227 44.5868 51.4954 44.5148L53.0733 44.2132C53.2834 44.1726 53.4983 44.1726 53.7084 44.2132C53.9475 44.2595 54.1601 44.4082 54.2994 44.6265C54.4387 44.8449 54.4932 45.1151 54.4511 45.3777C54.409 45.6403 54.2737 45.8738 54.0748 46.0268C53.876 46.1798 53.6299 46.2397 53.3908 46.1934L51.813 46.495L51.3343 49.6302H55.0465L54.5587 46.4136L53.3908 46.1874C53.2725 46.1645 53.1593 46.1162 53.0579 46.0453C52.9565 45.9744 52.8689 45.8822 52.7999 45.7741C52.7309 45.666 52.682 45.544 52.656 45.4151C52.63 45.2862 52.6273 45.1529 52.6481 45.0229C52.669 44.8929 52.713 44.7686 52.7775 44.6573C52.8421 44.5459 52.926 44.4496 53.0245 44.3739C53.1229 44.2981 53.234 44.2444 53.3514 44.2158C53.4687 44.1872 53.59 44.1843 53.7084 44.2072L53.7094 44.2082ZM51.8688 54.6512H54.5147C54.948 54.6511 55.3673 54.8199 55.698 55.1274C56.0286 55.435 56.2492 55.8614 56.3205 56.3308L56.8532 59.849C56.8969 60.137 56.883 60.4321 56.8124 60.7136C56.7418 60.9951 56.6162 61.2564 56.4443 61.4792C56.2724 61.702 56.0585 61.881 55.8172 62.0038C55.576 62.1265 55.3133 62.1901 55.0474 62.1901H51.3343C51.0684 62.1902 50.8056 62.1266 50.5643 62.0037C50.323 61.8809 50.1089 61.7018 49.937 61.4789C49.7652 61.256 49.6396 60.9945 49.5691 60.7129C49.4985 60.4312 49.4847 60.1361 49.5286 59.848L50.0631 56.3298C50.1346 55.8606 50.3552 55.4344 50.6859 55.127C51.0165 54.8197 51.4357 54.6511 51.8688 54.6512C52.1116 54.6512 52.3444 54.7571 52.516 54.9456C52.6876 55.1341 52.7841 55.3897 52.7841 55.6563C52.7841 55.9229 52.6876 56.1786 52.516 56.3671C52.3444 56.5556 52.1116 56.6615 51.8688 56.6615L51.3343 60.1797H55.0474L54.5147 56.6615H51.8688C51.6261 56.6615 51.3933 56.5556 51.2217 56.3671C51.05 56.1786 50.9536 55.9229 50.9536 55.6563C50.9536 55.3897 51.05 55.1341 51.2217 54.9456C51.3933 54.7571 51.6261 54.6512 51.8688 54.6512ZM49.5286 54.5717L50.0631 51.0536C50.1344 50.5841 50.3549 50.1577 50.6856 49.8502C51.0162 49.5426 51.4355 49.3738 51.8688 49.3739H54.5147C54.9482 49.3739 55.3676 49.5428 55.6982 49.8505C56.0289 50.1583 56.2494 50.585 56.3205 51.0546L56.8532 54.5727C56.8967 54.8607 56.8827 55.1556 56.812 55.437C56.7414 55.7184 56.6157 55.9796 56.4439 56.2023C56.272 56.4249 56.0581 56.6039 55.8169 56.7266C55.5758 56.8493 55.3132 56.9128 55.0474 56.9128H51.3343C51.0685 56.9129 50.8058 56.8493 50.5645 56.7265C50.3233 56.6037 50.1093 56.4247 49.9374 56.2019C49.7656 55.9791 49.64 55.7179 49.5694 55.4363C49.4988 55.1548 49.4848 54.8598 49.5286 54.5717C49.5685 54.3087 49.7019 54.0739 49.8995 53.919C50.097 53.764 50.3426 53.7016 50.582 53.7455C50.8215 53.7893 51.0353 53.9359 51.1763 54.1528C51.3174 54.3698 51.3743 54.6395 51.3343 54.9024H55.0474L54.5147 51.3843H51.8688L51.3343 54.9024C51.2944 55.1654 51.161 55.4002 50.9634 55.5552C50.7659 55.7102 50.5204 55.7726 50.2809 55.7287C50.0415 55.6849 49.8277 55.5383 49.6866 55.3214C49.5455 55.1044 49.4887 54.8347 49.5286 54.5717ZM51.8688 59.9244H54.5147C54.948 59.9243 55.3673 60.0931 55.698 60.4007C56.0286 60.7082 56.2492 61.1347 56.3205 61.6041L56.8532 65.1222C56.8969 65.4103 56.883 65.7053 56.8124 65.9869C56.7418 66.2684 56.6162 66.5296 56.4443 66.7524C56.2724 66.9752 56.0585 67.1543 55.8172 67.277C55.576 67.3998 55.3133 67.4634 55.0474 67.4634H51.3343C51.0684 67.4634 50.8056 67.3998 50.5643 67.277C50.323 67.1542 50.1089 66.9751 49.937 66.7521C49.7652 66.5292 49.6396 66.2678 49.5691 65.9861C49.4985 65.7045 49.4847 65.4093 49.5286 65.1212L50.0631 61.6031C50.1346 61.1338 50.3552 60.7076 50.6859 60.4003C51.0165 60.0929 51.4357 59.9243 51.8688 59.9244C52.1116 59.9244 52.3444 60.0303 52.516 60.2188C52.6876 60.4073 52.7841 60.663 52.7841 60.9296C52.7841 61.1962 52.6876 61.4518 52.516 61.6404C52.3444 61.8289 52.1116 61.9348 51.8688 61.9348L51.3343 65.453H55.0474L54.5147 61.9348H51.8688C51.6261 61.9348 51.3933 61.8289 51.2217 61.6404C51.05 61.4518 50.9536 61.1962 50.9536 60.9296C50.9536 60.663 51.05 60.4073 51.2217 60.2188C51.3933 60.0303 51.6261 59.9244 51.8688 59.9244ZM67.2941 49.1165L55.6139 46.879C55.3226 46.8231 55.0479 46.6904 54.8135 46.4924C54.579 46.2944 54.3917 46.037 54.2676 45.7421L55.9297 44.8988L67.6098 47.1424C67.8481 47.1893 68.0596 47.3381 68.1983 47.556C68.3369 47.7739 68.3913 48.0433 68.3495 48.3051C68.3078 48.567 68.1733 48.8 67.9755 48.9532C67.7777 49.1064 67.5327 49.1673 67.2941 49.1226V49.1165ZM54.3289 45.8537C54.1902 45.6199 54.0973 45.357 54.0561 45.0817C54.0149 44.8063 54.0263 44.5246 54.0897 44.2543C54.153 43.9841 54.2669 43.7313 54.4241 43.5121C54.5812 43.2928 54.7783 43.1119 55.0026 42.9808L58.291 41.0579C58.4875 40.9429 58.7015 40.8684 58.9225 40.8378C61.4443 40.467 64.0028 41.1192 66.118 42.6723C67.3285 43.5545 68.3597 44.7024 69.1465 46.0437C69.3398 46.3721 69.4417 46.7553 69.4398 47.1463C69.4378 47.5374 69.332 47.9193 69.1354 48.2453C68.9388 48.5713 68.6599 48.8273 68.3329 48.9819C68.0058 49.1364 67.6448 49.1839 67.2941 49.1165C67.1753 49.0943 67.0616 49.0454 66.9597 48.9748C66.8578 48.9042 66.7695 48.8122 66.7001 48.704C66.6306 48.5958 66.5813 48.4736 66.555 48.3445C66.5286 48.2153 66.5257 48.0817 66.5465 47.9513C66.5673 47.8209 66.6114 47.6963 66.6761 47.5847C66.7408 47.473 66.825 47.3765 66.9238 47.3007C67.0226 47.2249 67.1341 47.1713 67.2518 47.1429C67.3695 47.1145 67.4912 47.1119 67.6098 47.1353C66.7195 45.6078 65.4504 44.3913 63.9519 43.6291C62.4534 42.867 60.7879 42.5908 59.1513 42.8331L55.8629 44.756L54.3289 45.8537ZM59.3883 42.9818L55.2899 45.3752C54.9748 45.5591 54.6176 45.6378 54.2622 45.6016C53.9069 45.5654 53.5689 45.4159 53.2899 45.1716C53.0109 44.9272 52.8031 44.5986 52.6919 44.2261C52.5807 43.8537 52.5711 43.4537 52.6642 43.0754C52.8514 42.3115 53.109 41.5705 53.433 40.8639C53.5495 40.6106 53.7136 40.3872 53.9144 40.2085L59.5091 35.2238C59.7087 35.0462 59.9401 34.9167 60.1882 34.8438C62.2248 34.2378 64.38 34.3169 66.3752 35.071C66.7123 35.1986 67.0082 35.4315 67.2264 35.7413C67.4447 36.051 67.5758 36.424 67.6037 36.8144C67.6316 37.2048 67.5551 37.5957 67.3835 37.9391C67.2119 38.2824 66.9527 38.5632 66.6379 38.747L59.3883 42.9768C59.282 43.0417 59.165 43.0826 59.0441 43.0972C58.9232 43.1118 58.8008 43.0998 58.6842 43.0619C58.5676 43.024 58.459 42.961 58.3648 42.8764C58.2706 42.7919 58.1927 42.6876 58.1357 42.5696C58.0786 42.4516 58.0436 42.3223 58.0325 42.1893C58.0215 42.0563 58.0347 41.9221 58.0714 41.7948C58.1081 41.6674 58.1675 41.5494 58.2463 41.4475C58.325 41.3457 58.4214 41.2621 58.5299 41.2017L65.7794 36.9718C64.1291 36.3486 62.3465 36.2839 60.6623 36.7858L55.0675 41.7706C54.798 42.3535 54.5833 42.9652 54.4269 43.596L58.5253 41.2027C58.6314 41.1407 58.7476 41.1023 58.8672 41.0896C58.9869 41.077 59.1076 41.0903 59.2226 41.1289C59.3375 41.1675 59.4444 41.2306 59.5372 41.3146C59.6299 41.3985 59.7067 41.5017 59.7631 41.6183C59.8195 41.7349 59.8545 41.8625 59.866 41.9939C59.8776 42.1253 59.8654 42.2579 59.8303 42.3842C59.7951 42.5104 59.7377 42.6278 59.6612 42.7297C59.5848 42.8315 59.4908 42.9159 59.3847 42.9778L59.3883 42.9818ZM55.9105 32.2102C57.0411 31.1984 58.3498 30.4539 59.7546 30.0236C61.1595 29.5932 62.6301 29.4862 64.0743 29.7093C64.4275 29.763 64.7588 29.929 65.0273 30.1866C65.2959 30.4443 65.49 30.7825 65.586 31.1597C65.6819 31.5369 65.6755 31.9367 65.5674 32.3099C65.4593 32.6832 65.2543 33.0136 64.9776 33.2606L60.9406 36.8663L55.2661 41.9204C55.0077 42.1506 54.697 42.2992 54.3675 42.35C54.038 42.4009 53.702 42.3521 53.3958 42.2089C53.0897 42.0657 52.8248 41.8336 52.6298 41.5374C52.4347 41.2413 52.3169 40.8924 52.2889 40.5282C52.2688 40.2699 52.2386 40.0005 52.1974 39.7049C52.1625 39.4678 52.1665 39.2258 52.2093 38.9902C52.687 36.3237 53.9977 33.9241 55.915 32.2062L57.0664 33.7693C55.4804 35.1908 54.3971 37.1768 54.004 39.3833C54.0526 39.71 54.0901 40.0346 54.1157 40.3593L59.7901 35.3072L63.8217 31.7006C62.6265 31.5155 61.4095 31.6037 60.2468 31.9597C59.0842 32.3157 58.0011 32.9318 57.0655 33.7693C56.8772 33.9376 56.6358 34.0169 56.3943 33.9898C56.1528 33.9627 55.931 33.8313 55.7778 33.6245C55.6245 33.4178 55.5522 33.1526 55.577 32.8874C55.6017 32.6221 55.7213 32.3786 55.9096 32.2102H55.9105ZM50.4713 32.2102C52.3862 33.9286 53.6949 36.3273 54.1715 38.9922C54.2144 39.2281 54.2185 39.4705 54.1834 39.7079C54.1432 39.9804 54.1121 40.2558 54.0919 40.5272C54.0638 40.8912 53.946 41.2399 53.751 41.5359C53.556 41.8319 53.2913 42.0639 52.9852 42.207C52.6792 42.3502 52.3434 42.399 52.014 42.3484C51.6846 42.2977 51.374 42.1493 51.1156 41.9194L45.5025 36.9215L41.4069 33.2626C41.1302 33.0156 40.9252 32.6852 40.8171 32.3119C40.709 31.9387 40.7026 31.5389 40.7985 31.1617C40.8945 30.7845 41.0886 30.4463 41.3572 30.1886C41.6257 29.931 41.957 29.7651 42.3102 29.7113C43.755 29.4886 45.2261 29.5959 46.6313 30.0266C48.0366 30.4573 49.3457 31.202 50.4768 32.2142L49.3208 33.7733C48.3848 32.9355 47.3013 32.3191 46.1382 31.9628C44.9751 31.6064 43.7576 31.5179 42.5619 31.7026L46.6557 35.3595L52.2688 40.3573C52.2938 40.0343 52.3304 39.7103 52.3786 39.3853C51.9867 37.1801 50.905 35.1948 49.3208 33.7733C49.1325 33.6054 49.0125 33.3622 48.9873 33.0972C48.9621 32.8322 49.0337 32.5671 49.1864 32.36C49.3392 32.153 49.5605 32.021 49.8017 31.9931C50.043 31.9652 50.2845 32.0437 50.4731 32.2112L50.4713 32.2102ZM46.7527 42.8964L39.678 38.7651C39.3626 38.5806 39.1032 38.2987 38.9319 37.9542C38.7607 37.6097 38.685 37.2176 38.7141 36.8265C38.7433 36.4353 38.8762 36.062 39.0962 35.7527C39.3163 35.4435 39.614 35.2117 39.9526 35.0861C41.9942 34.3226 44.1991 34.2598 46.274 34.9061C46.5129 34.9804 46.7356 35.1073 46.9284 35.2791L52.3283 40.0839C52.5249 40.259 52.6863 40.477 52.8024 40.7242C53.1546 41.4745 53.4338 42.2636 53.6352 43.0784C53.7288 43.4569 53.7195 43.8572 53.6085 44.2299C53.4976 44.6027 53.2897 44.9317 53.0106 45.1764C52.7315 45.4211 52.3933 45.5707 52.0378 45.607C51.6822 45.6432 51.3247 45.5644 51.0094 45.3803L46.7591 42.8974C46.5448 42.7723 46.3845 42.5587 46.3135 42.3038C46.2425 42.0488 46.2667 41.7733 46.3807 41.5379C46.4946 41.3025 46.6891 41.1265 46.9212 41.0485C47.1533 40.9706 47.4042 40.9971 47.6185 41.1222L51.8688 43.6051C51.7015 42.927 51.4693 42.2703 51.176 41.646L45.7761 36.8411C44.0569 36.3106 42.2319 36.3628 40.5401 36.9909L47.6148 41.1222C47.721 41.1842 47.8149 41.2685 47.8914 41.3704C47.9678 41.4723 48.0253 41.5897 48.0604 41.7159C48.0956 41.8422 48.1077 41.9748 48.0962 42.1062C48.0847 42.2376 48.0497 42.3652 47.9933 42.4818C47.9369 42.5983 47.8601 42.7016 47.7673 42.7855C47.6746 42.8695 47.5677 42.9326 47.4527 42.9712C47.3378 43.0098 47.2171 43.0231 47.0974 43.0105C46.9778 42.9978 46.8616 42.9594 46.7554 42.8974L46.7527 42.8964ZM44.7136 40.9031C45.507 40.7565 46.3127 40.7069 47.116 40.7553C47.3816 40.7712 47.6408 40.8505 47.8757 40.9876L51.3536 43.0211C51.5709 43.148 51.7627 43.3218 51.9175 43.5321C52.0723 43.7424 52.1869 43.9848 52.2544 44.2449C52.3219 44.5049 52.341 44.7773 52.3104 45.0456C52.2798 45.3139 52.2003 45.5727 52.0766 45.8064L50.4942 44.7962L47.0163 42.7627C46.3482 42.7223 45.6781 42.7634 45.0183 42.8854C44.8993 42.9087 44.7773 42.9058 44.6593 42.877C44.5413 42.8482 44.4296 42.794 44.3308 42.7176C44.232 42.6411 44.1479 42.5439 44.0835 42.4316C44.019 42.3193 43.9755 42.194 43.9554 42.0631C43.9352 41.9322 43.9389 41.7982 43.9662 41.6689C43.9935 41.5395 44.0438 41.4174 44.1143 41.3095C44.1848 41.2017 44.2741 41.1102 44.3769 41.0405C44.4798 40.9707 44.5942 40.924 44.7136 40.9031ZM52.1718 45.5823C52.071 45.9339 51.8842 46.2483 51.6318 46.4912C51.3793 46.7341 51.071 46.896 50.7404 46.9594L39.483 49.1186C39.1323 49.1859 38.7712 49.1393 38.4441 48.9846C38.1171 48.8299 37.8382 48.5738 37.6417 48.2476C37.4451 47.9215 37.3395 47.5394 37.3377 47.1483C37.3359 46.7572 37.438 46.374 37.6315 46.0457C38.423 44.7001 39.4593 43.5488 40.6752 42.664C41.891 41.7792 43.2603 41.1801 44.6971 40.9041H44.709C44.9473 40.8624 45.1909 40.9256 45.387 41.0802C45.583 41.2347 45.7155 41.4681 45.7557 41.7294C45.7959 41.9907 45.7404 42.2589 45.6015 42.4755C45.4626 42.6922 45.2513 42.8399 45.0138 42.8864C43.825 43.1145 42.6921 43.6101 41.6861 44.3422C40.6801 45.0743 39.8229 46.0269 39.1682 47.1403L50.4255 44.9812L52.1718 45.5823ZM51.8688 65.1996H54.5147C54.9478 65.2007 55.3665 65.3703 55.6965 65.6784C56.0264 65.9865 56.2462 66.4131 56.3168 66.8823L56.8495 70.4005C56.8931 70.6885 56.879 70.9834 56.8084 71.2648C56.7377 71.5462 56.6121 71.8073 56.4402 72.03C56.2684 72.2527 56.0545 72.4316 55.8133 72.5544C55.5721 72.6771 55.3095 72.7406 55.0437 72.7406H51.3307C51.0648 72.7407 50.8021 72.6771 50.5609 72.5543C50.3196 72.4315 50.1056 72.2525 49.9338 72.0297C49.7619 71.8069 49.6363 71.5456 49.5657 71.2641C49.4951 70.9826 49.4812 70.6875 49.5249 70.3995L50.0594 66.8813C50.1307 66.4119 50.3513 65.9855 50.6819 65.6779C51.0126 65.3704 51.4319 65.2016 51.8652 65.2017C52.1079 65.2017 52.3407 65.3076 52.5123 65.4961C52.684 65.6846 52.7804 65.9403 52.7804 66.2069C52.7804 66.4735 52.684 66.7291 52.5123 66.9176C52.3407 67.1061 52.1079 67.2121 51.8652 67.2121L51.3307 70.7302H55.0437L54.5111 67.2121H51.8688C51.6261 67.2121 51.3933 67.1061 51.2217 66.9176C51.05 66.7291 50.9536 66.4735 50.9536 66.2069C50.9536 65.9403 51.05 65.6846 51.2217 65.4961C51.3933 65.3076 51.6261 65.2017 51.8688 65.2017V65.1996ZM56.1338 67.195L55.9919 66.3386L56.6024 66.8994L55.9919 66.3285L56.7808 66.1858C56.7994 66.312 56.7926 66.4412 56.761 66.5643C56.7294 66.6874 56.6737 66.8014 56.5978 66.8984C56.4798 67.055 56.3157 67.1614 56.1338 67.199V67.195ZM54.9751 66.5124C54.9512 66.3529 54.9587 66.1895 54.9972 66.0334C55.0358 65.8774 55.1044 65.7322 55.1984 65.6078V65.6027L55.2039 65.5957C55.3579 65.3982 55.5688 65.2645 55.8016 65.2167L55.9846 66.3285V66.3375L55.9755 66.3295L54.9751 66.5124ZM56.1338 61.9217L55.991 61.0552L56.7818 60.9125C56.8156 61.1399 56.7666 61.3728 56.6453 61.5609C56.5241 61.749 56.3403 61.8772 56.1338 61.9177V61.9217ZM54.9751 61.2392C54.9319 60.9466 54.9948 60.6471 55.1503 60.4048C55.3058 60.1626 55.5416 59.997 55.807 59.9435L55.9901 61.0552L54.9751 61.2392ZM56.1338 56.6464L56.0002 55.7981L56.6015 56.3509L55.9983 55.786V55.7981L55.9809 55.782L54.9742 55.9639C54.9502 55.8044 54.9578 55.641 54.9963 55.4849C55.0348 55.3288 55.1035 55.1837 55.1975 55.0593L55.203 55.0522L55.2085 55.0452C55.3668 54.8436 55.5838 54.7086 55.8226 54.6632L55.9974 55.777L56.7808 55.6352C56.7994 55.7615 56.7926 55.8907 56.761 56.0138C56.7294 56.1369 56.6737 56.2509 56.5978 56.3479C56.4806 56.5059 56.3162 56.6142 56.1338 56.6515V56.6464ZM56.1338 51.3732L55.9919 50.5168L56.6024 51.0777L55.9919 50.5068L56.7818 50.364C56.8005 50.4904 56.7938 50.6198 56.7622 50.7431C56.7305 50.8664 56.6748 50.9806 56.5987 51.0777C56.4804 51.2341 56.3159 51.3401 56.1338 51.3772V51.3732ZM54.9751 50.6907C54.9512 50.5311 54.9587 50.3678 54.9972 50.2117C55.0358 50.0556 55.1044 49.9104 55.1984 49.786V49.781L55.2039 49.774C55.3579 49.5765 55.5688 49.4427 55.8016 49.395L55.9846 50.5068V50.5158L55.9764 50.5077L54.9751 50.6907ZM69.0751 49.1909C69.0287 49.1907 68.9825 49.186 68.9369 49.1769L69.0769 48.3154L69.8091 47.9716C69.8602 48.1053 69.8805 48.2507 69.8681 48.3951C69.8557 48.5394 69.811 48.6781 69.738 48.7989C69.665 48.9197 69.5659 49.0187 69.4496 49.0873C69.3334 49.1559 69.2034 49.1918 69.0714 49.1919L69.0751 49.1909ZM68.1288 48.7587C68.0613 48.5866 68.0338 48.3988 68.0487 48.2122C68.0637 48.0255 68.1207 47.8459 68.2145 47.6894C68.3083 47.5329 68.4361 47.4045 68.5863 47.3157C68.7366 47.2269 68.9045 47.1804 69.0751 47.1805C69.1364 47.1804 69.1977 47.1861 69.2582 47.1976L69.0751 48.3154L68.1288 48.7587ZM67.0854 37.9026C66.9252 37.8024 66.7925 37.6568 66.7011 37.4811C66.6096 37.3053 66.5628 37.1058 66.5655 36.9034C66.5682 36.701 66.6204 36.5031 66.7165 36.3303C66.8126 36.1576 66.9492 36.0164 67.1119 35.9214L67.5934 36.9155L67.0854 37.9026ZM67.9704 37.7016L67.5952 36.9256L67.986 36.1566C68.1117 36.2337 68.2162 36.3465 68.2885 36.4833C68.3608 36.6201 68.3981 36.7757 68.3966 36.9339C68.3951 37.092 68.3548 37.2468 68.28 37.3819C68.2052 37.517 68.0985 37.6274 67.9713 37.7016H67.9704ZM65.2861 32.3338C65.1091 32.2719 64.9507 32.1586 64.8275 32.0059C64.7044 31.8531 64.6211 31.6667 64.5865 31.4663C64.5519 31.2659 64.5673 31.0589 64.631 30.8673C64.6947 30.6757 64.8043 30.5065 64.9483 30.3777L65.6009 31.2583L65.2861 32.3338ZM66.1034 31.9378L65.6009 31.2593L65.8462 30.42C65.9831 30.4687 66.1055 30.5572 66.2004 30.676C66.2954 30.7948 66.3594 30.9395 66.3857 31.0949C66.4121 31.2503 66.3997 31.4106 66.35 31.559C66.3003 31.7073 66.2151 31.8382 66.1034 31.9378ZM41.1076 32.3328L40.7909 31.2593L41.7977 31.4694C41.7632 31.6683 41.6805 31.8533 41.5585 32.0051C41.4364 32.1568 41.2794 32.2697 41.1039 32.3318L41.1076 32.3328ZM40.2839 31.9378C40.1724 31.8381 40.0873 31.7073 40.0377 31.5591C39.9881 31.4109 39.9758 31.2507 40.002 31.0954C40.0288 30.9399 40.0932 30.7952 40.1886 30.6765C40.2839 30.5578 40.4066 30.4695 40.5438 30.421L40.7891 31.2543H40.7836L40.2839 31.9378ZM41.8013 31.4613L40.7882 31.2543L41.4361 30.3767C41.5796 30.5049 41.689 30.6732 41.7527 30.8639C41.8165 31.0546 41.8323 31.2606 41.7986 31.4603L41.8013 31.4613ZM39.2176 37.9147L38.7161 36.9276L39.2021 35.9224C39.3654 36.0181 39.5013 36.1604 39.5973 36.3343C39.6933 36.5082 39.7448 36.7073 39.7465 36.9107C39.7482 37.114 39.7 37.3141 39.6069 37.4899C39.5138 37.6656 39.3794 37.8107 39.2176 37.9097V37.9147ZM38.3408 37.7016C38.2139 37.6275 38.1074 37.5172 38.0327 37.3823C37.958 37.2473 37.9177 37.0928 37.9162 36.9349C37.9147 36.7769 37.952 36.6215 38.0242 36.4849C38.0963 36.3483 38.2006 36.2356 38.3262 36.1586L38.7161 36.9276L38.3408 37.7016ZM37.7084 49.196C37.5764 49.1959 37.4465 49.1599 37.3302 49.0913C37.2139 49.0228 37.1149 48.9237 37.0418 48.8029C36.9688 48.6821 36.9242 48.5434 36.9117 48.3991C36.8993 48.2548 36.9196 48.1093 36.9708 47.9757L37.7029 48.3194L37.843 49.1809C37.7975 49.1886 37.7516 49.192 37.7057 49.1909L37.7084 49.196ZM38.6548 48.7637L37.7057 48.3194L37.5226 47.2016C37.5831 47.1901 37.6443 47.1844 37.7057 47.1846C37.8763 47.1844 38.0442 47.2309 38.1944 47.3197C38.3447 47.4085 38.4724 47.5369 38.5663 47.6934C38.6601 47.8499 38.7171 48.0295 38.732 48.2162C38.747 48.4028 38.7195 48.5906 38.652 48.7627L38.6548 48.7637ZM50.2498 51.3772C50.0432 51.3367 49.8595 51.2085 49.7383 51.0205C49.617 50.8324 49.568 50.5995 49.6018 50.3721L50.3907 50.5168L50.2498 51.3772ZM51.4075 50.7007L50.3944 50.5138L51.1806 49.785C51.276 49.9104 51.3454 50.057 51.3842 50.2148C51.4229 50.3725 51.4299 50.5377 51.4048 50.6987L51.4075 50.7007ZM50.3953 50.5098L50.5784 49.404C50.8112 49.4518 51.022 49.5864 51.1751 49.785L50.3953 50.5098ZM50.2507 56.6505C50.0442 56.6099 49.8604 56.4818 49.7392 56.2937C49.6179 56.1056 49.5689 55.8727 49.6027 55.6453L50.3871 55.789L50.2507 56.6505ZM51.4085 55.968L50.3871 55.784L50.5637 54.6703C50.8319 54.7205 51.0711 54.8851 51.2293 55.1281C51.3875 55.3712 51.4519 55.673 51.4085 55.968ZM50.388 55.786L49.6036 55.6423L50.3871 55.784L50.388 55.786ZM50.2498 61.9257C50.0436 61.8845 49.8603 61.7562 49.7392 61.5683C49.618 61.3804 49.5687 61.1479 49.6018 60.9205L50.3935 61.0653L50.2498 61.9257ZM51.4075 61.2472L50.3935 61.0613L50.5765 59.9475C50.8424 60.0012 51.0783 60.1676 51.2333 60.4109C51.3883 60.6541 51.4499 60.9545 51.4048 61.2472H51.4075ZM50.2498 67.199C50.0432 67.1584 49.8595 67.0303 49.7383 66.8422C49.617 66.6541 49.568 66.4212 49.6018 66.1938L50.3935 66.3386L50.2498 67.199ZM51.4075 66.5215L50.3935 66.3386L50.5765 65.2268C50.8403 65.2824 51.0739 65.4487 51.2277 65.6905C51.3815 65.9323 51.4434 66.2304 51.4002 66.5215H51.4075ZM50.3935 66.3405L49.6018 66.1958L50.3935 66.3386V66.3405ZM54.3271 45.8698C54.3045 45.832 54.284 45.7927 54.2658 45.7522L55.0895 45.3249L54.3271 45.8698ZM55.0886 45.3249L55.8611 44.7721C55.8833 44.8108 55.9032 44.8511 55.9205 44.8927L55.0886 45.3249ZM49.3172 33.7843L49.3611 33.711L49.3153 33.7733L49.3172 33.7843ZM52.0006 45.8959L51.1247 45.336L52.0931 45.6708C52.0911 45.7176 52.0865 45.7642 52.0793 45.8105L52.0006 45.8959ZM51.1247 45.336L50.3468 45.0676C50.3645 45.0043 50.3884 44.9433 50.4182 44.8857L51.1247 45.336Z" fill="#016B86"/>
<path d="M69.076 48.3164L55.2561 45.6627L55.1929 45.2395H53.5766C53.5439 45.2133 53.5133 45.1841 53.4851 45.152L58.9023 41.9877C60.998 41.6454 63.1376 42.0829 64.9807 43.2305C66.8238 44.378 68.2644 46.1698 69.0733 48.3204L69.076 48.3164Z" fill="white"/>
<path d="M54.4305 41.2137L53.3176 42.2058C53.3878 41.2578 53.3447 40.3038 53.1895 39.3682C53.4327 37.8892 53.9621 36.4847 54.7417 35.2496C55.5214 34.0145 56.5332 32.9775 57.7089 32.2086C58.8846 31.4396 60.1968 30.9566 61.557 30.7921C62.9172 30.6276 64.2937 30.7856 65.5935 31.2552L60.2852 35.9937L54.4305 41.2137Z" fill="white"/>
<path d="M52.9507 45.2354L47.236 41.8961L38.7134 36.9204C39.8363 36.2354 41.0729 35.8049 42.3501 35.6541C43.6272 35.5034 44.9189 35.6356 46.1487 36.0429L51.8066 41.0789C52.3249 42.1413 52.679 43.2907 52.8545 44.4805C52.8884 44.7328 52.9342 44.9841 52.9507 45.2354Z" fill="white"/>
<path d="M51.8076 41.0822L46.1497 36.0461L40.7874 31.2544C42.0872 30.7844 43.4638 30.6262 44.824 30.7905C46.1843 30.9548 47.4967 31.4378 48.6724 32.2068C49.8482 32.9758 50.8601 34.013 51.6397 35.2483C52.4193 36.4836 52.9484 37.8882 53.1914 39.3673C53.0378 40.3032 52.9947 41.257 53.0633 42.205L51.8076 41.0822Z" fill="white"/>
<path d="M53.3837 45.0367C53.5057 43.7012 53.8616 42.4042 54.4316 41.2169L60.2891 35.997C61.5019 35.6142 62.7717 35.4984 64.0254 35.6565C65.2791 35.8145 66.492 36.2431 67.5944 36.9178L58.8997 41.99L53.4825 45.1543L53.3864 45.0488H53.3782V45.0397L53.3837 45.0367Z" fill="white"/>
<path d="M47.2369 41.8993L52.9516 45.2396H51.1852L51.1138 45.7422L37.7012 48.3175C38.3219 46.6918 39.3046 45.2635 40.559 44.1636C41.8134 43.0638 43.2993 42.3277 44.8802 42.023C45.6583 41.8767 46.4497 41.8352 47.2369 41.8993Z" fill="white"/>
<path d="M55.1912 66.3345L55.9911 71.6087H50.3899L51.1898 66.3345H55.1912Z" fill="white"/>
<path d="M55.1912 66.3355H50.3899L51.1898 61.0613H55.1912L55.9911 66.3355H55.1912Z" fill="white"/>
<path d="M55.1912 55.7871L55.9911 61.0613H50.3899L51.1898 55.7871H55.1912Z" fill="white"/>
<path d="M55.1912 50.5127L55.9911 55.7869H50.3899L51.1898 50.5127H55.1912Z" fill="white"/>
<path d="M55.2553 45.6626L55.9874 50.5137H50.3899L51.1221 45.741L53.3946 45.3018L55.2553 45.6626Z" fill="white"/>
<path d="M56.6701 70.7302L56.1338 67.199C56.3403 67.1584 56.5241 67.0303 56.6453 66.8422C56.7666 66.6541 56.8156 66.4212 56.7818 66.1938L56.1338 61.9287C56.3403 61.8882 56.5241 61.76 56.6453 61.572C56.7666 61.3839 56.8156 61.151 56.7818 60.9235L56.1338 56.6575C56.317 56.6232 56.4831 56.5184 56.6024 56.362C56.6783 56.265 56.734 56.1509 56.7656 56.0279C56.7972 55.9048 56.804 55.7756 56.7854 55.6493L56.1375 51.3853C56.344 51.3447 56.5277 51.2166 56.649 51.0285C56.7702 50.8404 56.8192 50.6075 56.7854 50.3801L56.2363 46.7523L68.9424 49.1929C69.084 49.2205 69.2297 49.2055 69.3642 49.1496C69.4987 49.0938 69.6169 48.9991 69.7065 48.8756C69.7961 48.7521 69.8537 48.6043 69.8732 48.4479C69.8927 48.2914 69.8734 48.1321 69.8174 47.9867C69.1469 46.2237 68.0826 44.6748 66.7229 43.4831C65.3632 42.2914 63.7519 41.4953 62.0379 41.1685L67.975 37.7046C68.1022 37.6304 68.2088 37.52 68.2837 37.3849C68.3585 37.2498 68.3988 37.095 68.4003 36.9369C68.4018 36.7787 68.3645 36.6231 68.2922 36.4863C68.2199 36.3495 68.1154 36.2366 67.9897 36.1596C66.4677 35.2225 64.7538 34.7255 63.009 34.7151L66.1034 31.9499C66.2151 31.8502 66.3003 31.7194 66.35 31.571C66.3997 31.4227 66.4121 31.2623 66.3858 31.1069C66.3594 30.9515 66.2954 30.8068 66.2004 30.688C66.1055 30.5692 65.9831 30.4808 65.8462 30.432C64.1939 29.8366 62.4319 29.7068 60.722 30.0545C59.0121 30.4023 57.4092 31.2165 56.0606 32.4223C54.8327 33.5171 53.8517 34.9086 53.1941 36.4883C52.5374 34.9091 51.5577 33.5177 50.3313 32.4223C48.9823 31.2168 47.3793 30.4028 45.6693 30.0551C43.9593 29.7073 42.1972 29.8369 40.5447 30.432C40.4075 30.4803 40.2847 30.5684 40.1893 30.6871C40.094 30.8057 40.0296 30.9505 40.0031 31.1061C39.9765 31.2617 39.9888 31.4222 40.0385 31.5707C40.0883 31.7193 40.1737 31.8503 40.2857 31.9499L43.4048 34.7372C41.6289 34.7311 39.8811 35.2246 38.328 36.1706C38.2025 36.2476 38.0982 36.3603 38.026 36.4969C37.9539 36.6336 37.9166 36.789 37.9181 36.9469C37.9196 37.1048 37.9598 37.2594 38.0345 37.3943C38.1092 37.5292 38.2157 37.6395 38.3427 37.7136L44.3942 41.2469C42.7524 41.6263 41.2192 42.4381 39.9263 43.6125C38.6335 44.7869 37.6199 46.2888 36.9726 47.9887C36.9152 48.1341 36.8949 48.2939 36.9139 48.451C36.9328 48.608 36.9904 48.7565 37.0803 48.8804C37.1701 49.0043 37.289 49.0991 37.4242 49.1545C37.5594 49.2099 37.7057 49.2239 37.8475 49.1949L50.1455 46.8348L49.6036 50.3821C49.5699 50.6095 49.6189 50.8424 49.7401 51.0305C49.8613 51.2186 50.0451 51.3467 50.2516 51.3873L49.6036 55.6513C49.5699 55.8787 49.6189 56.1117 49.7401 56.2997C49.8613 56.4878 50.0451 56.6159 50.2516 56.6565L49.6036 60.9226C49.5706 61.1499 49.6199 61.3824 49.741 61.5702C49.8621 61.7581 50.0454 61.8865 50.2516 61.9277L49.6036 66.1928C49.5699 66.4202 49.6189 66.6531 49.7401 66.8412C49.8613 67.0293 50.0451 67.1574 50.2516 67.198L49.7153 70.7292V72.4853H56.671V70.7272L56.6701 70.7302ZM52.2606 40.4658V40.4709ZM53.3918 46.1924L54.5596 46.4186L55.0474 49.6352H51.3353L51.8139 46.5L53.3918 46.1924ZM51.8688 56.6655H54.5148L55.0474 60.1837H51.3343L51.8688 56.6655ZM51.3343 54.9075L51.8688 51.3893H54.5148L55.0474 54.9075H51.3343ZM51.8688 61.9438H54.5148L55.0474 65.462H51.3343L51.8688 61.9438ZM67.6108 47.1453L55.9306 44.9018C55.9113 44.8545 55.889 44.8088 55.8638 44.7651L59.1522 42.8421C60.7888 42.5998 62.4544 42.876 63.9529 43.6382C65.4514 44.4004 66.7204 45.6178 67.6108 47.1453ZM58.5317 41.2147L54.4333 43.6081C54.5897 42.9773 54.8044 42.3656 55.074 41.7827L60.6687 36.7979C62.3529 36.2959 64.1355 36.3607 65.7858 36.9839L58.5363 41.2137M57.0719 33.7753C58.0063 32.9376 59.0881 32.321 60.2496 31.9639C61.4111 31.6069 62.6272 31.5173 63.8217 31.7006L59.7846 35.3062L54.1102 40.3583C54.0855 40.0336 54.0471 39.7089 53.9986 39.3822C54.3943 37.1771 55.4795 35.1933 57.0664 33.7743L57.0719 33.7753ZM49.3245 33.7753C50.9087 35.1968 51.9904 37.1821 52.3823 39.3873C52.3341 39.7123 52.2975 40.0363 52.2725 40.3593L46.6594 35.3615L42.5601 31.7006C43.756 31.5164 44.9737 31.6056 46.1368 31.9626C47.2999 32.3196 48.3833 32.9368 49.319 33.7753H49.3245ZM47.6176 41.1243L40.5429 36.9929C42.2346 36.3648 44.0597 36.3126 45.7789 36.8431L51.1787 41.648C51.472 42.2723 51.7042 42.929 51.8716 43.6071L47.6213 41.1243M45.0257 42.8884C45.6855 42.7664 46.3556 42.7253 47.0236 42.7657L50.5015 44.7992C50.4717 44.8568 50.4478 44.9178 50.4301 44.9812L39.1728 47.1403C39.8275 46.0274 40.6847 45.0752 41.6905 44.3435C42.6963 43.6118 43.829 43.1164 45.0174 42.8884H45.0257ZM51.8762 67.214H54.5221L55.0547 70.7322H51.3417L51.8762 67.214Z" fill="#016B86"/>
</g>
<defs>
<clipPath id="clip0_528_19">
<rect width="78.1916" height="72" fill="white" transform="translate(0.904297 0.740723)"/>
</clipPath>
</defs>
</svg>
