<svg width="93" height="97" viewBox="0 0 93 97" fill="none" xmlns="http://www.w3.org/2000/svg">
<path d="M42.4365 84.5522C64.8684 84.5522 83.0531 66.3675 83.0531 43.9355C83.0531 21.5035 64.8684 3.31885 42.4365 3.31885C20.0045 3.31885 1.81982 21.5035 1.81982 43.9355C1.81982 66.3675 20.0045 84.5522 42.4365 84.5522Z" fill="white"/>
<path d="M54.8664 4.08549C54.636 4.01341 54.3864 4.0358 54.1725 4.14777C53.9586 4.25973 53.798 4.4521 53.7259 4.68252C53.6538 4.91294 53.6762 5.16255 53.7882 5.37645C53.9001 5.59034 54.0925 5.751 54.3229 5.82308C62.3873 8.34559 69.4395 13.3696 74.4581 20.1675C79.4767 26.9654 82.2012 35.1843 82.2371 43.634C82.2729 52.0836 79.6183 60.3254 74.6575 67.1656C69.6968 74.0059 62.6875 79.0896 54.6448 81.6804C46.6021 84.2713 37.9435 84.2349 29.9228 81.5764C21.9022 78.9179 14.936 73.7755 10.033 66.8937C5.13001 60.0119 2.5448 51.7481 2.65177 43.2991C2.75874 34.85 5.55233 26.6543 10.628 19.8989C15.3165 13.6952 21.7052 8.98591 29.0184 6.34285L26.4969 11.5722C26.3922 11.7897 26.3782 12.0399 26.458 12.2678C26.5377 12.4957 26.7047 12.6825 26.9222 12.7874C27.0456 12.8473 27.1812 12.8783 27.3185 12.8778C27.4899 12.8779 27.6578 12.8295 27.8031 12.7384C27.9483 12.6473 28.0648 12.5171 28.1394 12.3627L31.5815 5.22274C31.6335 5.11507 31.6637 4.99823 31.6704 4.87888C31.6772 4.75954 31.6604 4.64003 31.6209 4.52718C31.5815 4.41434 31.5202 4.31035 31.4406 4.22119C31.361 4.13203 31.2645 4.05944 31.1569 4.00755L24.0169 0.565368C23.9093 0.51333 23.7925 0.48301 23.6731 0.476122C23.5538 0.469235 23.4343 0.485909 23.3214 0.52522C23.2084 0.56453 23.1044 0.625698 23.0151 0.705222C22.9259 0.784747 22.8531 0.881069 22.8011 0.9887C22.749 1.09633 22.7187 1.21317 22.7118 1.33252C22.7049 1.45187 22.7216 1.57142 22.7609 1.68432C22.8002 1.79723 22.8614 1.90127 22.9409 1.99054C23.0205 2.0798 23.1168 2.15252 23.2244 2.20456L28.3197 4.66204C20.7074 7.43165 14.0584 12.3433 9.17371 18.8052C3.86875 25.8682 0.949502 34.4364 0.838723 43.2691C0.727944 52.1018 3.43139 60.7405 8.55754 67.9343C13.6837 75.1281 20.9665 80.5037 29.3514 83.2825C37.7362 86.0614 46.788 86.0993 55.1959 83.3909C63.6038 80.6824 70.9314 75.3682 76.1177 68.2176C81.304 61.067 84.0798 52.4513 84.0431 43.618C84.0064 34.7847 81.1592 26.1923 75.9136 19.0851C70.6681 11.9778 63.2966 6.72399 54.8664 4.08549Z" fill="#016B86"/>
<path d="M42.4358 4.01853C44.7221 4.01844 47.0041 4.21332 49.2573 4.60107C49.3087 4.61005 49.3609 4.61446 49.4131 4.61427C49.641 4.61412 49.8606 4.52847 50.0284 4.37425C50.1962 4.22002 50.3 4.00846 50.3194 3.78137C50.3387 3.55429 50.2722 3.3282 50.1328 3.14782C49.9935 2.96744 49.7916 2.84589 49.567 2.8072C47.211 2.4016 44.8245 2.19787 42.4338 2.19824C42.3143 2.19824 42.196 2.22178 42.0856 2.26752C41.9751 2.31326 41.8748 2.38029 41.7903 2.46481C41.7058 2.54932 41.6387 2.64965 41.593 2.76008C41.5472 2.8705 41.5237 2.98886 41.5237 3.10838C41.5237 3.2279 41.5472 3.34625 41.593 3.45668C41.6387 3.5671 41.7058 3.66743 41.7903 3.75195C41.8748 3.83646 41.9751 3.9035 42.0856 3.94923C42.196 3.99497 42.3143 4.01853 42.4338 4.01853H42.4358Z" fill="#016B86"/>
<path d="M66.3955 57.977C66.01 58.0002 65.6248 57.9265 65.2751 57.7626C64.9254 57.5986 64.6224 57.3497 64.3937 57.0385C63.8684 56.1279 63.6312 55.0796 63.7134 54.0315V50.6415C63.7048 49.9435 63.7919 49.2475 63.9723 48.5731C64.1111 48.017 64.3994 47.5096 64.8058 47.1056C65.2306 46.726 65.7882 46.5297 66.3572 46.5594C66.7374 46.556 67.1135 46.6377 67.4581 46.7985C67.7972 46.9585 68.1104 47.1685 68.3873 47.4213V42.291H70.9921V57.8046H68.3873V57.0193C68.1123 57.2993 67.7958 57.5352 67.4489 57.7187C67.124 57.8892 66.7624 57.9779 66.3955 57.977ZM67.3531 56.1766C67.517 56.1721 67.6789 56.1397 67.8319 56.0809C68.0254 56.0099 68.2114 55.9201 68.3873 55.8127V48.7071C68.2311 48.6033 68.0641 48.5165 67.8894 48.4482C67.7125 48.3785 67.524 48.3429 67.3339 48.3432C67.1675 48.3342 67.0026 48.3785 66.8631 48.4698C66.7237 48.561 66.617 48.6944 66.5586 48.8504C66.4016 49.2428 66.3265 49.663 66.338 50.0855V54.2224C66.3351 54.556 66.3607 54.8892 66.4146 55.2183C66.4491 55.4739 66.5518 55.7155 66.7118 55.9177C66.7923 56.0064 66.8918 56.0757 67.0029 56.1205C67.1139 56.1653 67.2336 56.1845 67.3531 56.1766Z" fill="#016B86"/>
<path d="M21.4675 57.5323C20.0867 57.5944 18.7156 57.2744 17.5049 56.6077C16.5069 56.0003 15.7382 55.0795 15.3189 53.9891C14.8424 52.7234 14.6118 51.3785 14.6393 50.0265V49.1203H19.0728V49.897C19.0817 50.6038 19.1576 51.308 19.2993 52.0005C19.388 52.5109 19.6435 52.9776 20.0258 53.3273C20.4474 53.6493 20.971 53.8085 21.5005 53.7757C22.0465 53.8177 22.5871 53.6434 23.0056 53.2903C23.3743 52.8976 23.6118 52.4 23.6852 51.8664C23.8131 51.1292 23.8725 50.3817 23.8629 49.6335C23.9163 48.5457 23.6997 47.4616 23.2322 46.4779C22.8113 45.7123 21.9967 45.2971 20.7886 45.2324H20.0436V41.6403H20.7232C21.9098 41.6187 22.7296 41.3006 23.1826 40.6859C23.7067 39.7925 23.9439 38.7598 23.8622 37.7272C23.9054 36.8364 23.7333 35.9484 23.3603 35.1383C23.163 34.8137 22.8766 34.5527 22.5352 34.3863C22.1937 34.22 21.8117 34.1552 21.4345 34.1998C21.0551 34.1579 20.6721 34.235 20.3386 34.4206C20.0051 34.6061 19.7377 34.8909 19.5734 35.2354C19.2284 36.0882 19.0577 37.0015 19.0714 37.9214V38.8922H14.6393V37.6301C14.6011 36.3179 14.8726 35.0151 15.4318 33.8273C15.9341 32.8079 16.7422 31.9707 17.7433 31.4326C18.8851 30.8527 20.1544 30.569 21.4345 30.6077C22.7332 30.5653 24.0224 30.8432 25.1884 31.4168C26.1844 31.9392 26.9925 32.7595 27.4999 33.7633C28.0614 34.9385 28.3331 36.2312 28.2924 37.533C28.3487 38.8734 28.0112 40.2009 27.3216 41.3517C26.7556 42.2812 25.8694 42.9718 24.8298 43.2933C25.5179 43.5078 26.1411 43.8918 26.642 44.4101C27.1966 45.0008 27.6112 45.7086 27.8552 46.4813C28.1684 47.4808 28.3161 48.5249 28.2924 49.5721C28.32 50.9871 28.0964 52.3958 27.632 53.7328C27.2309 54.8752 26.4698 55.8565 25.4631 56.5291C24.2597 57.2511 22.8693 57.6002 21.4675 57.5323ZM37.7472 57.4999C36.3428 57.5633 34.9563 57.1655 33.7991 56.3673C32.7652 55.5846 31.9925 54.5073 31.5827 53.2771C31.1015 51.8659 30.866 50.3827 30.8866 48.8918V39.7012C30.8675 38.1445 31.0635 36.5926 31.4691 35.0894C31.7973 33.8133 32.5226 32.6745 33.5402 31.8375C34.7533 30.9714 36.2271 30.5487 37.7148 30.6401C39.004 30.5882 40.2865 30.8493 41.4529 31.4009C42.3876 31.8816 43.1339 32.662 43.5722 33.6173C44.0575 34.7509 44.2895 35.9769 44.2518 37.2094C44.2523 37.28 44.2578 37.3504 44.2683 37.4201C44.2785 37.4899 44.2838 37.5603 44.2841 37.6308H39.9781C40.0259 36.7371 39.8825 35.8434 39.5574 35.0095C39.2752 34.4266 38.6718 34.1351 37.7472 34.1351C37.4973 34.1244 37.2479 34.1648 37.0142 34.2538C36.7805 34.3429 36.5674 34.4787 36.388 34.6529C35.9781 35.1355 35.7144 35.725 35.6278 36.3522C35.444 37.3945 35.362 38.4522 35.3828 39.5104V42.6494C35.713 42.127 36.1912 41.7148 36.7565 41.4653C37.4323 41.1612 38.1674 41.0118 38.9082 41.0281C40.1059 40.9395 41.2971 41.2713 42.2764 41.9665C43.1265 42.6592 43.7422 43.5971 44.0398 44.6525C44.4138 45.9235 44.5939 47.2435 44.5741 48.5682C44.5963 50.1188 44.378 51.6634 43.9268 53.147C43.5577 54.4029 42.8122 55.5153 41.791 56.3343C40.6131 57.1678 39.188 57.5786 37.7472 57.4999ZM37.7776 54.0399C38.0436 54.0574 38.3101 54.0137 38.5567 53.9123C38.8033 53.8109 39.0234 53.6544 39.2001 53.4548C39.5604 52.9819 39.7943 52.425 39.8797 51.8367C40.0184 51.0353 40.0834 50.2229 40.0739 49.4096C40.0787 48.5614 40.041 47.7134 39.9609 46.8689C39.9236 46.2318 39.7168 45.6162 39.3619 45.0858C39.1664 44.8523 38.9167 44.6701 38.6348 44.555C38.3528 44.4399 38.047 44.3954 37.7439 44.4253C37.3931 44.4222 37.0456 44.494 36.7248 44.636C36.4267 44.7664 36.1531 44.9469 35.9158 45.1696C35.7098 45.3605 35.5303 45.5782 35.3822 45.8169V49.9267C35.3772 50.612 35.4479 51.2957 35.5928 51.9655C35.7 52.5252 35.9573 53.0452 36.3371 53.47C36.5232 53.6616 36.7478 53.8115 36.9961 53.9097C37.2444 54.008 37.5108 54.0524 37.7776 54.0399ZM54.5083 57.1439V50.7041H46.6769V46.8854L53.5051 30.9313H58.7153V47.1443H61.4013V50.7041H58.7153V57.1439H54.5083ZM50.4275 47.1443H54.505V35.7532L50.4275 47.1443Z" fill="#016B86"/>
<path d="M62.8838 93.7316V67.9638V67.9582L62.8838 67.9525C62.8714 67.1247 63.0202 66.3149 63.326 65.5455C63.6318 64.7761 64.0795 64.085 64.6566 63.4915C65.2338 62.8979 65.9121 62.4311 66.6727 62.1039C67.4318 61.7775 68.2354 61.6061 69.0616 61.5947H85.2268C86.0529 61.6061 86.8566 61.7775 87.6156 62.1039C88.3762 62.4311 89.0545 62.8979 89.6317 63.4915C90.2089 64.085 90.6566 64.7761 90.9623 65.5455C91.2681 66.3149 91.4169 67.1247 91.4046 67.9525L91.4045 67.9582V67.9638V82.3743V82.3799L91.4046 82.3856C91.4169 83.2134 91.2681 84.0233 90.9623 84.7927C90.6566 85.562 90.2089 86.2531 89.6317 86.8467C89.0545 87.4402 88.3762 87.907 87.6156 88.2342C86.8566 88.5607 86.0529 88.732 85.2268 88.7434H68.0514H67.7304L67.5067 88.9736L62.8838 93.7316Z" fill="white"/>
<path d="M69.0669 62.3549C67.598 62.3766 66.2255 62.9682 65.2011 64.0217C64.1745 65.0773 63.6212 66.4696 63.6431 67.9419L63.6433 67.9646L63.6433 91.8607L67.4093 87.9846H85.2214C86.6902 87.963 88.0627 87.3713 89.0871 86.3179C90.1137 85.2622 90.667 83.87 90.6451 82.3976L90.6449 82.375L90.6451 67.9419C90.667 66.4696 90.1137 65.0773 89.0871 64.0217C88.0627 62.9682 86.6902 62.3765 85.2214 62.3549H69.0669ZM69.0565 60.8359H85.2317C87.0968 60.8603 88.8757 61.6254 90.1761 62.9627C91.4765 64.2999 92.1917 66.0995 92.1639 67.9646V82.375C92.1917 84.2401 91.4765 86.0396 90.1761 87.3769C88.8757 88.7141 87.0968 89.4793 85.2317 89.5036H68.0514L62.1243 95.6039L62.1243 67.9646C62.0965 66.0995 62.8117 64.2999 64.1121 62.9627C65.4125 61.6254 67.1914 60.8603 69.0565 60.8359Z" fill="#016B86"/>
<path d="M69.4978 77.7484V76.7868C69.4978 76.022 69.8016 75.2886 70.3423 74.7479C70.8831 74.2071 71.6165 73.9033 72.3813 73.9033H73.3428C73.5977 73.9033 73.8421 74.0046 74.0223 74.1848C74.2025 74.365 74.3038 74.6094 74.3038 74.8643V79.6702C74.3038 79.9251 74.2025 80.1695 74.0223 80.3497C73.8421 80.5299 73.5977 80.6312 73.3428 80.6312H72.3813C71.6166 80.6312 70.8833 80.3275 70.3426 79.7868C69.8018 79.2462 69.498 78.513 69.4978 77.7484ZM84.8773 77.7484V76.7868C84.8773 76.022 84.5735 75.2886 84.0328 74.7479C83.492 74.2071 82.7586 73.9033 81.9939 73.9033H81.0323C80.7774 73.9033 80.533 74.0046 80.3528 74.1848C80.1726 74.365 80.0713 74.6094 80.0713 74.8643V79.6702C80.0713 79.9251 80.1726 80.1695 80.3528 80.3497C80.533 80.5299 80.7774 80.6312 81.0323 80.6312H81.9932C82.3719 80.6312 82.7468 80.5567 83.0967 80.4119C83.4466 80.2671 83.7645 80.0548 84.0323 79.7871C84.3001 79.5194 84.5126 79.2016 84.6576 78.8518C84.8026 78.502 84.8772 78.127 84.8773 77.7484Z" fill="white"/>
<path d="M69.4958 77.7483L69.3148 75.8265C69.2117 74.7302 69.3385 73.6245 69.6872 72.5801C70.0359 71.5357 70.5989 70.5756 71.3399 69.7613C72.081 68.9469 72.9839 68.2962 73.9909 67.8508C74.9979 67.4055 76.0868 67.1752 77.1878 67.1748C78.2889 67.1753 79.3777 67.4056 80.3846 67.851C81.3915 68.2965 82.2943 68.9472 83.0353 69.7615C83.7763 70.5759 84.3392 71.5359 84.6878 72.5803C85.0365 73.6247 85.1633 74.7303 85.0602 75.8265L84.8773 77.7483" stroke="#016B86" stroke-width="2.49983" stroke-linecap="round" stroke-linejoin="round"/>
<path d="M81.9941 80.6318V81.5928C82.0231 82.0702 81.8628 82.5398 81.5479 82.8997C81.233 83.2597 80.7888 83.4809 80.3118 83.5155H77.1877" stroke="#016B86" stroke-width="2.49983" stroke-linecap="round" stroke-linejoin="round"/>
<path d="M69.4978 77.7484V76.7868C69.4978 76.022 69.8016 75.2886 70.3423 74.7479C70.8831 74.2071 71.6165 73.9033 72.3813 73.9033H73.3428C73.5977 73.9033 73.8421 74.0046 74.0223 74.1848C74.2025 74.365 74.3038 74.6094 74.3038 74.8643V79.6702C74.3038 79.9251 74.2025 80.1695 74.0223 80.3497C73.8421 80.5299 73.5977 80.6312 73.3428 80.6312H72.3813C71.6166 80.6312 70.8833 80.3275 70.3426 79.7868C69.8018 79.2462 69.498 78.513 69.4978 77.7484ZM84.8773 77.7484V76.7868C84.8773 76.022 84.5735 75.2886 84.0328 74.7479C83.492 74.2071 82.7586 73.9033 81.9939 73.9033H81.0323C80.7774 73.9033 80.533 74.0046 80.3528 74.1848C80.1726 74.365 80.0713 74.6094 80.0713 74.8643V79.6702C80.0713 79.9251 80.1726 80.1695 80.3528 80.3497C80.533 80.5299 80.7774 80.6312 81.0323 80.6312H81.9932C82.3719 80.6312 82.7468 80.5567 83.0967 80.4119C83.4466 80.2671 83.7645 80.0548 84.0323 79.7871C84.3001 79.5194 84.5126 79.2016 84.6576 78.8518C84.8026 78.502 84.8772 78.127 84.8773 77.7484Z" stroke="#016B86" stroke-width="2.49983" stroke-linecap="round" stroke-linejoin="round"/>
</svg>
