<svg width="80" height="73" viewBox="0 0 80 73" fill="none" xmlns="http://www.w3.org/2000/svg">
<g clip-path="url(#clip0_528_228)">
<path d="M36.0644 49.482H21.4336V48.0262H37.8883L36.0644 49.482ZM51.2721 41.9629H49.908V20.276C49.9078 20.1802 49.9265 20.0854 49.963 19.9969C49.9996 19.9085 50.0532 19.8281 50.1209 19.7604C50.1886 19.6927 50.269 19.639 50.3574 19.6025C50.4459 19.5659 50.5407 19.5472 50.6364 19.5474C50.679 19.5472 50.7214 19.5509 50.7633 19.5583L60.1392 21.2215L61.2306 9.31859L46.327 2.53759H45.6136C44.1784 5.36869 41.7911 10.1031 35.3113 10.1031C28.8315 10.1031 26.4442 5.36733 25.0077 2.53759H24.2984L9.39208 9.31859L9.47393 10.2013H8.01154L7.89149 8.9352C7.87765 8.78488 7.91093 8.63398 7.98671 8.50342C8.06248 8.37287 8.177 8.26914 8.31438 8.20662L23.8387 1.14592C23.9334 1.10328 24.0362 1.08142 24.1401 1.08179H25.4375C25.533 1.08145 25.6277 1.10009 25.7159 1.13663C25.8042 1.17317 25.8844 1.22688 25.9518 1.29464C29.0482 1.77854 32.1774 2.02213 35.3113 2.02322C38.4541 2.0222 41.592 1.77724 44.6968 1.29055C44.8327 1.15643 45.0161 1.08141 45.207 1.08179H46.4853C46.5892 1.08133 46.692 1.1032 46.7867 1.14592L62.3069 8.20662C62.4443 8.26914 62.5588 8.37287 62.6346 8.50342C62.7104 8.63398 62.7436 8.78488 62.7298 8.9352L61.5116 22.1438C61.5024 22.2442 61.4725 22.3415 61.4237 22.4297C61.3748 22.5179 61.3082 22.595 61.2281 22.656C61.1479 22.7171 61.0559 22.7608 60.958 22.7845C60.86 22.8081 60.7582 22.8111 60.659 22.7933L51.3581 21.1383V41.9424L51.2735 41.9615L51.2721 41.9629ZM26.8344 2.89779C28.3541 5.74117 30.5613 8.64731 35.3113 8.64731C40.0614 8.64731 42.2686 5.74117 43.7897 2.89643C40.981 3.28351 38.1492 3.47816 35.3141 3.47902C32.478 3.4782 29.6453 3.28355 26.8357 2.89643L26.8344 2.89779ZM20.7229 35.261L19.2673 33.2813V21.1383L15.8269 21.7495L15.7273 20.2923L19.8689 19.5583C19.9737 19.5395 20.0814 19.544 20.1843 19.5714C20.2872 19.5988 20.3829 19.6485 20.4645 19.717C20.5461 19.7854 20.6116 19.871 20.6565 19.9676C20.7014 20.0642 20.7245 20.1695 20.7242 20.276L20.7229 35.261Z" fill="#016B86"/>
<path d="M36.0644 49.8231H21.0926V47.6851H38.8582L36.2417 49.7713L36.1585 49.8231H36.0644ZM21.7733 49.1409H35.9457L36.9143 48.3673H21.772L21.7733 49.1409ZM51.3131 42.304H49.5601V20.276C49.56 20.1355 49.5875 19.9963 49.6412 19.8664C49.6949 19.7366 49.7736 19.6186 49.873 19.5192C49.9723 19.4199 50.0903 19.3411 50.2201 19.2874C50.35 19.2337 50.4891 19.2061 50.6296 19.2063C50.6928 19.2061 50.7558 19.2116 50.8179 19.2227L59.8283 20.8204L60.8691 9.52737L46.2534 2.87872H45.8237C45.0215 4.63272 43.9299 6.23921 42.5947 7.63087C41.6282 8.55998 40.4865 9.28728 39.236 9.77031C37.9855 10.2533 36.6513 10.4824 35.3114 10.4442C33.9721 10.4819 32.6387 10.2525 31.389 9.76951C30.1392 9.28649 28.9981 8.55949 28.0322 7.63087C26.6962 6.24019 25.6028 4.63523 24.7977 2.88281H24.3721L9.75362 9.52873L9.84775 10.5425H7.70055L7.55458 8.96661C7.53416 8.74557 7.58309 8.52366 7.69457 8.33172C7.80606 8.13977 7.97455 7.98733 8.17664 7.89557L23.6982 0.836233C23.837 0.773295 23.9877 0.740733 24.1402 0.740726H25.4361C25.6782 0.740199 25.9131 0.822531 26.1019 0.974036C29.1491 1.44477 32.228 1.6815 35.3114 1.68215C38.4036 1.68108 41.4911 1.44252 44.5468 0.968579C44.7349 0.820393 44.9676 0.740104 45.2071 0.740726H46.4853C46.6378 0.740522 46.7885 0.773093 46.9273 0.836233L62.4475 7.89557C62.6496 7.98733 62.818 8.13977 62.9295 8.33172C63.041 8.52366 63.0899 8.74557 63.0695 8.96661L61.8513 22.1739C61.8375 22.3212 61.7934 22.4641 61.7216 22.5935C61.6499 22.723 61.5521 22.8361 61.4344 22.9259C61.3168 23.0156 61.1818 23.08 61.038 23.1149C60.8942 23.1499 60.7447 23.1546 60.599 23.1289L51.6992 21.5476V42.214L51.3131 42.304ZM50.2422 41.6218H51.0171V20.7372L60.7191 22.459C60.7717 22.4684 60.8257 22.4667 60.8776 22.4541C60.9295 22.4414 60.9782 22.418 61.0205 22.3853C61.0632 22.3527 61.0987 22.3117 61.1247 22.2647C61.1508 22.2177 61.1669 22.1659 61.172 22.1125L62.3902 8.90521C62.3976 8.82523 62.3799 8.74492 62.3396 8.67547C62.2992 8.60601 62.2382 8.55087 62.1651 8.51772L46.6463 1.45703C46.5957 1.43422 46.5408 1.42259 46.4853 1.42292H45.2071C45.1565 1.42271 45.1063 1.43248 45.0595 1.45168C45.0127 1.47087 44.9701 1.49912 44.9342 1.5348L44.8606 1.6112L44.7501 1.62758C41.6276 2.11702 38.4719 2.36335 35.3114 2.36435C32.1595 2.36193 29.0125 2.1156 25.8986 1.62758L25.7881 1.6153L25.7103 1.53616C25.6746 1.50018 25.6321 1.47164 25.5853 1.4522C25.5384 1.43276 25.4882 1.42281 25.4375 1.42292H24.1415C24.0865 1.42291 24.0321 1.43453 23.9819 1.45703L8.45902 8.51772C8.38587 8.55087 8.32487 8.60601 8.28453 8.67547C8.24418 8.74492 8.2265 8.82523 8.23394 8.90521L8.32261 9.86028H9.10019L9.03061 9.1085L24.2248 2.19653H25.2165L25.3106 2.38345C26.7075 5.1436 29.0471 9.76204 35.31 9.76204C41.5729 9.76204 43.9152 5.1436 45.3094 2.38345L45.4062 2.19653H46.4034L61.5949 9.1085L60.4408 21.6227L50.6979 19.8953C50.6421 19.8853 50.5848 19.8877 50.5301 19.9023C50.4754 19.9169 50.4245 19.9434 50.3812 19.9799C50.3378 20.0163 50.303 20.0619 50.2793 20.1133C50.2555 20.1647 50.2433 20.2207 50.2436 20.2774L50.2422 41.6218ZM21.0626 36.3007L20.4419 35.4643L18.9263 33.3973V21.5476L15.5159 22.1534L15.3699 20.0072L19.8089 19.2282C19.9627 19.2008 20.1207 19.2076 20.2716 19.2479C20.4225 19.2882 20.5628 19.3612 20.6824 19.4616C20.8021 19.5621 20.8983 19.6875 20.9642 19.8292C21.0301 19.9708 21.0642 20.1252 21.064 20.2815L21.0626 36.3007ZM19.6084 33.1735L20.3819 34.2228V20.276C20.3817 20.2195 20.3692 20.1637 20.3453 20.1125C20.3213 20.0614 20.2865 20.016 20.2433 19.9796C20.2001 19.9433 20.1494 19.9168 20.0949 19.902C20.0404 19.8872 19.9833 19.8845 19.9276 19.894L16.0888 20.5762L16.142 21.3525L19.6098 20.7372L19.6084 33.1735ZM35.3114 8.99526C30.3813 8.99526 28.1085 5.99361 26.5343 3.06564L26.2164 2.47486L26.8808 2.56627C29.675 2.95143 32.4922 3.14517 35.3127 3.14614C38.1324 3.14514 40.9487 2.9514 43.7419 2.56627L44.4063 2.47486L44.0898 3.06564C42.5183 5.99361 40.2456 8.99526 35.3114 8.99526ZM27.4606 3.32487C28.9284 5.87764 31.0661 8.31307 35.3114 8.31307C39.5567 8.31307 41.6971 5.88446 43.1635 3.33033C40.5601 3.66082 37.9384 3.82715 35.3141 3.82833C32.6883 3.82543 30.0653 3.65727 27.4606 3.32487Z" fill="#016B86"/>
<path d="M77.4498 48.3299C77.0584 45.1093 73.939 42.4281 68.8929 40.9822C63.0416 39.5016 56.9113 39.522 51.07 41.0416C44.9068 42.4777 39.152 45.3 34.2429 49.2941C29.8241 53.0049 27.5099 56.9837 27.9097 60.2113C28.1499 62.1939 29.5426 64.6172 34.5802 65.5072C35.1257 65.6036 35.7152 65.6809 36.3488 65.7393C42.2429 66.0089 48.143 65.3622 53.8388 63.8223C59.7693 62.5442 65.4812 60.406 70.7935 57.4757C76.7776 53.8931 77.7161 50.525 77.4498 48.3299ZM70.2377 56.0485C65.038 58.9099 59.4487 60.9972 53.6464 62.2444C48.0731 63.7514 42.3001 64.3859 36.5327 64.1254C33.4138 63.8418 29.6205 62.8737 29.2581 59.8813C28.9503 57.3324 31.0916 53.8622 34.9905 50.5847C37.1819 48.7658 39.5783 47.2092 42.1309 45.9467C42.3599 46.7015 42.5223 47.475 42.6164 48.2581C42.8383 50.0194 42.7155 51.8071 42.2549 53.5215C42.19 53.7553 42.4371 53.9098 42.5711 53.7159C44.0457 51.302 44.6223 48.4454 44.1997 45.6484C44.1737 45.4345 44.1365 45.2214 44.1042 45.0203C46.1815 44.114 48.3273 43.3735 50.5214 42.8059C50.8171 43.7361 51.025 44.6919 51.1423 45.6609C51.4108 47.7685 51.2525 49.9086 50.6766 51.9536C50.6093 52.1856 50.8532 52.3424 50.9915 52.1478C52.7855 49.3205 53.4941 45.9386 52.9859 42.6287C52.9668 42.4701 52.9541 42.3459 52.9438 42.2471C55.0316 41.8333 57.1494 41.5888 59.2765 41.5158C59.5559 42.3601 59.7503 43.2301 59.857 44.1129C60.0806 45.8756 59.959 47.6649 59.4988 49.3811C59.434 49.6149 59.681 49.7694 59.8151 49.5755C61.2895 47.1615 61.8662 44.305 61.4437 41.5079C62.9376 41.5474 64.4267 41.6957 65.8991 41.9514C66.7722 42.1049 67.6366 42.3039 68.4889 42.5475C72.9415 43.8234 75.7826 46.1034 76.0926 48.6472C76.4622 51.6464 73.1122 54.3265 70.2377 56.0485Z" fill="#016B86"/>
<path d="M66.2535 40.0309C67.1753 40.1908 68.0881 40.3983 68.9884 40.6527C74.173 42.1383 77.38 44.9195 77.7905 48.2834C78.0697 50.5778 77.1135 54.0856 70.9712 57.7636C65.6289 60.7116 59.8843 62.8627 53.9197 64.1484C48.1864 65.6956 42.2477 66.343 36.3157 66.0675C35.6843 66.01 35.0803 65.931 34.5186 65.8317C29.2231 64.8961 27.8168 62.2751 27.5691 60.2412C27.1638 56.9032 29.5167 52.8148 34.0258 49.0243C38.9756 45 44.7771 42.1566 50.9899 40.7101C55.9792 39.4515 61.1722 39.2204 66.2535 40.0309ZM77.1126 48.3715C76.7362 45.2936 73.707 42.7212 68.7981 41.3148C67.9213 41.0658 67.0322 40.8625 66.1344 40.7056C61.1459 39.9103 56.0479 40.1374 51.1499 41.3731C45.0386 42.7959 39.3319 45.593 34.4633 49.552C30.1334 53.1913 27.8678 57.0594 28.2451 60.1639C28.5599 62.7515 30.7694 64.4806 34.6366 65.1638C35.1741 65.2588 35.7644 65.3367 36.3768 65.3923C42.2336 65.6598 48.0966 65.0173 53.7565 63.4877C59.6533 62.2178 65.3329 60.0932 70.6154 57.181C76.4494 53.6952 77.3648 50.4658 77.1126 48.3715ZM65.964 41.6234C66.8487 41.7785 67.7248 41.9795 68.5887 42.2257C73.177 43.5408 76.1102 45.9272 76.4368 48.6125L76.4428 48.6648C76.7853 51.8171 73.3576 54.5764 70.4121 56.3399C65.1827 59.219 59.5612 61.3193 53.7252 62.5744C48.1157 64.0913 42.3051 64.7294 36.5002 64.4661C35.8919 64.4113 35.3082 64.3346 34.7627 64.2382C33.4292 64.0438 32.1444 63.5996 30.9756 62.9288C30.4223 62.6225 29.9481 62.1912 29.5909 61.6693C29.2337 61.1474 29.0034 60.5492 28.9182 59.9225C28.5951 57.2641 30.7822 53.6759 34.7704 50.3241C36.9836 48.4869 39.4046 46.9155 41.9837 45.6422L42.3455 45.4608L42.4629 45.8474C42.6973 46.6202 42.8639 47.412 42.9609 48.2137C43.145 49.6931 43.0972 51.1921 42.8191 52.6567C43.8396 50.4862 44.2051 48.0652 43.8708 45.6901C43.8463 45.4917 43.8158 45.3034 43.778 45.0778L43.733 44.8148L43.9777 44.7084C46.07 43.7955 48.2311 43.0494 50.4409 42.4771L50.7535 42.3937L50.8517 42.7007C51.1537 43.6517 51.3661 44.6288 51.4863 45.6192C51.7169 47.4566 51.6356 49.3196 51.246 51.1299C52.5662 48.5211 53.0568 45.5708 52.652 42.6751C52.6321 42.5136 52.6189 42.3921 52.6085 42.2863L52.578 41.9802L52.8837 41.9206C54.9897 41.5027 57.126 41.2554 59.2718 41.1811L59.5268 41.1735L59.6074 41.415C59.8937 42.2813 60.093 43.174 60.2023 44.0798C60.3864 45.5591 60.3386 47.0581 60.0605 48.5227C61.0807 46.3526 61.4461 43.9321 61.112 41.5575L61.0651 41.1639L61.4621 41.1758C62.9715 41.2159 64.4761 41.3655 65.964 41.6234ZM75.7567 48.6738C75.4508 46.2791 72.7028 44.1153 68.4006 42.8826C67.5598 42.6418 66.707 42.4449 65.8457 42.2926C64.5182 42.062 63.1767 41.9204 61.8302 41.8687C62.1707 44.6244 61.5607 47.4138 60.1011 49.7758C60.0465 49.8592 59.9689 49.9249 59.8777 49.9651C59.7865 50.0054 59.6856 50.0183 59.5872 50.0023C59.5157 49.9892 59.4477 49.9613 59.3877 49.9204C59.3276 49.8795 59.2768 49.8265 59.2384 49.7647C59.1955 49.6952 59.1678 49.6175 59.157 49.5365C59.1462 49.4556 59.1527 49.3732 59.1759 49.295C59.6256 47.623 59.7453 45.8794 59.5283 44.1616C59.4331 43.386 59.2688 42.6205 59.0372 41.8741C57.1193 41.952 55.2097 42.1704 53.3238 42.5277L53.3317 42.5929C53.8568 45.9888 53.125 49.4596 51.2736 52.3543C51.2185 52.4352 51.1414 52.4986 51.0514 52.537C50.9613 52.5754 50.8622 52.5871 50.7657 52.5709C50.6938 52.5575 50.6255 52.5292 50.5653 52.4878C50.505 52.4463 50.4542 52.3927 50.416 52.3303C50.3739 52.2599 50.3472 52.1814 50.3377 52.0999C50.3282 52.0184 50.3361 51.9359 50.3609 51.8577C51.1451 49.0288 51.1251 46.0372 50.3029 43.2191C48.3205 43.748 46.3788 44.4193 44.4929 45.2276C44.5117 45.3487 44.5317 45.4784 44.5464 45.6071C44.9809 48.487 44.3834 51.4278 42.8597 53.9097C42.8127 53.982 42.7482 54.0412 42.6721 54.0817C42.5961 54.1222 42.5109 54.1427 42.4248 54.1414C42.3386 54.14 42.2542 54.1168 42.1794 54.0738C42.1047 54.0309 42.0421 53.9697 41.9975 53.896C41.9546 53.8265 41.9268 53.7487 41.916 53.6678C41.9053 53.5868 41.9117 53.5045 41.9349 53.4262C42.3846 51.7542 42.5043 50.0107 42.2873 48.2929C42.2102 47.6653 42.0884 47.0441 41.9229 46.4338C39.5286 47.648 37.2781 49.127 35.2136 50.8431C31.4033 54.0504 29.3055 57.4077 29.6066 59.8376C29.8364 61.7297 31.6157 62.9837 34.8944 63.563C35.4198 63.6558 35.9857 63.7308 36.575 63.7837C42.306 64.04 48.0421 63.4075 53.5796 61.9084C59.3481 60.6694 64.9052 58.5956 70.0752 55.7524C72.8642 54.0832 76.1144 51.5046 75.7727 48.6933L75.7567 48.6738Z" fill="#016B86"/>
<path d="M16.5691 29.9946V12.0624C16.5684 11.4812 16.3372 10.9239 15.9262 10.5129C15.5152 10.1018 14.9581 9.8706 14.3769 9.86987H8.83561C8.25441 9.8706 7.69723 10.1018 7.28627 10.5129C6.8753 10.9239 6.64411 11.4812 6.64339 12.0624V29.9946C5.06572 30.5421 3.69795 31.568 2.73045 32.9293C1.76295 34.2907 1.24385 35.9199 1.24536 37.5901V67.8795C1.24609 68.4607 1.47728 69.018 1.88824 69.429C2.29921 69.8401 2.85639 70.0713 3.43758 70.072H19.7735C20.3547 70.0713 20.9119 69.8401 21.3229 69.429C21.7338 69.018 21.965 68.4607 21.9658 67.8795V37.5901C21.9674 35.92 21.4485 34.291 20.4812 32.9297C19.514 31.5683 18.1465 30.5424 16.5691 29.9946ZM8.83561 11.604H14.3769C14.5002 11.604 14.6186 11.653 14.7058 11.7403C14.793 11.8275 14.8421 11.9459 14.8421 12.0693V14.2646H8.37043V12.0624C8.37043 11.939 8.41944 11.8207 8.50668 11.7335C8.59392 11.6462 8.71223 11.5972 8.83561 11.5972V11.604ZM20.2387 67.8808C20.2387 68.0042 20.1897 68.1226 20.1025 68.2098C20.0152 68.2971 19.8969 68.3461 19.7735 68.3461H3.43758C3.31421 68.3461 3.19589 68.2971 3.10865 68.2098C3.02141 68.1226 2.9724 68.0042 2.9724 67.8808V37.5915C2.97086 36.1891 3.43684 34.8262 4.29664 33.7184C5.15644 32.6107 6.36098 31.8212 7.71972 31.4749C7.90568 31.4276 8.07058 31.3197 8.18841 31.1683C8.30624 31.0168 8.37028 30.8305 8.37043 30.6386V15.985H14.8421V30.6304C14.8422 30.8223 14.9062 31.0087 15.0241 31.1601C15.1419 31.3116 15.3068 31.4194 15.4928 31.4667C16.8515 31.813 18.056 32.6025 18.9158 33.7102C19.7756 34.818 20.2416 36.1809 20.2401 37.5833L20.2387 67.8808Z" fill="#016B86"/>
<path d="M8.83558 9.52881H14.3769C15.0485 9.52953 15.6924 9.7967 16.1673 10.2717C16.6423 10.7467 16.9094 11.3907 16.9101 12.0625V29.749C18.4979 30.3535 19.8645 31.4265 20.8286 32.8257C21.7926 34.2248 22.3086 35.8841 22.3081 37.5833V67.8727C22.3074 68.5444 22.0403 69.1885 21.5654 69.6634C21.0904 70.1384 20.4465 70.4056 19.7749 70.4063H3.43756C2.76591 70.4056 2.12199 70.1384 1.64707 69.6634C1.17215 69.1885 0.905019 68.5444 0.904297 67.8727V37.5833C0.9038 35.8841 1.4198 34.2248 2.38386 32.8257C3.34792 31.4265 4.7145 30.3535 6.30232 29.749V12.0625C6.30305 11.3907 6.57017 10.7467 7.0451 10.2717C7.52002 9.7967 8.16394 9.52953 8.83558 9.52881ZM19.7749 69.7255C20.2656 69.7248 20.7361 69.5295 21.0831 69.1824C21.4301 68.8354 21.6253 68.3649 21.626 67.874V37.5847C21.6266 35.9855 21.1292 34.4259 20.2029 33.1224C19.2766 31.8189 17.9674 30.8363 16.4572 30.3111L16.228 30.232V12.0625C16.2273 11.5717 16.032 11.1011 15.685 10.7541C15.338 10.407 14.8676 10.2117 14.3769 10.211H8.83558C8.34484 10.2117 7.87441 10.407 7.52741 10.7541C7.1804 11.1011 6.98513 11.5717 6.98441 12.0625V30.2306L6.75523 30.3098C5.24501 30.835 3.93583 31.8176 3.00953 33.121C2.08324 34.4245 1.58582 35.9841 1.58638 37.5833V67.8727C1.5871 68.3635 1.78237 68.834 2.12938 69.1811C2.47639 69.5281 2.94681 69.7234 3.43756 69.7241L19.7749 69.7255ZM8.83558 11.2561H14.3769C14.5906 11.2565 14.7954 11.3416 14.9465 11.4927C15.0977 11.6438 15.1827 11.8487 15.1831 12.0625V14.5989H8.02936V12.0625C8.02972 11.8487 8.11478 11.6438 8.2659 11.4927C8.41702 11.3416 8.62187 11.2565 8.83558 11.2561ZM14.501 13.9153V12.0625C14.501 12.0295 14.4879 11.998 14.4646 11.9747C14.4413 11.9514 14.4098 11.9383 14.3769 11.9383H8.83558C8.80266 11.9383 8.77108 11.9514 8.7478 11.9747C8.72452 11.998 8.71145 12.0295 8.71145 12.0625V13.9167L14.501 13.9153ZM8.02936 15.6426H15.1831V30.6304C15.1831 30.7464 15.2217 30.8591 15.2928 30.9508C15.364 31.0424 15.4636 31.1078 15.576 31.1366C17.008 31.5016 18.2775 32.3337 19.1838 33.5013C20.09 34.6688 20.5812 36.1052 20.5797 37.5833V67.8727C20.5794 68.0864 20.4943 68.2913 20.3432 68.4425C20.1921 68.5936 19.9872 68.6787 19.7735 68.679H3.43756C3.22384 68.6787 3.01899 68.5936 2.86787 68.4425C2.71676 68.2913 2.6317 68.0864 2.63134 67.8727V37.5833C2.62985 36.1052 3.12106 34.6688 4.02729 33.5013C4.93352 32.3337 6.20305 31.5016 7.63512 31.1366C7.74775 31.1081 7.84766 31.0428 7.91906 30.9511C7.99046 30.8595 8.02928 30.7466 8.02936 30.6304V15.6426ZM14.501 16.3248H8.71145V30.6304C8.71179 30.8983 8.62274 31.1586 8.45841 31.3702C8.29409 31.5817 8.06389 31.7324 7.80427 31.7983C6.51885 32.1258 5.37931 32.8726 4.56594 33.9206C3.75257 34.9686 3.31182 36.258 3.31342 37.5847V67.874C3.31342 67.907 3.3265 67.9385 3.34978 67.9618C3.37306 67.9851 3.40463 67.9982 3.43756 67.9982H19.7735C19.8064 67.9982 19.838 67.9851 19.8613 67.9618C19.8846 67.9385 19.8976 67.907 19.8976 67.874V37.5847C19.8992 36.258 19.4585 34.9686 18.6451 33.9206C17.8318 32.8726 16.6922 32.1258 15.4068 31.7983C15.1472 31.7324 14.917 31.5817 14.7527 31.3702C14.5883 31.1586 14.4993 30.8983 14.4996 30.6304L14.501 16.3248Z" fill="#016B86"/>
<path d="M16.8174 42.783H6.38695C6.15793 42.783 5.9383 42.8739 5.77636 43.0359C5.61442 43.1979 5.52344 43.4176 5.52344 43.6466V59.1324C5.52344 59.3614 5.61442 59.5811 5.77636 59.7431C5.9383 59.905 6.15793 59.996 6.38695 59.996H16.8174C17.0464 59.996 17.2661 59.905 17.428 59.7431C17.5899 59.5811 17.6809 59.3614 17.6809 59.1324V43.6466C17.6809 43.4176 17.5899 43.1979 17.428 43.0359C17.2661 42.8739 17.0464 42.783 16.8174 42.783ZM15.9539 58.2687H7.25047V44.5103H15.9539V58.2687Z" fill="#016B86"/>
<path d="M6.38966 42.4419H16.8174C17.1367 42.4423 17.4429 42.5693 17.6687 42.7951C17.8946 43.021 18.0216 43.3272 18.022 43.6466V59.1324C18.0216 59.4518 17.8946 59.758 17.6687 59.9839C17.4429 60.2098 17.1367 60.3368 16.8174 60.3372H6.38693C6.06757 60.3368 5.76139 60.2098 5.53557 59.9839C5.30975 59.758 5.18273 59.4518 5.18237 59.1324V43.6466C5.18255 43.4883 5.21392 43.3315 5.27469 43.1852C5.33546 43.0389 5.42443 42.9061 5.53654 42.7942C5.64865 42.6823 5.78169 42.5936 5.92807 42.5332C6.07445 42.4727 6.23129 42.4417 6.38966 42.4419ZM16.8201 59.655C16.9586 59.6546 17.0913 59.5994 17.1892 59.5015C17.2871 59.4036 17.3422 59.2709 17.3426 59.1324V43.6466C17.3422 43.5082 17.2871 43.3755 17.1892 43.2775C17.0913 43.1796 16.9586 43.1244 16.8201 43.1241H6.38966C6.2512 43.1244 6.11851 43.1796 6.02061 43.2775C5.9227 43.3755 5.86755 43.5082 5.86719 43.6466V59.1324C5.86755 59.2709 5.9227 59.4036 6.02061 59.5015C6.11851 59.5994 6.2512 59.6546 6.38966 59.655H16.8201ZM6.91215 44.1692H16.2976V58.6099H6.91215V44.1692ZM15.6155 44.8514H7.59423V57.9277H15.6155V44.8514Z" fill="#016B86"/>
</g>
<defs>
<clipPath id="clip0_528_228">
<rect width="78.1916" height="72" fill="white" transform="translate(0.904297 0.740723)"/>
</clipPath>
</defs>
</svg>
