<svg width="183" height="204" viewBox="0 0 183 204" fill="none" xmlns="http://www.w3.org/2000/svg">
<path d="M36.301 85.9194C36.301 85.9194 38.9015 79.9342 40.6908 80.8584C42.4801 81.7827 40.6708 85.7473 41.0771 88.2461C41.4835 90.7448 44.8611 92.1098 48.0264 90.4526C51.1917 88.7954 55.8379 80.7205 55.8379 80.7205" stroke="#016B86" stroke-width="2.00007" stroke-linecap="round" stroke-linejoin="round"/>
<path d="M37.0109 84.7706L35.49 84.877L32.2455 89.424C33.293 89.2383 34.3658 89.2486 35.4095 89.4544L37.6294 86.0806L37.0109 84.7706Z" fill="#016B86"/>
<path d="M14.6622 116.778C14.7596 117.61 14.8771 118.447 14.979 119.139C15.0461 119.594 15.273 120.01 15.6188 120.313C15.9647 120.616 16.407 120.786 16.8668 120.793L31.2493 121.002C31.749 121.012 32.2331 120.828 32.6003 120.489L33.7513 119.417C33.9985 119.188 34.1461 118.871 34.1627 118.534C34.208 117.606 34.2975 115.585 34.3324 113.628L31.4161 116.113C31.0727 116.405 30.638 116.569 30.187 116.575L14.6622 116.778Z" fill="#016B86"/>
<path d="M37.3442 89.9104L37.3137 89.8616L37.2985 89.8611C36.9708 89.5914 36.5692 89.4269 36.1464 89.3894C34.356 89.201 32.5506 89.2052 30.7611 89.4017L30.688 89.396C30.182 89.4823 29.6913 89.6418 29.2312 89.8696C28.341 90.2816 27.5849 90.936 27.0495 91.7578C25.7327 93.809 20.4868 101.679 19.6748 103.529C19.084 104.88 16.6384 104.964 14.9636 107.467C13.9635 108.963 14.2539 113.429 14.6479 116.785L30.17 116.571C30.621 116.565 31.0557 116.402 31.3991 116.109L34.3154 113.625C34.3839 112.141 34.3348 110.655 34.1689 109.179C33.7742 107.469 33.0282 105.86 31.9783 104.454C31.9123 104.366 31.87 104.262 31.8556 104.153C31.8411 104.044 31.855 103.934 31.8958 103.831C32.7467 101.716 37.2293 97.1395 38.0317 95.2824C38.185 94.899 38.3159 94.5071 38.4239 94.1087C38.6398 93.3548 38.5739 92.5481 38.2386 91.8392L37.3935 90.05C37.3835 90.0014 37.3669 89.9545 37.3442 89.9104Z" fill="white" stroke="#016B86" stroke-width="2.00007" stroke-linecap="round" stroke-linejoin="round"/>
<path d="M15.8975 107.74L25.7223 107.739" stroke="#016B86" stroke-width="2.00007" stroke-linecap="round"/>
<path d="M127.768 187.304H2.6205C2.24821 187.304 1.89118 187.156 1.62793 186.893C1.36469 186.63 1.2168 186.273 1.2168 185.9V159.623L3.66625 152.227V123.092C3.66625 122.719 3.81414 122.362 4.07739 122.099C4.34063 121.836 4.69767 121.688 5.06996 121.688H127.768C128.14 121.688 128.497 121.836 128.76 122.099C129.023 122.362 129.171 122.719 129.171 123.092V185.904C129.17 186.276 129.022 186.632 128.759 186.894C128.496 187.157 128.139 187.304 127.768 187.304Z" fill="white"/>
<path d="M1 173.204H77.8724V186.899H3.80741C3.06284 186.899 2.34876 186.603 1.82227 186.076C1.29578 185.55 1 184.836 1 184.091V173.204Z" fill="white"/>
<path d="M63.0075 153.797H78.094V169.409H63.0075C62.263 169.409 61.5489 169.113 61.0224 168.587C60.496 168.06 60.2002 167.346 60.2002 166.601V156.605C60.2002 155.86 60.496 155.146 61.0224 154.62C61.5489 154.093 62.263 153.797 63.0075 153.797Z" fill="white"/>
<path d="M96.166 128.134H120.827V146.803C120.827 147.547 120.531 148.261 120.005 148.788C119.478 149.314 118.764 149.61 118.02 149.61H98.9733C98.2288 149.61 97.5147 149.314 96.9883 148.788C96.4618 148.261 96.166 147.547 96.166 146.803V128.134Z" fill="#016B86"/>
<path d="M118.721 152.132H98.2715C97.1087 152.132 96.166 153.074 96.166 154.237V155.481C96.166 156.644 97.1087 157.586 98.2715 157.586H118.721C119.884 157.586 120.827 156.644 120.827 155.481V154.237C120.827 153.074 119.884 152.132 118.721 152.132Z" fill="#016B86"/>
<path d="M39.3061 127.989V121.69H4.65568C4.39508 121.69 4.14516 121.794 3.96089 121.978C3.77662 122.162 3.67309 122.412 3.67309 122.673V152.225L1.22363 159.621V162.023H38.3221C38.5827 162.023 38.8326 161.919 39.0169 161.735C39.2012 161.551 39.3047 161.301 39.3047 161.04V134.574H83.5943V168.07C83.5943 168.331 83.6979 168.581 83.8821 168.765C84.0664 168.949 84.3163 169.053 84.5769 169.053H123.162C123.423 169.053 123.672 168.949 123.857 168.765C124.041 168.581 124.145 168.331 124.145 168.07V134.574H129.154V127.989H39.3061Z" fill="white"/>
<path d="M39.3057 121.69H126.359C127.104 121.69 127.818 121.986 128.344 122.513C128.871 123.039 129.166 123.753 129.166 124.498V127.989H39.3057V121.69Z" fill="white"/>
<path d="M127.768 187.304H2.6205C2.24822 187.304 1.89118 187.156 1.62793 186.893C1.36469 186.63 1.2168 186.273 1.2168 185.901V159.623L3.66625 152.227V123.092C3.66625 122.72 3.81414 122.363 4.07739 122.099C4.34063 121.836 4.69767 121.688 5.06996 121.688H127.768C128.14 121.688 128.497 121.836 128.76 122.099C129.023 122.363 129.171 122.72 129.171 123.092V185.905C129.17 186.276 129.022 186.632 128.759 186.895C128.496 187.157 128.139 187.304 127.768 187.304Z" stroke="#016B86" stroke-width="2.00007" stroke-miterlimit="10"/>
<path d="M77.3945 121.691L78.0964 128.132V187.303" stroke="#016B86" stroke-width="2.00007" stroke-miterlimit="10"/>
<path d="M1.2207 173.61H78.0931" stroke="#016B86" stroke-width="2.00007" stroke-miterlimit="10"/>
<path d="M63.0085 153.799H78.095V169.41H63.0085C62.2639 169.41 61.5499 169.115 61.0234 168.588C60.4969 168.062 60.2012 167.348 60.2012 166.603V156.606C60.2012 155.862 60.4969 155.148 61.0234 154.621C61.5499 154.095 62.2639 153.799 63.0085 153.799Z" stroke="#016B86" stroke-width="2.00007" stroke-miterlimit="10"/>
<path d="M1.2207 162.029H38.3192C38.5798 162.029 38.8297 161.925 39.014 161.741C39.1983 161.557 39.3018 161.307 39.3018 161.046V134.574H83.5914V168.07C83.5914 168.331 83.6949 168.581 83.8792 168.765C84.0635 168.949 84.3134 169.053 84.574 169.053H123.159C123.42 169.053 123.67 168.949 123.854 168.765C124.038 168.581 124.142 168.331 124.142 168.07V134.574H129.151V127.989H39.3074V121.691" stroke="#016B86" stroke-width="2.00007" stroke-miterlimit="10"/>
<path d="M63.7957 123.84H54.0137V126.942H63.7957V123.84Z" fill="#016B86"/>
<path d="M96.166 128.135H120.827V146.803C120.827 147.548 120.531 148.262 120.005 148.788C119.478 149.315 118.764 149.611 118.02 149.611H98.9733C98.2288 149.611 97.5147 149.315 96.9883 148.788C96.4618 148.262 96.166 147.548 96.166 146.803V128.135Z" stroke="#016B86" stroke-width="2.00007" stroke-miterlimit="10"/>
<path d="M118.721 152.133H98.2715C97.1087 152.133 96.166 153.076 96.166 154.239V155.482C96.166 156.645 97.1087 157.588 98.2715 157.588H118.721C119.884 157.588 120.827 156.645 120.827 155.482V154.239C120.827 153.076 119.884 152.133 118.721 152.133Z" stroke="#016B86" stroke-width="2.00007" stroke-miterlimit="10"/>
<path d="M113.615 100.015H65.375V117.788H113.615V100.015Z" fill="white" stroke="#016B86" stroke-width="2.00007" stroke-miterlimit="10"/>
<path d="M58.0281 117.252H120.965C121.709 117.252 122.423 117.548 122.95 118.074C123.476 118.601 123.772 119.315 123.772 120.059V121.546H55.2207V120.059C55.2207 119.315 55.5165 118.601 56.043 118.074C56.5695 117.548 57.2835 117.252 58.0281 117.252Z" fill="white" stroke="#016B86" stroke-width="2.00007" stroke-miterlimit="10"/>
<path d="M120.965 1H58.0281C56.4776 1 55.2207 2.25692 55.2207 3.80741V96.7887C55.2207 98.3392 56.4776 99.5961 58.0281 99.5961H120.965C122.515 99.5961 123.772 98.3392 123.772 96.7887V3.80741C123.772 2.25692 122.515 1 120.965 1Z" fill="white" stroke="#016B86" stroke-width="2.00007" stroke-miterlimit="10"/>
<path d="M118.559 6.21289H60.4316V94.8146H118.559V6.21289Z" fill="white" stroke="#016B86" stroke-width="2.00007" stroke-miterlimit="10" stroke-linecap="round" stroke-linejoin="round"/>
<path d="M86.1891 64.0277H69.9544C69.1792 64.0277 68.5508 64.6561 68.5508 65.4314V70.2403C68.5508 71.0155 69.1792 71.6439 69.9544 71.6439H86.1891C86.9643 71.6439 87.5928 71.0155 87.5928 70.2403V65.4314C87.5928 64.6561 86.9643 64.0277 86.1891 64.0277Z" fill="white" stroke="#016B86" stroke-width="1.80006" stroke-miterlimit="10"/>
<path d="M86.1891 52.604H69.9544C69.1792 52.604 68.5508 53.2324 68.5508 54.0077V58.8166C68.5508 59.5918 69.1792 60.2202 69.9544 60.2202H86.1891C86.9643 60.2202 87.5928 59.5918 87.5928 58.8166V54.0077C87.5928 53.2324 86.9643 52.604 86.1891 52.604Z" fill="white" stroke="#016B86" stroke-width="1.80006" stroke-miterlimit="10"/>
<path d="M86.1891 41.1718H69.9544C69.1792 41.1718 68.5508 41.8002 68.5508 42.5754V47.3843C68.5508 48.1595 69.1792 48.788 69.9544 48.788H86.1891C86.9643 48.788 87.5928 48.1595 87.5928 47.3843V42.5754C87.5928 41.8002 86.9643 41.1718 86.1891 41.1718Z" fill="white" stroke="#016B86" stroke-width="1.80006" stroke-miterlimit="10"/>
<path d="M86.1891 29.7518H69.9544C69.1792 29.7518 68.5508 30.3803 68.5508 31.1555V35.9644C68.5508 36.7396 69.1792 37.3681 69.9544 37.3681H86.1891C86.9643 37.3681 87.5928 36.7396 87.5928 35.9644V31.1555C87.5928 30.3803 86.9643 29.7518 86.1891 29.7518Z" fill="white" stroke="#016B86" stroke-width="1.80006" stroke-miterlimit="10"/>
<path d="M109.041 64.0277H92.806C92.0308 64.0277 91.4023 64.6561 91.4023 65.4314V70.2403C91.4023 71.0155 92.0308 71.6439 92.806 71.6439H109.041C109.816 71.6439 110.444 71.0155 110.444 70.2403V65.4314C110.444 64.6561 109.816 64.0277 109.041 64.0277Z" fill="white" stroke="#016B86" stroke-width="1.80006" stroke-miterlimit="10"/>
<path d="M109.041 52.604H92.806C92.0308 52.604 91.4023 53.2324 91.4023 54.0077V58.8166C91.4023 59.5918 92.0308 60.2202 92.806 60.2202H109.041C109.816 60.2202 110.444 59.5918 110.444 58.8166V54.0077C110.444 53.2324 109.816 52.604 109.041 52.604Z" fill="white" stroke="#016B86" stroke-width="1.80006" stroke-miterlimit="10"/>
<path d="M109.041 41.1718H92.806C92.0308 41.1718 91.4023 41.8002 91.4023 42.5754V47.3843C91.4023 48.1595 92.0308 48.788 92.806 48.788H109.041C109.816 48.788 110.444 48.1595 110.444 47.3843V42.5754C110.444 41.8002 109.816 41.1718 109.041 41.1718Z" fill="white" stroke="#016B86" stroke-width="1.80006" stroke-miterlimit="10"/>
<path d="M109.041 29.7518H92.806C92.0308 29.7518 91.4023 30.3803 91.4023 31.1555V35.9644C91.4023 36.7396 92.0308 37.3681 92.806 37.3681H109.041C109.816 37.3681 110.444 36.7396 110.444 35.9644V31.1555C110.444 30.3803 109.816 29.7518 109.041 29.7518Z" fill="white" stroke="#016B86" stroke-width="1.80006" stroke-miterlimit="10"/>
<path d="M86.1891 78.4409H69.9544C69.1792 78.4409 68.5508 79.0694 68.5508 79.8446V84.6535C68.5508 85.4287 69.1792 86.0571 69.9544 86.0571H86.1891C86.9643 86.0571 87.5928 85.4287 87.5928 84.6535V79.8446C87.5928 79.0694 86.9643 78.4409 86.1891 78.4409Z" fill="white" stroke="#016B86" stroke-width="1.80006" stroke-miterlimit="10"/>
<path d="M109.041 78.4409H92.806C92.0308 78.4409 91.4023 79.0694 91.4023 79.8446V84.6535C91.4023 85.4287 92.0308 86.0571 92.806 86.0571H109.041C109.816 86.0571 110.444 85.4287 110.444 84.6535V79.8446C110.444 79.0694 109.816 78.4409 109.041 78.4409Z" fill="white" stroke="#016B86" stroke-width="1.80006" stroke-miterlimit="10"/>
<path d="M105.424 14.5212H109.167C109.502 14.5212 109.823 14.6544 110.06 14.8913C110.297 15.1282 110.43 15.4495 110.43 15.7846V24.6714C110.43 25.0065 110.297 25.3278 110.06 25.5647C109.823 25.8017 109.502 25.9347 109.167 25.9347H69.818C69.483 25.9347 69.1616 25.8017 68.9247 25.5647C68.6878 25.3278 68.5547 25.0065 68.5547 24.6714V15.7846C68.5547 15.4495 68.6878 15.1282 68.9247 14.8913C69.1616 14.6544 69.483 14.5212 69.818 14.5212H100.631" fill="white"/>
<path d="M105.424 14.5212H109.167C109.502 14.5212 109.823 14.6544 110.06 14.8913C110.297 15.1282 110.43 15.4495 110.43 15.7846V24.6714C110.43 25.0065 110.297 25.3278 110.06 25.5647C109.823 25.8017 109.502 25.9347 109.167 25.9347H69.818C69.483 25.9347 69.1616 25.8017 68.9247 25.5647C68.6878 25.3278 68.5547 25.0065 68.5547 24.6714V15.7846C68.5547 15.4495 68.6878 15.1282 68.9247 14.8913C69.1616 14.6544 69.483 14.5212 69.818 14.5212H100.631" stroke="#016B86" stroke-width="1.80006" stroke-miterlimit="10" stroke-linecap="round"/>
<path d="M11.1575 126.227H6.0791V131.305H11.1575V126.227Z" fill="#016B86"/>
<path d="M9.09101 141.084H34.0971V156.664H7.48242L9.09101 152.434V141.084Z" fill="#016B86" stroke="#016B86" stroke-width="2.00007" stroke-linecap="round" stroke-linejoin="round"/>
<path d="M39.0825 184.623C41.1857 184.623 42.8906 182.918 42.8906 180.815C42.8906 178.712 41.1857 177.007 39.0825 177.007C36.9794 177.007 35.2744 178.712 35.2744 180.815C35.2744 182.918 36.9794 184.623 39.0825 184.623Z" fill="#016B86"/>
<path d="M143.691 178.053C150.668 178.053 156.324 172.397 156.324 165.42C156.324 158.443 150.668 152.787 143.691 152.787C136.715 152.787 131.059 158.443 131.059 165.42C131.059 172.397 136.715 178.053 143.691 178.053Z" fill="white"/>
<path d="M178.691 170.644C179.319 170.595 179.906 170.311 180.334 169.848C180.762 169.385 181 168.778 181 168.148V162.178C181 161.548 180.762 160.94 180.334 160.477C179.906 160.014 179.32 159.729 178.691 159.68L170.78 159.062C170.535 159.042 170.301 158.955 170.102 158.81C169.904 158.665 169.75 158.468 169.657 158.241L167.054 151.962C166.959 151.735 166.928 151.486 166.967 151.243C167.005 151 167.11 150.772 167.271 150.585L172.429 144.549C172.839 144.07 173.053 143.454 173.028 142.824C173.004 142.194 172.742 141.596 172.296 141.151L168.069 136.926C167.623 136.48 167.025 136.22 166.395 136.197C165.765 136.173 165.149 136.388 164.671 136.799L158.635 141.958C158.448 142.118 158.22 142.223 157.977 142.262C157.734 142.3 157.485 142.271 157.258 142.177L150.979 139.573C150.753 139.479 150.556 139.325 150.411 139.127C150.266 138.929 150.178 138.695 150.157 138.45L149.54 130.54C149.494 129.91 149.21 129.321 148.748 128.891C148.285 128.462 147.676 128.223 147.045 128.223H141.075C140.444 128.223 139.837 128.46 139.374 128.889C138.911 129.317 138.627 129.904 138.579 130.533L137.961 138.443C137.941 138.688 137.854 138.922 137.709 139.12C137.564 139.318 137.367 139.473 137.14 139.566L130.859 142.177C130.631 142.271 130.381 142.3 130.138 142.262C129.894 142.223 129.666 142.118 129.479 141.958L123.443 136.799C122.965 136.39 122.35 136.176 121.722 136.2C121.093 136.223 120.496 136.482 120.05 136.926L115.822 141.154C115.376 141.599 115.115 142.197 115.091 142.827C115.066 143.457 115.279 144.073 115.689 144.552L120.847 150.588C121.007 150.775 121.112 151.003 121.15 151.246C121.188 151.489 121.158 151.738 121.064 151.965L118.469 158.241C118.377 158.468 118.223 158.665 118.024 158.81C117.826 158.955 117.591 159.043 117.347 159.062L109.432 159.68C108.803 159.728 108.215 160.013 107.787 160.476C107.358 160.939 107.119 161.547 107.119 162.178V168.147C107.119 168.777 107.357 169.385 107.785 169.848C108.213 170.311 108.8 170.596 109.428 170.645L117.342 171.262C117.587 171.282 117.821 171.37 118.019 171.515C118.217 171.66 118.372 171.857 118.465 172.084L121.068 178.363C121.162 178.59 121.192 178.84 121.154 179.083C121.116 179.327 121.011 179.555 120.852 179.743L115.696 185.774C115.286 186.253 115.071 186.869 115.094 187.498C115.118 188.128 115.377 188.726 115.822 189.173L120.043 193.394C120.489 193.84 121.087 194.101 121.717 194.125C122.347 194.149 122.963 193.935 123.441 193.524L129.477 188.366C129.665 188.206 129.893 188.101 130.137 188.063C130.38 188.025 130.63 188.055 130.857 188.15L137.139 190.752C137.367 190.846 137.564 191.002 137.709 191.202C137.854 191.401 137.941 191.637 137.96 191.883L138.578 199.793C138.626 200.422 138.91 201.009 139.373 201.437C139.836 201.866 140.443 202.104 141.073 202.104H147.043C147.674 202.104 148.281 201.866 148.744 201.437C149.206 201.009 149.49 200.422 149.539 199.793L150.155 191.883C150.175 191.637 150.263 191.402 150.408 191.202C150.553 191.003 150.75 190.847 150.978 190.752L157.259 188.15C157.487 188.055 157.735 188.025 157.978 188.063C158.222 188.101 158.449 188.206 158.636 188.366L164.671 193.524C165.15 193.935 165.766 194.149 166.396 194.125C167.026 194.101 167.623 193.84 168.069 193.394L172.29 189.173C172.736 188.727 172.998 188.13 173.022 187.5C173.047 186.87 172.833 186.254 172.424 185.774L167.265 179.739C167.105 179.551 167 179.323 166.962 179.079C166.924 178.836 166.954 178.586 167.049 178.359L169.651 172.08C169.745 171.853 169.899 171.656 170.098 171.511C170.296 171.366 170.53 171.278 170.774 171.257L178.691 170.644ZM144.059 177.647C141.171 177.645 138.374 176.641 136.143 174.808C133.912 172.974 132.386 170.424 131.825 167.591C131.264 164.759 131.702 161.819 133.065 159.273C134.428 156.728 136.632 154.733 139.3 153.63C141.969 152.527 144.938 152.383 147.7 153.224C150.463 154.064 152.849 155.836 154.452 158.238C156.054 160.64 156.774 163.524 156.489 166.398C156.204 169.271 154.932 171.957 152.888 173.997C151.731 175.159 150.354 176.079 148.839 176.706C147.323 177.332 145.699 177.652 144.059 177.647Z" fill="white" stroke="#016B86" stroke-width="2.50009"/>
</svg>
