<svg width="180" height="189" viewBox="0 0 180 189" fill="none" xmlns="http://www.w3.org/2000/svg">
<path d="M81.9917 166.464C126.203 166.464 162.043 130.623 162.043 86.4123C162.043 42.2012 126.203 6.36102 81.9917 6.36102C37.7806 6.36102 1.94043 42.2012 1.94043 86.4123C1.94043 130.623 37.7806 166.464 81.9917 166.464Z" fill="white"/>
<path d="M106.49 7.87125C106.035 7.7292 105.543 7.77332 105.122 7.994C104.7 8.21467 104.384 8.5938 104.242 9.04793C104.1 9.50206 104.144 9.99403 104.364 10.4156C104.585 10.8372 104.964 11.1538 105.418 11.2959C121.312 16.2675 135.212 26.1693 145.103 39.5673C154.994 52.9653 160.364 69.1639 160.434 85.8173C160.505 102.471 155.273 118.714 145.496 132.196C135.719 145.677 121.904 155.697 106.053 160.803C90.2014 165.909 73.1361 165.837 57.3282 160.598C41.5204 155.358 27.7907 145.223 18.1274 131.66C8.46414 118.097 3.36896 101.809 3.57978 85.1572C3.79061 68.505 9.29648 52.3521 19.3 39.0379C28.5407 26.8109 41.1321 17.5295 55.5457 12.3203L50.576 22.6267C50.3698 23.0555 50.3422 23.5486 50.4994 23.9977C50.6565 24.4468 50.9856 24.8152 51.4143 25.0217C51.6576 25.1399 51.9248 25.2009 52.1953 25.2001C52.5332 25.2001 52.8642 25.1049 53.1504 24.9253C53.4366 24.7457 53.6663 24.489 53.8132 24.1848L60.5974 10.1127C60.6997 9.90046 60.7593 9.67017 60.7726 9.43495C60.786 9.19973 60.7528 8.96419 60.6751 8.74178C60.5974 8.51937 60.4766 8.31443 60.3196 8.13871C60.1627 7.96298 59.9726 7.81992 59.7604 7.71764L45.6883 0.933454C45.4762 0.830893 45.246 0.771135 45.0107 0.75756C44.7755 0.743984 44.5399 0.776848 44.3174 0.854325C44.0949 0.931802 43.8898 1.05236 43.7139 1.20909C43.5379 1.36583 43.3946 1.55567 43.292 1.7678C43.1894 1.97993 43.1297 2.2102 43.1161 2.44543C43.1025 2.68067 43.1354 2.91628 43.2129 3.1388C43.2904 3.36132 43.4109 3.56638 43.5677 3.74231C43.7244 3.91825 43.9142 4.06157 44.1263 4.16413L54.1686 9.00757C39.1656 14.4662 26.0611 24.1466 16.4339 36.8823C5.97833 50.8028 0.224786 67.6898 0.00645179 85.0981C-0.211883 102.506 5.11633 119.532 15.2194 133.711C25.3226 147.889 39.6762 158.484 56.2019 163.961C72.7277 169.437 90.5678 169.512 107.139 164.174C123.71 158.836 138.152 148.362 148.374 134.269C158.595 120.176 164.066 103.195 163.994 85.7858C163.922 68.3763 158.31 51.4416 147.971 37.4339C137.633 23.4263 123.104 13.0715 106.49 7.87125Z" fill="#016B86"/>
<path d="M81.9901 7.7397C86.4961 7.73952 90.9938 8.12361 95.4345 8.88782C95.5359 8.90553 95.6387 8.91423 95.7416 8.91384C96.1908 8.91354 96.6236 8.74475 96.9543 8.44079C97.285 8.13683 97.4897 7.71986 97.5278 7.27229C97.5659 6.82472 97.4347 6.37913 97.1602 6.02363C96.8856 5.66812 96.4877 5.42855 96.045 5.3523C91.4014 4.5529 86.698 4.15137 81.9862 4.1521C81.7506 4.1521 81.5174 4.19849 81.2998 4.28864C81.0821 4.37879 80.8844 4.51091 80.7178 4.67748C80.5512 4.84404 80.4191 5.04179 80.329 5.25942C80.2388 5.47705 80.1924 5.71032 80.1924 5.94588C80.1924 6.18145 80.2388 6.41471 80.329 6.63235C80.4191 6.84998 80.5512 7.04772 80.7178 7.21429C80.8844 7.38086 81.0821 7.51298 81.2998 7.60313C81.5174 7.69327 81.7506 7.7397 81.9862 7.7397H81.9901Z" fill="#016B86"/>
<path d="M129.211 114.087C128.451 114.133 127.692 113.987 127.003 113.664C126.314 113.341 125.716 112.85 125.266 112.237C124.23 110.442 123.763 108.376 123.925 106.311V99.6293C123.908 98.2534 124.08 96.8818 124.435 95.5525C124.709 94.4567 125.277 93.4565 126.078 92.6603C126.915 91.9122 128.014 91.5253 129.135 91.5838C129.885 91.577 130.626 91.738 131.305 92.055C131.974 92.3705 132.591 92.7842 133.137 93.2825V83.1713H138.27V113.747H133.137V112.199C132.595 112.751 131.971 113.216 131.287 113.578C130.647 113.914 129.934 114.088 129.211 114.087ZM131.098 110.538C131.421 110.529 131.74 110.466 132.042 110.35C132.423 110.21 132.79 110.033 133.137 109.821V95.8168C132.829 95.6121 132.5 95.441 132.155 95.3065C131.807 95.169 131.435 95.0988 131.061 95.0996C130.733 95.0818 130.408 95.1692 130.133 95.349C129.858 95.5288 129.648 95.7916 129.532 96.0992C129.223 96.8724 129.075 97.7008 129.098 98.5333V106.687C129.092 107.344 129.142 108.001 129.249 108.65C129.317 109.153 129.519 109.63 129.834 110.028C129.993 110.203 130.189 110.339 130.408 110.428C130.627 110.516 130.863 110.554 131.098 110.538Z" fill="#016B86"/>
<path d="M40.6639 113.208C37.9426 113.33 35.2402 112.7 32.854 111.385C30.8871 110.188 29.3721 108.374 28.5456 106.224C27.6065 103.73 27.1519 101.079 27.2062 98.4145V96.6287H35.9441V98.1594C35.9618 99.5523 36.1113 100.94 36.3906 102.305C36.5655 103.311 37.069 104.231 37.8224 104.92C38.6534 105.555 39.6854 105.869 40.729 105.804C41.805 105.887 42.8705 105.543 43.6954 104.847C44.422 104.073 44.8901 103.093 45.0348 102.041C45.2868 100.588 45.404 99.1147 45.385 97.6401C45.4903 95.4962 45.0633 93.3595 44.1419 91.4208C43.3123 89.9118 41.707 89.0935 39.3258 88.9659H37.8576V81.8862H39.1969C41.5356 81.8437 43.1513 81.2168 44.0443 80.0054C45.0772 78.2445 45.5447 76.2091 45.3837 74.174C45.4688 72.4184 45.1295 70.6681 44.3944 69.0715C44.0056 68.4318 43.4411 67.9174 42.7682 67.5895C42.0952 67.2615 41.3422 67.1339 40.5988 67.2219C39.8512 67.1391 39.0963 67.2912 38.439 67.6569C37.7818 68.0227 37.2546 68.5839 36.9308 69.2629C36.2509 70.9437 35.9145 72.7437 35.9415 74.5567V76.4701H27.2062V73.9826C27.131 71.3963 27.6661 68.8287 28.7682 66.4878C29.7582 64.4785 31.3509 62.8285 33.3239 61.768C35.5743 60.625 38.0759 60.066 40.5988 60.1422C43.1585 60.0586 45.6994 60.6062 47.9974 61.7367C49.9605 62.7664 51.5531 64.3832 52.5531 66.3615C53.6598 68.6778 54.1954 71.2255 54.1151 73.7913C54.226 76.433 53.5608 79.0494 52.2017 81.3174C51.0863 83.1494 49.3396 84.5104 47.2906 85.1443C48.6469 85.5669 49.8751 86.3238 50.8623 87.3453C51.9553 88.5095 52.7725 89.9046 53.2534 91.4273C53.8707 93.3974 54.1617 95.4551 54.1151 97.519C54.1694 100.308 53.7287 103.084 52.8135 105.719C52.023 107.971 50.523 109.905 48.5389 111.231C46.167 112.654 43.4266 113.342 40.6639 113.208ZM72.7495 113.144C69.9816 113.269 67.2489 112.485 64.9683 110.912C62.9306 109.369 61.4077 107.246 60.5999 104.821C59.6515 102.04 59.1875 99.1166 59.228 96.1783V78.0646C59.1903 74.9964 59.5767 71.9377 60.376 68.9752C61.023 66.4601 62.4524 64.2157 64.458 62.5659C66.8488 60.859 69.7537 60.0258 72.6857 60.206C75.2265 60.1038 77.7543 60.6183 80.053 61.7055C81.8952 62.6528 83.3661 64.1911 84.23 66.0738C85.1866 68.3081 85.6437 70.7242 85.5694 73.1535C85.5704 73.2925 85.5813 73.4312 85.6019 73.5687C85.6221 73.7062 85.6326 73.845 85.6332 73.9839H77.1465C77.2407 72.2225 76.958 70.4612 76.3173 68.8177C75.7611 67.6688 74.5718 67.0943 72.7495 67.0943C72.257 67.0732 71.7655 67.1529 71.3049 67.3283C70.8442 67.5038 70.4243 67.7714 70.0707 68.1148C69.2628 69.0659 68.7431 70.2278 68.5725 71.464C68.2102 73.5182 68.0485 75.6029 68.0896 77.6884V83.8752C68.7403 82.8456 69.6828 82.0331 70.797 81.5413C72.1288 80.942 73.5777 80.6476 75.0378 80.6796C77.3984 80.505 79.746 81.1591 81.6762 82.5292C83.3515 83.8944 84.5651 85.743 85.1516 87.823C85.8887 90.3279 86.2437 92.9297 86.2046 95.5405C86.2484 98.5965 85.8181 101.641 84.929 104.565C84.2014 107.04 82.7321 109.233 80.7195 110.847C78.398 112.489 75.5892 113.299 72.7495 113.144ZM72.8094 106.325C73.3337 106.359 73.859 106.273 74.345 106.073C74.8309 105.873 75.2647 105.565 75.6131 105.171C76.3231 104.239 76.7841 103.142 76.9525 101.982C77.2259 100.403 77.354 98.8017 77.3352 97.1988C77.3446 95.527 77.2703 93.8558 77.1126 92.1914C77.0389 90.9357 76.6314 89.7224 75.932 88.6769C75.5465 88.2168 75.0546 87.8577 74.4988 87.6309C73.9431 87.404 73.3403 87.3163 72.743 87.3753C72.0516 87.3691 71.3668 87.5107 70.7345 87.7905C70.1469 88.0476 69.6076 88.4033 69.14 88.8422C68.7339 89.2185 68.3802 89.6475 68.0883 90.1179V98.218C68.0785 99.5686 68.2178 100.916 68.5035 102.236C68.7148 103.339 69.2218 104.364 69.9705 105.201C70.3371 105.579 70.7798 105.874 71.2692 106.068C71.7586 106.262 72.2836 106.349 72.8094 106.325ZM105.784 112.442V99.75H90.3491V92.2239L103.807 60.78H114.075V92.7342H119.369V99.75H114.075V112.442H105.784ZM97.7411 92.7342H105.777V70.2834L97.7411 92.7342Z" fill="#016B86"/>
<path d="M122.292 184.555V133.769V133.758L122.291 133.747C122.267 132.115 122.56 130.519 123.163 129.003C123.766 127.486 124.648 126.124 125.786 124.955C126.923 123.785 128.26 122.865 129.759 122.22C131.255 121.576 132.839 121.239 134.467 121.216H166.327C167.955 121.239 169.539 121.576 171.035 122.22C172.534 122.865 173.871 123.785 175.009 124.955C176.146 126.124 177.029 127.486 177.631 129.003C178.234 130.519 178.527 132.115 178.503 133.747L178.503 133.758V133.769V162.171V162.182L178.503 162.193C178.527 163.825 178.234 165.421 177.631 166.937C177.029 168.453 176.146 169.815 175.009 170.985C173.871 172.155 172.534 173.075 171.035 173.72C169.539 174.363 167.955 174.701 166.327 174.724H132.476H131.844L131.403 175.177L122.292 184.555Z" fill="white"/>
<path d="M134.477 122.715C131.582 122.758 128.877 123.924 126.858 126C124.834 128.081 123.744 130.825 123.787 133.726L123.787 133.771L123.787 180.868L131.21 173.228H166.315C169.21 173.186 171.916 172.02 173.935 169.944C175.958 167.863 177.048 165.119 177.005 162.217L177.005 162.172L177.005 133.726C177.048 130.825 175.958 128.081 173.935 126C171.916 123.924 169.21 122.758 166.315 122.715H134.477ZM134.456 119.721H166.336C170.012 119.769 173.518 121.277 176.081 123.913C178.644 126.548 180.053 130.095 179.999 133.771V162.172C180.053 165.848 178.644 169.395 176.081 172.031C173.518 174.666 170.012 176.174 166.336 176.222H132.475L120.794 188.245L120.794 133.771C120.739 130.095 122.148 126.548 124.711 123.913C127.274 121.277 130.78 119.769 134.456 119.721Z" fill="#016B86"/>
<path d="M135.327 153.05V151.155C135.327 149.648 135.926 148.202 136.992 147.137C138.057 146.071 139.503 145.472 141.01 145.472H142.905C143.408 145.472 143.889 145.672 144.245 146.027C144.6 146.382 144.799 146.864 144.799 147.366V156.838C144.799 157.34 144.6 157.822 144.245 158.177C143.889 158.533 143.408 158.732 142.905 158.732H141.01C139.503 158.732 138.058 158.133 136.992 157.068C135.926 156.003 135.327 154.557 135.327 153.05ZM165.639 153.05V151.155C165.639 149.648 165.04 148.202 163.974 147.137C162.908 146.071 161.463 145.472 159.956 145.472H158.06C157.558 145.472 157.076 145.672 156.721 146.027C156.366 146.382 156.167 146.864 156.167 147.366V156.838C156.167 157.34 156.366 157.822 156.721 158.177C157.076 158.533 157.558 158.732 158.06 158.732H159.954C160.701 158.732 161.44 158.585 162.129 158.3C162.819 158.015 163.445 157.596 163.973 157.068C164.501 156.541 164.92 155.914 165.206 155.225C165.491 154.536 165.638 153.797 165.639 153.05Z" fill="white"/>
<path d="M135.324 153.052L134.967 149.264C134.764 147.104 135.014 144.924 135.701 142.866C136.388 140.807 137.498 138.915 138.958 137.31C140.419 135.705 142.198 134.423 144.183 133.545C146.168 132.667 148.314 132.213 150.484 132.213C152.654 132.213 154.8 132.667 156.784 133.545C158.769 134.423 160.548 135.706 162.009 137.311C163.469 138.916 164.578 140.808 165.266 142.866C165.953 144.925 166.203 147.104 166 149.264L165.639 153.052" stroke="#016B86" stroke-width="2.49983" stroke-linecap="round" stroke-linejoin="round"/>
<path d="M159.956 158.735V160.629C160.013 161.57 159.697 162.495 159.077 163.205C158.456 163.914 157.581 164.35 156.641 164.418H150.483" stroke="#016B86" stroke-width="2.49983" stroke-linecap="round" stroke-linejoin="round"/>
<path d="M135.327 153.05V151.155C135.327 149.648 135.926 148.202 136.992 147.137C138.057 146.071 139.503 145.472 141.01 145.472H142.905C143.408 145.472 143.889 145.672 144.245 146.027C144.6 146.382 144.799 146.864 144.799 147.366V156.838C144.799 157.34 144.6 157.822 144.245 158.177C143.889 158.533 143.408 158.732 142.905 158.732H141.01C139.503 158.732 138.058 158.133 136.992 157.068C135.926 156.003 135.327 154.557 135.327 153.05ZM165.639 153.05V151.155C165.639 149.648 165.04 148.202 163.974 147.137C162.908 146.071 161.463 145.472 159.956 145.472H158.06C157.558 145.472 157.076 145.672 156.721 146.027C156.366 146.382 156.167 146.864 156.167 147.366V156.838C156.167 157.34 156.366 157.822 156.721 158.177C157.076 158.533 157.558 158.732 158.06 158.732H159.954C160.701 158.732 161.44 158.585 162.129 158.3C162.819 158.015 163.445 157.596 163.973 157.068C164.501 156.541 164.92 155.914 165.206 155.225C165.491 154.536 165.638 153.797 165.639 153.05Z" stroke="#016B86" stroke-width="2.49983" stroke-linecap="round" stroke-linejoin="round"/>
</svg>
