<svg width="180" height="178" viewBox="0 0 180 178" fill="none" xmlns="http://www.w3.org/2000/svg">
<path d="M11.9084 39.5012H171.462L177.441 46.6312V136.946L126.962 163.991H11.9084L6.86798 161.002L1.97559 155.482V47.9678L4.59615 42.4677L8.91487 39.4969L11.9084 39.5012Z" fill="white"/>
<path d="M51.1758 27.4669V43.3071H74.3268V26.8577H68.8437V18.3284L73.1084 14.0637L90.7763 18.3284L106.616 14.0637C108.038 15.0791 110.881 17.3536 110.881 18.3284V26.8577H104.789V42.0887H129.158V26.8577H123.066V18.3284C123.066 12.236 116.974 3.09741 107.835 3.09741H73.1084C63.3605 3.09741 56.0497 12.236 56.0497 20.1561V27.4669H51.1758Z" fill="white"/>
<path d="M19.5156 163.989V32.1635L23.3589 28.723H35.2817L38.5741 32.1635V163.989H19.5156Z" fill="white"/>
<path d="M141.318 97.4684V31.6384L145.204 29.3965H156.777L159.724 33.5245V99.7146L148.105 92.9062L141.318 97.4684Z" fill="white"/>
<path d="M117.545 103.197L129.821 98.9653L147.799 90.3862L162.087 98.9653L172.068 103.197H177.809V134.456L174.043 151.842L164.567 165.238L154.678 173.446L147.799 175.833L134.027 169.058L126.278 159.967L120.242 148.35L117.545 139.109V103.197Z" fill="white"/>
<path d="M132.35 140.92C131.866 140.919 131.402 140.726 131.059 140.384C130.717 140.041 130.525 139.577 130.525 139.093V117.847C130.519 117.503 130.618 117.165 130.808 116.877C130.998 116.59 131.27 116.367 131.589 116.237L143.815 110.128C144.215 109.914 144.683 109.868 145.117 110C145.551 110.131 145.915 110.43 146.128 110.829C146.342 111.229 146.388 111.698 146.257 112.131C146.125 112.565 145.826 112.929 145.427 113.143L134.174 118.929V139.093C134.174 139.577 133.982 140.041 133.64 140.384C133.297 140.726 132.834 140.919 132.35 140.92Z" fill="#016B86"/>
<path d="M147.521 177.34C147.297 177.339 147.076 177.285 146.878 177.18L146.746 177.109L145.386 176.77C141.304 175.4 137.452 173.418 133.964 170.893C131.957 169.28 130.082 167.51 128.356 165.599L127.996 165.2H13.6651C10.0447 165.188 6.57609 163.744 4.01607 161.184C1.45606 158.624 0.0123813 155.156 0 151.535V50.7556C0.0116353 47.135 1.45507 43.666 4.01525 41.1058C6.57542 38.5457 10.0444 37.1022 13.6651 37.0906H18.22V33.5661C18.298 32.0545 18.9367 30.6263 20.0115 29.5605C21.0862 28.4947 22.5198 27.8679 24.032 27.8026H33.9961C35.5613 27.812 37.0634 28.4207 38.1936 29.5036C39.3239 30.5864 39.9964 32.0611 40.0728 33.6245V37.0877H48.5636V24.9472H54.636V20.3922C54.6574 15.1641 56.7443 10.1563 60.4419 6.46029C64.1396 2.76425 69.1482 0.679513 74.3763 0.6604H105.329C110.556 0.682135 115.563 2.76834 119.259 6.46464C122.955 10.1609 125.041 15.1679 125.062 20.395V24.95H131.132V37.092H139.63V33.5676C139.708 32.056 140.346 30.6277 141.421 29.5619C142.496 28.4961 143.929 27.8693 145.442 27.804H155.406C156.971 27.8138 158.473 28.4227 159.602 29.5055C160.732 30.5883 161.405 32.0628 161.481 33.6259V37.0892H166.335C169.955 37.1012 173.424 38.5447 175.984 41.1048C178.544 43.6649 179.988 47.1337 180 50.7542V129.974C180 146.828 173.267 161.366 161.041 170.908C157.782 173.372 154.132 175.27 150.243 176.523L149.584 176.776L148.303 177.096L148.17 177.167C147.971 177.277 147.749 177.336 147.521 177.34ZM137.88 98.3385C132.228 101.136 126.205 103.113 119.995 104.21L118.998 104.388V129.987C118.998 130.424 118.998 130.858 119.014 131.295L119.06 132.576L119.126 133.749C119.676 144.188 123.686 154.145 130.523 162.052L132.612 164.591C133.824 165.798 135.108 166.93 136.456 167.982C139.503 170.208 142.888 171.931 146.481 173.085L147.538 173.492L147.985 173.306C148.609 173.045 149.232 172.794 149.853 172.544C152.976 171.459 155.923 169.919 158.596 167.973C169.681 159.349 176.049 145.503 176.049 129.997V104.375L175.021 104.219C170.957 103.596 166.971 102.543 163.129 101.077L161.485 100.449V100.549L158.923 99.453C155.206 97.7152 151.615 95.7174 148.179 93.4746L147.543 93.0603L142.339 96.1805L139.618 97.631V97.4802L137.88 98.3385ZM119.008 100.588L120.4 100.347C126.923 99.2221 133.211 97.0117 139.002 93.8077L139.627 93.4632V40.7531H40.077V161.551H124.991L123.791 159.685C118.877 152.032 116.02 143.243 115.494 134.164L115.484 133.986C115.445 133.428 115.416 132.867 115.397 132.305L115.383 131.932C115.361 131.261 115.349 130.629 115.349 129.992V101.153L119.008 100.588ZM13.6636 40.7531C11.0094 40.758 8.46532 41.8147 6.58864 43.6916C4.71195 45.5686 3.65565 48.1128 3.65113 50.767V151.841C3.70562 154.442 4.77965 156.917 6.64185 158.734C8.50405 160.55 11.0053 161.562 13.6067 161.552H18.2144V40.7517L13.6636 40.7531ZM161.485 96.2204L162.211 96.5378C164.122 97.3719 166.093 98.1164 168.07 98.7541C170.326 99.4193 172.62 99.9516 174.938 100.348L176.353 100.59V50.7699C176.348 48.1155 175.292 45.5713 173.415 43.6943C171.538 41.8174 168.994 40.7608 166.339 40.7559H161.485V96.2204ZM157.838 33.3981L157.786 33.2245C157.661 32.8206 157.439 32.4535 157.139 32.1556C156.84 31.8577 156.471 31.6382 156.066 31.5164L155.895 31.4637H145.647C145.134 31.4867 144.641 31.6635 144.231 31.971C143.82 32.2784 143.512 32.7024 143.346 33.1875L143.281 33.3811V91.6369L145.349 89.57C145.482 89.4557 145.625 89.3533 145.776 89.264C145.993 89.1247 146.202 88.9731 146.401 88.8099L147.444 88.2875L147.685 88.4484L147.836 88.3473L148.983 89.1131C151.545 90.8213 153.789 92.2105 156.039 93.4674L157.841 94.4739L157.838 33.3981ZM106.852 37.0991H127.485V28.6068H106.854L106.852 37.0991ZM52.2161 37.0991H72.8489V28.6068H52.2176L52.2161 37.0991ZM36.4259 33.3981L36.3732 33.2245C36.2487 32.8206 36.0267 32.4535 35.7269 32.1556C35.427 31.8577 35.0585 31.6382 34.6537 31.5164L34.4829 31.4637H23.8071L23.6362 31.5164C23.2317 31.6383 22.8634 31.8579 22.5638 32.1558C22.2642 32.4536 22.0424 32.8207 21.9181 33.2245L21.8655 33.3981V161.551H36.4273L36.4259 33.3981ZM76.4972 37.0991H103.201V24.9586H109.273V18.8079L109.262 18.7253C109.16 18.0024 108.825 17.3325 108.307 16.8179L107.954 16.4663H107.641L107.602 16.4478C107.204 16.2215 106.756 16.0946 106.298 16.0777C105.985 16.0773 105.676 16.1505 105.396 16.2912C100.556 18.3162 95.3606 19.356 90.114 19.3502C84.8673 19.3443 79.6745 18.2928 74.8389 16.2571C74.4594 16.1174 74.059 16.0428 73.6546 16.0364C73.2848 16.0103 72.9151 16.0889 72.5878 16.2631C72.2606 16.4373 71.989 16.7001 71.8041 17.0215L71.7757 17.0385C71.4064 17.1986 71.0868 17.4547 70.85 17.7801C70.6132 18.1055 70.4678 18.4884 70.4291 18.889V24.9557H76.4987L76.4972 37.0991ZM106.189 12.5917C107.486 12.5923 108.761 12.9292 109.89 13.5696C110.807 14.1265 111.567 14.9085 112.097 15.8415C112.627 16.7744 112.91 17.8274 112.919 18.9004V24.9586H121.42V20.4035C121.406 16.1418 119.707 12.0586 116.693 9.04515C113.68 6.03165 109.596 4.33254 105.335 4.31866H74.3763C70.1146 4.33254 66.0314 6.03165 63.0179 9.04515C60.0044 12.0586 58.3053 16.1418 58.2914 20.4035V24.9586H66.7822V18.8919C66.7293 17.8342 66.9583 16.7814 67.4458 15.8413C67.9332 14.9012 68.6616 14.1074 69.5565 13.5411C70.4206 12.89 71.4495 12.4934 72.527 12.3961C73.6045 12.2987 74.6878 12.5046 75.6545 12.9903C80.0857 14.8726 84.8498 15.8455 89.6642 15.8514C94.4785 15.8572 99.245 14.8959 103.681 13.0244C104.486 12.7384 105.335 12.593 106.19 12.5945L106.189 12.5917Z" fill="#016B86"/>
</svg>
