<svg width="232" height="98" viewBox="0 0 232 98" fill="none" xmlns="http://www.w3.org/2000/svg">
<g clip-path="url(#clip0_687_4707)">
<path d="M134.533 97.8583H91.9971L116.268 0H158.803L134.533 97.8583Z" fill="#101987"/>
<path d="M45.4712 35.5577C48.4415 23.4918 42.211 17.727 32.2233 17.727H15.028L0 78.7692H8.29455L21.2398 26.1945H28.6119C34.4945 26.1945 39.2399 27.1844 37.2653 35.1949C35.2908 43.2055 30.745 45.0073 24.0592 45.0073H20.6336L32.6163 78.7701H42.2554L31.8678 51.2886C38.6908 49.352 43.6945 42.7883 45.4712 35.5577Z" fill="#101987"/>
<path d="M67.7618 42.6682H88.6802L86.5948 51.133H65.6807L60.9593 70.3086H83.1838L81.0984 78.7735H50.5811L65.6091 17.7313H94.8135L92.7265 26.1962H71.8192L67.7618 42.6682Z" fill="#101987"/>
<path d="M161.947 78.7692H153.709L168.833 17.727H177.078L161.947 78.7692Z" fill="#101987"/>
<path d="M232 17.7279H222.256L206.346 37.9451L198.826 17.7279H189.163L199.758 46.3115L174.211 78.7691H183.876L202.864 54.6883L211.792 78.7691H221.536L209.461 46.3167L232 17.7279Z" fill="#101987"/>
<path d="M174.982 96.5325C178.265 96.1706 179.996 93.6441 181.06 91.5563L181.878 92.0323C180.816 93.9438 178.764 97.6467 173.623 97.8394L175.754 89.2751H176.784L174.982 96.5325Z" fill="#101987"/>
<path d="M188.168 91.6186C187.49 91.1552 186.759 90.7781 185.99 90.4957L186.679 89.4168C187.454 89.6954 188.197 90.0571 188.895 90.4957L188.168 91.6186ZM186.9 94.0043C186.225 93.5164 185.493 93.1168 184.72 92.8149L185.397 91.7473C186.169 92.0229 186.906 92.3915 187.592 92.8451L186.9 94.0043ZM191.094 90.6036C191.139 90.0527 191.139 89.4988 191.094 88.9478L191.861 88.7638C191.933 89.3049 191.948 89.852 191.908 90.3964L191.094 90.6036ZM192.436 90.386C192.46 89.8607 192.438 89.3344 192.37 88.8131L193.123 88.6291C193.194 89.1334 193.229 89.6424 193.226 90.1519L192.436 90.386ZM184.292 96.5394C187.694 96.2268 189.487 95.0529 191.654 90.9509L192.478 91.4432C190.316 95.3423 188.352 97.2546 184.235 97.7763L184.292 96.5394Z" fill="#101987"/>
<path d="M196.266 94.3843C196.349 93.5783 196.323 92.7646 196.188 91.9658L197.088 91.6781C197.242 92.483 197.293 93.3044 197.242 94.1226L196.266 94.3843ZM198.251 94.0034C198.362 93.2015 198.367 92.3881 198.265 91.5848L199.165 91.3395C199.301 92.1344 199.311 92.946 199.196 93.7443L198.251 94.0034ZM195.617 97.0568C198.546 96.4582 199.837 95.084 201.311 91.4553L202.217 91.6496C201.098 94.2003 199.877 96.9851 195.763 98L195.617 97.0568Z" fill="#101987"/>
<path d="M213.569 90.4378C212.887 92.1653 210.918 97.1924 205.397 97.981L205.244 96.9341C208.235 96.4392 210.243 95.1686 211.984 91.527H208.84C208.059 92.4474 207.146 93.2438 206.132 93.8894L205.698 93.0161C207.334 92.0633 208.673 90.6645 209.563 88.9789L210.586 89.2242C210.359 89.6546 210.089 90.0611 209.782 90.4378H213.569Z" fill="#101987"/>
<path d="M215.181 96.8841C217.98 95.5989 220.298 93.4367 221.793 90.7159H217.211L217.494 89.593H223.41C222.719 91.15 221.792 92.5884 220.663 93.8566C221.462 94.8278 222.202 95.8469 222.88 96.9082L221.814 97.8869C221.26 96.7764 220.599 95.7238 219.842 94.7445C218.61 96.0353 217.155 97.0868 215.55 97.8472L215.181 96.8841Z" fill="#101987"/>
<path d="M142.247 18.0466C139.621 14.4188 135.094 12.4995 129.16 12.4995C109.477 12.4995 101.978 32.5319 98.0415 47.5985C94.8478 59.8424 92.6004 72.1294 97.7243 79.1095C100.277 82.5922 104.481 84.356 110.216 84.356H110.49C130.172 84.356 137.678 64.3236 141.608 49.2544C141.771 48.6371 141.93 48.018 142.085 47.3973V47.3316H117.735L115.453 55.7378H130.523C127.503 65.2703 122.339 75.9732 111.899 75.7771C111.728 75.7711 111.527 75.7771 111.346 75.7771V75.7857C111.223 75.7857 111.104 75.7857 110.98 75.7771C108.413 75.6484 106.59 74.7665 105.409 73.077C104.228 71.3875 103.789 68.9914 103.789 66.28C103.619 57.9231 106.402 48.6204 106.773 47.1822L106.767 47.2375C108.234 41.4206 110.459 35.8279 113.386 30.6075C116.51 25.0794 120.968 20.9454 127.74 21.0741C130.789 21.1397 132.964 22.0424 134.199 23.7518C135.756 25.8965 136.19 29.349 135.021 34.0228L134.731 35.1966H143.774L143.96 34.5177C145.841 27.6767 145.094 21.9793 142.247 18.0466Z" fill="white"/>
</g>
<defs>
<clipPath id="clip0_687_4707">
<rect width="232" height="98" fill="white"/>
</clipPath>
</defs>
</svg>
